<mxfile host="app.diagrams.net" agent="Mozilla/5.0 (Windows NT 10.0; Win64; x64) AppleWebKit/537.36 (KHTML, like Gecko) Chrome/130.0.0.0 Safari/537.36 Edg/130.0.0.0" version="24.8.4">
  <diagram name="System Architecture" id="voBx-c4OzrMSTrLwkRnE">
    <mxGraphModel dx="978" dy="536" grid="0" gridSize="10" guides="1" tooltips="1" connect="1" arrows="1" fold="1" page="1" pageScale="1" pageWidth="850" pageHeight="1100" background="none" math="0" shadow="0">
      <root>
        <mxCell id="nHaoqEoDhKHUos_NXYBT-0" />
        <mxCell id="nHaoqEoDhKHUos_NXYBT-1" parent="nHaoqEoDhKHUos_NXYBT-0" />
        <mxCell id="nHaoqEoDhKHUos_NXYBT-2" value="" style="html=1;verticalLabelPosition=bottom;align=center;labelBackgroundColor=#ffffff;verticalAlign=top;strokeWidth=2;strokeColor=#0080F0;shadow=0;dashed=0;shape=mxgraph.ios7.icons.data;" vertex="1" parent="nHaoqEoDhKHUos_NXYBT-1">
          <mxGeometry x="148.5" y="57" width="65" height="81" as="geometry" />
        </mxCell>
        <mxCell id="nHaoqEoDhKHUos_NXYBT-3" value="&lt;h2&gt;&lt;span data-teams=&quot;true&quot;&gt;&lt;span style=&quot;font-weight: normal;&quot; dir=&quot;ltr&quot; class=&quot;ui-provider a b c d e f g h i j k l m n o p q r s t u v w x y z ab ac ae af ag ah ai aj ak&quot;&gt;&lt;font style=&quot;font-size: 16px;&quot;&gt;Industrial Control System&lt;/font&gt;&lt;/span&gt;&lt;/span&gt;&lt;/h2&gt;" style="text;html=1;align=center;verticalAlign=middle;resizable=0;points=[];autosize=1;strokeColor=none;fillColor=none;" vertex="1" parent="nHaoqEoDhKHUos_NXYBT-1">
          <mxGeometry x="91" width="197" height="63" as="geometry" />
        </mxCell>
        <mxCell id="nHaoqEoDhKHUos_NXYBT-4" value="" style="endArrow=classic;html=1;rounded=0;" edge="1" parent="nHaoqEoDhKHUos_NXYBT-1">
          <mxGeometry width="50" height="50" relative="1" as="geometry">
            <mxPoint x="213.5" y="101" as="sourcePoint" />
            <mxPoint x="323.5" y="101" as="targetPoint" />
          </mxGeometry>
        </mxCell>
        <mxCell id="nHaoqEoDhKHUos_NXYBT-6" value="&lt;h2&gt;&lt;font style=&quot;&quot;&gt;&lt;span style=&quot;font-weight: bold; font-size: 16px;&quot;&gt;KAFKA&amp;nbsp;&lt;/span&gt;&lt;br&gt;&lt;div style=&quot;text-align: left;&quot;&gt;&lt;span style=&quot;font-size: 13px; font-weight: normal; background-color: initial;&quot;&gt;Producer&lt;/span&gt;&lt;/div&gt;&lt;/font&gt;&lt;/h2&gt;" style="text;html=1;align=center;verticalAlign=middle;resizable=0;points=[];autosize=1;strokeColor=none;fillColor=none;" vertex="1" parent="nHaoqEoDhKHUos_NXYBT-1">
          <mxGeometry x="311.48" y="134" width="78" height="85" as="geometry" />
        </mxCell>
        <mxCell id="nHaoqEoDhKHUos_NXYBT-7" value="" style="endArrow=classic;html=1;rounded=0;entryX=0.5;entryY=0;entryDx=0;entryDy=0;" edge="1" parent="nHaoqEoDhKHUos_NXYBT-1" target="nHaoqEoDhKHUos_NXYBT-13">
          <mxGeometry width="50" height="50" relative="1" as="geometry">
            <mxPoint x="366.50000000000006" y="101.5" as="sourcePoint" />
            <mxPoint x="476.50000000000006" y="101.5" as="targetPoint" />
            <Array as="points">
              <mxPoint x="550" y="102" />
            </Array>
          </mxGeometry>
        </mxCell>
        <mxCell id="nHaoqEoDhKHUos_NXYBT-8" value="" style="html=1;verticalLabelPosition=bottom;align=center;labelBackgroundColor=#ffffff;verticalAlign=top;strokeWidth=2;strokeColor=#0080F0;shadow=0;dashed=0;shape=mxgraph.ios7.icons.settings;" vertex="1" parent="nHaoqEoDhKHUos_NXYBT-1">
          <mxGeometry x="473" y="210.38" width="57" height="53.25" as="geometry" />
        </mxCell>
        <mxCell id="nHaoqEoDhKHUos_NXYBT-9" value="&lt;h2&gt;&lt;font style=&quot;&quot;&gt;&lt;span style=&quot;font-weight: bold; font-size: 16px;&quot;&gt;Zookeeper&amp;nbsp;&lt;/span&gt;&lt;/font&gt;&lt;/h2&gt;" style="text;html=1;align=center;verticalAlign=middle;resizable=0;points=[];autosize=1;strokeColor=none;fillColor=none;" vertex="1" parent="nHaoqEoDhKHUos_NXYBT-1">
          <mxGeometry x="450" y="245" width="103" height="63" as="geometry" />
        </mxCell>
        <mxCell id="nHaoqEoDhKHUos_NXYBT-10" value="" style="verticalLabelPosition=bottom;html=1;verticalAlign=top;align=center;strokeColor=none;fillColor=#00BEF2;shape=mxgraph.azure.cloud_services_configuration_file;pointerEvents=1;" vertex="1" parent="nHaoqEoDhKHUos_NXYBT-1">
          <mxGeometry x="595" y="219" width="28" height="35" as="geometry" />
        </mxCell>
        <mxCell id="nHaoqEoDhKHUos_NXYBT-11" value="" style="endArrow=classic;html=1;rounded=0;entryX=0;entryY=0.5;entryDx=0;entryDy=0;entryPerimeter=0;" edge="1" parent="nHaoqEoDhKHUos_NXYBT-1" target="nHaoqEoDhKHUos_NXYBT-10">
          <mxGeometry width="50" height="50" relative="1" as="geometry">
            <mxPoint x="530" y="236.5" as="sourcePoint" />
            <mxPoint x="560" y="237" as="targetPoint" />
          </mxGeometry>
        </mxCell>
        <mxCell id="nHaoqEoDhKHUos_NXYBT-12" value="&lt;h2&gt;&lt;font style=&quot;&quot;&gt;&lt;span style=&quot;font-weight: bold; font-size: 16px;&quot;&gt;KAFKA&amp;nbsp;&lt;/span&gt;&lt;br&gt;&lt;div style=&quot;text-align: left;&quot;&gt;&lt;span style=&quot;font-size: 13px; font-weight: 400;&quot;&gt;Topics&lt;/span&gt;&lt;/div&gt;&lt;/font&gt;&lt;/h2&gt;" style="text;html=1;align=center;verticalAlign=middle;resizable=0;points=[];autosize=1;strokeColor=none;fillColor=none;" vertex="1" parent="nHaoqEoDhKHUos_NXYBT-1">
          <mxGeometry x="570" y="236" width="78" height="85" as="geometry" />
        </mxCell>
        <mxCell id="nHaoqEoDhKHUos_NXYBT-13" value="" style="swimlane;startSize=0;" vertex="1" parent="nHaoqEoDhKHUos_NXYBT-1">
          <mxGeometry x="451" y="199" width="197" height="104" as="geometry" />
        </mxCell>
        <mxCell id="nHaoqEoDhKHUos_NXYBT-28" value="" style="swimlane;startSize=0;shadow=0;rounded=1;glass=1;" vertex="1" parent="nHaoqEoDhKHUos_NXYBT-1">
          <mxGeometry x="426.45" y="382" width="257" height="123" as="geometry" />
        </mxCell>
        <mxCell id="nHaoqEoDhKHUos_NXYBT-29" value="" style="sketch=0;outlineConnect=0;fontColor=#232F3E;gradientColor=none;fillColor=#232F3D;strokeColor=none;dashed=0;verticalLabelPosition=bottom;verticalAlign=top;align=center;html=1;fontSize=12;fontStyle=0;aspect=fixed;pointerEvents=1;shape=mxgraph.aws4.data_stream;" vertex="1" parent="nHaoqEoDhKHUos_NXYBT-28">
          <mxGeometry x="171" y="21.5" width="61" height="61" as="geometry" />
        </mxCell>
        <mxCell id="nHaoqEoDhKHUos_NXYBT-30" value="pipelines processing" style="verticalLabelPosition=bottom;aspect=fixed;html=1;shape=mxgraph.salesforce.stream2;verticalAlign=top;gradientColor=none;strokeWidth=9;strokeColor=none;" vertex="1" parent="nHaoqEoDhKHUos_NXYBT-28">
          <mxGeometry x="28" y="20" width="64" height="64" as="geometry" />
        </mxCell>
        <mxCell id="nHaoqEoDhKHUos_NXYBT-31" value="" style="endArrow=classic;html=1;rounded=0;textDirection=rtl;" edge="1" parent="nHaoqEoDhKHUos_NXYBT-28">
          <mxGeometry width="50" height="50" relative="1" as="geometry">
            <mxPoint x="105" y="41" as="sourcePoint" />
            <mxPoint x="158" y="42" as="targetPoint" />
          </mxGeometry>
        </mxCell>
        <mxCell id="nHaoqEoDhKHUos_NXYBT-32" value="" style="endArrow=classic;html=1;rounded=0;textDirection=rtl;" edge="1" parent="nHaoqEoDhKHUos_NXYBT-28">
          <mxGeometry width="50" height="50" relative="1" as="geometry">
            <mxPoint x="157.5" y="61.22" as="sourcePoint" />
            <mxPoint x="99.5" y="61.56883720930236" as="targetPoint" />
          </mxGeometry>
        </mxCell>
        <mxCell id="nHaoqEoDhKHUos_NXYBT-33" value="Spark Streaming" style="text;html=1;align=center;verticalAlign=middle;resizable=0;points=[];autosize=1;strokeColor=none;fillColor=none;" vertex="1" parent="nHaoqEoDhKHUos_NXYBT-28">
          <mxGeometry x="145.5" y="87" width="107" height="26" as="geometry" />
        </mxCell>
        <mxCell id="nHaoqEoDhKHUos_NXYBT-34" value="" style="endArrow=classic;html=1;rounded=0;" edge="1" parent="nHaoqEoDhKHUos_NXYBT-1">
          <mxGeometry width="50" height="50" relative="1" as="geometry">
            <mxPoint x="553.0003555332997" y="303" as="sourcePoint" />
            <mxPoint x="552" y="381" as="targetPoint" />
            <Array as="points">
              <mxPoint x="551.6" y="375.18" />
            </Array>
          </mxGeometry>
        </mxCell>
        <mxCell id="nHaoqEoDhKHUos_NXYBT-42" value="" style="shape=image;verticalLabelPosition=bottom;labelBackgroundColor=default;verticalAlign=top;aspect=fixed;imageAspect=0;image=data:image/png,iVBORw0KGgoAAAANSUhEUgAAAgUAAAHjCAYAAACzaWwPAAAAAXNSR0IArs4c6QAAIABJREFUeF7svQmcHFW1P36qqtfZZ5LJJJOEBLIAgQAJhMWwr0JAQEBAQBQRXP4iKu6oz/cUnz719/SpT5HNXUE2eewgO2FfQxIgG2QjmcmsvS9Vf77n1umu7ume7slkmZnc4hOmZ7q66ta51XW+95zv+R6D9KYtoC2gLaAtoC2gLaAtQESGtoK2gLaAtoC2gLaAtoC2ACygQYG+D7QFtAW0BbQFtAW0BdgCGhToG0FbQFtAW0BbQFtAW0CDAn0PaAtoC2gLaAtoC2gL5C2gIwX6btAW0BbQFtAW0BbQFtCRAn0PaAtoC2gLaAtoC2gL6EiBvge0BbQFtAW0BbQFtAWKLKDTB/qW0BbQFtAW0BbQFtAW0OkDfQ9oC2gLaAtoC2gLaAvo9IG+B7QFtAW0BbQFtAW0BXT6QN8D2gLaAtoC2gLaAtoCpSygOQX6vtAWGB0WMNrb28N9fX21gUAgZJpmOJPJ1OBnNpvFz6DjOD4i8pmm6XMcxyQiyxUoyxqGkbFtGz/TRITXScuyYo7jRG3bjgYCgVgmk4l3d3fHiAj76E1bQFtgF7SABgW74KTrSx49FqitrZ1IRAfYtr1XMpmcYtt2MxHVEVGN+y9MRPgXBCDw/CsABQACRJR1HT5ep4goZhhGFMCAiCJE1GeaZrff79/k8/neDgaDb3R1dW10Pzt6jKZHqi2gLbDVFtCgYKtNpz+oLbD9LNDS0jI1m82e2tfXd7xhGHs6jjPRcZxa1+mbhmEYjuMM+/trGAY5joMLsT2gIWaa5mbDMFb7/f4XQ6HQHT09Pa+572+/i9ZH1hbQFtjpFhj2Q2WnX4EegLbAGLJAe3t7TXd39ymJROLjjuMcSETjXSCQu0qPI99mV45jyuaCBPyKyAIiCCtN07yjpaXlvzs7O/u32Un1gbQFtAVGnAU0KBhxU6IHtKtaoK2tbsKWLbFPZzL2JUTU7oIB9zuKbMDAzeAF/tZvDpU+rgocqM0wDNtNMTwWDAa/lEwm3976M+pPagtoC4xkC2hQMJJnR49tl7EA0gX9/b1fTaezn3C5AsgQSGifqIzz3kGggAzDIdumrGHQC/X14Sv6+uIvuCmHXWaO9IVqC+wKFtCgYFeYZX2NI9oCdXV1rbFY5Erbpi8QEXgDg2zFK/vhRQoGgo3Sx/MAFJAUn6ypqflqLBZ7UQODEX1r6cFpCwzZAhoUDNlk+gPaAtvOAnPmzAmsWrXqokQi8Z/gD0hu35PXLzrZjgUF3miF53XSNOn2QCD0rUQisWrbWUMfSVtAW2BnW0CDgp09A/r8u7QF6urq9o3Fon+2bWc/OF3TNCmbBb+Pc/me9EGxmQQcbKtIQcUIAQ8A48Nm23bn+1GN/2ptbf11R0cHyIh60xbQFhgDFtCgYAxMor6E0WsBn8/8eSZjf9YVHWIQIFECOGDbLuf0dwwoEHCCnzIuFc1w8Otz9fX1X+rv73969M6AHrm2gLaA1wIaFOj7QVtgJ1mgubl5t+7u7sVupcGAyMDgoMAd9HC/wSxRMPhWLqVhmmb8/bLFb0+cOPF/N2zYACVEvWkLaAuMcgsM95Eyyi9fD19bYOdZwO/3fyGdTv/UlSNmUOBdkVc1suF+gyuAgmJOQVHEAOGCu1tbW7/U0dGhyxSrmjC9k7bAyLbAcB8pI/vq9Oi0BUauBRD/v4eITnT7Eww6Ui9gwGufz0fp9MAWBcAV+AeRQiVUqH5XznzgKYp5CzhuJoMCA8UfKJ++UMeyLGu9YRgfy2Qyj+AUI9fcemTaAtoC1VhAg4JqrKT30RbYxhZAT4NoNPoEEc0c7NBw0nDMpZyzR4SwpMMvPq53f3nPCxQEIAAMyOtKoICIkkT0+enTp/9xzZo1iW1sJn04bQFtgR1sAQ0KdrDB9em0BWCBYDB4QjKZ/BuR2aIsUr6KQFbs+GlZVi5CgEIA5iG60YHiaIBEDLwWx2e8UQSs7WW/UChEiUSCoxDlgEj+WHmio2maP9ltt91+sGbNmh49u9oC2gKj2wIaFIzu+dOjH6UWCIVC30gmk99yHMMVK6oMCuRS4bz9fov8fj+RYbMTx2spF/RqHMiK3/s3OHyUPXLpo2NyVUEkEuO0Ad6rrrdCHhRYlvV/zc3Nl3d2dm4YpdOhh60toC3gWkCDAn0raAvseAsYgUDg+nQ6fYHjGIHC0xeCg1Lkw4MOmk977rknBQIBqq+roUDAT+FwGNEHBgcACfgnkQU4e/AP5F8qlaJkMknpdIZ6+yIMDlauXElPPvl0ASBAVEI0EwZGCNRfIH9MRMsaGhpO6+3tXbnjTanPqC2gLbAtLaBBwba0pj6WtkB1FggbhnGb4zgnEJnWYKDA+x4AQl1dDZ199tm0cOFCsnwGGY6Tq1qQkH85HgCcvJcvwJoIhkGW6afly5fTj370IzIMi6MF1SoqAhQ4jrM5EAgcn0qlXq/u8vVe2gLaAiPVAhoUjNSZ0eMasxYIh8NT4vH4rUR0EDj+pS80HzGQigDk/sePH0fnnnsuzZs3j2wnw22SzMKOhgwSxPl7HbwII8lP2/1kMBCmzs5O+ta3vkWplKpoAO+gmoZMLhcCGgWnEtFjuhfCmL1t9YXtIhbQoGAXmWh9mSPHAuFw+AOJROJGIprlYKlecsuDgmDQT8lkmgmB06dPo3PPO4fTB04Wbh3h+4F8BHH8cOySgiiOOig4gT6LDqcWvvPtf2NwICKKSEXkyx5LYxdFduRPXEpEfyQiVc+oN20BbYFRaQENCkbltOlBj2YLNDQ0XNDX1/djUTIseS3yzfRU/hsm0d57zqLzzjuXpk2bRtl0umycoVr7IF2QsW12/tdffwO9+PIrDApMI1/ZoEIHgx/R5/P998SJE7+5bt06qBzqTVtAW2CUWkCDglE6cXrYo9cCdXV1V0ej0S8bhtFUVgegGBQYKtFw4Lz9OX3Q1jqOqwVKRQG2xjLJdJZuvfVWeuChR/njqruBR1apDCjwpCoeaWpqOr2zs7N/a86vP6MtoC0wMiygQcHImAc9il3HApZpmv9r2/bHIFdQ9rJLgAKfj+iYo45iomE46K+oNliNSZFmAP8glbHpqaeeopv+8Bf1MQEBJSIWZY77DhEdQkSbqjmv3kdbQFtgZFpAg4KROS96VGPUAm1tbbWbNm26jojOsizLP7Dkz73wEqAgFPLRaYsW0amnnkp2JsXOvHyVQHUGFFCQzjq0YsUK+vFPfqY4BSJqJIcZJH3gEhK7iegDRLS8ujPrvbQFtAVGogU0KBiJs6LHNGYtUFdX1xqJRK4FW9+yLF+1oAB8goaGWjr7wx+mo446ilKJGGsSDBcUwNBw6gAFW7Zsoe9fcw3198erBgWe9EXMcZwPEhGkm/WmLaAtMEotoEHBKJ04PezRaYH6+vrZ/f39//O+8zxOuiOWvJISkYL29gl07jnn0P7770+ZVGKbgAIpO8w6BvX399PP/+d/aPXqtVWDAs/Y0QPhIiK6ZXTOjB61toC2AC8StBm0BUaZBay2trZQMpn0G4bh1NbWptatW5ciouwouA5fbW3tcfF4/BrDMA7IZrNlNApKEPwMotmz96DzPvIR2n333YnsbUMyRAqCCYuWn0HBn//6V3ruuRfJkSrHCpwC6ctgWVbGcZzv27Z9DRENbN84Aidn5syZwS1btoSy2Sx4HnZdXV1y3bp1ADflNadH4HXoIWkLbEsLaFCwLa2pj7VdLDB+/Pj6TCYzI51Oz0smkzMymUwTEYXch3fCNM0twWBweV1d3YsdHR2rRthD3Whvbw9Ho9FJ6XR6n1gsdgYRnWaa5jjbtst//9x3vFUAc+fuTR897zyaOHEiKwxIn4LhGF1AgekLUF9fH/3fPffQww//i2y0Raii+qCovfLLRPS7mpqaFyzLWt3f348GSSNJt8BsbW2dkE6n904mk/vF4/EpRFRvmqbftnHFFCWijpqamqV+v//V3t7eNZWLMYdjff1ZbYGRZwENCkbenOgRuRaor68fn0wmj3Mc53jbtudks9ndiAhdBf0Q8nND31jVJQzD6CCiVcFg8PlAIHBjX1/f2zvTkI2Njc2pVGqvdDq90HGcmbZtT3UcZ9r7TnMyHNGgqQNPDE/0AsApmD9/f7rs0ksJDZHSyTgTDaUJ0tZea46TYPoIPRGef/FFuu66m4asU+CeHxECzMM6wzDeNQwD8/FsOBx+rqura+NOjOYYwWAQoPIMx3E+4DjOHu481LnzgIgNIBCAAdo/b34/FYI+Dk81Njb+Vfd02Nq7S39uNFpAg4LROGtjfMwI627cuPHoaDR6mWmaBzmO0+o4DiIDBfert0bfdW4ACFHLst4IBAK3Wpb1h0gkggf8DtlaW1vrEonEAclk8rRUKnUQEU2xLGuc4zg1tm0DyKDPQe4aBu1G6AnbQ8kwELToiCOOoPPPPVe1Ns6kuI1yWZ2DKq9YQAW0EUF6fG3JEvrNb35D6VQ215aZD1VBvKjodNg7YxhGwnEcVCWsN03zTZ/Pd0dtbe2j3d3dvVUOb9i7YU4ikciiRCJxqeM48wzDaHQcp2AeypwEAKGPiF4NhUI3NTY2/mPTpk2IJOhNW2BMW0CDgjE9vaPv4vAQ7+3t/Vwqlfq0u5rzbQX3BeCgzzCMp4PB4E8TiQQ0+bcX58Cora1tS6VSJ6fT6XOJaC4RIb0RNAzDdByn5HesVPfDgtnygAKfz6RgyE+nnXYanXj88byb4WS3SUmijCNjqyqElatX03XXXUeb3tuihlO9TkHJm80TzUEUIWoYxkrLsm63LOuWZDK5ejvOCzpHTs1kMl9Np9MfJqIJROSrri107lJEQ3qzaZp/a2pq+llXV9e60fet0iPWFqjeAhoUVG8rvef2tYBRU1MzMRaLQf73HMPglsJGtSV3ZZT9HMdxNhDRL1tbW2/q6OhA1GBbkMis8ePH10Sj0TmpVOpC27bPdBxnIvcmcl2p9BwotZIvEeEYaNkiUFBTG6ILL7yQDpw3j8sQLdWyeNiKhjiWlCQi8rBx0yb64x//SMuXrdgmoMB7Ya5DFkcL5cPFgUDgJsuynpo8eXLnihUrQPIb9oZI09q1a49OJpMgPR7gQhujIhArcWa3/wPGnDIM44H6+vof9PX1vTjCuBLDtpk+gLaAWECDAn0vjAQL+Gtra/eJRqM/JKIPSoc/hLOrXdmVe+C7RLiYaZq3vK8R8KuWlpbX16xZg7zxkLfp06eH+vr6WpEiSCQSF9i2jbEiHJ1fWnpeF59gSE7JAwosy6Cm5ga67LLLaNaMGXxYv2VwuH9bbLARdArwc0t3N91222309FPPcQOm3JUNLX0w6LC8XRwzmQx6JbweDof/FgqFHiaid4aRXjAnTJjQ2t3d/dF0Ov1NwzDGYyACfORekvkayr3lfgYGB4nymra2toc2bNiA7pB60xYYUxbQoGBMTefou5j29vaanp6eo2Kx2NWQyTUMw6omOlDVartwJZ11HOc1y7J+FQ6H7xoK1wApjVgsNiMajYIncJar3NdgWZZR7JiLIxbVXEvJWSsK20+bPpkuv/xyamttZecNUIBSwuFuMl7oFOB1b38/PfTQQ/R/d92nDj3M9AGiD9i8LZy9Y/ZUL6CsFJUjt4TD4fuCweDSnp4eVC9UtQGwbd68eZ9EIvEZ27YRaapHaEAiNaUAWbWgQAaAa3Hne6llWT9ubm6+Tfd6qGp69E6jyAIaFIyiyRprQ3X5A4uQ93UcZz8o/OEhLg/yonK3gssfDBQUv4ff8UB3nWiXz+e7vqGh4fddXV1LB6PQTZkyJdzV1bX3+5yEY2zbPo2IDjRNsxbORsBAteBkyHNXRDQ8YN5c+uQnP0nhoGqXIJGCMmmTqk+Hz7PNyWQbxRIJevbZZ+lvf72Z2zVXAgVDcaySUpG2zow5PJ2jXQAFpPOWaZq3mqb5r9raWpQGgqxYdmtvbx/f2dl5bCqVQvvmww3DCGPnrQZknjN5gECu2sO9j941TfMnra2tN2gCYtW3m95xFFhAg4JRMEljcYjNzc2NqVTqjFgsdqXjOPuCBOZdkeGBXg2zvlJIHkx9WVFLrwDHcRCyfoCIfjtlypRHS7T7tRoaGg7s6+s7wTCMYxzHQYSgsdgBFoMWeV/GJA53q+bPo1Pg9/voiCMX0scuvIgcx+brASjYljoFjmFRIBCgdDpDr77+Gv3h939i3YJsFk0QykOnSvYfDDR43ysCB0hWgF+wjIjuD4VC97S0tLxYIlxv1dfXz+zv7z+PiM42TXM2uCgC2AYDlUOZE899wx/zXPMm0zT/s6mp6Yauri5UKuhNW2DUW0CDglE/haPvAgAI4vH4OalU6gu2TXtXrNnnS7QVv8BbG8dJb7dzj1oakoH/3NVvBcuADf+q3++/NhQK3d7f39+J/UOh0G6JRAJs9bPdSgJoCni+J0UihMbgvEUDTYu4wxB7EyLHdFWB3D9Z7orW5SKYECRww+28iHbQ86COPve5z9CM6bsT3gbQwTUmk0lCZcJwNtNUoAmAAD+zGZs2bHqP7rvvAXrq6WdyhxZNhExWpSxMlENmkGI3c8aB7SFw4I0E5McmNigaLexRcuP9AQ5QYvq6YTj3BoPWP6PRNKI76enTKfTee75DE4nMJ4joZCIa5yF6FhyxVIRCdhgM6FUJKjb4fL7/qaur+81Q0h3DmTP9WW2B7WkBDQq2p3X1sQdYACmDaDR6fiwWu8owjBkOlqiDbPlOgLYKBxffsYbBYV2OKuB9DyHOG/otcwp4uNV+v/8un8/3pOM4zclk8mTHcY4wDGOCNyed//zQQIGAAXY+PEb387lxI0SvroGvz3ZyYW8BBSeccAydfupp1NDQQFk7w+/DgYfDYcpkkIrf+g2gwBuRsUwfg42nn32O7rjjDuru6VXKhjkvWngui3wKBLiGL89H3CpQ4JoPyMvpdhx62eczH7Es/xLHyc5NpzMnOQ7NIyKIEJXcvJEiLxDA63JRjCGmHXBhGwOBwLXBYPBX/f39bi3n1s+J/qS2wM60gAYFO9P6u9i558yZE3jnnXfOj0aj/0ZEUCc081V85Yxh5xymsMgFBBQ/vGVF6CWXVfGAtw3DQHlclyuQBMXEAABBFZ+tagYBTkROWK5Bjm36LLJRReB6U1QaIGSPL6ZpEs2btz+dffbZNLF1ApluxQGOB/XBYDBI2ezw2gxARkHAE+yH0DuOu6W7hx599FG69957GTSk0mqAiEwwBwH4DAPMKmePKIFUjSiOgtq/rA1znIniSMHAyIvHebPWARGBgAgtiFpX3bLsPHhX+zjOYPeOd6xVRgnkvBj0ez6f77c1NTW/7Ovr66rqxtA7aQuMQAtoUDACJ2WMDskIBALnplKp/0dEbaZpuszwSuFvO+e0YJdyeXxZ+XmBQbVOHf5fHBjAQJXph62eJjh+wwCTPUOOmwJRIEABAiCClqZ6mj59Op111lk0bdpuFI9GcyF+hPpxbel0mnCs4WwABd58PsAGavN9gSB1dnYy6fDhhx+mjs4e8vstSqdVGaTlNymbtslnWrl0gTe1U7GCcYigoGhOvF0Zqrp8UW4sndoo4Amo68tXGlR1fDfV0enz+X5eW1v760rkyGoPqvfTFtjRFhjeE2VHj1afb1RaABGCNWvWnBKLxW4gomZZsSlCWOWVonclC/+NKLw4Qzg1WX17w+ClwsaFxpPzFq5MB8s/b43xsZgW2oOkCLJYZrtuzTINMkwlIARn39TUxGDgoPkH0v7775eLktggF/pzJXG5yIOU/G3N2LwgS5wujofX8WSawUEikeDuiU8tXkzPPfccAxHYu7e3lzKe4gQ5v9A8AGzwWugU+fENyiGo6jIGIy+WOkApoqBIREt0RGxRDjSUG1iJsXSZpvnT2traa4WnUtVF6Z20BUaIBTQoGCETMVaHgfrxDRs2fDCVSv2MiKZ7a/vVA7X4FiwfPvau3ryrVnmg46cAg60FBd55GKrzqTiHnksNhXxUX1/PofopU6bQtGnT+Cf+NTc3EWIXcMCyigefEL9jf/AJcJ3DBQRiLxwH/+LxOB8fr3v7o1RTU8Pgg6MHwSCff9WqVbRixQpau3Ytvffee9S9pYs5CKkUuA55DiVjHpcHWhqMFVurNGGzVBh/qPNSvH/x71sRFcgNvriCwo1ObfH5fD+sra29QUcMKn4r9A4jzAIaFIywCRlLw3EFZT4Yi8X+/X1Rmn3QC8CjF+ASvSqDAl5te3xGOByk3XabwnX03V291Nun+uv4LB8JOx757sKSxtIrVEQcZHVYiqNQbQpi0HkzENlAZUOAGhsbufXxbrvtRhMmTKB95+zD4EB4AuLsGQwYNvncagSMA845EFDEPlnZIw0xnA1ERUQosCkQoiIF2LgiwbEpFouRZfr5d5wbER5EDzo6Omj16tWcZtiwYSNt2bKF/55IpHIRgvJphNKRmuJrKQcKsN9Q5wb3kbcQJBDwU3t7O4Mf6CQB5HD6xt3An8igKcQgWzEo8Ixr4/stmX8AeW2tYzCcO1R/dkdbQIOCHW3xXeR8bsrghFgs9m3DMA40DIOFiWTLP0wrpw+EhY+fNTVhmj//ADr66KO5NA+lc28uf5u6uruY7JbLa3MUwuuSqgtbe/PrW+N4CqaXxxuglpYWam+fxEAAEYHJkydzJQHnud1qA4xVVuwcCXCQLvAzkQ+/Y1+0TI7FInxddXV19D5hkywLzRe3flOOUp0DzhFOESt/RAwAQgyfIkmiakJkpwWQ4HMYAxwqAEJ3dzd1dm5h59rRsYUikQj1R8opAVcHCrxXJnMzFDDgBQJC4sQxm5oaeB7mzZtHtbW1DG5eeuklvpZsFpUuiug5MP0x0NbCVyihq7HesqxvZLPZv2zPxk9bP/v6k9oCAy2gQYG+K7aHBaxQKHR4Mpm82nGcI7HoLHcSlMSplboisBWuvBR9Kxj0c1SgtjZIixYtokMPPZQf5HCaW7Z088P8qaeeog0bNuQe6Fwzz+oGhY2DvOkKda7K/QO8cgggA9rsyNUVWYZJtjeM4V5oS0sTTZ06mfbee2+aNGkiOyBECXz+PDgZTJzJzOGZSv2bKhE1K01vdce3yzwpDFtFMJBuAM8AIAH/env7WPxo48aNDBI6t3SrqgpP+WW5KhGAI9wT1YhXFYNML9G01JWbFhHmBvMyZ84cCgdDPH5smzZtopdeeoXWrVunKiy88hIy36ZFWVvdM36fn1IgVgy+vVlTU/PlWCx2d6Ud9fvaAiPBAhoUjIRZGFtjQCvhudFo9LuuqAxLzpbf8itGb6hYVmmmm5dub5/A0YG5c+fSuHHjCKFfpadPFI3Gaf369cySf/HFl/hvlvvwHiyNoHLJFR/quaF7c+Te0kEJ6WM8bW1ttM8+e9Ps2bNp/Pjx1No6nlf4ADBYaWdtxRMojkgU22e0gAKMk/kbNnGaAUAAKYT+/gj/jg2/b3xvM6/GFXArnVQoJgRW87WAbeHUSwEIb2SAnbjfovbJE2n//ffniA2nYRh0BplPgeNEIjEGmW+9tYLJrArI5LkSOXEpFwhWrLIgsi3LWlxTU/OV/v7+xdVck95HW2BnWkCDgp1p/TF47nHjxk3u7u7+jm3bFxiGUVttqBeOxdv3wO/J506a1EonnHACHXbYoVQTCrHV4NDBjPf7AsrZZrO8Qn340Ue4oU8iAZa8x8Bunlwc8lA6DMLpQ/6XwYZPhZRzQoq2qp9onzSBIxhwOEgNwNHU1dfmQu4AH3JO0S2ojule3Up+62+l4R0f1yQVCyoNYfO8dPf2cvoAdhOnjbQEwBvIigAJ0agCDd55KgZM5aMFA9MPxREGaauA49fUBmjPPfekfffdl6NMsD1+ZnleRYNBRa0QMXjllddo2bI384DQk5oSTQZEDCqBAjfylTAM4576+vqv9/X1vb31c6U/qS2w/S2gQcH2t/Euc4a2trbavr6+T8fjcXQ8bKpWAKY4J8srRjd2O3lyG5100km0YMFB7Ggd1wlJeFmIi6ZhKVBhEL3yyit0++230+bNnbzSQ9SBWBcgnyoYJA9cMF/evDLAQSqtZH5BHMTh9pk9kw4++GDab7/92MlwaWHQz3l4nC/fn0A5X5ELljx+5QqC4Tntyjff8I8vTlWlBhS4i8RivPoGAVHuAxAZscEu6zasp7fffptWvL0qRzgt1fWxfKVBeU6CijioKBI2pAv2239fmjFjBt9DiNpw86dYjEKBIP+UuQOQAfGzp6ePHnvsMVqzZk0usiHRJ55Hw+RxZ9xUQjk7u9eOkUT8fv8f3o9s/JsuVax8V+o9dp4FNCjYebYfa2c2QqHQUYlEAqSqiYX9Aga5VOQHsKF23w3xQiDHMomZ4aedtohXd00N9fzwhmPGJop+spIUZT44Ijz0N3d20h133EmvvvoqRw3cw+dDwSD3w3mwIh8cTGnnmGOgu3X3AgZmztydjjjiCDp4/vyckxFFv3Q6yY4R0Y9Sojni6KSKYDTfCMBucp0S6eEIiLtMBwBAdAAVCvg75oadaQYRhDR19/TR66+/Tm+99RZzNQIBVfro5RvAPvmIUyGHQoX483wU2RentyyTpu6myITgdKiohqnSHZmMSuHYiruAv6kKj3SutwQAwlNPLebyy3g8yUBA3ar5e6VSpAD7u6kix3GczX6//z/T6fSvcQuP5nnXYx+7FtCgYOzO7Q69soaGhpa+vr5biOjYIbHEC5xzfsizZ82g448/lubPn88PaXJXZEoMSD3I4XARkoajQW4ZD3GU1KEnQD8z8y2699776LXXXqMVK9/JgY5MxhP2zTXkKb9ihu8IBFXpHzgDRx11FC1YsIArISykFFz1OzgdgAjv6raYTCfh8UqEuB06ecM4WZ6Ml3+UcHWC55iwAXgFCMuD3Y/5xJxx5MA0udwR77388su0cuVqdtgiLuQdmgIGpatVcE5AiMk0AAAgAElEQVRvueu4cc3MGzhowXyeD0QCcL9EoxE+pOoImaaAT1VvCEjw+dS4cC7cU52dXRx5WvrG8ly5a8GYqrBd0Vy/UFdX99VIJPJYWSRaxTH1LtoC28sCGhRsL8vuYsetqam5NBaL/QrP22rTBmwiFxSg1x6cKpz+7rvvTscdezQddthh/ECHHLDlkvOEGAh5XQYGlnLKsbgCBzi3cjY+Ph7+BuLYk08/zaI7kUhc8QFM9blMStZ6pUEBKh/gIFrGNXGaYOHChawzYLsgJZtED4L86rfY2ZcCAYogWVgVMVpvF5REipgSbC8dHIVDYfrzrasB4DZv3sx6Brj+gD9EGaR8smouMG8I1yNy8N57m9kk+ZSP2zCqyFBSUil/BoCbMKGVo0t77bUXaz3gHkBkSTWRCvEYJRqB+6iQX2LkogbgRjQ1tdC7777LYwIXIhZLuLetIotmS1SelJpLD1BM+v3+37S0tFyzadMmdZF60xYYQRbQoGAETcZoHQo6H3Z0dPyLiBYUlhQWawUMvMLinPGUKe108ikn0SELDuZeALnNVq2TsRLHQxxhf3ZApsO560AwnHMsHLL3dP/D51Bm9sRTT9JLL7xEnV09Kt9cRey3dXwL7bvfPnTYIYcyWME5Vb2+GpnfFT/ykgjF6cMZefPkxRUH5fPlO+NOkBRK+VRKqVFJCgQRGpR3KhImwJ3J84H3IYDkB4gziGL9Eeru66VoXz/1R+MKFaLdslvziM8g4gO+ASoAACIEQJVTvxQp6VAIola70Zx99qL2SVNy5Z+ir6AiOplCvYUMoju+XGQCGgXYhPsB8ICIAUorQT4EaEEqQbZKt5BXLdHz+o26urorIpHII9XdhTvjftDn3FUtoEHBrjrz2/C6Q6HQsYlE4jYiavQ6uuKIQamSMw4Tuzlh1PWfeOKJdOihB3MKAKHeAFIHZfL91VyCjAfn7o3005JXl9Cjjz9OK1asLqhDx7G8Wv0NDTUcfj7+mGNp0pTJ1Da+lVC/BieRXw1nyayALEQngcmObm7c60hVekGlHIR/4M2RcyjejSx4ow5yLGH/C2FR8voCQET4SPgO3jHIa34PYXn0lchC/kmlZpTtsjkFRbV//vfCED/2R/levkGSHJ+vDex9RIUcomQ6RT1d3dTV063UDzkioJyxVDKAP9LfH6Vly5ZxGePmDtWR2Jua4uO6vTCamupYewCloA0N9Qw2EM0Rm5a/V4ofgQPdPNvY76Pu7h7u/7BixUo+XDajwEN1VSRqBC4wQLjhm21tbddqtcNqvsV6nx1pAQ0KdqS1x+i5AoHAf6VSqS9g4Vz80BanJpdeHEnAkh2rfzQCOvnkk1iLAMxxhHuxQjOqEBcazKziJCW0LSHq559/nt54Yxmt29BR8PFg0GJS2oL5BzKfAeWFyD9bbstgRCgKSwoHFz+CM8Fm25lc3locOMr3/P4gvw/nLVEFAR1SuSCrVpEYlr/DlhKNUP0HUgxapOpBwId8XmyAzwgLH9FvbyloDjwYEGhS/wSU4bWKACiioACkPIBQEsiS++e/I1XjhlXk87hejBfh+fc2d/DPlKvaaLrhfLlG9FQA0W/FypUsgtTXpzgB2AC0QkE/i0PNnDmTpk6dyqqMslXX06AMKDAUSMH14JhIT2H8EGhavHgxrVq1lvx+g9K59FN1X24PUP5be3v7Vzds2LC2uk/qvbQFdowFNCjYMXYey2ex3pcxvstxnJOEBeaNEBQ/mL0OgldOphKPOeecc+jAA+dxhABhYKwU6+prKJ3Ih2oLjVi9TK4wy4VMhod7V1cXS/G+s3Ydk9/gpFCKhn4EkyZNorbW8UxOw9jE0TKZjTv/KU5AcTrAOz7p88SpjUCA/2F/b/4ddkqkMopI6TZzgr2wL86BMck58DuOhbFi7JAUVr/3slOFvQAKBBB4KwEEFChHavLxYWdcW319Izu95uZmFoWC/C+uG/sgfYPxYj+MI5VO8PG91QYB9JvI5EPyUu7HaYOMKt/k1bqtAIM3IsIExGiEr2dLd69bHSC9F1TOHv9Up0almNjb18fXLQAD6Z1x41oYVGJfIQnKGPNVC+W+goODAhl/Kp3NzSFSCK+88iqtXr22ZAqqOC1UDJTdMb3R3Nx8fnd39+tj+eGgr230WUCDgtE3ZyNtxIjVPkhEB0sZohcUDIgMFDWywQ14+umLuLyvpaU51+jHIbXilIZAAy+6OlAg4V1vWN0bSk9loN8fU8S3QIBX3sFggImN4pTFAfEK3lF9AhjQIPVRRhxfQAGvMmMx/oxEANTnTTJdfoJ3PDgu3sdnIMaE3DqcJkLo6C+Av+F9WcUnkyDQQbxpaLcF/DRW/MFgOJcqwPUALIC5D2AEoIDa/qamRna6sA1Xfjjq+vHaQuKBUw1KHbI49SEgABGD4tQGf97vYw7B5k4FdODUueeDSzxlIGah/4IiByZd9UIGOhY4HarDo0RRJBoioEoda7BtcFCAOeOGUL4Azx8LZvn9rL9w//33UzRSDrQWnrNEWq0jHA5/KB6PPzO0mdN7awtsXwtoULB97Tvmj15bWzsxGo3ebxjGXMdlghVzCcQIxQ9GOKXDFx5Gp566iPsCSBlYMhXnBzB3BUQoQa03i2xZHSgQ54lzy4pcFBB5PG4OHA96OJJ0MslOjoWSmDinCI7iBGXlmQuZ266DHDA+NVyYRKIKrNroRgQKezWpFTmc4sqVKzmP/s4777BksKrnT1Eq5W0m5VEBLEqB57kLah8h4WEsXoW/gvOjwyQrSqIls2ttk8gfsHLlngAJe++9FzP68ZpTO1jFx+Ku08YKH70gFEjIpyTy9lNjcCWeXW6C7Sinj2uElkFH1xYGY6ahNB6k9FRAQi514t4XELOS4/JdArDgfk5Vs1TqDVGZU4Axo8pA3b/qGjBGkA/vufuBXORosC+79zvhvu4jojOI6FFNNhzzj8lRdYEaFIyq6Rp5gw2Hw5Pj8ThAwRwBBeL8i8Oo3tGrFbmfPnnJx2mffeZwyBorRkQI8J6E/JnNNUxQIGBAwtwqL67C1FmP0+ZVba4pU9azas1rI8jKFc6JV//IJ/BTvbTzgZOVlsMs90sKnGDVi1X/lu4uWrJkCdfCw8lAuAmOp9hpw7d5nbq8zplnG90aXh+aG4cr3CQgo6WlkfbZZ18m9aH1s8wXhoDIDvgXAqLUzzw5UUABCIK8uodMtEtqhE229HRzRCQeU6mTPK9CzZcANDhpvBd0wZykdOSnzPFWpw9ce+J4rKmQVWJHFnSu3TbTkf4Y/fnPf82BgsHOVQIU9BPRmUSECoRKspLbaHb1YbQFKltAg4LKNtJ7DGKBurq61kgkgvTBfoZhGLIq9ubcSz0s4ZTRoGafOXvRhRdeQDW1qmkQwAFWzFAuZJ0BxIiHAQoEmIizEOEcOHSs9gpJg2rZLekCqW9XjkitFAVMCNFOiIIDTeQ6RlHBc0EEuj1CqGfp0qWsm/D6kqW5j3ob77CD9fR/KH6v2ptS0ifeOfA6V3G85RxayfOqKkKer5bmZpo1axbLPE+bNpV5GQLCAJUQ3lfRGrWil/OIcxfSIiJBApZUC+ZOBk2+oOptAS0D72cFSHh5C965LE5VlLfX4JGCnH1cQMJAJBik7q5eAll16dLlg1YfyP3nnQcXIPQS0YeI6AkdKaj2btb77QgLaFCwI6w8ts8BuvdDRHSIaZqmPLhLOZlSDioYMOmUU06mY489lomFeMirPLBaCea7BW5d+qCUIxIegISWOWLgkuCkm6FwAPLXoRZzko6QlWi5jn+S7kBkAM4Njg5aCWiyA0DQ1dXDJfqyFTYF8nTlA0evaB1ZGDEo1IIQZ5s/bvlK+uJ0Dj5TjiPhvYW9QEEuAVEfyFJDNGjffefwayZYYmXNpYpY5avogLd6AjwENQ9qfrEfIipCpozEVdMkqB7mdA9cToWkCsRxe7Ui5FqK7THwq1g5fcDjgr61K6+N8a9csZoefvhfAyI63lQTj9tVu/T+3b3vNlqWdUY6nX5ubD8e9NWNNgtoUDDaZmzkjdcwTfOvtm2fbZqmJU5F9OUrDRc3YEtLPZ133nncYRARA6QRuAwQq0y3Xz1y84UPeFUfDkczvG3wyC1C2lgZiuKe5KklHOzzBTjiYFM+JaEcktI0WLPmXTcisIRBgSjiiQNk0DGcb2FOpnkrreCW3m3lp3PsezU3KC+1uIJj7732opkz92DBJ+gGgIMg/AAGCC5fQ8SgxKELMRDkPtwHGzdvynXBFJsxOHPFjio7/UpXJsYvfR9hzEwoFQefcbhE8tFHH+dqiMrpCRVRkWZQntfPTZo06eMbN25cVmmE+n1tgR1pgeE8jnbkOPW5RrAF/H7/Zel0+hemaQZlJV3tcIVH2N4+kS699JPU2tpKDY11ytEin8vpA5QADgQF6hzDTccO/nmAEyn1k5C1rHQh8as67NXzShJjlpUwBG6g5Y/IAJxHf0SteAvAAP9SraXK7LeTQQGaBJWKDkE/oK6ujmbM2J3mzJnDwkIoHWRpaWgSuM2vuFNhKJT7ezHo2rylk6Msqq+FSt+wFoKtXlfjlAe38OCggAGIS6bAvPf1RuiJJ57gDpwYezVbCVVD2zTN344fP/57mzdv3lTNMfQ+2gI7ygLDfSTtqHHq84xgC4RCod0TicTT6I7ofQAORjSUy0FuWkLnCxbMowsvvJBqa2tUJ7tsikveSm3FYdqtN8/goAACQ94wteNKL4szCgbCFItBrlcJ3aBqALnm115/gzZtKhRGwj6lUihbP3Y+4vA+PmxQlT99uWtraq6j3adNZ97B3LlzGfgxUTOVpHA4SDZKKrnVsaQZVEpEbAx+Af4x6PJIX/P95UYMtt4Ig4MC3JvqXnS4HPHll1/lBlsAitVuJapx+vx+/xdnzZr1p6VLl1Z/oGpPqPfTFhiGBTQoGIbx9EdzFrBM0/ydbdufKMGyHtRMuAFBOMxmHC6BO/300+noo4/k1WOe05/P58vBdhQoAJFQKg14hWrm5YhVTyQVwYDaHpTuXnjhBV7ZGm7vBYkcSKTD6+zKlW4O7b4aGaCgeD5AE1BlpdBngMixzSmhPffck5tKobQRapFZjghlyPRZOYKiCBBJZAZgQMiHsWQiRw5lHggJEXVoVsvvPTgogAYE0kcQL0J75+eee4HFkwAKhjF/jzY1NX2pp6fn5a0dtf6ctsD2soAGBdvLsrvYcWtra/ePRqMPE9G4oThs1sQnhx/uKEesr6+lSy75OBPWkKb25WrkCol+w88lqwkqbPI7sLQQDgrRDyugOiECCHgFeuLxBD311GIGBKgqgLhOefJhiXTBcCkRO/s+wxPEUyoIGWjvBgIiKi6wARw4ts2A76CDDqJjjz2apk6alFMK5E6Gdr5BET4jYkYABihVBAER+zmsGaBkl4e3DQ4KDMPkdMeWrh565JFHWAVTpY8kdTF4pKlEtKwnGAz+YNy4cb/esGFDdfmH4V2g/rS2wJAsoEHBkMyldy5ngTlz5gRWrlx5RTKZ/L5hGEFhhFeymFIGALvcoiwvvW2aPXsmnX/+udyQCF5YmOvYz7vS3hbAoBIoUM7MR4k0BIRShHQBnBqc07p16+nWW29nfQEhEJpu10Sp8ZeQutiBlQ69pQZjARTIxbEMdF6jwFvJIBUL8sAJhQJcvrjogyfRrJkzuG8Bg4BsXvkR4XqRK8Z7AAYscNTRQYlUyq1SqXSHVXp/cFDg9we41fPzL7zE6pKIfKh7IuAqWw6J05L2+/231tTUfKu3t3dVpZHp97UFdoYFNCjYGVYfo+dsa2ub0NHR8Qvbts8yTdNXubxNdecL+AOUSqfIQgtdCN2QTYcffhgtWrSIxjU35ZrwbFdQ4BL2RJ447+eUaE7aVc5D1AARgUcffZQeeeRRSiQLFfXKEt+Kv2kiCJQdPtdwZ91OwDOGhUqAEiNwwU5x7wsRpVKhf8WImH/AvnTkkUey3oE0NEJ3SdgyR0x0BadQ3ol2yt29vbkGU8O7/sFBAWSkly9fToufUZWDAgoQKVD3Y9X60rZhGK/V1NR8HQqgwxuz/rS2wPazgAYF28+2u+KRDb/ff3A6nf6VZVnzstlshdiuSQFfkNJu2SGiBOCR2Y5NjY31dOKJx7N+gd+Scr985z4VPSis0d8ag+ciBWVAAdwWAIHSvU/S66+/zoAAq8a069CL1QcxjgH5ZiHIFUUJhvIFZCe8nZVuhjIedor4HwCO6QZAJPLhygF7Q/zFIBHCRRw1sYnGj2vi/hcHH3wwjW8dlyN34vDSeVFEkfr7+xkYdGzZ4hFK2prZdwev3HuJAxjcc+KRRx7j9AHv7d5zQ7n3lKaXs8k0zZ/Ztv0LBD22drT6c9oC29sCQ30GbO/x6OOPcgu0t7fX9PT0fDQej3/XcZwp8iCVyypeSVuGj0GAejwjRqAeziClgV9w7rnn0rwD9nMf/g5r63N/e0tJ4Fa/ld7XzjisohiNx9w0hSun6+rxw2dhtQon9PTiZ+mZZ57hcrRqFQYHOA/TBTMYuytRAIEfjC7j0SyGFbzAgo+DDwgyyBnUJMPNqyNfj9dIb4gD9fYBkJ4PqqTPJjLU/jwnAlY8zhynEL0JXtUbZm6uUBWCvD6qBrxzLCBAelfk5qfck4bPp3wyCKfQqjjuuGM4aqBSUIroJz0pMO9IIwAYIG3TH41zdAHX5BWcYjVMvz/H/yh3n8h4RQGxtraOO1EqZc1euve++6i3t58rD7BVqq7xprSkmsJxnJhlWX9paWn5dkdHx3vV37N6T22BHW8BDQp2vM3H/BnHjRs3uaen52vZbPYTRFRX7oKViA38gQIC7HTcsLEAgzlz9qLTTjuN9th9Gj/gTVIh5VQqkespUJ1BS4OCoD/EeerG5ia3LXCAnWTS7dYHESKUoD3z7PMcRu7pQR8bhM0Vaa7kArPMgFioB6V3LpjxWT7Kombf42wNUC79SuJZxH4YKLlO27Qsqqmro5aWFtYBqKtroPrGBmpubKLa+jqqDddQIBQkHzgajk0Bn5/Je9l0hlKZNDcw6ov0U6Svn1n0fX093HgJHIlof39BqR3PjXte4QrkAZwCKZg5r1AVHDicthdQuIivpFVwPbgPMD7ZZs2aQUcesZDmzZvHDt9xIA2ltnQ6yaDHb/lozbvvcMtl7inhigxtDecEtpZ21amUEqsCWRTkUZSWessPC4HawB4V3ot0ASHSBo/X1NRcGY1GX63uXtV7aQvsPAtoULDzbD+Wz2zU1NTMi8Vi3yei41F1WOpii0EBHCLyB94IAFaGSCGccvJJvHoLBfxuLlkxz4crXiMNb/Dgh7MBYZBL0LgdcZZL0KA78PqSNwolbT2p6Eoh/YJoAToJ+nxK5Aggx9MbodhGKNPDfuNaW5l0iX+QD25tm0Djxo1jUNDSMp7CdbXUWFfPfQJY7MkyWR4649is8wCWBq/skcLI2hRPJSkeiTIo6O7ewjLMAAUdmzbz6htaC2vWrKHOzZt5hVwMfnA94hzl2rzzAAeLrapafteOIJrimKL8N223KSyXfNxxx/F1IoUk8tcYkwCmTR1bOIojypPSVlpW9NVUJ+BY0tYa1SS4D1atWkMPPvggxRN5GYHBNCZKpRNcG60PBoOXJ5PJu8fyF15f29ixgAYFY2cuR9qV+Ovr60+ORqP/4TjOvo7jmMUPTnYucFYQqnGX3BI29674mpoa6MQTjqPjjz+eAj5F8FLNgvKry+FcvDS54VI3l2mYsR26//776cknn2b2OcRr0KQJ77PjgnM3LXbs2MoVEbBErhsZgJNQFRZqwypZPo+ogQAiONXp06fTzNmz6dBDD6XmcS00qW0itYwfx8BIJKANH1QU03wcE6tt241CoAoAgIkH5pANUSBEN0DWQ1th2NtWvSUQsjds1Y8AIAhAAQBh83ubOIyODo5vLV/O7ZxhB2+aAYf3avsDTEmYvdr54M9ztyN1LNWumnENhcNh2n//uXTMMcfQrBl7uCWIKnohPTL6IjEmfiLa4QUmUv1STYUKRyo4JQVgYjGPYPHiZ2nt2vWc2xBgIU21yl1bifs7aVnW9zKZzM80j6DaO0Lvt7MtoEHBzp6BMXx+8Avel3H9TDab/ZrjOK241AEPTiX/4zpWBQ28JELVRc+m8eMa6YorrqAJ48dxKRvSB9U88CuZF04ezgROAStE5Mmxcr755ltYpri3N5pz+sVMej5/EcuwUoUh0g65ck0Hgk0BSrvqeNNnzGBhnwMPPJB7BgAM4Frh/NGSGCt9AUt8bpaDNAk4hkP9+JMbbcHvSDsg7I+/Qz+A8/+2k9tP8RSy6m+umqAIBiGigL9BNCiVSLLjffHFF+mxxx7jNEoyHmdnmUGaxXMNOY6C7RRo/pd60EjqQfL5Mlc8/5xGAlAgmjfvADrmmKNp5syZ3CpZNgYHts0SyAIMpIulRBIqRZLkfhTpaogVIW3w6qtvEKgaRbILuXOX4pQURRJwebe3trZ+TvMIKn0L9fsjyQIaFIyk2RiDY2lsbGyORCI/y2az5xNRsPgS5QYUDX0hGuYdhPK72O/444+mc885m0O9UMHbFtr3UlqGYyEXHonF6LbbbqMnn1zMK1Y4BibIe7y9hM+lrM57TcWgoHiMkpNngITVvG3T0SccT6eesoj23mcONTc354iCAAOFtf4ueEKFBqICKNnzKQ6EOD8BSrLyl9W8OPvifVF9IZ8RDoEABBVocHKRBERSAJhWrVpF9997Hz3wwAPUg+iBZ7LYyZbgWgzCM+RPe4Egn9M9ZjCIecnS7Nl70Ac/eBIdOG8egxHpmSClokgh4J/YRYiGlcioOK839YCeFSCT9vREmMyKCNGAe9ZT9eIFuUWA93m/3//pdDoN1cJKWHEMfvP1JY1WC2hQMFpnbhSNu6mpaXpvb+9vHMcBv6BAl9Z7A/L6kBffhc9QPJwdG1UCIfrPa37A4XOI31QK55Y2UWGVpMlSvClCPTpWnH//+9/p5Zdf51RBOp3JgQFvCFk5WNWYZ6D4UeFZc4REECs8K+rdpk2jAxcsoMs/81lqRlogFKa0nWWHJ50DU+l0jkxZ4NzcCgbvirkYFHjBgYAYb/7fCw5yx/Esi6XfA+fb3bbBCNnjGIiopBNJTic8+OD99MB993NUJYOIhzt3AnjEHebAn8c8oH46OQrhQCIoV5h4nPLUqZPoxBNPpEMOOYT8fh8fScL+AAkQNULKQ9JK1XBOvKkD3AePP/4ELV36FoNBzvq4farFnsV2K8ElwM37dk1NzVWxWOw+cCNH0VdVD1VbYNg92rQJtQWqsoDP5zsyk8ncaBjGHl6nzyx5T54dD2F5X8hs7KBdJblvfO1LrJ+PlsnslN2HdlWD4J0KQQGqDOCE16/fQHfccQe98srruUOxf/NkCAq1B9RxKoECfN7nlsYhaoAQOBwb+BF7zJzJHsPrvBTvQEUBVEQk7yzZAXlAkxcIlHJaAga84XlZkctP6Uoov0sqwXtsCcWDtwCHK0x/Pr5jc3ngE489zhEWVGqAl8AelUsdlTnLgQKeD55Ddc3Fm8g7+HxY0Ts0fnwTnXXWWTR//nwyXXAkURAAArSnBq+hmnJEnAvnxL4YMyIGDzzwIK1duzFXcuodUTEAULyWAWCm3zTNn9TX1/9Pb29vd/X3pd5TW2BkWEBHCkbGPOwKo8DS7veGYXxUcursDIu0BkrFWaGfn0rCeRNd/qlLuZYdQEEe6oMZTzgD3L/AbdsrYAJON521ORx+zz330SuvvMYhY+YY2EJmLH7oF0UaQNxjLXw3tO/q8eM6RDcAkY2p06cxkx6AYMaMGSoagBw/ShuLLqBYVXGw60PIfzjbcM+FKAKcacgf4NJOpBTuueceenPZcor09hagKgYRgFGOTT4yKeN2aCy8hCIQxE4bDbOyOfpGS0sDnXrqqXTUUUdxrEFACn4ieoHmVEgFwe6YS4wP95qQPr3pEQYsrhAWKi8WL36GQQHOmU6jbqO6zXPspbW1tV+MRqMP6rRBdbbTe40sC2hQMLLmYyyPBmmD6w3DuFicOTvSCkQ92QUrRry+8orPMSjIZtM5ZzCY0UwTaYA0rwalXA3kPbDV4SjeWbuO7r33XgYEIJnlhuN+MwYuXgeKNHrr9HOrSZe1PmnSJDrymKMZDCDCgXODIMiOyGdRuqiCYihOmh1atV6rjJGGez4AHzjZoM/PThdh/PXr19NjjzzK1RtvL39T6Qi4UR2Ml0EhgIEFUKYqSPKr8EIQJmF8eVCJs86nEg7OrfZxDEQtAE56e3sZGEjEwAsK5HwCDiUqg8/cd9/91NHRSW5RSdWgwEMyfD0UCn0xkUj8S4OCsfw4G7vXpkHB2J3bEXVlwWBwdjKZvIeIZhSQs4pXyWVGjRQyggo/+uH3uUYfoVs4G5bK5a20ojJAgTcPbJk+dhaqFn0V3fvAg/T8Cy9wGFgcDo6G90uX1w08D6cVXFVAaBBAkCgYCtHhRx1JZ555Js3aczY3/JHqBVQRAKDgH/b3blvjpLf2S8zRjCF+uBiEcLrD7WMgzhbX2bOli7UO7rz9Dnr22Wfp3VWrC67TK3LkTQFV6iWA+ZYulLvvMZU+eOKJNHfuXC7VxHxh3gD43n33Xf7dG5Uqfi0cCTk/7qeHH/4XrVy5hsHhYNUHxbepBxT0+Xy+7zU3N1/b0dERGVFfQj0YbYEqLDDER0IVR9S7aAsMtIDp8/m+k81mv+k4DteUCTAovgFLLXwBALIZdE/cg77+1a+wE4IDx5Z3IuXaLJgcEeAOh8EgN+8BKED++e777qWnn36G0hlwE9SgVcWB+kxpHYQSoED0BtywxpTp0+i8886jgw5eQHPmzMkp/iUzbhtml7hX6lqH4qR51T3Mu22owKAYFEiVQzAQyJUgYn64hNJxqKerm5544gn655y/7+oAACAASURBVD//Sa++9LICWg40HwIlxY3AFSnFLcCKX4SNuAUzl5E6NHPGNDrttFPZzthwXMwbohUopxROhgACISbmAJrLKcA9gWO++eZb9Mgjj+fuh3IlicVm96SPoGD4cEtLyxVbtmxZPszp0R/XFtjhFhjuM2WHD1ifcPRZwO/3759Op/9MRHhy8z0npL1qQAFWbAG/RZdccgnNPwB8AjgUJXOM0kS1FTvrfAtfBiCQ+mctfZX//+Mf/0hPP/uMmzdWvADvuPBaOY7B4/PeigKkBQ79wAfo/PPPpwMOOIAmTW7nEj6kCbh6wc1dS4MfSWkMZ0aH+wUeZvYhR4aU3gOwLcAXRJI4bWNCkjpFa9eupdtvvY1uuukmtms6nmACJnQOSjnYPNlUlV9iKwQGPtXrwCJutQ2OASIGSoDK4Z+IBInkspSG4jPF/ALhmuAcfX399K9//YvWr9+kQOcQJscTAeutra29ctKkSX9dsWKFbn40BBvqXXe+BYb7TNn5V6BHMNItYIGNbdv2ZYZh1HhZ7d56dLmI4oewcAoOX3gInX322VQbDqkVv6Ma4JRPH+RBAh7WSBvASeH1Qw89RLfeeisl0jarAcKhFQOC/AO+QqNHd+Dh+jpOFXzkIx+h3aZPY8CCyAB+ojzPy9oHeBB+A6ovtsWGL7JbLDGkn8M9t0RgJI2A4ykQZivVQff68DeUfD67+Bn67ne/yyF+lbgfyCspZPkjraOiBPg7Xot8Muae5ZeyRIccMp97ZEyePFm1uk6nORqENEJerVCBPyEayk+MU91TDpemAkw89tgTrBZZDSgorkrAVPh8vocaGxs/sWXLlvXDtbH+vLbAjrSABgU70tq74LlqamoOisViNxDRvobqIVtghUqRAiywJ0yYQBd/7EJW+UPvAzzYoVOAMrJKoEDCuqZhMfnsrbfeohtuuIHiiTRZfotSbv9jrFqxZVLK+ViWIiZW3AyDWie2cRQDpXJoSiRlfrah9P/l2Kg2EL0D2IFf23mhnornKtpBLOlVNBRlw2p+yuG29iGA83O0w224BLtJGWWuIiCbZbliEADZrmRw2+mrr76aVr69ghyQO13J5dx4PJUc+JsicqoeBKz74PI3MG5utW0TBYMm6xecfPLJBHIn293no5UrVzIYAUjA78IvyaWv3DJLqVTAoUGWfPHFl7m8spr0gbdU1fM6EggELkmlUrdBTmGoc6v31xbYWRbY2ufBzhqvPu/osoDP5/Ndk8lkPoNuiV4BoHIOqXhlBu7A2ed8mBYe9gGqq6tlD8AEMDQT4oZI8rwtnT7APlySZljc6Oc3v7mWOjq3kGUalIZDBknQ24UQHQs5XK3kiEvlt71TsOc+c+jKL32RjjriSO5CyDXzPosBBXMT3N4HAARKWz8fNYBDtcFnGMacVrOSHezwwz038wcCfiWj7M6JnI+v31CtjqW9sZ3OcPQEc/GrX/2K7rvr7lxUoRQokFQRbIcNmhawKTt3N60QCijVQ6gffuhDp9HRRx/NQIQVKiMRFjUCKBE9A6788OhbSGQBxwyHaxgUAHD+9a9/p6SrjzGYDb2gwFv2SESLGxsbF2m9gmHc4PqjO9wCw3km7PDB6hOOLgs0NjbO7+3t/QURHVauPMDvD7qrOOUscw2EeCVNnCc+66wzaerUKZTJplwuQoYCaDvslrnhoYwHORjoUBrE65qaOnbu0CHAQ7+jYwtHCN56awUF/AFKpVMKEDDZwJM8LvKy3gc+r1rRpTGdpnBNDe2599709W9+i2bMnkX1NbUUTcQ5DI2NKyNc8SFxQh4ymnJqbk8CIcfJapbz3y73QYSDsMKW0LcoHoKvAG4FyHu4ZpwTNsFx8Df8DpuCkQ+nDBAiIXg4TfwLBsP8vnQ2FL4D9BOwrzjSTBblmqptNTZh7svfFPFPmgqp1bw3VZRr/YxJJWKni06Nf7jpRrrjttu4CRPv7+mZUBKUyRPLnTOUNSoApiIGobCPozYHHjhfjTOVZvljaBcIr4A5DekMRw4ggAQ7Setk2A62AphYtmw5Pf7400xq5YhSjiCLSJKknUq35Ha/qTHLss7OZrP3jq5vrh7trmwBDQp25dnfjtc+c+bM4LvvvvulVCp1FRG1lD+VYvoLYdBLQGxsrKczzvgQHXLIwdw+F6AA7HQ8uAEKxPHIw967wkcpIh72ps/PueX77nuAS+Mi/bGcdLED8Rx8AwYBBQwEOHyd4f2ks+GxJ5xAX/vG16mxZRw1NDTw+1iZAhTAmUGiWLX6Vap5Xicpf+M3Xc0Cv+XL5cLZuboVEDkHbCvyHJwnHBy6GOL18uVL+frQEAj1+XBmrAuA8XpTNQjd+/0MnMaPH08TJ06kpqYmmjp1GqdnJk+dQm1tbfwe/s7CTkgLuMALKosqraL6MSC6IpEOjFGiIAJKZF/J28PEQvIU/gGDl2iE/nHzLXTbP/7BZESZnLJRmiJQgISEAh8qNYPKhHHjm1XzrAmtrOMAu8BWACICsgzDjSC5rbq97Z6FX6BknB+iTZs6eVgKeEhECj8BCAYFBTAN0gfo+5Hvwbwdv3f60NoCw7WABgXDtaD+fEkLNDc379fd3f0jIjqhuN9B4QckTK9WmdJKGIqFiBKce+451No6XpEBDYTg3QY2Pj87A2GmBwKhHPMcD/V0VrXXzWZtBgM33/wPisXiBE091ZQISoIuKPAOqChSkGO8u4AAq+ujjjmGPvWpT7H+gOHzs0aBlMuxo3RJdlLaWLxq9kYMRPAH++LYuH5xXPy5TJZz8G8tf5OdJsLuq1evZjlfKAb6oPaHVbwoQ7qh8VzenVMskBsukWhACN2wuCoCQGCPPfZgGeY9Zs6gWbNm0W677Ubj2yYw0MGYADa4/bIAA07l5Es3JT0k1y2RDfm7EDoFQGBM2VSSx/+XP/2Zbr75Zlq/di3bAA2ySpaFDiChyHgy+VSPQbRw4SFcBdLU0MCliQBOSCMADGBcmCeAOMtSv2NMkkaQ6gTY7dVXX6PnnnuOYnFwTWBGAbECBiqCgs76+voP9/f3P6EfFdoCo8ECGhSMhlkaZWNElGDt2rWfTCaT3yWiCYMNH+F+PHyxwmMn4nIGsHo9/fTTuI0wHtyptNKzV+I1WWa1i/OEQwYxUFagzDUwVF5/9eo1dMstt9Dbb6/mc0CkSHVkRNcCl4/g/RaUStK7/QvQVnnRokX0mc99llnuWEkbpupPAKeC8eFahKAIJ+NdHYsdBBSI04TTheARVrLqGi12+suWvMFkt2XLljEo6Onudrv0eC1a0Snldy4CDCqMgVJJrhHldEcWEY5gkEHBnH33YZAw94D9WY0RaQYGIG5wBWBInKlENHBNsupGCkMcrESAcpEDl69hGg5lkimWP/7b3/5GN91wA6/sEfYvuZUABSrFodIX2EBCTaZSdPHFF9LhH/gAO3tECmBTAQUcpOHPqQhGcUmqzFs0GmOdhRUr31GBHU5/5KWtK4ktgQZhWdYfd99990/r8sRR9iDbRYerQcEuOvHb87Lr6+v3jEQi1xDR6Y7jVKi5U+FYn2nkGiPhQX344QvpzDNP5xUsiu2ythL+MXnR67AT4JI3N0SfSqnX0BVgZr/PzyvD++9/kP71r0fJMtVKMJPNEArZbPaEVThUtyMPjn3SySfTJZdcyitpzs2Hgty8COx7WQ1L9YIw3SXPLgChmLiINAFfj62iHkgDPPnkk/TYY4/RunfXclTA4VQAsdMuSEW4dihFhhQ+gDi74n04PM8mKPEIsNwQuW3TxMmTacLENpaWRq8B6C+E62oJhEEoMyZcKWHv9Yrz9DL9JR0g4kw5/oCr6JhNpdmp3/L3vzEBsb+nR+lae3tWl7hpBVTKXIrioT9gcFrko+edT/vuuy8lkwlWWIxEojxXiBIgMpNxyaECDOR+Em6FaVoMyp5e/CxFIrGcvgaAgTftVe77pApunFXhcPij8Xj8ue35vdPH1hbYFhbQoGBbWFEfw2sBXzgcPiMej/83EU2ubBpTlbWllcYLHuroD3DhhR+lAw7YP0d2c0gR3eA81Upb1ZvjYY6HeyKhSIh4WHNIPpGkF154gf7xj9uop6cvNwwmpmUzbsveCqAA0XXXaS884gi66qtfoT333Jv6ohHmEURjMQqGQzkCoDi6UqFoDEAcTWH4XGkZYBX7yCOPcM+AJUuWUB+iArgapCOwAoZz9KQAZFzkVl8IIVDOU2x3ITsWcxu4ysLlL/BKW87BqQUmRHAUIRQO08T2SXTk4UfQCSedSHvttRcT8kBIBAmR+Rummku5To6AuARFASfCocD4OKqSSlPITU+g/g/Eyd/feBP98uc/V/yNTDXVfJLfh6IhuCQZAigAQFx42KF0xhln0MSJbaxyuGHDRh6ndFIEKJByRCFPCsBTQIY49fDU08/QypWrPOZRIDMvnlX6TncJiVGfz/eLTCbzrSHqIVX++ug9tAW2sQU0KNjGBt3VD1dbW9sWj8e/bdv2pwfnEihL4QYUR43fEfpdsGABVxzU19flShDxXp4kpsLyikWuCH0IajNoIFX2B7nau+++m157bWmBhr23eRGnGcp1afR8M+YvWEBXffVrtNc+c/jYqDxAOBrAIJHKC9ZJLp0dnqdET5wMj9njgLlU0iG6685/sgzwG2+8QYlIlFfIORlgDxDw5uzzIe/SwEZAgITtc07Zc4MqIJEXb5LogoThGaS5vRx4rvw+1hkYN6GV0yhnnXM2tbVPUiTQTEYRQF0gIF0Kxflz2aenI6EMA2kDzJsAEqQoNq5bT7+/8Qb6w4035kdb1IJZ3hCtBOF0SKUhzIaqgbraMJ1yyil0xBFH8EfAy0DVhpwT++fKHV0+B4Mxto0aG/4tf+stevmlV2nLFhesud0xK33fXfsD2Tzd1NT0sZ6enjWVPqPf1xbYmRbQoGBnWn8Mntvv9x+UTqf/aJrmXqUcUfElWyB+OXauTLCuroYuvvgiWrDgIFXi5orty8NZiHxYmeI1nDyLGKFWngl1Jv+Oxja3336XSw5TVQN4+MuKNkfm84CCHJ3A863YY9Ys+sIXr6SFRx7FjhpdDeEsEJ0A0x8lisVMeS6tNEwm6IkSn4wfdft4zbXwkSj98AfX0OInn6JoJMIONZV0IybijF1JRy+wEBuqVWhh7t1bf18qZeDlM6jjqFRBeba/R3HQ09Wytq6OAcGnLr+MFhx6CAsGYfXNURK3SVKBjLNbZSHgLncf2OCTqPJS2DfS38/chc5N79H/++nP6P/uvFPtOggoKLSHiiyg3TYUCTGVc+fuzWqT06ZN4/TMhg0bciqJ4KsIB0TAgRzPywfpQrTgqado5Yp3XH2M0j0aBvlKbw6Hwz+Ix+Mo0dWbtsCItYAGBSN2akbfwKZMmRJet27dJyzL+onjOOFqQIHcgJILPuCA/ehzn4PWkVL8g7TQYBsiBOzsk0oUB7gAOeBrr72Oenv7K8rUQmYYgjisWZBj8BM76ND79epXXfVVOvVDp5EvqAABHD2cXyAUzEkVi/OXVTmcTMDnliPaStQHjo8dctZmIt2dd95J1113HUV7uocksL+9v7BDEkPCKjsUpsMPP5wuvfRS2m/eATmtCQEZOTKi63xhG5RFYrUu6QUGEk5e+8Dv81G0r58d+A/+49+5esQyDCZjYkIZRAB4mRbzOQbbQAkJBPx09NFH0oc+9CHeFRUc6XQqB9gG+zyug8syLcUteOrJxcxHwK3ijToNdgx3P6C3WxoaGj7f19fXNfq+3XrEu4oFtvczZlexo75OiBG0tEzt6uq6wTTN46sBBLxC9VgO4d6Pf/xjTDLEg9h2MhyuHmwDT44f3BnFNYAozY033kjPPfdSVa1vcXRxLhwyttCRMUP+UIg++alL6aKLLuayvAgaG7lhfTgFRAg4XI7VbURxDEQsCH+D7gCiAegeiN9ZTCieYF19NGO699572RFmU+gaWP3ts72/sEMYirS2Yl7BXnPmcGfI448/nprGtbhkUDVaaDZwGWAQoE2Vbwr3gFM4SPtIJECkkrNZSkRj9MzTTzHx8K3lyznVI2JFNaEwxRPxiqbj9JTP5GoRpKRQVQH9gQ0b1ufSBpVAgSKu+hikABSA/yEVCNXMnIBFIloSDAa/nEwmH6jmc3ofbYGdYYHt/YzZGdekz7lzLGD4fL5jMpnMLYZhtJRixJcalvcG3GOP6fSVL32R6hvqeDWGCgMhFRZ3QTQclB0q1gIDEEflgFFX/stf/poyWRVByHc5LJN7Z/0gkyBDzJs7oGOOP5G+82/fVWHxdIrJdFKvLyqBnNcnVQWBf0gpIPIAp6dKK6HHbPPvkNl9/tnnuBYfBEipKKiqAsJjuAEVecOc6+EfzwQphJsbtbW3c5j+xA+exM4XJZu4DxB1wU8Ao3BtDc+tRE4ABiTFklOzZJ6J4oakE0kGeX/+4x+oc9OmHIBCJCadqdywiG8RLmN16Nhjj+YyV5xn+fJlefXMkjemez84ro6BX6U4XnzxJXruuedZNjvtqhwOYQr6fD7fT6dMmfLjNWvWJIbwOb2rtsAOs4AGBTvM1GP7RHPmzAksXbr0GtM0v2jnZd8qXjRuQDhl8ArOOedM+tCiUylrQx0wzrnlcq2RBRRwaSL6Cph+Xpn/9rfX0WuvLWGCnMoViwJdaVCA3D8AAYd4s6oB0ozZs+nq73yXDvnAYW6o2KZgKMTvwbFhkxUugInU5QOURPr6uYwynUop+VzLxx0B77jtdvrTn/5E723YoK4XAj0s1lSmHr+M5YbvxAsPPNzjWb5AjiQIQBWuq6Njjz2WLrroItp3v7mK0EeKNxCLqzlFBYJIOkvaQPQM8HdOt7igAERMdDq86Ybr6bbbbmMdBSYnMmmzivSBi/IccmjSpDY6//xzWXNh7dp3eV7KgldD3S8grrKMss/ia3jnnXe5SqSvN1KxrTZ/3uWQuD+R63igrq7uq5FIZEnFL4feQVtgJ1hAg4KdYPSxeMq6uroJkUjkIfC6cH2y6qsUMcANCN2ACeNb6Morr2CpXRVLVuqFxWkIgAG1qUgBQAPq5X1WgHPP1113o6pSsNBit7jLoQcYyJ3viZcjdRCuracrr7ySPnrhBZTKKu0D5MVVagINj3y59r0cxTAV4aw4XdDb1U2tra20cf0GXune/c+7WDcBYACfg30UaKlCK2FE3zCqDFHY/+gIafp9LDr1/13xedpvv/0YFMDRo6wxR7x0O0j6rQBfXb4CQHWpzOk6IO1gWvTaK6/S97//fXpr+VLeP5tWhM+B91dhYyzRv+CpMg1auPAwbsENTgFSOULgzJnYBQPyu1S44H7ClkqlmXD4xpJlKm2VHTzhIj0SPGPdEAgEvpZKpf4yBiZ/RN+ZenBbZwENCrbObvpTRRawLOtk27ZvcRynVlbS1fAK5AY86vCFdNFFF5ABgT3D4VB9PB4dkPctBgWsKGeZ3NPg+uuvpyVLlikBo5JdDsuAArDR3NK/RR86g6sNJk2ZrACJq0ooPQDQQAgbnBtWvairR6QhnVStepubmjhnXReu4R4Fv/n1/9KDDz5IXZs7VIMkt24/T1Ib/aAA9uDKDKRNXDvWNzTQzD1nMy/jhPf7RMRTSeWAXXAFTgaz+12QlwMBTp6UydEEtwET5J5vveUf9F8/+iHFYzEVbSkqJxWw6L01vaJY+Htzcz1dfvnltNtuU1k+ekB77CJQIERDREQwnmAwxO23H37oEdbGqHbzgIK0z+f7eU1NzQ814bBa6+n9dqQFNCjYkdYew+cyTfPXjuNAmwASblVfKW7Auto6+sTFF9G8eftzPwL4DjjNRCLGP7HlblR2IvgHRT6lbIiV6LPPPE9/+ctfKJmCkI5KG8gqLT+Ygb0OWATIdS5IG3zta9+ggw5ewECDqwrcEkQmmzEpTnXVQzDD8mNsSkQJThHv9/X2MliAE/ve977HGgQQXALoYHEcdzAIfaPqgfsvjOINvSRkY/ljrN7dPyBiMP+gA+nTn/407T9/Xq6VtOzPstDQZYK8NeMyiFGpTpk4DuwFUMCRGNNibQhUI9x39915iw241QojBehwgf+823HHHcUtlgHe0BehYCsCBXiP9SV8AZ53gILe3l566KGHaO27G7dm5hzLsp6pq6u7ore394WtOYD+jLbA9rSABgXb07q7yLFbWloaurq6wKg+hB14YR51UCuAmDdt+lT6/Gc/Q03NjfwABls8nU6q0L3rsPlG9aQOGBQgjIwOBtksXX/9DfTSSy9ROgPRGglnFzqIXKgeBxMBfxmdadIXrrySLrjoY1wyh6oGThe4K1WpWQcogNMK+gMUi0dy7ZFxzkQ8ziAm6PPTf17zQ/r73//OFQfS5IlD5JAzdkmNylVtE1CgTEEEwgOEDvAPr/EPJ0CMHqQI+YlwB15vg++/SaFAkJKuiFOey5FDP3TgQQfRv3//P2j6jD24UgPiT6xmCKfvchJE+Km4WybAFIOxjGqYteyNJXTxxRdTMh7PlSgW3mCFcw5Ba26uZKHkEZ0eiRoaaunrX/86fwxVCIOBgty9bCqOCnonYByQokZfinSqMgAukUrbHAgEPpdKpW53520XeVLoyxwNFtgGD4XRcJl6jNvTAuFw+APxePwfpmlOEideIpfKQxCtevWwzbJXOv8jZ9GRRx2RW21j9Q/nIA9kVdKl8s5qtRbkaEDAH4TkHj3x5JN011130caNm/gcnhKw3DFkPPKe4AKs9rNpmxYedSRdddVVtPuMPVSPBb+PSYYCCgTsiB0LoiGGzeQ3AACAnGt/8xu68fobGFR4owOMa4omojgvXkqkqEiQCIcAOzFGRJtN03yViB6ybftFInqPiPpdMACQ4D0delAgMV6HJlWWZe3jOM5Rtm0vIKJpRFQPoGC6A/CG5kXdT5QOZTylIkLeB4r35Iccdih969vfpmm7T2fNh2g8xjLJKCUF8dArvywkThGBgsmgBMlb1uYSxd/+8leMadBQyatKiXOWmv/i+/+00xbRySefTMuXvaHaRKdVKkA+C5CHew3v5fskoBOjihygmgQNnLK228jLbQ7lVYMsPqdH+ynt85nfr69v/Hl3d3fv9vxu6mNrCwzVAhoUDNViev9iC1imaX7Jtu3/ME0zWAwKBj6g1S2n/p6hCS2NdP5Hz2NCmmqqo4h4smLEa+wLnoD6qVaMAAVoehSPJ+ne+x7gBkJYhYrz5tp3DxFNQAEIgVJloASLiNomTqRPXvYpOuuss7hkDvlvpAOEU8DOvExKBMmLcDDENfXY/9a/30y/+93vqGtzZ67Bk9dgA1QTB1loijPm8LrD4QU4/Hcsy3re5/Pd6ff7n4lEIp3D0dNvbW2ti0ajszOZzLnZbPbIbDY7HZITAAjlnH/B34sIm8UPFCn3xNx+8NRFvEKvb2wgw+dWDiD64zadEjsJ0ZB/t0W+Wr2LiAHEny75+Cdo7Zp3oCedC3eAsFrQcMljeOFwyLEnTpxIX/nKl6m7q4s6OzeT36/EpaQqQuYccyBAVCIFUl5533330br1CohKeikX2XL1lgeqSir6imUZd9fW1l/Z19e3Qj9StAVGkgU0KBhJszE6xoJ7xjdlyhRfX19fOJPJTI/FYmiRvMiyLEtWSt5IgddRi7MWYtmCefvR2eecxVUHipGvGutIS1rsr/6ueh0IoOAacdOiVavW0C3/uI3efPPNAkCQBx5uaZn7kBZgkcsgmD467sQT6IorruDaejiVZEZ1ZJSqg8FAAZwS58LTGXrllVfox9f8kN5cvpx8bktoSRXI1A4VFNg2twkEGHjD5/M9GAwGb41Go8vcaME2vWPC4fDkTCZzXDqdPpWIDiaidsMw/OUAkeIPuFdURobYnRQFqgyiK7/8ZfrYxy+mYE2YUhnIELtNNF0ZZBcA5eaZBZ7cEkVetcfiHCm64brr6ac//i9yEFGSbFAOQCpg6R23936Uyo/PfvbTNGvmTFq+fClrTODeiMdjLoFUyWhjEyDKkQtLcVxwbMz3408sHnDfyf1e6r7xViH4/dbVLS3j7x43blzP0qVLEf2pnIvYpjOuD6YtMNACGhTou2IwCxjTp08PJhKJ+lQq1WrbdmsqlWpOJpMN2WwW4eZWItqPiBaaponXhqyUvBGC4oek5FgRET7t5A/SKYtO5iiBCuMmXeevnDkr4TFHQD3oZfXMhL9Mlp588mm67fY7OZxbCggURwzkYkWfYFL7FLrkU5ey6A4U90AwZMDiNsKRUHYpI/F43BbO76xazZUGDz2gxOrQ/Y/r6Yue88WggFe33u6HhStMxLQBBu4OBAJ3xGKx17YHGCi6NqO2tnZCKpU6KZPJnOU4zmFENA7BHcybIgOqueE5FtGnQUAB3grVhJlzMb6tjb73H//OGhAcjZGlvanmVpywcDh4nqDp4KpJIlIAfQHoQXz+85+nN99YoipYzcLyVe/9J6/lp0QN5s8/gC684AJ69901uZU+WiyDKMpS1iybnffTigOhgAJsgeqSm2+5lQFrLi1Vgk/jBSieKAvSO9AquNeyrBWWZfX6fL6YaZqRYDDYkUwmO8ePH9+/Zs0a8EM0WNDP6R1mAQ0KdpipR/6J2tvba6LRaJthGLvZtj0tmUyOTyaTLe9XFkxwHAdtkNsdx0FoGaQ1LPGwbGICm6Eax+cuslQNufxNVm2NjfV0/jln0wcWHsalfdJAR0UEFKsfn5FIgTq+ctrYunp66c4776LHn3iqLCAQQCJjy4MKh6MChxy2kL72ja/TPvvsw8qFDETcrn2sse86PTmnV46XHVgmxWmL6357LZfMRftUm2YpmSsrDlRCJ6HoDkFa4I7Gxsa/9/b2Po4S+R18B1njxo2bHYlETk6lUuc7jnMA5rsY7OVi92VAATgZqneAcviYhwMOOpCu+tpXae7cuQwKiueG54DUP+rYAQAAIABJREFU3Iu9IT2N/WqCSkQKFQD/uPkW+tXP/1s1xHLPIzbyOmk5rxcc4NhovnX5ZZdROBzkygYFdBQ4ET6B3IMCVhApwN9UdUyCQUFnZ1cR/wWExsLrGqQ8F9wQ/GNyqGEY4BhsNAwDDMhNNTU1nZZlbXIcZ5Xf798QDoe71q1bF9/B94I+3S5kAQ0KdqHJLnWpqBxIp9P7ZzKZBalUaoZt21MNw4Dzn+g4TgMazsEZGKBduw91ycvi4clqb65+vTzcy6yMBqymZs2aQRec+xGaOWsGKxjiQSsrRLgFFiESgplb+oYIgZzvzbdX0J///Fd6d61ikJd7EJcbD3Lbl336s3TBxz+W72jo8ha4DM7vzzXcKQYFYksoEj78wINcbbBl82auw0fSGBEAPm+l1syIqnvEelw2+uvBYPCG2tra27u6unBxO22l2NbWVhuNRhdEIpHLiehM3A8FwKACpwD2kNQBO123ogTiUJ/5/z5HTU0tfHESgZDcvIAI4RSgNJE7Y5oWzwvIf28uW07fufqbtHypkiwWLQmZGy9I9QICITWC6HjiCcfRggUHcl8DfB7cAhmLzLncW+reVL0a5L587PEnWVpb8HBxVEIBDfWZ4jSMF6DKd8uzD8IxSCkAAKBucgNAAhGt9/v9qy3Let2yrCXRaLRDVzDs4g/xbXz5GhRsY4OOlsM1NjY2O45zSiQSWeQ4zr6O40xyGeiIj+bqusqRzbzXWc7pFq/aRIMef8frY445hk5fdAo1NjVwC+A8AFBrRfUQVg97rghwdQLwMxFP0qNPPE633no7JZJKKljG4R1zcVjXW4S337x59O/f/wGL7MDhZG2bQ8YcrvapULmsFL2gIOc0QPdfv44BwWOPPqoul9UULbIzqntf2YBA6TeSlmU9HAqFflFXV/fkpk2boiPkfjIaGxunx+Pxy1Op1Gfd+0QNrcwFev+MOYA9M2l3nnw+5pB8+StX0dHHHc+ATEL66DFR7CxxGmmghIgBAEFLYxNtfm8T/f7G6+kPf/gDzx/3mzBUJEkAgjcKkQecCoRgrmfPmkGnn346xWKQLS4u2OCEmAIBhuIS5EtTlbNf885abm4l6pnAsFIp463WKAWYB0RdSky2fCccd3MjRhHDMAAG3vH7/YuDweDN/f39INXsNPA4Qu5TPYxtYAENCraBEUfZIfy1tbVHxuPxT9m2vdAwDKQGAASQAShYzRQ/tGRFK6sa+Vm8QhdnWrxqUrLFcLREoVCAzjr7TDrmiCNcsRr1PJNVlYAC1LFLAx28x2qFjkO9PX1025130BNPPpNzKAMAgJv7zZWJiXKhYTCx7PQzz6Svf/NbrEmA+nocF+AD55PWyHLNuVUjdAbQCImbMDn09z/9iX7605+yJn9uueh2XmTH5N4cA57W7hssYsTOiBKmad7V0NDwgxkzZix98cUXh9YUYQfchPX19eOj0ejHbNv+NhE18epcWhcXXaBcd64lNbpZeoSirECAjjzySPrGt66mhuYm1oaA/b2ggMGZaaq+CTElZIWuk7A9CIf4zOOPPkLfufrqnIS0FxQUl6F6UwwABAASbRPGc3dHdOjE+cApEACqQI/SwUBvDQEF6j5T6Y1YPMmiWbFYgoNE6juRb6tc/J0qTnN4oxGlprA4ulAE0nHjoORmpWmav7Nt+ya3HHUH3A36FGPVAhoUjNWZLXFdiA709/d/wrbtz7//EJnsOI7PQTx+O294WOKfRNIBDiZMmEBnn/NhOnD//YsEfArFfBApkNUZHsbJZJrr21etXE3/e+1vacPGDrVaLeOUcnXrLjdANSHK0rgJE+gnP/spzV9wcMFHi60hQIFFh1RpIBPRILWLFrqf+vjHqa+nh0l02DxO3gNwCksaiyIZzv/P3nWASVFl3VvVYbonM8MwZAYQVFARMKOiYBYDKv5mXfO6a86ucV2ziGl1XdeAOYvZNa2ggJglKCo5DGFgmNy56+fc9151dU2nkTxU+fGNM91d4b7X755377nnxuNxAIIJRUVFf6uvr1+wOe/4kG6qq6s7dW1VBCpOOtrBpNXptdoJW+SkAcLcXi9ddMmldPzxx1NBcRHn6NE7AYdKS9mnpnWyollS9ZLF9Oijj9KE119PeqsicGYEZQZRQb6PGzjttNMODDwSBEPJC2BNKKtwlvUyGkepPvvsM5ozZ54Yf5cA1lIh24oTN9i3TNf1uGEYzYZhvOP3+68OBALo7ewcjgX+kAU2uEP4Q3flfGi9W6Bjx45dGxsbLwmFQpAiLkpFBFzvF+WdfzIYELv9GPXp04dOP+NU6tEFWQsrEEgGBUpBUO0asdhih/fTj9PpP089SeGIKHVLBwrUTpVFirgBEZE7L4+GDRtGd997D/kKCjOCAiWYBBY8dpeIIuDwrN213vGP2+jVF1/gjojqsGvyp7KzbbcHctm7+fn5FzY3N0N8aLM/wDOora09NRKJXE9EXex8k4zcEou1AQyG7ro7XXr5ZdR/++04jQAwAKKnqlCx76TtC1YsHGKC5yOPPEJ1dXXckpojEjHh1JVXThup0Yh22203bpQE0Kd6IQgQGycNyCMtKCCKxGI0Y/osmjJligl68XZr1GBDD6hljkU0Tfu8tLT0ijVr1qCyYb3IZW7o+3fOv3lZwAEFm9d4bJC7KV27SjQ1Nf0lGo1erfLBGwsUqAVSEbFEwyPiRRhh24I88BjTgwKkC0SoVxAaoWIIpvhHH31E737wkXAxFlDQSjxHEtCQ01Zyw9raevdr/3YdnXHWmRz+tR72SAHKCkV3RJ0jBKGgCC9XL15CY8aMocba1SYgsREGcxnLuKZpnxYXF59fX18vtppbyIE51dDQcG48Hr+EiDrrus7VJ6kAgXqkVnMObaf9BfSXC/9KJ510EkcLAPh4SBU5Tw6oqkKwmgcvYWf+43ffM69j5owZjEARbeCSUEu6Qn2uVUmoQdSrVw9WN0RKCaJZQo9AKBWaoMA8QbKMcswwqLq6mt55+z2KxRBJEm+08meShzSN9Pb6G3dM6HeLioqud3gG68+oW9OZHFDQ/kdb9/v9YwKBwIOQt027QG9AO6i2tdxmViPKz/fS0UcfTSNG7E9u9ujZIwVKpwCgYOXKlTR+/HiaPmt2VlBgdwLIZUOP4OXXXqWePXuSpgsCmbnm274R2HGqqghVSeDWdA5ZP/LAg6xEoHazGcrO0ln3t+Li4lMaGhq+2YDm32Cnrqio6FxXV3dVJBL5EzgG1nRBOtCZ9HfYWnfTkF13oVtvvZW6devGSoewdyAoSlRRmsggIQ2FDuJFaGo07t6x3HyKkP9HKalsrWyP39vnA1x0UVEhg4Lu3btzaayoelFoxLbZNvtvCLMamsYg9f33PiQoFoObEI2CC5GurfKGAQWKnCn5KY1ut/upDh063FFTU7NFRJ822CR1TtxmCzigoM0m27I+AJU6NF6JxWLQuE861k+0QC1yqSOVKn0AzRfsosCpq6rqzlGC7bbblohZ+vhs6s+DU4BD8RHiMYNz+ePGPUD1Tc1ZQQE+y016YlEOUbg8Hu7c98TTT3EEAN3vMh2KpY7UA97v9+bR3N/n0AUXXECLFy4kisdYpEg5L3ZgssTQXoZms/dql8t1TSwW+8+WNaOS77asrGxgbW3t3UR0gK7r3lSld6nmHZw8bKa7POTyeuia666lI444grx+H4OBloBQLlQ6Ea3Ooby7IciILzz7HD384EPUJHUiwAHJRTwKypP4/L7D96bBgwdzu27Wp4jJUlvFKbDfgAIHrIIYoG+//ZZ++GGGSSzd2KDAPud0XZ/vdrtv7Nmz56tz5sxJDodtyRPOufcNbgEHFGxwE2/aC7jd7iui0ejtSIPbmc/r584ygwJcg4GBXMS9Xp1GjhxJo0aNorw8L7nNHHO69KcI46IKAQ4nEo7Sd999R/9+/EkWH+LzZkgfiG2mrKqAgE48Tldedy2desbponQtS9YV7+GdIwAFaYTeCU8++STddddd3JxHae9bN7I2zoC8BfFVk+H1sMfjeaSgoOCWOiTCt+xD93q9R4TD4Xs1TeuLEhZrxCSdLRQo4OpXjWjfkSPotttu40oEMS5C1joXUID00tQvJ3O0YeHceVya6CKL2qLFvqnSByAlDtp5Rxo+fDinD0QzpJCIAKVopSwGUsx7TB+8b9myZZzSaqiHDpEpV5FiZNdvpCCVBoIsY4zG4/G3O3bseO2qVat+27KnmHP3G9MCDijYmNbeyNdCs5uamppPpY59K9W39XM72UEB51fjBqcNoBx48MEHU//+/QTTm8O06T2zYHFrZotdRApeffVV+ujjz9ifsFPPxCmATK6S4sW1dJ1eee1V6tu/H6cRVEVdOlvg1AjJeqXm/ZrVtXTdddfR5ElfMEeBtZUk4mEAAWHjNM2T1DVcLtekoqKii+rq6iBbvMXXlkMJc22TopvD4fBFmqblKSClntfquKwLjixCJVeel0rLOtA999xDg3cZKiItUrTKGoFJNUYQjwJQW760mkHFF//7nMelraCgqndPBgVQ2RTjJ8cxB1CA+8IcQS+EuXPmc8Mmm2aVVfrD9hjrxgVMpXVgAWLL/X7/BYFA4G1H4Gj9rHZbw1kcUNCOR9nv9+8ZDAbfhTSxnQSXi3BKW0yj/LL9JzbnoBLAd+6x1250wIiRtE3/fhQOBoVYEdoOK6ed8oK6FDUS0rMa6fTAAw/QL7/8Sui6m5VoqEABGu64XNS5axd6fcKbVFxawukAsyFPuoeV6nVQ0mtpaqZffvmFrr7iSlq6RFV9xa16SMm9im3Su/ISK1wu19U9evR4ecGCBcG22Hhzfm9JSUnf+vp6OJ8BqnLASjpUQCEVKFBdEi+89BI67bTTyOPLE0JU8oEzFc2i9wTeGwmFmVfw8osvURTzBHOjtWdOjI8FSKKypFNlR9prr72oe/euPC+8Xo/skpnGactIAdJRKGXkMtVAgGbO+JlmzpxJDQ1NGciG62MkGY0mncjemwJAQNf1f5SUlIxzWjSvD5tvHedwQEE7Hmev13t9OBxG2Rgo/mkO4XQTLY/FlFAlgCwzm+TqrOHPxKLE3QoQbeVcsQAB+OnRifpt15/22n0P2m7g9lRRXs7kLCMWoyir/4nbUpVfqW6SF/2Y0AdYvbqWbrzxZl6Aw+iUmKYQPfFnIX7DpWZuFx1+xCi6/qYbyef3mwRB6zWtDgjPAnldFjNy6eTWXXTfvffSM0+P592kYsrnMoWkjeHnxpeVld1YW1u7OJfPbUHvgcnPXFui+Jjsi5E0rzI+h+w3MHDHHelf//oXdSgvo0jc4BSCUvRL93mOJMRFCeObb7xB998zlupW15qliIjdJI1vmhPl5/tYTGngDtsLdUQIT0luSKZ7h+yxtUEUAEVNTQ39/vvvtHDhQqqrE+28cWQqU7S/prQ9EAkDeVERbRMluphK6bk46poej+fT/Pz8c7e06pYtaN63u1t1QEG7G9LEA7lcrtdjsdiRsnFRRlCAF8XillhErSVdSilOEMmErr+mgcwlFm44XogKlZd3YBZ3jx49qLy8nHr16sWEMW+ehz/DdegyX8xdEeNCuC8XUID3L1q0lG6//XYKRyIiRJsFFJBsYSwuQnT13/5Gx594AnmknLEKtSrj2Hel4BHgnr2aRqtXr6Zbb7qZPvnkk/RKhWmsLEmGK71e7+XhcPiF9lhDLtNV0HseKpxgskJmKtOYgE0j8ufn01Pjx9P2AweIdBEZrFmQ6cB44TrY7X89bRrddP0NtGTRYiawivkrtCnM8U1zMjheRArALcChQEG25UH1QlDCVtYqAAAEgFc0zEKFAv6hkVNzczOnzvA6JiU+y5U5KQ6XW/RNwOuqWyg3BeO6FymslFmOAL0SjohEIj9kexbndccC/L11zNBuLeAnov+irXGGhGbSS1jQRLUA6q1FWRZEetSBxRekrpLiDtSxY0cqLi6mXj26UYcOJdS5c2cGAaj1xhGLi652HKK3tDwGkFAOg0GCUhrMsParSAE+98MP0+mRR/7FsQvWpkmz2quJDXa7KXPscdFzzz9Pg4YMZjldOyBgZ2D7RgAU4Dmgs/f1118zKJg7dy5/caBeGM1GSkg4x7jL5YJI0VWyfrw9Tjzd4/GcH4lEUP4qY0CZH9OMUkm1w+tuuIFOPvUUIWetJ1II6c4CvgiABaIFtatX0yUXXkQ/ff8Dk004jRFLVou2TzMrcBk8eBDttvsuDGJTkAJS3gK0CayyyKpXhjktbY2QVIQJYAHAAGkGtP0G4ERL6GCwheerAhmBYNgEDOJexQR1u7wUjSnRrIy8BPTPOI6I0NN73QgM7XHGOs/UygIOKGinkwI69Y2NjVgI0PI27Ti7rE6TbYFFTmMHj51/UWEhlZYWU+fOXamysoLKyyuopKSECgsLOZwftWnF84JmqB2M0IC3Eu8AClRDIRaHcQvfkS1SEOVWAwb997+f0GuvvZEzKEAsQ0kbd+7ZnSsHevXpzSVvuH8TMMh5kAoU4D4BCl566SV6+P4HeBFHiSJ2a9mIcAoAGYbR4Ha77+7evfvY9sQlsH99CgsLBzQ1Nb2vaVqvbIRL9VlOEegaEwSHjxhB//7P49TcHCA3iKBZIgUKFEBPAhUiV152Of33/Q8YFOQSKbCCgm237Ud7DduDioqKSEvR1TDVUqHronGWcuJ2MCDagIueHiqKIHb+MSnlLEC3uI8Ypy4QWYD2An4iRQawUF29nCMMUXwRxBlzSh9AMXptZ8VzBgwY8MLPP/+8sdtvt9PVtX0/lgMK2un4+ny+PuFw+L14PL5t5oiQ4Agkwp4RqqrqSQeMHEn9+29DHTp0kD3msbiJZkZWApluYdurXVJiARSLn2ogZH8d74vInXY2UBCT3vq5516kzz+fyIT/XCIFAAWqnfGQPXajO++8k7p078bpBxbHsbc2tn0jNNnzQI/FmB3/2ksvixSIaGLUltKBnwoKCq5obm7+pJ1OOX4s9Neor6+/3+VynRqLxXJaX1RjJSgR5vn9NOnLLzh9oEOaOgVZ0Go/TAt2/rE4eT0euu+ee+mpJ54kLSYaGaFkNOn9aYyPudSzZw/aZ99hYs5bOiJmGi+XC5oGMRNcWp2/HSCouaYiZ9aqDKXvIF5LmA38G4CBqVOm0axZv1huJXvVj8K5RHRV9+7d/7lkyRLRoMM5HAtksEBOX1rHglueBTwez67xePyVWCxWlenuIQ6kFifUaOPo168vjTnuGNp22/6tdtJm7bYhcp1uW694tfPCrsfayAgLv3rNChII5Qk5RAoACvD5++9/iGbNmkVRlYPNwimAYiEvxppGhx45iq6++mrq0LGcowdKvtjuZKy/AxTgug2rV9MNN9xAEz/9TLRTZqSVW6QA2RSXy/WG3+//a1NT08otbzblfscDBgzw/vrrr8eDcBiLxfKzfdJMH8hOlYjATHjvXdp22+0pGAmbpYnpzmNGdiBWpGn05muvs+RxLBSW1SXZiYbCERNHx/YfMZwqKirIJfUpUqWYrPeC9AGeQaUQVP8ENfeZ7+By8T8cgj8gvhs41N8TAEL8XYELdfdfTJpM33//o0l+xMeF7ZI5E2nsdFdFRcU/ampqEqzHbAPjvL7VWsABBe106PPy8kaFw+HHDMPomukRdV2E98XuP86ErcFDBtHo0UdRly6dZWlYzIwOIMeeqC9ofWa1iKqfiZ7yqUkDcTRDyBEU4H033fR3Wrq0OudIgQIFqHv/07ln0znnnEP5RYXsbLi1saJ9y0dJlT7A4jt7xgy65ZZbaMYPP/I728IpQHtbn8/3cDAYRCVI8ta1/c0/rbi4eLeGhoaXiCgjIE16dNVa2TDonnH30WGHjaJQNMLgLdOB9A2DTTRAIqJpU6bSVVdcSQ21a+Q4ZQcFosIhzumyAw8ayXLLAAW5pD9ANLQeKo0AZ49IFHgDao6pSJk1UgCRJBWlw3nsipBIj+A83333PU2Z8hWB8GvtsZDj9HmqT58+l86bN68+x/c7b9uKLeCAgnY6+D6f76xgMHgHEVVkfsTEooZ8P6hdQ4fuTMcddxxVVHRkhnPCcUJTQJxNLZggPlkXNWtuVS1+CnBY0w7m52VNYi7pA5z7yiuvobq6hjZxCtiJ6zpdc8PfuOcCQEEoHBYyujINoGzUqiGSfN4v//c/Gjt2LC2YM1c8v9zp5ag8tKigoOC65ubm59vpdEt6rE6dOvVduXLlo5qmHZiLY2VWfTRBCPzrpZfQmWeezXoFbUkfoHx01vQZ9NcL/kI1y4Tkfy4liSqChQqEgw85kCtmPCApZkld8PnZSQucZ42Gqb+pvhnqO2MFCOLzie+TXdeB02tSbnn69BnciTESlpJPtghdpnmlado73bp1O2PJkiW1W8P8c55x3SzggIJ1s99m+2m/339lIBC4Do1qMi4YnD3FgZ0WIIFBw4cPY+eJRjGqS1ySwJBV5c3WIKatBskWKcBCKeRuNSb4XX31dRQKhXOOFFhLEu97+EHaf//9UTZg7kDtTssOCpA+gNN685VX6P7776dVy1dkbslrM4CmaYamaT8CpLW0tGwVZWFdu3btWF1dfQMRXZRtPijpbU2mkQC2jjhmNN1++508TtlAgdpJh4MhyvN6qWFNHR11xJE8TrmCApXCgIMeMXI4DRgwgEsSlRhQtmdYr6/bFBSZE0NE8+cvoPfe+5CUzlcu5Z4CdHDEY2LXrl2Pq66uXrVe79U5Wbu0gAMK2uWwEpj1twSDQbS1LW4rKNhvv73p6KOP4gqDVqDALvu6EUABFm2AApRtXX/9TdxG2a5hb2f8mRNb6hTk+Xx030MPsEANiyyl2Wm1Us+TOeOXnn2WHnzwQWqub2gTKGBNJ037rKCg4KS17atr2ul0S3qsysrKghUrVpxPRHdm1shQeXEkyFFfKkZ1t2F70RNPPMU6BeZWOo3hFNEQXRFBNAw0NdOYY4+jRfPmC05LDuJFVlCw3/77sBQ3ShI3B1AQl1yahQsX0TvvvN9mUCDN9nXnzp1HLV++fKuYf1vDd2xDPqMDCjakdTfhufPy8u4JhUJ/JqKCtoKCkSOHMygoKCggzWRv/9ESZ3sDmOS7gYPGkSl9IOIYOi1atIhuu+1OUZalfEgOioYAACijBCjYfffd2dmYErq2krdUkQI4l6f+/W96+OGHyYjI7nm5pw8iHo/njUgkcoosD9uEs2KjXRoVnCcR0aNEJIQrMhzslDEiGAtNo559etO7777P46R6IKT7OCIMqAaBnA80NWLhCJ1+6mk0/fsfcgYF1l33vsP3oh122IE5BYqAm+3+N+TrijMBHs2ECW+bvTpyjRTIe5vRu3fvA+fPny/CJ87hWCCDBRxQ0E6nh9/vfzAQCJxFRBkZ4OgloNTRuMTPIDrooBEMCliIyGQ3bzpQwCF+3U2zZ8+msWPvZzEX8LtyUTTkBrq6TpWVlXTP/ffRkCFDuAxSiB+1nv6piIaoUnj0wQfpP489xjWISukxl+oDTdOCeXl5zwaDwXPb6VRL9VhAgscSEdpCZ4xU4cPs4DAUEhSUV3aijz76hNsoZ0sfABSwDLXbw0RDgMvzzz2PJk+cxPeVS6TA+gDD9t6ddtppJ66q2ZxAwcqVNfTqq68nNfBqAzD4raqqaviCBQsE0cI5HAs4oGDrmwN+v//hQCAALfqMOzUrKFBWOvTQA2n0UUcyES97yZMdLGSODAjRlcQRl+mITJECbl3s9tKMGTPowQf/2eZIARjsYJTfdd+9tOOOO5qRglxAATgFEJR5eNw4euappxhA8YFGSdYOjGmmmK7rLX6//7Hm5ubLtqJZCCMdJUFBeU7PrWrzDYPKKjvxrrisoiMrT2Y6AAowPnkedLyMMSi4+MKL6H8ffyLTPLnpFKhr7LHnLjRo0CDK8yDYsTGONKEueWnoFOCoXV1HL7zwosqw8N/aAArm9+rVa9jChQuXbYwncq6xZVvAiRRs2eOX9u59Pt8jwWDwjD8CCg4//GA6+sgjWNJ4cwIF06dPp4ceekTUeisskiV9AKIhQtJglN859h4mkYHAlk4pzx4piEeiXFYGUPDic8+ZakW8K80BFBBRo8/ne1CWI7bT2dbqsWCew4jo8bV6BV0yOnVV+qd4HvE4g4IXXniJRaayVndACRGKkxARQhrBILrskkvpkw//m5Oiof3edtt9CO28887kz8vLqSRx3Qc0OyhApKy+rpGeffb5JCDQBlCwsFevXns6oGDdR2trOIMDCtrpKPt8vkclKPBlXJSlc4tb2hePGnUIgwIhUZx6pyZbGJBhEg/TRQiycQqkWEuG1Z8JYy6PGSnA80C8iPs0mOSA5KdMIhqubU3Yu3dvuuPeuxkUKKW8VOVyqYiGqHoAKHjlxRdNUAA9B9gsm9PSNK3B4/GMW7ubvbmdTrVUjwXzH0xE/yaiHrmCAqU8WdKxnF588WUGBdk4BYpoyN05UTFAGl1+6WX00fsftClSoDJJu+w6mAYPHkz5UgI7m3jRuo9pliVY17jksamxhcaPf9YCCnJWNMQtOqBg3QdqqzmDAwra6VCvKyhA+kCJuqRc9ZVeAc8g1Sw51TvXHRSwoIvmYiXDceMeYhlYgAK3W6eoChnYvHNi/yWuX2UBBS6vh8PSnJZg4ZrEYW+d7NJ11qFnUPDSSyYKwc40GrNUQaSZRy6Xq8nlcj0cDoevbadTLR0oOFRGCjKKZ+HD5o6Xwy86FRQX0ZtvvkWdunTOWn3AHTc9bopHIWlskFvT6Qr0P3jvfb6vXDkFahoM3UWAggK/nwmMGx4UKPOlXooVkbI1KGjTbHJAQZvMtXW/2QEF7XT8c04fWFoLoxESdluHHHIAEw3zfB5uLGM9NFsJIiIFqoIgoynTlS7mwClAaVggFKF58+bRXXfdxxEC3Faq3getJrR8vh49e3IBKJLSAAAgAElEQVT6AOVmAAXofcBSsnKLmG7Hj/MhZ/3Qffcxp8ANMBCNklt3UUwSFrNMoUB+fv4TLS0tF7bTqZYOFOTEKYB9megKkqskGyJS8MEH/2Vw0KqroRXAyf8HaMQ4woEj3XPJRRfT5598mgQKWo2vnCh8bXxeElf3GrYbcwrAYgXRFmO9wQ98B9J8P1RxDNouv/DCK3wruFfRgyTn3hsOp2CDD2L7uYADCtrPWCY9Se5EQ48s0MOuWSj1HXwwqg+OJm+eu1WpYAIU8ArO6YMNDQqw2EdihgQF9wqylZa6+sA+oZXMcecuXbgkEaAA6QPVOjlzRlcQCuEYUH3wxL//ze2SWR5ZOaTs8yfkcrleiMViqATJlm3IfrYt4x05Vx9AxFjBTrRKhr07dulM77//IeXl+zOCAuH1hVNncIEywpjBUtZffTlZWEqmv9KBAnUBBQpQfQBOAcSLBKfmj1bd5DhQWXU/xExbtWoVvfjiq+qRTcJhjhPq96qqqn2d6oMcx2Qrf5sDCtrpBPD7/eMCgQDK4LI0pXGbJYlqeT7gwOE0+qijOVLgNmeICLOnihSsiwmz6RSYeX/dTQsXLjR1ClxIHUi9ArH4i7tIBwpKSkvpn//+F1cfcBMmizOxfLz1o8i2uE8+9hg9/NBDDJKEKI70OdkfHlvNt4gIOgXB7G9vF+8AdR/P+89sRFfMPlEgCp1gnUFpr2360ltvvcNttTNFCni8uSkQ99VmUOBdm2YaM2YM/Tx9RpJOQTZQoMpx99l3TzNSsFHEi3IEBStW1NArr7zWanLkCApm9u7d+wBHp6BdfLc2+EM4oGCDm3jTXMDv998RCAT+SkSFme9Al3nTuMm23n/E3nTM0aPJn5+3yUEB54yhQ0861dTU0HXX3cA6BboLBCyI3SR7Z/uEVjKxHq+XHv3Pv2nXXXcl7EhRpogdf7b0AV4HMHnxuWdp3Nj7KBwMms13ctEpkBvhz/Pz809paWnZKkrCKioqCmtqav5CRLfB1Weaf1bCpu52cfpqyO670TPPPMcRKHuVSOvxFX04VKRAi8Zp1KhRtGTBwpxAgSoxVeBz+H7DWKcA6YONwifIAgrQWwH3tnTpMnrzzQlJJYkZwWyy0b+trKw8fMWKFe26Q+emWWnb31UdUND+xpSfyOfz3RgMBi/PLh6TDAqwY0II9djRx1BJaZFpndY6Am1iP6e1crZIAZeboWFOzKBAIECXXHI5RwiE+JAlHp8mUqBAAd489sH7aeTIkWbvg1SgIBXREPfw7lsTaOw991LtqlVMNlS58Oz1B3yrPxYUFJzZ3NwsWiy286NTp06Vq1atuiUej5+X7VEhnQV9SR5PGSk4fK1w1l133ZOkPGk/jxULWjkFTWvq6aijjqLalTUyzSPC/5k4Bfw699jQaPh++4gKlWw3rl5XTn0d5b5bX048IYAJ5umCBYvo/fc/+KOg4MvOnTsf48gc5zqoW/f7HFDQTsff7/dfEggEbiSiDtkiBSwiLMOwaFo4dOhgOu6YY6hTZUczerCpQUEYQMAw6Iorrqb6+kZe5FOVJKaMFMjY8DU3Xs+hZXee1ww729MArbokwmnF4zTli0l095130YK5c9nD5Jo+kMz6+YWFhVc3NTWJpHA7Pzp27Nh/9erVjxuGsW+2R02yo/zlL5dcTOeff0HG3gd2+6NKBMfc2b/R6aefTk119W0GBfn5PgYFffv2JU2mI7LdP20EUABOy++/z6WPPxbkSeuRY/rgne7duztdErMOpvMGBqKOGdqnBXw+3+nBYPCe7K2TxfNbQcEOOwygMcceS927d+fWydZDb7UjaisRK/n92bokmrslQ4Tx//GPO3jX1BZQwM2P4nE649yz6bzzzuPWyabMsaR3m3IH9m9EXDDbZ8+aSXfdcSd9/803bA7FWs82e6Rd630+37hgMPj3rYBsqBUVFQ1rbGx8ea1OQfZyRGlLjrhoxGmde8bdRwcddEibQQF21FMnfUlXXHEFBZuacwIF1hBCWVkp7Tt8b+rRowenD3KSObaH/9WEyDlykHkJ1jQXV7/88ssvNHHiF38UFIzv06fPxfPmzavPNl+d1x0LOKCgnc6B/Pz8w1taWiAek3FhVjXiimiFSMG22/ZjUFBVVSWsY1n4NjYowMLMDW/cXv4JRcPp02e2KX2gQMHRxx9Hl156KRV3KOXPg6ug4rGZQAHet3ThArrjjjto0mf/MyWO28BMj+q6/mJJScmFa9asadcLc1VVlW/p0qVnRCKRB4jIm+3rhfQBj3E8xqDA4/PRU+Ofpp2H7sJ9D1IJTFl3M4pzAOCG+fHfd9+nv//97xRqbpFcg8zpA5OgqhFVVnZiUIA+GTm3Tt7AoEDX3ayoOXPmTJo8ear4OiYaSuZaznJ3RUXFrTU1NU3ZxsN53bGAAwra6RzweDy7RSIRFDb3yuURzYVGI+rXrzcdevAhtNtuu3KzGS71srQaZmKX+hvK82Stv5WYxYJDMk+LHZz6jPU97AykkmKm3gf4vNvr40X/mWeep0mTvswZFKiSRNhg932G0W233caa+t68PEKjIzvR0J4+iIYjXJoWCwXp3nvvpVdeepmioVDOxYUSdAFzfFNUVHRpY2PjlFzGY0t9T7du3cqrq6uROhgNRcxsdf5YgDxuD4WjEeYUlFdU0PsffkC+gkIGBWazJGkQpaSp7IM5hHFE+gDXG3f3vfTCCy9QoFH4PyVelI5TAKlqQWbVGATvsedu1KFDB+6SyFUmKZpmWccmbkSZ84ID92HENb4P9TsAJc4BwqASysJ3Aefm8+tQDRXfJ+Hwk5dkfAbiWd988w39/PNsfo+K6uHc+G5kOYCKrqyqqnpkwYIFW0v1SzabOK9nsIADCtrp9Fjbma9vJBJ5Lx6P988lTWQVRCks8lGPbt15x9SxY0cqLS2hzp07U0VFBRUWFvIOG4sR/vm8cjNoaBQ3xN+wsOE9+IfQp8/n5QUTDgJNlvAe7myHOnA5A9OBAkW0QqSACX/vfsBqd+iSmCTekoVoiGhB5x7d6LHHHqO+/ftRJBoVojU28SI7KIByIe7V49bp2afH01NPPEmrVogOtMqh5DiFVns8ntsikchD7bmFckFBwY4tLS0fGYbRORe7oPoARwzgUNdon+HDuXQUVYZcIWKR32anafPumEtwyqhawHjeeO3f6J2332Z1K3awWXQKrOJF2267LYMCtAwHKGAiqk3x0v5MAAUKIPN7DVkiKd+I7wDmfTSaUNBUQEGgAFGcgbmN97W0tFB9fT3V1dVRc3MzLV8uGhui8iYUipjfLaW2mC6Sou5T1/VwPB4/c+jQoa989913kVzGxHnP1m0BBxS03/FHd7qPiWjnXECBMoM1NIk1Do4b6QMseHDo2EUBIHTp0oVKS0upe9duvIiWlHQgvz+PT4MFS0QHxMKMz+IndlCabnA4FEdxcTEvfOxg0zCmWKUOYWS5eH7//U/0z38+2uaSRNbQ97joiSeeoF12343Fi3JJH6AlL6oe8rxumjZlKt15+x0057ffzDa/ieYLWSdSXNf1V4uLi6+pq6tbkPXdW+Yb4OEvXauNcTeGNJdHUCWJrBtBBl117bV0+tlnUiQi1QtU90R5MjsowFzLz8+nSDjMO+rLL7qEvvv6a0uLa6FImItOweDBOzMoYEAr0xHZQAGAjNUxqwiAy+Xm+Q5QjHO4dI+YbxCrCAYJ/TQwr6A/gP/HvTc0NPBrPN9lpI2jIJaIgDpHDhECZf5GIjqOiD6x6ETlMjTOe7ZSCzigoP0OPLbwHxLR8GwLtApH8sbFkq/0eBLhyVSSqrzJjhPl5XmoqKiIAQOiCV27duZWxfgdkQa8D7s5FTb1+b28UGIxhJRsJlAg7kkj1inSNKquXkE33XQTL/IsNpeDToHLLTrokUuj6264gY4cDbXGPNHwSSrWpeMUGDGhk2DEo7xwX3PlVTRt6ldEKmybI/1bOpdlbrf78nA4DBJeWxmam/1MLSoq6tjU1DTRMIwBXEYayb4x5dJOgEaUI2oaPffcczRg0I7kckkpaneyzIEdFIgUleCG/PTTT3T91dfSwvnzOaIg9AuycwpEeN+gYcOGEXofCBlryWXJEilQkSUFDJTTDoXCJvhF3wIoEmK3jwiAAAQhkfbA3JIAQM11/FR8lQTnR0x0dR0FtnMAB9Uej+eISCTy/WY/gZwb3Cws4ICCzWIYNsxNeDyeRyORCOR1MzaHt/IFrLsSa07Y2hxJ6a7zIpbl1svLS7jEC6JBAwcO4OgAwvFYzDhXHxeOI1OkgPPGMZF3bWoK0M0330xr6uralD7gi7g0OuTww+mWf9zKoICvmyV9gEWYmx9FRLrj3rvupmeeHk+xcFggKLNNY/Yx1DTNMAzjhdLS0uvbYbQAUwFiWePY0qolcnazCB2KaIR23HlnevTRR6mwQwmBYAcSYauulfJ8ChywBHYkQn6fj15++WV66L77aU1trdmzIxdQgPmFFNd+++1H227Xj3f3Hrk7z8YpAJCx8mXwWTj/JYur+ef8+QuYT6DskQAACKSkx4X4Hiq+hDJhjhyCJItrmvZlx44dz6ypqfk9h6Fw3uJYIOua7phoC7aA1+s9OhwOj88mYGRdwFk9MAPr22oO9qdmLl80pOFFVFPhz0SU3e/30tChQ+nggw/i1AMWcqQjkJPNBApEsxqw00WkIByO0cMPP0wzZ/0ibiVLpAA5W95NIloQj1L3qip67c03KL+gIKWiod0JwR5MSDTiEISiSf/7nK699lqqhThcDqAghXOs8Xg8V3fr1u3F9kT8AoclFAq9QUQ7KeeVCzBQcwZtqP968cV01llnkdufR+FwlIEbVyWkOBQoUNUpbpeL7rrrLnr9pVcoiJSUIQh5iPDgyJQ+wPsqKsoZFHTpWmmCgmz5epwXbl1xBBD+nzt3Ls2ePZtWLF+dZuVIZFVUhA5RCgXM7RUtypYqBZfrd1NeHMa7r3v37ncuWbKkdgteypxb34gWyLbR24i34lxqfVuguLi4rKGhYRIRDUx3bt6R2Zq+qDyqtbWwWCBTlYhZU8epdz5er5vCkSiLDe211x50+OGHcy14U1MjeT0iPJwuUqAWZoAC4aDj9Pbbb9N77yMzkjsoAGkNREg3St6eGU+Ddt45ZQ+DVuJFMoysVPgb14ri3HDDDaILX45t6uzOUdM0yB5f1NzcPLM96BZUVlYW1NTUQCjr4ng8ntcWUKDmZeeuXejue+/lvgOa182cAjcIhGmK7qxpBNi3ZuVKuvHGG1mnwEDLY/yHXXwOoADv22abPjR8+HDKL/AxWET6IBdQEJERr+amAP3+++/0888/U02NAASIgCTC++J8iXOKSEFibiR/dxQISJUeMMG3Jc2Q5vtd4/V6LwiHwxPaM7l1fa+bW/v5HFDQ/mcABHOuS69BLxsdqdazEiBYeQbJJrIvXqL8KrHgiddV2BWlXpAlxqYaGgget5cOPGgkHXrI4QRuARMDQGRMk5tX9xEzNF5kw+EITZ06jZ5++mmO3Jsfy1B9gIgEUhbcCMmI06XXXM2qd7gpS7BDPIftGwFgxBUT0TDFIlHKc3vo8ccfp4ceeFCkEFJuQ5MtZk3PSCcQ0nX9/tLS0ttra2sbtvApqLtcrqNisRiEsvpoIkeSRI7L+nwa0QEHHkjXXX89VVR2EiWC3jyzvbV9TKyAAPl/j9tNP/74I/39pptp7uxfeVKYwCQnTgHRTjvtSPvuu68Z5QLRMBdQoDHfRKMFCxbQtGnTmDiIue522zkVie+Z+r5k+l5ZX7OSC83ISvbujYgSfFheXn7l6tWrZVgt60g4b3As4KQP2vscKCkp6d3c3DwhGo3upBy1yoHmsuitD/vY69V79epBp5xyGlVV9SRdi5OHmxuJki2ACAUExP0lIhEgnyGUv2L5StYMqG9qTgYGkvioAghoc2yGnzUiFzgM4Sjtue8+9OSTT1IwEua8tcvjllEIUfKFa4DRDiCBe+cySxmORunbsmXL6Jwzz6KlCxaK3R6+Rkxq05h3EAqH2GxcsmgrqTNBjEbLyaC/EdGT68PGm+oc+fn5gwPh0J1GNLY/NscQIxI4KYHy0tmBARLp3Mr6H//4Bx100EHkyfOyM/b48igUDpuMfRW1wtwAaVT1xIgjEhCL06uvvkoP3v8ANaxZY6Z1eL7bFCuTVjyAQsOgfL+X9txzTxoyZAhXBKhDfF/SlcWgM6NOBrmopSXIJMdvv/3WBMTr87tl5TWkO68VePLc0/XlXq/3ps6dOz/TntJUm2qeb03XdSIF7X+0da/Xe1I4HH5Y07QSXlQtgicqVZAc2twwRlF8BTjcY489loYP34d0I0put6jtVqBAVSmIhS6ZyIUN0urVq+nfjz1Oc+YvFDw/NYtBZ1Dvl49gccLiL5qLBXKeff456tK9m+iBABcmBWVQDYGyMC4jkzXmLEYTF4IzyF0DLDzy0MP05GMQjIRzIPJhZxsOszMEGDHiMQYJZlvg1Pfza0F+wZjm5uYZG8biG/asZWVlPeqbG6+LRaInU9zg7lmqwZG6MiCdsoPZkZAM0+5wrLvusTtddtllNHDHHYTNjYTEsJKjVvMD9mfQIbkm8UiY6/ofGHc/vfHGG5w6YP5IRHAJ7D0S7Nsg3F9RUT4deuihzHVROhucQnAjtZZGHAhKhoZObo+PowOffvopawokV/LkFm1oyygpgKB+Kk4FP2si2hf0eDwvrS0Vvrmurg7I1TkcC+RsAQcU5GyqLfeN4BY0NTVdYRjGpYZh+KxPkokMlgtRrC1WEYuscP4I1Z5wwvHk90LkKLF4gnRlOgB+v8UBsB69m7UNJrz5Fn382USxj7MSHpUiXJodoub2suO44eab6cSTTxKKitBCWLttVxECOHf8A0DA36ygANUKSGP8MnMWnfWnM6l+zWpupWyWliHaobsolsaZ2EAKLvtxWVnZ2bW1tUvaYstN/d7S0tLSpqamv0Rj0Yu4v4ZoHNkKFIjhEfl9RE2S9t0akd9fSBdecjGNPvYYrkzBgTHhaJbM66t5qBQGOd8u8+ngesz++RfmecyeNUsAAXwuJtNYdjCmDKdEs4ioW7fODFIVIFCsfxZFSgcKFOTQXLRw4WJ66623zDmg7nN9RgvSjXeK72hU07TPiouLr6uvr/+hPZa+buq5396v74CC9j7C8vnKysq6NzY2XhWJRM5cKy6T73K5tGw1zusDFFh3NioEjMVyu+22o5NPPpG6da7gGnGV0gAZUckiCxCRAAVi9+Zlh/31tG/o6WefoUgUcX25Ybd4HHPHKnPDultUVSjSwPARI+i++8eR5nYxoQ1OPRAK8k/lFFhsSaYTIGLEYEWq3Glxg2699VZ67cUXkiLMXL4YE7vUVEeryIVBQV3X3wLxsKmpaYvodw9iYW1t7amRSOQG0qgL+/00nA5WDGTEIIBXEiB16bTTzkPouuv/RgMHDhStkkHGk2+yzj878Y5xIIBDNMoOeezYsSz+g3QAa0+Y1QcJnYKk+SyBJLSRhgwZRIcccgh/XvEhuN8GaxRkEqLQKBiK0G+/zaHPP/88KUqQnpOz/hccyzzFxIOc9pWNjY1olNDutDDWv/WcM9ot4ICCrWhOYHfX0NBwpmEYf9U0rXs8HneDGGY1wYbY3VirGVT5FkSOECnYeYeBrF3LuWFZ3iUiBVF20IpPpcKkHo+QSV4wfyE99p/HafmK1UzswiGDA2IPp/QH1B+RWuAdpFBo6ljZie69bywN3mUoa+yrnCwT16BlL5Xq8HfkmQv8+aJUU94QFuIZP/5El198EVUvXSpC1hBIkj7EVOqzzS+7i5HOA4ns10tLS2+oq6tbtDkv5h06dChpamo6ORKJ3KRpWic1X5TDtU4ma7pAPTc/r+RZlJWX05/OOZfGnPB/zOFQKSwWM4LMsEwjcLRGd3HEBv+v0jhcdVBdzfySD957L2Fpye9Q6Z9MX3EoVR522CEMUpE2UoJCGEi140//eY1aAiGaMuUrrjpIOe/W4/qi0gPW76gE03HDMCAN+mlxcfGVDQ0Nc9bjZZ1TbWUWcEDBVjbg6FyXn59/UCgUOjcWi+1KRJBDRgnBRpkLagcleAWjaf999ia3B1oCQrs+Ua+tdtvCQbCTYGlisWNvqG+kF195maZN+y5pL5cqusFER7l7d7m87Lw9fh+deOKJdMVVV3JVQjgSYR0CgAJ2BlDYkyx6OArFGVCNd5h3YBA9/ti/6LFHHxWAgJGJBCTSMVkJd/LldDOuRdf1CX6//67m5mawxbPLAW7kudupU6fK2trak6PR6DVIGZhAwALAEvSO5AiBIBXKlEA8zhoEQ3bZhf52w43Ue5u+bPekdIEmIkao/ICtAbKUk8e5UHEQj0TpqymTmaS4aP78JGuA3JiJJ6NIhJWdKngegiCK9yd6dyRzb1KbWqPmliC98cYEVrvEYVVy/CNiQ+mGNE3UDhAXnZ/mud3utwsLC++vg2SiczgWWAcLbBRHsA7353x0A1mgvLy8WygUOrKlpWW4YRg7GYbRDWkFCRDMXc/6jBzYGdIjRuxHo48YRQWF+WSVVBYLoJ3gJRZ59JdXAi7/mziJmyO1BIJmlMAetrXurtjJuwUogG5B/+23o3/cfhttO2B7dkrcoMkQ3AJ1rwAHvAM0hJPC3/EvHApxeeKSRQvZKU2eNAmUb1ZIZGcUk9EHm4xyquG0RDWCmqZ9mJ+f/3BJScnU6urqlg00/G09rVZSUtKnpaXlz5FI5By7GJY9KsM253JRAYnMSJGlEqNPv350+p/OoCOOHs1RFpVa4hSPLtogA8wp8SizcZLUBUAap752DY1/6kl6/tlnKaiqBlQaw6I0aJ/Dak4gbbXzoEE0atRhLD8sQKeaZ7mQBDVauGgJvfPOe6bWh3X+rY8UQquIl0gJBDRNgxjCb3l5eVNdLtdrkqyao+h2W4ffef/WZAEHFGxNo53iWZFSCIfDe0Wj0SGxWKwqFouh1TIAQkciKkBkQWoc/KG5Yl3U7LudgQO3p1NO+D8qKxfNlBSXQNRlJ9KhYscn1RJJ7OCwg5wxYwaNf/YFljxGBzkc9kVZRRgSOzgwxj0UjUSoQ1kZnXPB+Ry+ZkDAJZEQOUpELBDC5nNEBGjAvcBhQVYX3IZYOEQf//cjuv322xPlcDJKICIHYp1Ot1pbd5MSiEQMw/je4/E8mZeXN2FT8wy6du2aX1tbu3swGAQYGK1pms+eMrBPKwYBqNZQT62aGsEWaKzl89H+++9Pt9z6d/IVFrEdMZ5cAYJoAitXhjmlwBUdUmpazQ9EdFqam2nxgoV0yw3X048//CDKEHHEE22IFU8lHSjAbR54wAgaMWIEVVdXc4fC/Hy/GS1S+gDplwiNvpr2DX399bdm6aTi6awPPo6cNpjYAIeriGiJy+Va5PF48HO2ruvTGhsbESLZ7KJKW/myukU//h9a6LfoJ3ZuPp0F9G7dunVoaWnpGovFeoTD4cpgMFhBRJ10Xe+uaVqPeDze2TCMUiJCFyOPruuueDyuWasKMoVMrQslnDSUDs8+43TaefAg05kryddQKCA6NMpDlSYqwhlAABbxV157k3O65vuSS7NSPGty87699t2HiW5QWGRxI0lgA3BQHe7SGQxfHtzviupl9Pzzz7P2fqChkTw+H0XQCRIdIkGwk9ECu20yOA5giKVE9HZRUdHzjY2N09BdeCNPXUQHqurr64/UNO1EwzCGpOuhoXbe6jntBEFwCBQQwzMM2mUoXXXVVTRoyGCKxtL3N8B7FQBUJYaIxACUuUhjm4+9606OyqRKFdjnGyJAPGayGqKouIAuvvhCamlp5rFWY6+ALF9HEk8TJbNus3wVr41/5jnWKVCfT7GzTztslvmA8Ub+CQIXjbqurzYMo9owDJQToqHRcp/PtzwvL2+R2+1evHz5cqQIHCCwkb8QW8vlHFCwtYx0259TGzBggKe6ujrfMIwOhmF0jMViHSKRSEk4HC4jos5EVEVEA7DOE5HoMCSdsllHLh1iqhAz9AmOHnU4jRi5P+8KsQij46JwxolOcaLcL6FXIEiHcQ7zT/pyKk2YMIG1A+LYncotefrQbTIoKO/YkS6/6ko6+OCDyesTjwAWvOIY2CWg7WbUNZGHnj3rZ7r//vvpm2lfUxzEOBmNSBUiUOWL2c6NLrsul+snTdPecLvdrwaDweTEedvHNJdPaEVFReWhUGhENBo9xjCMfQzDqEyniJnKzgok4GJMKpQiQnqel0pKSuiqa6+hY445huoa6smbJ7pkpjuUSFEoEBQgUaZ3Vq+soeuuuZZ++O4bjg6kAwXK0eMnC1FJ7gc4BzsN2oHJrrW1qxlg2qNa+F2RDRP/L9JHOGpra+nlV94woxn2Z8ghWlCjadr3mqbNhvPXNG2l2+2u9fv9dZqmrXG73eiT0VBdXQ0iqpMayGX2Ou9ZZws4oGCdTbjVnYDBwrJly/y6rheGQqF+TU1NdxPRUCU/qByFfVFMtUgO2WkgnXzyyVTeETiDo8tmGF+Q/kRuGVwCa2gWv8MRLJi/mJ555hlaunwZN9FRJXDpV9BkUIBrjjjoQN65VnbpTGsFX6glFDRz4dk4FS63UEBEySIEbO687XZatmQpyzdzv4VoTFQzYCuoyIiWFrg5zB48CprZ/KTr+nter3dCMBjEDnK9Rw46duzYpb6+/sBIJHIUEQ3WNK2rYRgI16RdJ1pFBex9NFAKCrEsTgkZdM5559Gf//oXIUOM1IwuZLLTHSjx5IoAdMqMRKjQn8/VIK+/+hrdesstQlFStklOdw5Oy0j9CE5RGHGONJxzzlnUe5vetGpVDWtfqHSBAgJqJ4/PQLZYpS9UG/AffviBJk6aYl7WPr/tHBobMEZK4L6ysrKX1vYnWGkYRsuKFSsQKUhfz5rDZHHe4rwC6kkAACAASURBVFhgXS3ggIJ1taDzebfb7b6XiC6Ix+MelZfPpoGgzFbRoZTOPvtM6td/G3aewWCLWQUgStBCsgudIBgqQhpAAY7mphYmG345dQoFg2GWFla56dRD0xoUoDTuoksvoSOPPJJ8+X7RJc8ntPfVQp7W4biI2fEABXD6r738Cj344IPUUt+QJKKjPm/dWefCTpcyy2i5DJJFg67ri1wu11RoG4RCoa/XNiEC7f0P7yLBGairq9s+EomcGIlEhsvoT7GmaUgPZdWyUM+lSk0V8GEHKUoxBK9C12i/kSPp5lv/TqVlHdjBghsQjmTGNihF5MoEudNHxQF26GefeRbNQZ+DHErxmRwKdcl4jHx5PgqGglRRVk433XQDrVi1ghobGyyliIkIlQCpAox4vYLzgvmHiAWAyQcffEALF1WzCfC8amytnAu8loaDMdvj8ZwWiUSgjfyHx89ZfhwLrG8LOKBgfVt0Kzyfy+UaFY/HXzYMA9ULFn5Aaga3dceEfeLo0UfSQQcfyKAgGg2L/gFg96MRUczumBNOncmHpNNPP83gfP6KlTUsk4PFGbtQXoxb6dzKagLrSqxpLLV78803c7QA1zWlduV4pmvKo7tFqSTvRDWdWhqbaPz48fTM0+OppbFRdPoDmIkK52fPv2ebLimiK3AgOBmS4CCfoUD+E4jWIARNRMg3hysrK2Mej8dkawaDQfeqVasQsiiUqZ/t1n5u77VNc/YgIpBLEcc3dSuyRUis951qRwyxKBMYahrtsvtuLPYEfYji0hJ2qiB0KnBnt4O16RHmQr7fzyWg4BY89thj9M8HHpQpmlBSUyvTXrZxB2iLRCPkkWqThx92OB111BE085eZFItFW41LgqAqxLIAzlSKAs8LSeN33nmHAsFoktNPBwJsUQLD4/E8jt4Ezc3Ny7PNAed1xwIb0wIOKNiY1m6n1yosLKxoamoCGa63ekS1OKciXln/hv3+9tv1o7POPpNlbvPzfbzzVg7UXpoImWO18AIUuF0eqqtroJdeeom++eYbikhSAfc04A6Myqube3Vxbvmreh8Y8eecfx6ddsbpfB9oliRvQlzP9k1RTitOIj2gmvRgZxtsbmEt/ldeeUUQDsHQk4qIqg5e5ajXZUqo3LbYjBoQsEFIGv9Qu97ocrlAWovF43F/LBaDhjAAQaGmafmapnkhXJWckkmQIttyX/aKD3zWbATlctHgwYO50gC9JvILC3jnHZGKgWo8M4ECkAvdaC4Vj9Nvs3+ls846i8sRkZaATiKPT6sTiD9wMyboTiiCIRlUVFhE119/PUcZFi2FVpTo6oj3WctORYmimyMViuCqqk9mzpxJkydPRS+mVke2OY/xyc/Pv7iqquq5n3/+WU60tljcea9jgQ1nAQcUbDjbblVn1nX9lXg8PkY5CGtoPBMjGy4+Pz+PzvjT6bTTTjuZoEBEDbCDs/agx05bpA3kko8ee9y6dto3X3NDnBWrRC97hK1TRQoQWbAe2MnDSeHo1bcPXX/jDbTbbruRyyv+DtDATifNNwXpjcLCQmpuamLHApGjSDBEgeYWuvPOO+nD998XNfSWdr44n7ViI5eJkoqfYQcW2aIQCkRYSXnW9Ig1OqDC4ZnSQOqerKDALP3UiAqLiqiqTx+6/PLLaechg9mmqkwRoAB2CwUk61/a1xohEIY3qKioiFatWMnRo3vvvofemfAW/51LDm3pA7uMtBUU4P/dus59N0456WT6bc6v1BRopLgRJV0TYNPa/0DYIzHwSjwJDZgmTpxIixdXm8RW6xhaxyoVj0bTtFmlpaXnr1mz5stcxt55j2OBjWkBBxRsTGu372udtDZSMN7lcrmxsFqV3YSPTk4lqN+5CjBOdMjBB9DoY44WErZunZ2mKAkTU1Q5LEQH1PkYIDC5XaPaNWvo8cefoN/mzuHKBJD82KHZIgV2UKC68KnzHzH6aLr8yis4WgBeAQslyXFLBQyAGbjOXpZPgiUPJxZoaqa62jU0btw4mvzFF7R61SqOFqi8dCag1JZpona4qWrxredJlQ5INSYKOGTjhCSlgORY4XoMEIw4+fPzabsBA+iCCy6gIbsMJV+B0BwAtwCHR+blPS5RdqpsmwoUGFHs2F307tvvMJETAIx38UxXUBJJtmiBZdxxr0jtgFPQsUMZnXvu2dSlsjMtXrqIgpEQhSNBBgWKQGiN5sRicf674rIAmKxYsYLef/99CoVED0wFxlJVQKSozoi7XK5nSkpKbqytrV3clrF23utYYGNYwAEFG8PKW8c1kJcG8a1Tqh1kOhOwczEMqqgop6uuuoLKysooGo1QUYGf887KSZk7QiN5p48MAQOQWJSbJP3nqaf5UpGoEB1SIKJ1gwQR94Wz4PxxXCzwyHdfcdVVTDp0ez1k6C5qbGqiDh068E41FAkzQS4QDpHPI8SM7I5MfamQA4cDeXb8M9y0p251LSseWksRAXqsDjjVzlKgoBQWTNOEqC3TLRvDzU6GVCAkIcok5IfVM8DZ6x437b777nTKaafSnnvuSXF576muFY0LISo8NyIzqpRVKUj6fV5qqm+g+XPn0V133EHfffOtpVN2IrygSlFNW6l5ghbHGGcddjbooANHcq8DRHOWVi9pTVOU71c2BFhgToh0/rGoQZMnT2bhLHTiylZWaq3EkeC22e/339i7d++HndRBW2aq896NZQEHFGwsS7f/66Al84u6rh+dSsQm2+MjYnDKKafQPvsMEzuzKAiGCTeSDhSY59VdhLDuY48/ST//PNvcwZmgoNUNCNBg7aLEJYRkUJcuXWjsuHGczojGDcrL91NDYyPfF7QMuO+Bx81lbYpAaD+9uVGNxmj16tX0xmuvM+9h9YqVZtREAIDW7HulrmgtYdxUoIAdKutEiAZB6jAXDlkaCucHueJIJEz7H3QgnXfeebTDoJ1MsJBW0dHjZntad+lcGri2CyXKEKOhIJcL/uvhf9Lrr79OoZYAeT1eikrOByIMiPLb0wakQAGQGY44xrWSjh9zLO24445UvWQx1dTUkMalkpbDBgoAArgCRKpcLqteQV988QUtX54Yx0xz286tIaLZRUVFlzc0NLyf7TvhvO5YYFNYwAEFm8Lq7fOaLq/Xe2IsFns8Fov57Iz0dI9s7qRQC1fVk66++kreiStGuC73cq3CyvKEIt3gpkgszp+b9s339OCDD7ODYqeKFIO1faL8nAk4sNgjtGyIMDEY6jhGHXUU58I7de5CYTRTkiVn2NniMLkTWusSR+uzonEPwuYNa+ros08+pReefY7mz5/PDg+RB+Q/VDmfqoPfnKaHYt2nSicI3oeo8gCgApg58ZST6bjjx1C3bt3YbixfnOGBVG8DZU9cD/9CaILkclGopZnee+89emDsfbSmtpajMqxIKM8KmJJ0/lQrGsBf3KCDDjqADjv0YB7neXN+F6mcVmgu+S8YbhGJEuP+/Xc/MqFVPXcbxyrq8XheLioqutZJHbTRcs7bN5oFHFCw0Uzd/i9UVFS0bWNjI3rY9sXTpg2FpzCF14N69BhddtnFtP3223NjGm6KI31uJlCARTssS/5iBtG4cQ/Qr7/NkZyC1KBA1berFsfWnSY6+MEJ/PnPf6Yzzz6HHRv4BcFQiM/pyRN9EjjPnKW5pPkFiwlm+8zpM+ip/zxB//vsM86rR8KiOkEdKlev8tTZcvsba1Yp9j2uZ70ndK3E75WdO9Mll19Gw/ffj/KLUORAlA8hqJbMPZ2EMJAAcJz7dyV0CfD/X03+ksbecy/NnjWLOyvGQhFTfMhAKgalp0kGTG2Rql49afQxR9H2227HKZ0Vy6p5XJWzTwxAMijQSEQSEClAJGrSxC9p0aLFZlVCG+0PtcLbA4HA/RtCfKqN9+K83bFASgs4oMCZGOvNAmiuVFdXd6Ou65egJ0KuoECREkHaGzJ4EJ199tnk9/s4x6xAgek0bdtO5UR01KEjJ63pNG/ePHrwoX9SU1P2JoMKFKjSREWUQ2SgrGNHuuyKK+noo48mQ0eb3BYmEWKHr3LrJuEuzTeJd7YqTSHr11YsW866Ck8++SQZUoeBiYApIhr2bbb1Mq1C5m0dyQycBHVu3DtHYmQEBZdAFIaBAd+zTnvvN5wuvPBC6t23D9sHEQK8HpUdDVMRNO0gT4kZqW6HmBO//fYb3XvXnfTV5CkcWUHZp1umK4jBgBBIyhSJgOk9HjcdeuihNGLkfgSFxMWLF1GwpUWQSFUjpTS2E5LaUY4o/P777/TFpMlS1jiXLoqtTvp1cXHxhQ0NDeDeOIdjgc3SAg4o2CyHZYu9Kd3tdo8wDOP5WCzWKZensJbRYX0uLPAxYx3Rgng8JgsILblsmwdQYWdUonPYORLlRXzChLfpw/9+3OoW7CV42OnzLtgllOsUaQ7RgEg4TH37b0eXXHYp7bffftwwCc4rJnPr1t1zupJFhK2ZLGmIHgkQz4HDa2lq5h3rddddQ3PnzhUdFtFAQnZfhBgSgAqa/WTaCLM5/ui32KLtZDdUq923UuyTYfSCwkLq2r07HX/8CXTYqMO5vFBzC+4B7lv0scijsAVMJD2HvIBSDMRP2AVpA5xr0aJF9MB94+jdCW/yxxhgSltAC8KIi9B/NqIk5tQ22/Slk04+gaqqqmjl8uXcERGliVyKKktO081VdX8twSB9/fXXNGvmr1KKO5fZnfQe9LF4ukePHpcuWLAgOTzU5lM5H3AssOEs8EeXkw13R86Zt2gLlJSU9Glqahobj8ePNAxbqUCKJ1NOWPQ8AKlNo2F770mjjzqaOnQoFX/kw+YcpTdQbHUQAkWPBI0ampqooaGRd+Lz5i/kRknWTbi1nK6VthHK5RS3ACS0mEG77rUnXXzxxTRgxx34TsBdQLQAOXTU2+NICwoU/yAaY3Dgld0XwwGRM4diI5Tx3nz9Dd4Zh1jTQDwc78hVv4Q0u/psTjHbZEq3AJjnRQkhK0Nq/A8Ov7KyktsNH3TQQbTLLruRqiBoDgZEY6tYTGg8uERlR6pDRQrwqkohcPQhFmdiJoSfoFxohEOmVDJKOpWmBMBcLlGCsg6lXEkybNieDMoWLVrIMsl5Ho+oOkkVnbHcsKYJ7sfCRUtoypQpVF/faIKCFOWGqZ9V0yAutcDv918dCARezTYmzuuOBTalBRxQsCmt3w6vXVVV5Vu0aNFpuq7fFY1G0WY5pwOggBfpmChPPPWUk5glrqHWzIw1t44Y4DPYlfryC5jFjpAwnHZzIEhffvklvfbaG+y4cd5UtfoqfQCiHJy0aoELmV5u5AN5JI+HRh54AJ155pk0aNAglkBWbXUzaRgwlMGO39JCGREAgA6W20XUISaIjUh5fPLRx8xsxy65pamJwkxElMdGBAWp0hKa201du3alvffemw444AAem7KO5dyEKiLJl+BIqHbTsB8cuEV1MWkeqCFFiSZHF+RP9DYAIBg7diyFm1vE2EsyqKp+YBKrBIvpQJHCIkMG70xnnnkGgxVEZtasqRWKmXJcUggS2uarRk1NTfTtdz/Q9Okz+TVb0UrW+a1pGgb5vaKiorMaGhrQ3Mo5HAtsthZwQMFmOzRb7o2VlJQMqa+vH0tEaLCTNMesu3TrEyqyGf7m9bppyODBdMopJ3HXQqQREO4V4jBCyAaHkqRVzhevg/iGA7u7ppYWeuedd2nixIRwHOehDUP2WUjo1reytnnXguno8flo1JFH0GmnnUZ9+/YVAEbms0XjJpF6UM4wlx0yzmtVgIRDRGUCgMHUyVNowYIFtHTpUjwox8k5nWBpRZ0ENjIE0sHVx2HPvuPvNpqe2NnDQcvrlJSWUkXnSlZ5BDDaYYcd2MGqCA2XKtp0CKxRE9UgSzUSCgdDDKhY4Ak6FJpGeW4Plx3CFu+/+x7dd999VFtTI6eOLNlM4/3tEstuF/QOYiyA1b17V+7A2aNHDx6bJUsWc5TA2g5ZjYES3AqHEykkMa4xHpOJkyZRc3OAI1kAmB4PQE9OjSoNTdNq8/LyrgkGg//Zcr/Vzp1vLRZwQMHWMtIb8TkrKioKV69efVk8Hr+KiAoyXVrtEO0iOX1692Jy2M4778TOwq1r7LDQMMnKWMdrajcqFnuXaIgUi/Gu9fe581j+eNGiJSJaIMP/qr9C2nuzgALskpUTPOaYY+jsc89hLQO+d10zyx9ZOx9teV2CN6B2zdZrWMPm1r/DUeIafm8eO03wDKDzD5Ec6Oz/+uuvFGxqFh+xbVVxq26XSJ0oPQFTAdIGFlB+ySBKsvatYMxMV2gabbPNNjRwpx1p4MCBtN2A7al///4mGFCgDP0hVFvodBETAdREVAQ2Ly0u4evX1dVRh9JSioVFwyvYCgJPjzz8T1q5bBl3JeRIidINyAIKEB3C+WELOGyUnI4ZM4b22WcfTvPU19fRkiVLGIioElA7sBRKhjq/H+fC+wKBEKcNfv4FHRlVa28xBAy0suRvdF034vH4dwUFBaOam5tXbMSvoXMpxwJ/yAIOKPhDZnM+lM0CBQUFBzY3N9+jadog9d5UUry8q2QN+2Q2t8/n5RD1Cf83htUEpdoxxeNR2b5W7M4R3leLPIeXFbFPF8qBCG9PnTqV3pjwFjU3t3ADGyVpz2JFspSx1fPIb4bbnUdR2RtBh3Z/PE6jRo1iDYOKyk7cOIlL28CMdwupXDgUBQ7s57Wz7hXYsIbRlcYDIgcIXSNiMGfOHFowb774uWAB1SxfQYEs5X64tpLoZaa9xYNZCZ7wpIWFRdSjqhcTPPGvX79+3DGyU6dOnI5hzYCoUBzEOVXaRsgMJw47t4KBjt/PxEo4Wzh/jFvH8nIu8YO2EMYAgOD555+nBXPnmTwKEQUQnI1Mh1XjABwM7Ob32HUXjhIUFRdyFAKpA0QJwCGw9p3QdCHK5HHnyaoStyyLjDO4BBhDn4NgSIAXAXJEtCCXNIKu69F4PH7jWg7pHdmew3ndscDmYAEHFGwOo9AO76GoqKi8ubn59ng8fjpI9XhEe4kiL+ZwKRZJOms4uKyslI4fM4YGDx5E+Xk+CkdQCigiBvjJpWJMTsTOUMoFx0V+Wmns43U4hdfeeJOmTZtG4UiMP4MwPzu0VG3u+GbloBg6h+3NtIeMWOy///505ZVXUlWf3ix5zKV7YM+HxP/78v18XTgg62EHBVwxEQpxGB1OE8/Eiom6LhoG4TVcP27w+UDCgxIf0grVS5bS/DlzadWqVbwLxk+xuxY24p2sRYWQH0vXGWQh0lFeXk6VXbtQv237U/9t+lGH8jIqzC+gkg6lDATAnUB3QtUxEuAHh+Jd4H5VJYYJ/GwrikofAKypFALei8oOAAKkE0C0fPrpp2nR/Pnklv0hEvedOeuv5pT6ifRBhw4ldOVllzMhMhqL0Jo1a9g2sKsqQVT8BI/XxTYGKBB/E2DS6/VxNOOjjz6ipUuXsTiTisIgNYGeCNmiBPKeFvl8vn2CwSDaMTqHY4HN3gIOKNjsh2iLvUHN7/efEAgEblMtle18AgEKsHVPPKNLEvDwF4SBd9xhBxo9+ijq1asXhUJB8roT3AIBIKQOgGSxI0vO1zHk+4APdDctXLyEXnjhBZr961zy+/MoGI4Ih5mVvi/C7ZzPt2gJoCRvyK670KWXX0Z9+m3Djhs7YJDthFIhcVOllmAgIyiwR09UOgR/tzZPQp2+AlYirB3gnS/6LwRbAvw7rguHDcEgODSACJwD+fvS0lLmZ8CR4x+cPiSb4ejRvdDrcnPJJaSbkRLhSALsG4uxQ1QpGoAWaydB++y0RwpQPoh7MjkWMtKAtEFjYyO98tLLrNmwemWNGSFgpUQZnVFVJ62GyVI2Ym2+le/Po/POO4cGbrc9uT0ibYEoAcCUko1mMCiFkgwC2ROcDRFxQqUKDrfby8qFUyZ/xVwMpc0gIjsSx2aYO5a5fu/adtZIo2WdaVvsN9258XZlAQcUtKvh3LweplOnTpU1NTWPGIZxBHy8HRTwTkptnU12fSKNwDvuPA+NHj2a9t57LyooyCeNNfihRRBm58Z+XW7ZmHinSSZ7XOz4XB4hMwwC4vSZs+iZZ5+nVatqW3VPTG85kWNWu2NF9hNqhGHaboeBdOXVVzERDztqkPDgQOCk+ZBdAdX5U4n24PxwunDqcFCIHqiICZy3eW1ZaSEAk8eUAzbPnaL8T5Az7e2npdNX0s3oOCh7FwAohaVDZuKk5GcozgP+pko/7SkJ3IcdFKB0UKUaYBvoELCjrl7G6QKAgrBsLQ3bImLCUR+kAQAQ46I6IxMosI7dCf93LI0cOZI0KVsNcLRy5UoGIDw/ZNQHaQTRAVMQV9HjQLwmokKYI5BXrqtr4O6WSm/BSjBMlz4wARBRjcfj2TccDs/evL6Zzt04FkhvAQcUOLNjg1rA5/OdHg6Hb4vH411FBiHZ6XNGmnkF8jZsqz9e6tOnio48chQNHDiAqxBAIkMpn2jUoxhfIIklwuamoyQX19EjB4yyxf9+9Am9+eabXLLIziZd+kCeQMn4Cp1/IcUL54H/h+xuOByizj2600knnUTHHj+GQQEAQWFRUdYOemJHKrgR3ApYVi8oJ66ci0ohqPC9dceLkkprdEGkVETIXd2rkmQWaZfErl+BKfAfYAeYEop/XI4ZF2WX+DsTPWVPAkXgVARCiwNMOY/wbAA9GCWE7xHZmD17Nv3rkUfps48/5nQB3x+e36LLkOfxUpibHolnyQQKcA9w1sOGDaPRRx9JxQWFnDbA3+fPncO8DMhfK1IkzgexK4ydyy1sIqsqGRRACfO7b3+gn6b/xNcGiRNdONV4KfsrbQ37g0ubQNLzgZ49e17niBVt0CXGOfl6toADCtazQZ3TJVsA3IJAIPBkNBo9VEULrDv7JFAAp84Ug0TdutIROPTQg7mhTYHfRyAhimgByH2yfbFyHnJXrACCEZd6+pKACGfwwksvclgYJWbZj+TWwOL9si0zgbSGaoEIlZSV0dHHjOaoRlXfPuxEufrA3oXPdkH1rCo8zw5aRj7ULl05ZThPFgWS0sPK+fM54DV1jXsxwLnjdxYCln9nu+Lbjty+5e/scKW9FcHRmh5QvR24soLZ+cKevJuXv2eyodr5o1UxxuuLiZPokUceobm//iYp/KKsT6g3CiAjdu5RblQVN6Q4VJqLwDHjvgcMGEAnnnA8EyONaIz8+T5WLly2bKnUlBDkSJXKcHkwh3BB0cPCpXuYIwDwCJ2Ij/77iQQlogETbKvsnW3OSFCwwDCM49f21vrWSR1ks5jz+uZkAQcUbE6j0U7vRXILxrlcrkr0RFBOSOwAlTShevjkroPISSOE7PO46c9/Po922HEgaxVAy0Ds3G2tb202VPl3hOHFDlyjuoYGJpB98MEnSQxyroDQJHeg1VhIwpv9G2MktAaQo99jjz3o2DFj+GdRSbEp7AN1P1wfan9qZ88llIbY6asIimo2ZIKabGw2eZ8q2NLWn9mmnBor6/0o58iRGi0h5MS8irAoGcVOH58BGECEY+H8BfTaa6/Re++8Q8uXLUtUm6Swp7gnMQ/spargjIi0AgCKKBEcMGB7Ovjgg2n77bcTTapkKmbhwoVZGzIBFDBPQEPZKdGaNfU08fMvaMmS6jSKicnERysxVo1rFCiRCFGC2xctWiT0q53DscAWYgEHFGwhA7Ul32aHDh1K6uvrH4nH4/+HdT6JW2AhjFmdgXAK2NeLtDwoiYMG7Ujnn38+6S5R+w5woJxHOvuoHL11Z4v/hw7Al19OoYlfTBHFDyY2SdY9SJw3NSjQVfpC7SR1jTX2Dz/iCDrkkEOoV+8qFjliACSfFdEDdT+g9llz8ypikC0sr+5rXb/A2dhvqvGTlVMgbC+IkMBk6llwT5BxxhGLRLliItDcwmJMH7z3Hn3//fdUV7tGRDrg2A2xS0+St0roK5umB0GSyzxjaJAlAAEqANC+uHfvHnTggQfQLrvsYpZf4t5QbcDCT1kOcArYmWuilPT33+fStK++oabmFtlSW50gtdy2etUCDvAEP/n9/r8GAoGprfS5s92Q87pjgU1sgXVdUzbx7TuX31Is4Pf7hwUCgReIqKeVV5Ao/TOX16RHwgR1ARXIneHdd99JpR2KzHpxk1OQxhCq+x53UJSeH7ll/H3u3Pn0znvv0y+//EqhUCRZpU5GIBLVAbbSOPnNcQGuSCEgdgyGeF+nLl1ou+22o/878QTaafDOXAYIbgNq9uF8UBmAqgCkN5TCnjUsj/sTTPfkyMnGHm8rqEqKEEhQgJy8UnPEvUFzgIWEmltYCfC9d96lr776in6eMYNvHdEYHn8m+cnDyikxHzBRbcHRChkhEORApG106tSpIx1++OE0ePDOZvkmohIoQUSUQAGZTDZDeoJ5FpqHyYiTJ0+l2bN/E/LWms5cBHGkBwVJ85mo3u1231NYWPjPOrAcncOxwBZmAQcUbGEDtgXfrkfX9afi8fgJ8PPsIOAcsqQPdBnE9egaxdbuPK+++jLq338bkQd2gbSYeQpb8+TI86syPyEyJBQPP/vsc/r++x/ZtCo0bSA7byFF2hsyKXIk7+ilgA87cEQMZCdBxLe7dOtG+48cQYcddhj13qYvh9JV5YDgHAiiXVJKRYIBq9rgphp3ldpQnAIFYNTfo5EQO2Q4YC7J9Hho+dJq+uCDD2jS5xNp+vTpZpMn6DgggiCcPDHfgtMlWUFBjN8CU7tcIkJQUlJEY8YcS7vsMtRsUIXzwmaLFy+m5cuX832pyo109lPiRShJbGpqpo8//pR1CTiVxP8UKEsPClSUQM6XH30+32XBYPBzh0uwqWatc911sYADCtbFes5n22IBLxE9TUQnoATBJBNm5RQADMTIjWCBQXThheezmJFwTsyiy3gPrMQHcRqpwqecmtoBB0IRmj9/ATux6dN/5nOByAgFO7uGD4418wAAIABJREFUQKoLWYGDGUJWUQTJpkffBKQUDjnsUAYH3bp1M0sP41J2WOXs8ZOZ/zJSoCSFs2CftoxDTu81K0UlcROEQWuppAIyGBc4XkRAsEP/7LPP6H+ffka//PILVS9ZYmo72BUrraqCmW5I2VdVIwAY+HweViscMmSweU9KqwDCTihBxD2pa2Q8vy71IGJELS0B+vDDj2jFihpJckRUwj6/WnMKVLWITLXM9Hq9l4VCoU8cUJDTVHPetJlZwAEFm9mAtNfb8fl8+8uGMH1UnpqdblpOgQjZqha5amlGpGDbbfsxn0AAi8xEQ5wFAAA7dGtpn1INJN3N4XwAg08//ZS++06WoaF9simgk9uowIEpYKAiIErXALtir89H3bt2pUMPP5yOPvJI6tq9O6Hls9lQSEYIVM4ewEAdmxIUiJy7KCW1CipB7RB6ALDr999+S29MmEDTpk6lNbWJRoBmEyfuviwGWwGf3KwqyITIyng8ojLhtNNOpV133ZVtjXsCQMH4QrQJEtAoQbSWkGa8jiQaIo2Dz3/0kYgU8H1y0sK+RKZXWJRj37I2e/RIZWXlPStWrFiZ6zM673MssLlYwAEFm8tItOP7KCoq2raxsfERItpPbe3NHXYrUJBsCCso6FheStdedw3L2AqSIY7MkQJVT8/Mf5S5yQZKKj+ue4TQUJ7Xz6Vob731NjcgQloCYerWRLzWO0fsSJXDVHdvZaWrv3nyvBw+B++gd1Vv2nPYXvSnc86lkpISVhuEw+WKCrdo48ywyFZ9sKHBgV1cCakQFiuKJ+yHewNgAi9i6heTWKYYXR0jIN0bomJAlVOadlaiQRLoqMiITYW5FS9PTY+CAj9HhkT76p1EBEKL87gB1CkVR6TxVcvmXCI9Vt4GogtffjmV+x2gA6LgFGRvrsyzkNU1+b2YMqs8Hs81lZWVLy5ZsiSXutd2/O13Hm1Ls4ADCra0EdvC7nct4aqiqanpLiI6yePx5Fl331xuplRj0tDgoWWP2nGEqfcatjv96U9opYA0vhD7ae1UWhsI74PjwG4SizccCAR1WDhIXh87Rby2ZMlSTiVMm/a16lhsO2HmcLKNdMaftZbVWcECcwt8ftpn+L5cqYBae8gRqwZEqFoQvIvkY0MCAzsoYKIn7ByJckQA/5Cz/+STTzhNsGDO70lplnSO2G6XhB0y2xPjDz/brVtXOu64Y7lZEwOOuOAvBANCRRJSxrgvZW81z3IhaiqAgs/++ONP9NNPM1jJMFVr6XRfPyuvQAKieW63+7xoNPqZU4GwhS1aW/ntOqBgK58AG/Lxu3btml9TU3NuLBa7xjCMToaNFcjhZF0w0bErw2Kq1OJUyZmaoJ3KS+mCv/yZqqp6cr6Ym/HImv91eQa1U0QInx2aobNO/ueff04fffSxAAbY/bqFLoI1MiGcvZDhTXVweDsDahHOXucUCngHcHi777477bTzIO71UFhSLDpEyqgBmg+pkLk1AiJAUjJ0sP+ea4kj0gTqfDhHc0Mjh+NrVqxkJUJUEnz33Xe0ZtUqKTPYOsButYXqGZF+1y5AQeK5pJiRPAlSBtAfQBvtPn368PvQxAgCRULGOo8bRIFHkLUddopBwjkAwhAtwrkjkSh9+eWXNGvWr1yNggZa9iOppDbz5Pu8pKTkzPr6+vnrMkedzzoW2JgWcEDBxrT21nUtvaCgYGQwGPyHYRhDDcNwpXJUZrOZiFCuU+F9hIoRwsUELSjIo9FHHcl55NLSYgYDqqNgLiHiTGZXYjcqr6+65SE3/fPPP9Onn35Gq1fXm7t1yB4L5yHAAO5TkSbVbth6T5m+YHDjOB9SBIYlTF1UWkr9+/en3n370KBBg6isoiN1rexM5Z0quIyRO/aBaAkQBYVD9C1A4t1SCYHf8XcgGoAJpAGEuCHkDkXFBP7uRzfEWIxfhy0AuEAYXLlsOTdcQlkhwMCMn6bTMtT9m+BDEA9jEdH8Kd2hoEo6UGLFiaIlsXDCBfkQm4pxdQGEoLbZZhsBjjQRzkeHRZyzoUk0f8I9q7SBFSRlA0N4ZgUwxbhpHHH49tvvWcCIbYitvgR3dlCm7jfN80c9Hs/DZWVl169YsaJ56/r6O0+7pVrAAQVb6sht5vddXFzcb+0O82bDMEYTkT+t85Yd+ZTGPsiF1s21x000dOhQOvXkk5jhLsoQhXhRlgU5Zwspx6H6DyDNEI7G2dl8//0PNHnyZJozZ0HS+cBKF42SRA8F62ENlWcDBQJZiPI8lYdX0QXN7eZdbEVlJ+rZvQd179mDKxcADspLO3AkoUunSsrL91OBz0/gRyD3H45F2WkC6KDrIeAAfoKr4NFdnDKB0mBLKMiNiRqam6i+dg2DAIThwa2YP3ce/389Su3VgEgiJbPtVX+FLOpHdlDQeh7onNYxYlHmJOR58ygaE9UM++67N+2xx+7Uo0cPFq9iMCDVCtX4L1pSzekgboss54UVFOQyCRQw5KGQ1SDgFUyaNIlaAhEmOioTWEmyOc7BNS6X69JYLPask0bIZTSc92xqCzigYFOPQDu8frdu3cpXr159QTAYvJCIKjI9IroYQuce+VvVHEi9H+tzv7696ZhjjqF+fUXoWGx+BePcmgv+o2a0MuIBChQwQFUC0gXhcIR3yt988x3NmDGDWlqC3CCH4Fw5WiD7INjC9woYZPuCcXvibGQ22egJ7X7hQFF/D+5BcWkJFeYXUEFRIZV3KGNZ5Xyfn0Bo9Lo93NgIvSMgmhQNR7jTXygQpIamRqpfU0eNzU3i94YGTpkAFARaWtgDsuoigFc4zJEFkwOgOlIiOgEiHqdU0h+5pA+QKlLnQci+oqKcDjjgABo6dAiTMNnO8ajsipnQdMA9Vy9fyeNk1U+wAo9skSTFN1GdH2MxkU6or6+nWbNm0dSv0LpAtmmQCC7bOW3WYIXDoqKivzQ2Nk75o/PU+ZxjgY1lgWxr1sa6D+c67cQCAwYM8M6fP39UIBC4nYj62csDWhHxoFYI0RmXytkLnYBQOEzl5aV0+KGH0X77DadwMCi67UkmnFqYs4WHs5kV4WuxwxSOT0UfDClbrAiIy5Yt53z6V199zW11lTIfNxey5eGzXVMGB8TbLO2OrSV20v+I67h0VgpsVR2HcLoMt3Okwe0mj/zpRcUAHLthUASpg1iMf8Lh42ccHRAtIRnlvC16z6aoUCrypAnc5P+kCxhYiZWqZJMjDbIJE7oyohuiaH4Up+2335aOO+4Y6t27t5lSAakQkRCAA9V1EUTAZcuWUYuMEAhTJpYzdf5sDhygAKDCLAPlJltuDt+AS/HZ5//jdAIKKxi8xMS95xglUAJYQV3XX/P7/Vc2Nzcvz2V+OO9xLLCpLOCAgk1l+XZ6XVl+eD8RHaDrujtrZzmkuJH/Rrg7HjelhrEZP+SQg+nAkSOpuLiYWyZjMVbEvpzr0LPYWZcRAYAN5RjwEYACJiFqbqk4SFyCB+XDiRMn0sIFi015Y9NB/j973wEf2VHf/5v33hbtrtpJJ+l0Z/vsO7dzxcYEbJoxGGxjqg2OTQtJIJB/SEzvAUJvJvzzD04glJAANoGAQ4AQOthgsCnG9Xy+frrTSaeyffeV+d935s3q6WmbdtU1zx95T9pXZr7zezPf+VW1o/cXvXqPrrx4s7ImKp4wd3FTWhG1yKpMgCADAuOApkLg6S+Qc/BX5wVyBgTLR4e1L8EdeLhGgyBRvqagFikIEgoVCRBsk+ppV1dKFDW65JLHUTQaqWR9BCHAPWD2wOKNcYe5YPfuvSISwq3jYNkMYZQyJ+s1zJREhh+BTCJ14NBBQQaPHB6fNZzV+lJtvH08ued5Y4ZhfNTzvJvwqDX6+uturQEENClYA4O4UrrQ39/fOTU19VrHcd4EP4J6O8xKm31SgIVJetmjRC+n884/i6699lo6YfNm4RmeSsQriXOUc5isktieCKP08ozTIBaCGYdHsXj51Q3tMuoWJITiAzZ3eKgj2ZEVic3yeg/vjBvtVNUON7gwiYU4MKgy5a5cdkUZX1VdMkQoGnnFB53kgjKjnlWpSyDSNvuxEf4OXi36uAee06w/xyz/ilB7hX3edUUyKtQwgDMhxh+kQODIHYpZEeH8KMtkIx8EEyWR4e8galj4GgeBSYCMNSsXKrMlrlfRLFJj5JeKNg2Rt+Ke398rKijOwq0Koav2LvoyAaeIuzs7O1+XyWR+tlLeWd0OjUAYgfZmVI2nRmAGAeZnLfx3Ihqq2NQbTZwwH+DwZPEfLIibN2+i6/74BXTOWWdVbPxOuSgWBeV30Oyk33iA5DNV1EOYFMBpD3Hw5ZLjL0xyFwvVMirqfe1rX6OJyUnKZnLSu19kwfMX8EZ9r1IaGO0NLt5AR2UFFNEKWKRxf7/eQq3+BX0lgotlrfNVu2VWAGk5CD5Xqf6DZKBZFXq1Z8Jun0p20OWXX04XXvgo6uvbSLZdEoQAh+2UZElpXy4UEdm//6AIP8T1GLdqpEBpO/DZSFOlEjEp3BVJg8OhrAJpCA3Rb3+D/AW/F4QVfg+IjJnP4WOFUI3PDQ0NvfPIkSNj87len6sRWCoENClYKqTX+HO6u7t7p6en/80wjCvFGu87AjbeKcuQL+SogU0ZmeuuvvpquuyyS8lShKFSoW4GRBVCWHORq1KCV0z4IT0390Pcmh+e2cl2xseO0R13/pLuuvMuOjJ2hFybz2pt0PteYuFf74cFqhC7Oc9nMqUvMiBWCgYFV+xGNY+b71Dt+8s0ErI/wedVohqlPwhj1ox/AvBE31CoQhAc6bmPpsNUD2tDKhWnCy+8iB772MfQ9pNPISuC2AhoBvwcBb4ZRi3oIILwHUCRI0SEKNkSizbCLIIHn29VSTUFVgcUQwZyAh+GO+64g3bt2u37P8iHzh7t2U2Zlc7b/4oxtj+RSLwll8vdqs0I8xFSfe5SIaBJwVIhvcaf09HRcV2hUPgXxlhC7dCaMR/Apo/duUpn/IQnXELXXfcCkVMfMfmOU66K3PKRgtnNQe2FQr4onNF+85vfiKqA8IovC4e0mbVUOq9hUfTT5voe/SAFavHDIqKwq1RabCQ37ZKDJmcARIKoRc6bqSfst06mZMYCXXHW9EmBIHymNIDEYlGRf+Fxj3ucSNSE8cU4w3SkHDaDtnqQKFnNskgTfi4C+BPMygtBoR37ApMC05SVNQuFkkiS9Otf3U0jh0cI+SwQQglcgk6v1bQyIbOOG4lEvpxMJt8xNTU1O8610Vjr7zUCS4BAk1PCErREP2LVIrB169b43r17/wvOhWJx8NXmzZAC1WnLMGl48xC94hWvoC1bhoWWAJPxTI2D2fA0TwpCi/gcTUG7sMtMjOgrQvt2PvSwUDM/+PBOOnr0WKXUr1DJix22dJicWzJ6djuUOUM5v7XbylavlwmFZkALunAYYoxqs5Jo1CK77FBnZ4fIRnj++efTGWecTn19fSKSRJhJ/KRJtUJM8XeQrLGJsUouAtUXcX0jQWjY8fqaApACUeLar5mBFMh33nmnKLuNo1rvw74dVTQGBxOJxF/l83m8M/OzQzTsjz5BI9AeApoUtIefvpoINvcL8/n8d4mov55jWS1HOIR6IbPey1/+MjrrrLPEVJuIx4UDoApBDAPdaC0Ia5XV9XPNB+0NIRZFRQpwJ+yiYYN+aNfDIs79oYceFvH/KMWsDuFQ6Yc8Qs0eLCDUrANfe61u/mpl5ah1hbLfy927XCKFf6bJqCMRo3POOluEF0IzsGnTUCXXAMiOqF7pl7SW10ktSlBOsDuHySCdS4vvVPGpillq3pqBcE8amw/wLJVBc3o6I7RBv/vdPZWCSWHyG8QkHL7o+8040Wj0owMDAx85ePDgTEnJ5odFn6kRWDQENClYNGjXz40ty3rL8Un+XZZlReXufsbRLohCLf+CSJTRU59yGT3nOc8Rk34kYom8BCALtQ4UVZYrSKi+/ZytW6Mqd41s0PWvR5pilUxJ2LiZKTMdOg5lMhnau3efqLp3/4MPCJt4sdA4Gk0maJIhkTNHrXY26l/7cqiSRinTB9qnwjddB8mbZiIiQQaQfAhmAkQTwGegf2OfqAKJHbfMMyAdRlVVyKDZRC2oMBnAmfPw0VFxjYo0UQSsksCKGpfOro9AeAqcLUB4jjL9oE3RaExoLpDlct++g8hSUTv8039wMCIF9/LzItze29v7p+Pj4w+1P0L6DhqBhUNAk4KFw3K93okZhnGL53nPM03TDO90G4XJwQPt7LPPoD956csogXS9yaTwPBeuZzPlaOdgu1JIAUgAFjtM9sg2CK90LB5IHITfPY/LgkLHxmn37t0iKyI+M+nZFXWxmOKYraoPEoPlIQWNxk9NICBww8NDdM455witwPDwMHV3d4lkSqpQESIGoE1AfgG1+w47pGLMQQKw8OIHqZjDOQGCO3EUsGrvaEwK4NegTAgwJ6DN+/btox/96Ec0nc5XHq/aFY54CGoSAhEbRzo6Op5dKBR+1V779dUagYVFQJOChcVzPd6tg4i+Q0RPYIwZYaerWn4FcsfHaWjTAF133QvpjNNOF05lImcA80SymmCBnGB1QoCsSIHKiT8X+OZ20J6f6z58/Yz5of59sKNXVQyxcOBA3n4cIAOxDrlDxoE+w7SAPAf33nsf7dq1i/bs21/Jqy9q74gkTrI1qlKk/C28+OF3nNhcPxdCMMPEBe3r7+ulM047lc7acTadtPVEUdURBCmY9CiYhTK4oKtQUHUu2gisYC4Yn5wQSYoqphnu+2IEtFBStmr1rFkPzBqkIKSBAtkVeREcae4BscEY3vmru6hcntH+1COyoXchczz9MeqCoLRys41diGHU99AI1EVAkwItIO0i0GOa5v+4rnuRH94+yyZc7eYq5h2LxfOvea5IYwxHQ0yo8Y6oSFZkBmL9qy2KK4UUQFMQXNSCOQ+EKYWZMjOiX21PmhikBgAL4K7du4XvATQIsJ97olQzajvMoSmhPywtKUDzVf4E1F7YsWMHnXP2DlGTAhknRVEjP5FQcPFDZMlMXQFZiTFoAlDRFure8L+AmSVXLIhFOGgmCGKoSNZikwKluVA+BdBMoD8gBZFIlG796tdEuCJkFkcwd0OQIKg+BzRpuOBaIoIvjnY2bHcW0tcvGAKaFCwYlOv2RnNIQTD5TiNUnv6My+jxj7+EtgxvlosluTKdrZ9mWKmv568p8KmEX1UPixoWLlX0SC0wRiQqFmKVwlftZKGtEE5ixIT2ApO9nPBl2l1cj3aq+8z0s7o6u5ZjpGPL0r14xqFDh+ihh3YKDcLhw6MimgHPED82gvZmshrClo0jHCevogNqL5YzLRXnihLEWPCR6EeGUeKAFgDtgnYAyZs2btxIW7dupTPOOEN8wswjikchoqJOQScUY1KkQGIsSZEaV5AffA+ChKREo+Njkjgw+TeV6RF/E+TLHwe0UZyHYMeQD0vwd8+Tz1NH8N/yvPqaguD5wq+BTJE4CSQA9TD+8xsIIAj7f8yV+rBpgTGW55xfQ0T/s6TqnkYvpP5+3SOgScG6F4G2AYgzxr7LOX9CUMddy2wQflq8w6KnPe2p9IzLny4WAFwHr/ViLi8KI82E5M1ebBtrCuSTsHBhAcPOrlQqUEdHUuRFgMo3Eo9RJp2r7PSxCKINaqEHQYEZQx2SUEiCUFtNPD9SEIvOFPqRi3FE9HlycpKOHZsU/geqpPHUZFoslFgMFVkolvLkBhbzML61SIIMjySK+v2VDp4RYfpAZUKEDaIeAQjA4OCg+MF3wKCSVAjEzW1QJdGUmQGVtgTaoWAsP3woMDYwtaCfKOMMbKMRmbEQZAntkiYJTiVbOisqYgZSoMZMPUeZc6RWppF8NyYFaB/6jnYVC9J/BATu9tvvoCOj43VMGDPhuUFS4pOWKSJ6DhH9VJsPGo2R/n4pEWj4yixlY/SzViUCcDT8sud51xiGYVYLK6vbK0a0adNGEX1wySUXi10YFjrkvMcR3KkF79MsKVA7TKXeLpYdisYsyueKtGfPHmG/nkqnha0fO+KBgQEaHBygjX39IrmOcoqD74La8WJRwsSuNA/tjBruL9M3Ryu3qTjWubICIxY3nJfLFUR7lRMeFlCU+EWCJ5AFVSNA9Rk3VCp9FWePBROLqNQCmNTfu0H0G6WY4Q+AT/QbRCoai1TqAeA+SvWtNEGibkAl6+RsFHhgZqmyS66YBWyX08GDBwUhUGmsZVSCLGONxRh9R5nn9LTsrzAvmXLH3tPdLUpJ40eaGyRpUWYHZYKobbav72ioZFDhCGKCugu/+93v6OGH9zTlDBAkyAEy+Ugymbwml8v9rh350ddqBBYaAU0KFhrRdXi/SCRyo23bHzBNMxaMPmhGWyCcCT1Ogxs30DXXXEOPfvSjCSpfeK2rOgTVIBWkgHlUKx+Bukaq/Hml5C7y7u7du5d++cs7RajgvgMHVPVhkZI3lUrQiSeeSBc+6gLaseNMoTbHRO7CAZI8sRDhwAIc9BVoddjVjhfmEbULn+VdL5TTUvsQXOxBIqDiL9qyWJDUhJREP9V9KvZ4P2Wy0gYojYj43ZBZFIMqfWWSUP1TO3vlDyAyFApfCZRkru7oqEgBrlELM9oGLPG70g6MT0wJQqZMMaqPhu9jApyxK9+9Z58olQwNSjBCo29DDw0NDdG2bdto8+bNFItJTYvQNvhmGbkzl3YRtbjPjFd9UoD2KH8C3DedztBvf/tbevDBneIWNbo/SxyCWiXlc8AY+8/u7u4bp6am9rUqO/o6jcBiIKBJwWKgus7umUqlzspmsz9gjA2qibdZCBRxgCCeeOIwPetZz6KLLno02f4OulFGQ5AClCBSB6946cuFVFTXMyOi2iF2mA8++KAofXzffQ+IlMNiqTBIlGZGZTxlZh7o76UTTjiBLrnkEjr11O000N8vQuuwmAV33bXa12z/BeEIquQtq+LQN+OUKF9T9VyhPXA8cj2nkgwoSBiqaVfCdvUZZ0+piQgSEuVUiHNUuKXKSwA8JVmTWRxRoEmMeY2ZRDkSOhz5DFiloBU0A/iB+UaajYxKlAaIF0I7QQDu8R0wx8aOVXIVqL6Ie7uuIHMgbyIvwvbttGHDBkFYlBZGjkXIwR/RBSKcsX7yIsiE0hDBEfQPf7iPHn74YZHREMmbVfGreuMddD705b1oWdbb+/r6bh4dHc01Kyv6PI3AUiCgScFSoLz2nxFljH2Jc/58NWHXSlQUhkIsLKYp899zj045ZSs985lX0vnnnuPn2q9us1aOe2bIyS1MCgxmisUEqnaofL///R/SoUOHZaEeLh0GXeHyL4v3yEUaC4a0uQ8PD4rY+4suuJBOPOkEoSlQC6hMwDOTqbCVYRbOjL6PglLRB1X+imTN2OFl1AF26jjCDpIzmgd/KaxSWjgYRx82L8DmrwgGPoPOmZKYSA/7Srt8v/lapECRHmZJPwxoBbC4wgwgSA/JPA/QDOBZOGAieeSRPcK8M3r0KBWLyGsg+xN2Yo1FolS2VShoTGgM4Aw5MNBfSbCE6+b4FqiQQ658RqpHBcJcABMGTAaobYF2qRTHVahGVRGo4nh7bzwef02xWPyx9ido5a3R1ywmApoULCa66+jeqVTq0mw2extjLKUWjGbMBzKqwJOlev3MeKeeejJd+/znifS4tbIaNksKoHqH+vmHP/mpzFlfKIsdK4rZVJaB4FsQWBtEZkGPKBo16JSTtgrTxrnnnSOc7jDRYyeqFsi5Q91c/gCl4leq+mC4nlqcla0du1+ozkFEUEhKZAIUVZTnZuFTJCIYJhhsY0Vz4Ed5qDFT56jcAn72Pfks378hSETQjnqHSzIcEzUKkHdgfHxcaAgQlSCSO0HjIXb7Mprj4MERsROHn0E2mw/s72dqTKjnCfMFIhJgYDFnEj8NDm6k888/V5AD5ZQoIyxmnEDhRCqwIdX+2qQARAZpjRE2CvxleSdGpmGS49UmhRUt2OwS2uVIJPKPsVjs/dlsVpdPXkdz5GrpqiYFq2WkVng7N27cmBobG/scYwxhVhXbbWONgVRDk182VyXs2bb1BLrhRdcLYlA/QY+fL7+y5VITv/y879776Yc/+TGhkI2oU8BQohfXGGSKlLNlqUH2t5IztRH8RSKwVoAcnLZtOz3hyU+i884+R+5sw8UUKuPUHCmQu1hp069FELAIB0Mh1bmCSCCjQ4AUhDU1QbNB0OtfPVepv8MmB2UWEQl7AuaNIGmR41x/CgF5w3OnpzIi/wCiDAxLhnfCmVCZHyYnp+mBBx6gnTt3UiaTqxBEWUgK2FR/jiicBU0PEUUipjA74Ojt7aZt206miy66qJIXAWGXM4RCRkHIfvuxmXPeMRmOCjL5wAMPUalUFnYSGRrqm01qJI+aZeIIJJ0wDOPeVCr1xnQ6jfwEOmnRCp/X1mPzNClYj6O+OH1miUTi0fl8HnXiT2KMMbX7DUYkBBcwsYPEooFJk89O/JLoiAhP+BtuuIG2bj2Jujs7K4sTroOzG3bqyKMPZ7tELEGwWxfyJeFNPzU1Tb/61a/o29/+LuXyeSoFChLJ7ksy0sgnIKjtwDNR8Agz+bnnnCVKAJ9/ztnCpGCIaoJyx6vuqxZ76XzpzdQLEL+rUsRy0Zu1iw0s8jN41SIZ7ab5rX/fYLIhRfZmaR+E9sIlwzeBgHgJ8uFrIOyyK7UDU1OBVMFw/nSpiIiKTF4QARSOQq0IhZ/SRjQWVZXEqfqZJ564hc4972xRpRGHzDkhtQ4q6ZTMUCgrISr7P/qA3BB33HGHaB9CWFXdAtwHjp6yHoPsb/AIkjxlHuKcc8/zJi3L+vjAwMBNIyMjM/mRG3dSn6ERWDIENClYMqjX/oOGh4cTx44d+9NSqfTOcMVEtTNVC0sFjYCfV9BLG3/Gzhwhgtdeey3tOON0MYmrXAaIj8eOE+qjyWBqAAAgAElEQVRppWYXvgkeowMHDtBPf/oz+vWvf01l2yXbdoRNWk3WkqSoxbTxjl5dF1wU8W8QkvPPO4/OPWsHnbnjDBHfH1zcsWAoRzuRmNknDOI+SGLHsThZszQEwQVX2aIlVstDCpSzo2p7UEshmsVdSXZ8p07s6OGtX3Jsma54bEJGF/hjh0tgRjg6Nkbj4xN0/70PCO2BykcRJGFBeaj99jQeRxRoOv2MU4W/AcIupeZDmi/gPCp9OmRmSvyAVE4cm6Jf/vKXIk9EoVASjxeFriopq2UqZzUutXxpAn0omKb5te7u7rdOTEwcWPuzge7hakVAk4LVOnIrtN0DAwOD4+Pjb/A8708ZYz21dlEVZ7cQKVAq7qBgbt26ha58+jPEzhwe95iYEUePCd0N5AvA3/ft20/f+c536He/u1euWQGc1IKtSEEzmgJcHvYel6pv6QCJdiYSUTrppJPo/PPPF8WAent7xIIDBzXHlU5wM9EB0gtfEQyDS82CiixQf1cq+xmfheUhBYqYBP0IFKRqF6w0JGgr1PcgAZPT08KZEI56ImKBuIj+ODo6Lmo/HDh0kCYnpioDVE1D0LxPSm3SpPxUYnFTaAvgNIoQRrRdpiqWORtUGCP+DqfCe/9wv4hQUcds2YF/wmxSEP5eXedrFyAsv+js7HxLJpO5fYW+urpZGoHKnKah0AgsKAKxWGx7qVR6K3K7w/EwvLuctWOvEhEmFggsI8qsz4mGB/vpiiuuoMc+9rFkWrKSHiZzsVfzPMrl8nT33XfT97//fTp8eIzgIA8tvSIFs7UE6K5SFTcfPaAWb5WLQRbIkdertp500max8CA0rq9vgwiVi0Slk55aWGGGUA563JlJtiNIhh+NMdv0UHvRm1soab5DWZ9sBMdOtSnofwAMsNjLUEVP+AOADGTzeT9ngidCC0fHjoo8A4dHkL45W4kEhI+HIkL1fCNq96qxpkDlwgBB2LJlk3BABImDeQpai6AGAG296667aPcjeytmAbnbl3KmxkjVvBBRLHMLVQS1UhDBh6LR6JvL5fI35zs6+nyNwFIjoDUFS434+nge/AsuLBQK7+ScX05EMtYscMwsLMoGr2yzcuIVOe39JR3pjhEG1tOToudc/SwRBYAMdtiFobQucuYj1PAXv/gFlcvwzGfkuJIOVAkHq7SiGfV0WEuAa4IJmtTNsDgopzzH9aivr7tSK+CEE7aIRUiUhbZt4dyIRQVFoGKRyKwMfGqBhFpa+WRUFxm1mC+UT0H1+8w44wU890XBJtk+RXaw6xbZFienxEKLug0gB6OjYyIEEeaCYCgfxg7HTBrrmV7WG7NWXh+V0lms3YyouztJp512mtDqIHsjtDpoP6JU/nDPfcL8hP4hj0X4QLvRbyUDQfmoIW9HI5HI22zb/gJcGlppv75GI7CUCGhSsJRor69nWalU6onZbPY9x0sr/xF8s6p3348+8CMWKjZa/2Sl/pW7a4M6E0m69NIn0ZOf/GSxe9t7YD/94Ac/oIcefJg87lS8z6FNqDap11Lz1hoapdYOZ2rE+cqMAK93qe4PLmxE2ASnUklBYIaHh2n79m106qmn0aZNQzIcD1EFtiMSJwVt9vIu0sxQbReqvpefi0sKFHFS3v+z/CI4F4s/yMDEsUkRanj02LhIwwznQuy6EVaokkTJPBCzF9Wg9iEYHdE4aqW5lwljgygH6VMyozmKxy2hxbnggguEn4EwGdx7Lx08cHjm3HC+Iz9KRI1JmLxUka2sYRjvGxoa+qR2LGxuvPRZy4+AJgXLPwZrtgU7duyI7t279/JisfgBz/N2yI279PoOLJ+Vfwa9ttWiKCIT/MMyLXJchzo7k3TeeecJJ8Q7bv+lWIRE/DjjIv4dB3bt2JWHj1oOYfUGIeyVHlZzq99BElRZXdwvSGgQoRCLRyiZ6KShTQPCvg2icNaZO2YlL4IDnLDVV8IUl7uqriEdIX2tCzIPqhTF8B3A7ho765GRI0IzgB8QBZWKuJb5JmyKCeOvMK82hvN9YWoVhUL4Kwo/9ff3i3BJFKBSY4ZnwJFUEctwOKegYyFZDpIEVEFEPoL+/v4PjYyMjM+3zfp8jcByIaBJwXIhv06eu3379tihQ4euKhQKnyCiLYZhsKBtFjvHaur4oMZAkYEgZJjQIxa8x6UjnzI1QEOgnPoUAZjjMe/fqBlHtvDEH7xGqY7rnRNcZFT7sWMGSYh3REXhJTi+nXrqqSInAxaoWCxKDGF9lVC3xhESiydOKo2x1Fog9z9qR9x///20b98+EUEAB08QhaBmRtjxQdQCoX/VTC9B7Ob6fSxMr4JjIH0AZt9X5cYIEjl1RjUZCZoQashQMRaL/Usikfjw5OTk/oXphb6LRmBpENCkYGlwXu9PsTo6Oq4tFAo3E1Gn9KdTNejD5oMZqILRAbUEdSatcXWIg45gYncKF8ZAauRG2WOqTfqztQ0h9b1Kn9vMiCO1MgNBkC4X0HRA+7Fjxw4RyXDyyVsplUgINXwiERfmBJVhUMXYN/OYeufMiqRgsgwxSBrC8BCax5khsguieBQy+u3atbuSJVCF6lW7fyNcm2l3kCSECZgal3qErJlnNDqn1viHiab/O7pdMk3z31Kp1Punp6f36gRFjRDW3680BDQpWGkjsobbE4/HX1IsFj9ERIPQGEiV7IwIBr3aw7vkVklBOLlM0IERUFuhjH1h80Jjp7f2SIEgA/6Yq901foVT5emnn05XX3WliK/P5TKV5DnYqcrwP7tmaelmxUgUjPLvB6KhighFo3GRP+DOX98lCkjt2XNARHTAfKA0AqhIODcplHxyK6QgOP6q/UoOgomDJIGSWSDDPhfNaH+axSZ4Xj2zk+9LgORE2Ugk8qVkMvnBqakpEAJ9aARWHQKaFKy6IVu9DYaPwe7du19SKpXezDlH/uJZK2rQp6B5R7NajnazdcTVBN2vcocTC0SUgSsCEXUzWW1IkJbGR/j581P1Y2eOhVlGGkjnRcT6o734/YILzqMXvvCFokqjsO178lylwm6ujbV7EcxYiGfDHIMQvXQ2S7fffjt9+9vfoXQ6WIOgMSILfUZgoQe4qCqIbIBJpIhQMtSa7DTf0noOqkjeiTpOhmF8rbe39yPj4+OyrrI+NAKrEAFNClbhoK3mJg8ODiaz2ew1uVzuDUR0hmEYZi0P++Z2fW2RAhRLHjEM4wfRaPR2znlvuVy+gnN+IcwcKlWz2pmKHXCozsDcnPzzIwW4p9RGzORlgI3bU2Wciejyyy+la573PHEevlMhcSAUtaMTmpOSoJ1fRhbISIpf3303ff3rX6ejRycq5aQR6inqR/hRBNXCCZt76sxZjcbY19QgSzCIwE7DMH4Sj8cfKBaLZ3ue91Qi2gafwOpapvm2Zu75tcJWA5oKEIJJ0zRvSSaTN6XT6Yfbf6q+g0Zg+RDQpGD5sF+3T+7v7+/MZrPPLpVKf8M5P69WuGIzeQQagVhHwJFl7j7TsqDu/er09PQ+RBkmEolzy+XyNY7jXEVEpyHHgloAFClod3c+q82o3udXOwzm+0e7YzHk5HdFzoM/e/mfCGdELMgijXCpVFGhN8Kg3vdKBQ/NAzJEIqc/wglv+9Z/izS/IAnQXMzRmTCEXBqi5PVCHsEdv483Qkigiv9+Mpn8RiwW++XExES6u7u713Xdy3O53Es455dAw6Pa0YhozKe9TeQhmIxEIp9LJBL/MD09vWc+99bnagRWIgKaFKzEUVkHbYLGIJ1OP71QKLyOiC7yVfeVaoFqd97uAixr4PlphWeWtrxpWv9rkPG5oc1DP92/f/9kEHKQlkKhcEmpVLrccRzsRk8lonjwnHo25vkMHzNRVlgWhMKhPOFFuxnMCTJb4hVPf5owI5RKBWE6wLEQzoZBmz1IAXwJEFnwxX//kkg8hKYh1h8VJRFloEINK44QzVhYmgBEqecDoX8gbfuhGYjFYt9NJpM/Gx8fHw0WgfBDXs+1bft627afj+gWKF4WamzCMljFhDBlWdYne3p6/ml8fHykiW7qUzQCKx4BTQpW/BCt3QZu3bo1fvjw4SeUy/AxoMdDDVwtZCy8s66KSI3FSZECFbLIiE3GYtHPdkSSn53ITjxEhMpEVQ82PDzcl06noTl4QrlchubgHEUOKurqpvwOqj/Az7koFlwUSPJc+BLM1EUQi5J/6XnnnEGvfvWrxQKtDuUE2a6EBB32oCmAYyFIQbns+dUfZ8BFESq0E8Wc4KTpOLJYUOVogSSEFnGQgb2WZX3bNM3vJxKJ309OTmLBlcUm5h6sv79/Uz6ff2axWHyF53nnKoJZ/fRGyZ5qaz5CeQhGotHoTdFo9HOZTOZYu2Ogr9cIrBQENClYKSOxftsRgco+n8//LRFdwZjMfFhzra0dhlB9xfA1BYhzIKIHLTPy8d549L+O5nLYdTZzsJ6enu5yuXyybduPdxznOiK6gHOOOEKVF6eZ+8w5R5ECoYbnqsDSjFe9uLm/yKIo1EtedIOoqQC/NtQbgBmhXU2KclqUpgPkjOB027e+Rd/61neFGyhyQSEqAr4Twn+hUqvC8Hsf4lQtkAIfGCScAEn7akdHx/e6urr2jI6OYrFtKnvTxo0bU5lM5vxisXgjEV0Z1uzMgD8/UlDDFHFvNBr9YDKZ/Nbk5OR0S4OvL9IIrFAENClYoQOzzpplxOPxE4rF4keJ6Br0vZFduJaKOHyd/zsWnJ9ZlvWBoaGhOw4ePIhog3kfW7Zs6RgfH99o2/ZjPc97Fecc6Zs7VHslmZlZFVWFw1m+AoEKiXUbECgUBe0AUvHecP11IpOj6zoi46H0uai1gW6uewovzw8EQXKib9z2TfrJj38+Q8wC5KTaXYOYh5MRVSMtoTHCWNwfi8W+HI1G/zsejx8cGxvLNtf6OWfBJ2Qgn8//GRHdyBjrhTOmKnccHCc1VtX8VsJOiwFZA9i3W5b13i1btvx87969xRbbqS/TCKxYBDQpWLFDs/4a1tvb2z09Pf1hz/NejJ1eMPvhfNEwDIMjVMx1XTiCfbmjo+Pv0+n07qBNer73DJxvDA8Px48ePXqh53kv9zzvUuRegNqaMQabtp+DYfa2eV627gApALlIpRJ0zTXX0BMef7H0JeCqBPPCOPopUjA+MUFf+cpX6Dd33zOrVkCtxAON8jhU6TMaDOfBCSL6ZUdHx5dM0/xJNpuFX0d7DGdmgCLxePxxxWLxI0T0KLhqmKbJ0NZw2uRmyCdCH4gIOQhuS6VSH5ycnLx/geSoDRHUl2oEFgcBTQoWB1d91xYRgAPi1NTUK0ul0p8T0Va/wmJFTquFnlWJUcckjhC2e03TvLm/v/+ro6OjiG9fjAMVITfZtv1Mx3GeTURnc877ffW10FU3q9WY1Ti/x/AxwJqESpHPeMYz6FlXXyW1KK7jRx+0rq9Xu2XhU4Bcj4zR/oMH6bOf/Szt23uoKVJQbVENhOupLoEIQFsDVfuuaDSKENBbstlsPZ+OtscqmUwO2bb9WkSTENEwfFZUNs2gH4UaI9WXgHYD4KLd8HH4/HFt1r9ks9mxthumb6ARWMEIaFKwggdnvTYNXuUHDhx4TD6fxy788Zzzzb6aXshrHfWuSDPrT+LfMwzjM+Vy+Q9LhSPs2ul0+mLbtq/yPA87VJCafsZYlHM+4yFYhyhU2uq/mQaTtRwQlXDxxRcLE4KosOigRDQ4R3uagkr5YzJE4qT7H3yQbr75ZpqeyjVFClR7w0SAMeZxzrGgTjDG9kWj0T8YhvHdeDz+w6W0ww8PDyempqaeVCwWX+x5Hsw9Q5ClcA0ORZD8/ggyYBjGYSL6RTQa/WyxWPzxAmoylkok9XM0AvNGQJOCeUOmL1gqBHp6enrg+Y94dMdxznVd9yQi6vN3fMpjDKsiiMAUEe0zDOMPHR0d39y4ceNPltHma/T09JwIx8RcLodwSyTYQQbHQcYYMiZa1aru1dMUgBScddZZ9LKXvlj4F0BTIFX3Tfnh1RwytTt2OROkAEmLPvOZz1Cp6N83YMaodZMAIRCJfIholDF2iHO+KxKJ3B2Px3+eyWQe8c0GSyU+s54zPDzcn06nn5zP55/sed7ZRARZ6vU1UZAltB1mDWgz9pum+YBpmt9LJBL/M4Xa0PrQCKwTBDQpWCcDvZq7ibwBjuNst217R6lU2up53gZfPY+JvGgYxjHLsg7GYrH7Ojs7H2jVkXCRMIp1d3dvtm37zGKxCB8EhDaexxiL1Y0cCC3GIAUnnXQSvfhF19PWrVsFKcAi3q6joXK0AynA8YMf/YhuueVWEXUgLOlNkIJAXYIDCNGLxWK/5pw/kkwm9y+i2aal4YI2x7btbb4sbfE8rwfEwDAMsKC0ZVkINbzPNM2HllKj0VJn9EUagUVAQJOCRQBV33JREbA2btwYL5fLcOrjsVjMHh0dhRd4e1vmRW2yuDnr7e3tOl5K9+XHndZezxgbDtu1q2kKlIMfLAWooHjdC6+lc889l4yK51975gOlKXA8Ek5437jtNvre934g9s3NkgJ4+PsOfJ/v7u5+7fT09KxkUIsPbctPwPwXHRwchCMiHxkZgbljoZwdW26UvlAjsJwIaFKwnOjrZ687BI6r0p9aLpdv8lXYtfsfcjTEib293XTN859Lj3vc4wQpkP4AC+NoCFKA3AdfufVWuv32OwUpQPRk5e51HuOTArCT/3PcRPKpdTeousMagTWEgCYFa2gwdVdWPgKpVOrsQqFws+d5F/O51ZRmOhByNMQCHYtF6RlPf5oITSwXC8J80K5PgQrTM6wopdNp+uQ//APt3r2PuFJANGE+QKMtyyo7jvNMIvrflT8KuoUaAY1ALQQ0KdCyoRFYQgRSqdRANpv9F2RvRAGmmo+uoilAZsGnXPokuvbaa8lkqEmAKontabuVCYMzk44ePUof/8QnaGxsomlSoMwPjLGsX5joniWEUz9KI6ARWGAENClYYED17TQCDRBAeuRPE9EL/VDF6qfX2KFf9OjzRWGkDT3dIi1xu6QAD8fCbrucdu/eTR+76SYql92mSUEgI+DhRCLx6Hw+rwsD6VdAI7CKEdCkYBUPnm76qkQAmfU+4HneXzLGUjUjEAKkQOZlkNUbzjh9G1133XV00glbFiT6QJGCku3S73//e/p/n/q09CVo0nwQ0BTc1dvbexnKGq/KUdGN1ghoBAQCmhRoQdAILDEC8Xj8FaVS6T2cc6RGbqgpCJKCE0/YRC94wQvonLN2+HUW2o8+QHKksuPRj3/8Y/ryLV+T7ZmHo6HfgS8ODw//xcjICDJJ6kMjoBFYpQhoUrBKB043e/UikEwmn1EoFD7leR4yHs6LFPT3ddPznvc8uvixf7Qg0QdQ/zuOI8wHt9xyC/3wxz+fFynws0uiPMCbd+zY8Yn7778fYX360AhoBFYpApoUrNKB081evQgcz/t/5vFkRrdwzpFZr/o7WMOnIB4z6VnPehZd/tTLhPmg3ZBERQoQkvixj32Mdu7aI8wUBiNCpeRmkheZpum4rvuC4yWlb1sF+SJWr+DolmsElgABTQqWAGT9CI1AEIHOzs6+TCbzTcbY4zjnKl3zbJBqkAL8+corL6dnPvOZFI1GRAllj3lkcGP+nwh/EE6GLnkep7e97W00dmxKmA6QQdEBU2giJDESiWRs234G6gT46YL1gGsENAKrFAFNClbpwOlmr2oEooyxWznnSHlsNepJsBIhwhC3bTuZzj77bBoeHqZ4LEKxjhglO5IUjUcpYkbIsAyKWlHxaTKTHM8hz/HI5a74LNklKuQKVCyXqFQo07GJCZGR8NZbb6ViUWr/oYVw3aaTRO73QyxRUlgfGgGNwCpGQJOCVTx4uumrF4FIJPIJ27Zf6ddwqNsRqPiVml8t2KlUSoQkInmRFTHEv2XVRHng3yAT+DsWd/zAoRAHIh7E3xxOphmhfD5PiUSCRkdHxfeqCiXu0YgY4FzDMH7W1dX1ouMpnEEO9KER0AisYgQ0KVjFg6ebvnoRiMVir7Jt+0Oe53U20wvs3HE0WqSbuVetc1S1Q3wPAhHIQVDvttwwjH8eGhp6+8jIyHg7z9fXagQ0AsuPgCYFyz8GugXrEIFIJPJY13Vv8zxvY73uV1uYQRBmNAeyKIEoXiR2+fIn+Df192rPsayo+HO5XK6QgKC5oomhgb3hNVu3bv3CMpaqbqKZ+hSNgEagGQQ0KWgGJX2ORmDhEUDJ3tuJ6Mx6+ULmuUDXbKUyCdQt1+ybDnBOsz4FjLHDpmm+xHGcH2gnw4UXEn1HjcBSI6BJwVIjrp+nEfA39USEGggvayaJmG+7F2p9peavZkpodvGX2gP5+oMEQPOAT/ggwOmwSTLCGWPfSaVSN2YymZ16YDUCGoHVj4AmBat/DHUPVikC8Xj8ycVi8b+JKFGrC2rHHl7sGy3a9chB0HcA/wa5CKQr9jMlisqHIrFRnSNnGMa7+/r6PjU2NpZdpcOgm60R0AgEENCkQIuDRmCZENi6dWt87969XyUilByuegR9CoJEILiIqwsbmQbqdTP4nCbIgFAwENGv4/H464rFop8GcZmA1I/VCGgEFgwBTQoWDEp9I41ASwg8iTH2BSI6Kbioq/BCFUaodv7hJ3De7isswxSraSLEyq88GAMP9k0Nk5zzm3p7ez85OTk53VLP9UUaAY3AikOg3RllxXVIN0gjsJoQ2LJlS8fY2NgrS6XS+2BGCDv4BXMPYIGeu0hXT4jYLAZIk1xPwxDUIATa5jDGvptMJt+czWbva/ZZ+jyNgEZg5SOgScHKHyPdwjWOQF9f3+apqam/9TwPToeRdswA84VKORjWemYVkwVUC/d1dna+NZPJfEfXOpgv4vp8jcDKRkCTgpU9Prp16wSBjRs3njo9Pf235XL5OdAYHHfgY8oJcDEhCJOCoJlCEYUAMXAZYw93dXW9c3p6GjWW26vbvJgd0/fWCGgEWkJAk4KWYNMXaQQWHoHe3t4TM5nMXzmOcx0RDTHGrFpRBoulTagTtVBkjP0mkUi8O5fLfW/he6/vqBHQCKwEBDQpWAmjoNugEfAR6O3t7S4UCs8rFosvJaJziagbpQyCAM0nF0GzwNYgH4gwKBLRIcMwfpJMJj+SyWQeavae+jyNgEZg9SGgScHqGzPd4rWPAEsmk+eUSqWrOeeXuK67g4gG4G8gqx2rRMbVowNagccnBSABMAnYhmGkTdPc43neb03T/G5vb+/3R0dHc63cW1+jEdAIrB4ENClYPWOlW7r+EDC7urpOcV33olKpdKrneQOe5/USUdKvrojPk4hoczNZEavAlyeiPUR0hDGW5ZxDKzBlGMZYJBI5GI1G/2BZ1n2Tk5NpncJ4/Qmf7vH6RECTgvU57rrXqw+BaFdXV8o0Tfx0uK4bzWQynZ7nvcDzvL8kIivcpUZZD48nTbqLiP5vT08PFv+c4zgl13VzmUwmQ0Sl1QeRbrFGQCPQLgKaFLSLoL5eI7B8CDAUI3Jd95+JSJY7DBxNkIJbu7u73zw9PQ1tgT40AhoBjQBpUqCFQCOwihEwTfNFrut+1vc3mC8p+LfNmze/5dChQwdXMQS66RoBjcACIqBJwQKCqW+lEVhqBEzTfLnruv+kzAfV6iPUadO/Dw8Pv2VkZOTAUrdbP08joBFYmQhoUrAyx0W3SiPQFAKGYbyKc/5JzrnwKZgnKbhleHj4jSMjI/ubepg+SSOgEVjzCGhSsOaHWHdwLSNgGMZfcc4/DlIw3/LKRPS1oaGh1x85cmTvWsZI900joBFoHgFNCprHSp+pEVhxCEQikb9xHOcjLZKCbwwODr52dHRUOxquuJHVDdIILA8CmhQsD+76qRqBBUHAsqzXua77wRZJwW2Dg4M3jo6O7l6QxuibaAQ0AqseAU0KVv0Q6g6sZwQMw3gD5/z91XwKmsDlvwYGBm48evToI02cq0/RCGgE1gECmhSsg0HWXVy7CBiG8WbO+d+1SAq0pmDtiobumUagJQQ0KWgJNn2RRmBlIGAYxls55+9ukRRon4KVMYy6FRqBFYOAJgUrZih0QzQC80fAMIy3HS+j/K4WQxL/Y2ho6A06+mD+uOsrNAJrFQFNCtbqyOp+rQsE6mkKmkhzrPMUrAsp0Z3UCDSPgCYFzWOlz9QIrDgEDMN4o+d579MZDVfc0OgGaQRWJQKaFKyuYWt1vPjq6qZurY8AxrvW2Blbt26N7t+//3We572rRVLw5e7u7rdNT09XS16kZC38fC1LWjw1AmsYgVYXmTUMybJ0zert7U16nrchGo12u67bYRhGFHbiY8eOGURkEhE+MV7qU41dcAzDiwgmcDWJq3/P+T0Wi1EsFuPxeFx03nGcmgsBYyz4Xd0FI3Qubr3UC0pd+T7uoBf+vubvVc5VgiKuKZVK4sdxHPwaHpt67ai1+IYFMTh++Ddkop8x9nzO+bN8uZhvmuNfEdHnLMva4zgO2hHxyUWwvXiW548dPtW/K3JkWRZPJpNkmmiSkB+Wz+fFJ363LEvIF+QM/w7JV0UmGsjWHPkJnF9PJuf9QleRW3GPOjJQ7RnVxryqHDSSrcDN51w/zzbNaWcIQ4Gj/zfOGBNj7bquYxhGiXNeMAxjMhKJpEdGRoq+LMwbX33BykZAk4JlGp/t27fHRkdHT3Jd90zbtk+2bXuYiE4goiHGWCfnPOGXw1WEAGRA/WDcwj+1FhE1mYbJQLW/Byfe4PnN/D08aYevr/V9uyPQzIIbfkaYSM1a4Kss6sGFPvzvar83Or9Rn2uRJ7VAu/4ijXoHA0TUEWhzo3sHv8fEPg5O45MBlF/GPSFn6ggSgjAxqSYX1chq8Jm15LDaverJTDP3mQ8W6tz5ENdastdIvsLy1szvtTYBjfpYq43V3u9qBNBljNnH82HkPM9Lc85HiOhQLBY7Go1GDzDGHtqwYe4AVuIAACAASURBVMOBvXv3Qpb0sQYQ0KRgiQexv7+/s1gsPrpYLF7qOM6jLMs63XXdYc45tuliq2UYBnYl4kcfGgGNgEZgOREI1dTApATNQcE0zcOc8wc8z7vXMIzbk8nkndPT05PL2Vb97PYR0KSgfQybvUOks7PzMcVi8QW2bT+BiE4lolT44nBRm2Zvrs/TCGgENAKLhUCdSBZokvJEtM8wjN/G4/Gv5PP57xGRvVht0fddXAQ0KVhcfMXdu7q6NhQKhRfatv0nRHQmYyzJ/NX/uJPYErRAP0IjoBHQCMwfgXApbnWHoBYTmk0cnueVYVogom9s2LDhpomJiQPzf6K+YrkR0KRgcUeAxWKxUxzHQdGa5xNRH2PMVOYBRQi0dmBxB0HfXSOgEWgNAcxVwY2LmquqkYMAgcgxxn5tmuaHHMeB1kDvfFqDf1mu0qRg8WA3I5HIRbZtf4iILgYZgHagWV8BvGD40ZqExRsgfWeNgEagPgKN/JvCmgT1O+ccRGDfcRPpR/v7+784Pj6e0VivDgQ0KViccTLi8fjFxWLxH4noHKVeCxMChHC5LhzJZx9BNq6dDRdngPRdNQIagfYRqOVrgL8j/NS27RHDMD7e2dn5We2E2D7eS3EHTQoWHmUWiUTOt23700R0YfilabTga1PCwg+IvqNGQCPQPgJ1tALi5tXmLn/js98wjA/39PR8cWJiIt1+S/QdFhMBTQoWGN3Ozs7TMpnMx4joqhZjxxe4Rfp2GgGNgEagNQQabWKauatPDB6MxWJv2rZt23fvv/9+OCTqY4UioEnBAg5MT09PTzabfYfjOK9gjIlww0bq/3qOOwvYNH0rjYBGQCPQMgLheUrdqNn5DT4GjLEfJJPJv85msw8uQ3bTlvu+3i7UpGDhRtyIRqN/XC6X30NEJyunwoW7vb6TRkAjoBFYXQiEoheKlmX9w9atW9++a9cuZNHUxwpEQJOCBRqUzs7O0zOZzEeJ6OmGYUR01MACAatvoxHQCKx6BJQ/AmNspLOz87npdBp1N/SxAhHQpGBhBsUwDOPVnue9nTGGXPQi9LCJevaznl5LRbcwTdR3WYsINFLfNuqzlrlGCOnvgwi0Im+IQkCUlT8nepzz/ySia7UJYWXKliYFCzAu3d3dp6TT6Q9xzp9rGIaptAS1Qg6beKQuetAESPqUCgLtvMda1rQgNYtAS3LmV8YUz/DNCai0+FTbtn/T7IP1eUuHQEuDvHTNWxVPYl1dXden0+kPMsa2tJFwCJOzzRgrEBHCdnIoPOKzaVW9DIBUqw4XBipcUS08zo1+D96v2r1ardhWr9RyvcWple9qPatR9ccgxurf9Sry4RxVsTL472AVS/X34Gc14Q62OYixupcqm43kFsg373LOUVlzS4uRLiXG2H6/UiKKccVCFRJVG6tVvGxUfS98ba17VRunRlUGG30fxrmevNerSFlrAqr1fHV++HmNZDEsc/UmvrAshitXqqqWQdmt1sdq8hWUWVWRFXKByplxznkXESV9OWlp7fC1p240Gv3Xcrn8p1pbsPLWuJYGduV1Y/la1NnZ2ZfL5d7ied5f+aWORWPmYzpgjDmMsSOMsTsMw0Ba0Luj0ehhy7LK09PTwfr1wX+ryaDehFJt8mp2Qa9FBhoRjnqL3XwX5FoLS/AZzex0g+c004ZwH6o9o9oCXm3xb4QXvg/fvyoh6OzstDjnqqwxs227u1QqXXc8jew7/Yl7vi/CT2Ox2Ecikcid2WwWJEO1I9zmWpg1IjbVyES1sWi0+DYjs/UW6vnMc7XGuhaxaEQQ6slSNXwajWE1UlCNAATnh2r3rEcKgmXarWQyGbNtu8913TOI6Cmc80s551s55yjZXfdQjoahDK08Eoncc1zursjn84cb3UN/v7QIzOdlWdqWrZKnbdy48VFTU1Mft237yWhyCyYDaAPui8ViN/f29n7tyJEjY6uk67qZKwAB0zRf5HneZznnkfmS0ePFuW7ZtGnTmw4fPox0tPrQCDSDgGVZ1lMcx/kLIrocxd2Un0E4uVE9/wPDMMYsy/rLcrn81WYeqs9ZOgQ0KWgT60QicWWpVPqU67on4lbhAiINbo+d/554PP6+DRs23DIyMoLdmj40Ak0jEIlEXuY4zqc551DxzktDBVIwPDz8xpGREZgQ9KERaBYBs6ur68JMJvM2zvnTfXPCrLmvWibXUGXFwnFz62dc131Nsw/V5y0NApoUtIdzxDTN6z3P+yTsbS2kKM4bhnFzd3f3eyYnJ6fba4q+ej0iEIlEXu04zt+3SAq+PjQ09LojR47sXY/Y6T63jsCOHTuie/fuvaJQKPwd5/ycRhuiKiQBGtLvcM5fQETF1luir1xoBDQpaAPR/v7+zvHx8f9z/BbvYoxF5xmuwxljuxOJxDW5XO53bTRDX7qOEbAsC2W5P9giKfjm4ODga0dHR3evYwh111tEYHh4uH9sbOzttm2/Cv5U9fyoqmyY4PPwi0QicW0+nx9psQn6skVAQJOCNkAdGBgYPHr06DsZY6/inFewbEZjwBhD2s//8DzvRYg6aKMZ+tJ1jIBlWW92XRe7tVbMB/81MDBw49GjRx9ZxxDqrreOAEsmkzfk8/n3Iwqmnk9BjTnxnmQy+eJcLndP603QVy40ApoUtIHo8PDwiUeOHEF+guuCWoJqL0AV9ZnLGHur53kfbqMJ+tJ1jsDxCJW3uq777hZJwbcGBgb+RpOCdS5EbXS/s7Pz8fl8/mOu6z4mTApw2wba052pVOpV2Wz2h200QV+6wAhoUtAGoAMDA9vGxsZgz0VFxDlHA+bsGIbxAtd1kd1LHxqBlhCwLOvtruv+rSYFLcGnL2oTgeMRU+ek0+mbXNe9bD5h2P5j96VSqTdks1kdgdDmOCzk5ZoUtIHmxo0bTx0bG/t/RPQ03Cb8UgQjEapoCmzTNJ/sOM4dbTRBX7rOEWiTFGjzwTqXn3a7j1Lx2Wz245zzKxhjIofGPHyrDiWTyXfkcrnPtdsOff3CIaBJQRtY9vf3nzY+Pv6PRHRZM7cJaQ7KkUjkonK5rO1pzYCnz6mKgGVZ73Bd950tago0KdBy1RYCXV1d29Pp9MeI6JkgBfOs+XIkkUi8O5/P39xWI/TFC4qAJgVtwDk8PHz6yMjIp4jo0mZuEyIFpUgkckG5XL6/mWv1ORqBaghYlvVOnxQgHe188xRoUqDFqi0Euru7t01PT4MUXN0CKTiaSqXem81m/29bjdAXLygCmhS0AadPCv6JiJ7UzG00KWgGJX3OfBDQpGA+aOlzFxqBNknBeDKZfF8ul/vEQrdL3691BDQpaB07Gh4ePmNkZASqr1ZJwaPL5fK9bTRBX7rOEWiXFAwODv6NzlOwzoWoje77pODjLZoPQAo+kMvlcL0+VggCmhS0MRA+KYCm4InN3CbsU2BZ1mNt2/5tM9fqczQC1RBo06fgtsHBwRs1KdCy1SoCbfoUaFLQKvCLeJ0mBW2AuwCk4BLbtu9qown60nWOQJt5CnRGw3UuP+123ycF2Olf1YJPgSYF7Q7AIlyvSUEboC4AKbjYtu2722iCvnSdI2BZ1ptc131vi9EH/zk4OPi60dHRPescRt39FhFYAFLw/lwud1OLj9eXLQICmhS0AWqbpKBkWdYf2bb9+zaaoC9d5whYlvV613U/0CIp+NrQ0NDrdUGkdS5EbXS/q6vr1HQ6DU3BlS1oCsaSySRIgXY0bGMMFvpSTQraQLQZR8NaWb4MwyhalvWocrn8YBtN0JeucwQsy3qt53kf8jxP1D4IHk1kmLt106ZNbzx8+PC+dQ6j7n6LCIAUZDIZJC9CVtdZ60kT8jfW0dHx/kKhoElBi/gvxmWaFLSBan9//+l+8qKn1LpNrReDMZaPxWJnFYtFXba2jTFY75dGIpEbHcf5sNIUzJMUfHl4ePhNIyMjB9Y7jrr/rSEQIAVXEpHIaKjmvCZIwdGOjo73FgoFnaegNfgX5SpNCtqAdcuWLdsPHjz4SSK6ogVSMM05P5OIDrfRBH3pOkcgEon8H8dxbmqRFHyhr6/vbceOHTu0zmHU3W8RAYQkIqMh5/xqRQqC6d0b3PZId3f3u6anpxHBpY8VgoAmBW0MxKZNm046fPjwR4jo2mZIQSgk8Qjn/BwiGm+jCfrSdY6AaZp/6nnezdV8CprYqf3zxo0b/3ZsbOzIOodRd79FBDZs2HDC1NTURzzPez4RCRPWPEjBoXg8/rZisfiFFh+vL1sEBDQpaAPULVu2bD548OB7iOgl6oUI365OpcT9RPRYrSloYwD0pWSa5vWu636eiCKAo15lzipw3TwwMPCuo0ePjmooNQKtINDR0bG5UCi8l4iuI6L4PEnBQZ8U/Gsrz9bXLA4Ca4kUoC+waSEHvPjcsGGD6bqu6XkeCnUoexcPQckZY+G/ge16U1NTXn9/Px8fF5t5nIMfz/+haDR6erlcfoOvKYg1GqLQzm3csqwXpVKpO6empor+PdHGSh96enoY57zqGAXbPDU1pdoWbmPwd9X2OX1t1G79/bwQwHgpWaz2qb5Xn3NujnH3ZZZhnNPptEtEDhHhEz+QQRwpwzBu8DwPIV3RMClootVfi0Qif2fb9k5ftoNtN7q6uiy8N+rdwTmMMQ/vxvT0NNoQljv1ngTfl+C/g++PlsMmBqjFU9Q8EpY1NZfUw74yB3V3d2PsxRwEOfTnRMihksVIJBLZYdv22xhjV3LO5yuDmFj/IZFI/HM+n0/7fcX8zXp7e8Wvk5OTSsbCsoW+mF1dXaYvo5V5Em2FnKbT6fA7A5nF+6Nlr45grRZSwLq7u3vy+fxWz/NO5ZxvNQxjyDCMbsMwkrZtdxwPy8KijN0SfkzGGIRLCIy/0KoXpJpAhAWvMnlBwNTCDEHjnJeJKGMYxpTneSkiggngZGVPq/cSgxQIyeaiCa5hGA95ngcnL9vXNKj2Qw2nyE1w8ag3XlWJgWVhXuceDjzHMAybMVZijBU8z8sdD2nLuq47wjnfbRjGrlQqtXdychIvqH5xZg8mFsmeQqFwiud5pzHGtpmmOcw5TzHGEpzzmOu6Efz4Y2eapmm4rhskBg0JQRX5UbKoiAHkr0BEGCPHNM3TXNd9NOQvJF/NrCcTRHQvY2wS7QfJME0TfRCyhwPkJOBVHpSx8GKvnjfrXfLJq5DBAKlGuxF9k/c8L8MYG+Oc7+WcP2xZ1s5isQgfB0zo+gggMDw8nDh27NgJRHSa53nbXdc9kTHWaxhGAjLoeR5kUMx7GDuECDqOEyR6gjf6twy/3+rvtWRUbYYgf9jEQAZd0zT7XNc90zCMDT6BmE9RLsj0YcbYLn9uwjwOYsFM0yTXxdcV4hmUhWCfBIkICYqSQdefsxWRxifmvzKivwzDyOE94pxjLj+E+c80zd2dnZ2j4+Pj2fU6B65UUoB2RWKx2Eme5z3Dtu2nEdE2xtgAYyzueZ5aMCH4ld00/q0mRs/zFqJvYMck19NZqlnBmrG4c85VWxpOYOFJ2yccatenrg+2u50+VF3UfRaNSRoHnqledrwwJSI6xhh7mHP+/ePmje9u3759z65du0Bawu1s2N9VfoIxPDwcHxkZOd8wjKs553/EOceEvMHflYO4iQVTHb48BHcskI92xjAIYXA8K4uzHxuu2hEknc3AL3ZUkAn/fRHvT4AEKwLbzL3qnSPeI0WIfbkTGjrBuBkTOzjOOYgAJuoRwzDuYox9M5VK/XJ6ehoESKwQ6+gQZLKzs7PHtu0rHMe5xnGc03z5SxiGAQ1osxuHhZLB8CINORTtBAcRk4k/V4bmy7qyoeYWy7IYiABEwrIschzBC2uRl/mIAmRMkBVfBsX740+AgnT75AEPzBMRyPIBwzB+3tHR8c1cLvfAetIwLKSwzGeQqp67ffv22MTExMbp6enHuK4LG9WTiaivmV142w/XN6iGQIaIfnN8Z/KleDz+v52dnWNjY2OYtNeqFoFt2LChM5vNbi6Xyy8koucR0elKNa9FZMkRABlFtsX/tizrG319fQ+Ojo5iwl7LWoRIKpXqKRaLFzqO88dEhA3RoJ4Dl1z21AMx3/2CiD4fj8dv7+7uHhsdHQVxWKtz4By1y3Ihb3R3d28tlUpPKZVKN3DOLyKiZCQSIdvGvKCP5ULAZ+yYhB+xLOur0Wj0G/F4/OGJiQkQhrXyYrCenp7uUql0+nH7+vXYlRHRJuxc/N3KcsG/7p8bmAOmGWM/i0QiX4D2YGJiAiaGtSJ/GGf4QG0qFAqPKxQKL0LlVcMwuhZI47nu5ahVAKDh8jVb0KLeZ5rm16PR6P8kEomH1qqJYdk1BZ2dnX2e5z06n8+/mnN+ufJgFW/JjF2p1THV17WJQCi8CAztPsMwvtLR0fHtTZs27dy1axdellV7bNmypSOTyZyZyWSu8jwP2imoaOcbWrVq+7/SG15lDoA/z20dHR2fi8Viv56YmFAOaiu9KzXbNzg4mMxkMk8slUrXua6LJED9q7Yza7ThASdx+FTcE4vFbolEIt/OZrMPrTXT1nKSAqOvr+/06enpFzqOc73vMyCcpXzb7BoVr9XZLWWT8zwPu7MsY+yn8Xj8i9Fo9HvT09OTq7FX3d3dvaVS6epSqfRS+AxAO6V2Bv7uYDV2a022WcmfPzfAB2GnYRifT6VSX0+n03BUW5Vag+7u7pPL5fLzC4XCK4joFN9JeqF8OdakLCxXp0I+YdCU/qCzs/MLg4OD31ntm6MgpstCCrA7Gx8fv6RcLv+553nQDnRX8SBdrrHXzw0goF4E/Cm0UDqGYTxy3BP/S4lE4jP5fH5kNQGXSCQ25fP5vzAM43rP8xA9AqctcdTp82rq4lpvK0jAhGEY34lGo58uFouw+64mW6PZ09PzxKmpqZcyxp7NGOsJb4bmkQRorY/1svUP5lPf+bHShgA5gIPiTsuybk4kEv+6WjdHYXCXnBT09/fDkes5xWLxVUR0PhF11Bpx/VIs27sw6wWotmv2Xww48B4jov9MJBLvWi3EwE+48i44EjLGEE1QdWfWREbA5R+gNd6CJuYAhMb9KhqNfmJ4ePi7e/fuRbjcij7gUL1///7nlsvlvyKiC4gI4aBLPhevaJBWSONqbRACmlO09IhhGF88vrZ9bC0kAltSQdywYUNXsVh8cT6ffw1UZYwxBNHP2p1pte0KeRuqNKPaC+JP2vDQ/a9kMnljLpdb0Slze3p6TpqamvoQEV2N+O5guKnqspbBlS+DwXmDcw4NwQOouNfX13fbwYMHQRRW5IFcAxMTE39cLBZvRGSLaZqWH49fmQfxngVD+1ZkR9ZZozDPqXEJzg/+/IdFbDISiXyps7PzQxMTEwdXMzxLRgq2bt0aP16i9U9KpdI7EGITrL0tdmphkyBiSkEY+Ex6OBUoz2UxLv9Yb+HzDcSt1oiqiOJal8uEj0QiZHzGQiuGQdyTIZq3grnMHsLII66SlWAiRlz5a7LZ7NhKfCk6Ojq2FAqFj4EQMMY6xMuNbitrtJA1Q/QLfZZ/9sPj1TnoOMc5M/K3Ko3ZyzFA9WYbJX/hdkEeA3OB/FpO0EJMuavkDwO1JxaL/XWpVPreSgxbhIZg375919m2/XYkPDNNZrquP8GZET9jiJQmkxyyTINKLvov+yx+KsJWSawqX9tASkr1qjfzuRxisGjPVCDUekA1+avIXWAd8d9xgTqiD0TuBfm9gB8pGSrpRzwymMhlg6+mLcv6Qn9///uOHDmyIufAZrBfKlJgRqPRPy6Xy3+PDFxzErrIFcYvvCknXXHgfeDS2GsRFwuQRwa5ZBAXyVBAGmxxTqtHG5e2+sjFuU6NZHhE56T+MGYrKgGekGfhcC9BF8nnAocaH275+cU8ivoviTDiygkapgRkCbs1mUy+PpPJrKhCTzAZlEqlD3meh9wDyNGO9V9igR/x3htk+n8UVADYGDIRn//iy5O5QRFuESNX/OeR50Mgeex8jnmePp9bL825tSZaRS7nyBHziVhAYCF/eOcrE63pk1M1GQfk0U9QCuImJ2mZrC5gztpnWdZLHMf5+UpyPgQh2LNnz3OPZ179gGVZJ2EOdD135l00LCIvJog35CoqEgYSOQaRyIkp3s8oEfIVifcTTvBiJhT/QZTxV8yV4O7itfan1Hqfa0r+apECtZ6YmPv8+U289/hflMjxk4UCNwYSAMmBDAJrl0zigqThwHwnxNTEeDAiZF2cmS8BJ6JjPpVMJj+60ubAZieEpSAFxvHEN5cUi8VbiWgo6MEp/o2sgGit2vyrFolJQr7WJnlC2NWYu8wgV7A1TCaenNc5dnd8np/NwrRyz1OESM6nHMnp5Ywgf5X7ecBUWa18UiATkBGpiUmMhVjaa3Q2uFPxyPJJAdAHWZPcQESOTFmW9U+pVOqDU1NTUysBuVQqtbFQKLzTdd2XIZWvahMzEYMcWHA8TBGyn2VIFYDDu+85s5KtGswiU0zeIKkuuQyTsiHIgeCpykAsblFPLlcCOu21ARhURE0gIl9kKV2ekDsx91Y0L/7zZA5G5DGU/IyBcHKaSYin5NgnBrPE0p+Qxa1mkQL/eezBzs7OZ6XT6Yfb692CXW3G4/EnFovFfySiM2bdVZFSFiFC6QCPkUkuRaggkC1LDkpkROX3Ym3C0iSTjKrpUpGC8KeJ9xPyyat8qgVuwbq5vDfC/F95t/25zzQjfmZEHxkDmpmAMPnrDGYxw+dbYo+EF79CUjlZPikQhRPEBtbfREFgsQbNTmF/NJFIvKezs/Pzo6OjMK2uqmPRSUE0Gj3Dtu3PcM4vUQuHmEQ4pg+IrOL8M0nKMCaSHc8cJiOKmHJ+xjziYm3DuCl/YwyuYIHz+FxVQ1W9sUGyhEkCmhSl6pLLm9wQB80zahkU2GMn4vGZCj4gyAaR7eLvsjaTVOLgHLn84yn+OydV7T6RCDiF7Y3H4383NDT0peV2/Nq4cWPq2LFjr/Q87/UgpUHHNcOwBMnHco5eSY2UPPDyYy8mklhbPh11iEy1ufM1W2KTIb6eh9wpOV318jebrCsk0S1JDeSipYqPiPc6sH1XvHQWD/UvEOf51RKCye3VPcTLLyaS2Wp0BWksFvuPaDT6qpWwW+vq6tqeyWQ+wTlHDoLKzDajmlaIYUackUf0DN2EBQFrj9igiklUzn/ATa5vIP6QYle+7WJzZBAXciapK/4+93PVC+BMyFBlkyL7pPaYZuWNlvJYmbv8rmNt56ESSWqTyiyTHLzgQQ2Ej7kKVVKbopDjIcwO98bj8TefeeaZ37v77rtXU1TM4nq8dnV1bchmsx/wPO+lvoftrFrbEFRJDEAQnAr2IhG6z8gME043VXavgmFbRCwmVzHQN7ElDn2KN6vK32udv5r+LibFgDGxskdVmgLMJrOxA9az/Tc8YganmOES8+RObWbyjgrFmaQGsuAYXqoKW1Yvi/+IgLc+CqX8NJlMvjWdTt+5jGpcMxaLPa1cLr+fc45IF1FoBU5cYgcrpA8yiOlCktKwRaGsVjQfa9gdIK0lyJRQL0bkJ65UfCwob2ta/vwZsqLqC+8xwN6VOar64i2lzRFmWgFx6FVX46GgnSEFGE28977Azmiq5DgaRsayrPeWy2VUkFzOSTkajUbfVS6X/waRVkH5Cy7JivioxSxYChPnKd2IQBHuPaJQNn6JEcGsV8urABjNmhfUS1tjvly18x9kMWT2BFGvVMxA7QPIlyry6Msum/EZwgYnIs7hYtoEzkIrIH58zbWHKnueCBfBgcxt6hGhaCXUW/jfnp6e101OTt63jHPgvJnfYmoKYDZ4SbFYRK3tYfnOysfN9u6Wr4FiXlh2KnZeXIRBiKAcXESqCIwYkdVB5MIGx4iiUcwAcqcG1VArO7b5ahhWyvnhWbSyA1UTpf+SiK2GS0I/pnwI8DeIMzDzbCKvQOTawiwg7JIUEboBWNTkLlra3SpanAB7rth3AzM6YyzHGPt0X1/fh8bGxpYlIqGnp2drOp1G6OF1qAIYjnTBCoS5FUg4eOmFKAIropjv/1XCxKCEU0wyfiHLeBQlu1AnTtoXQVCD8icMu/PUXK3K8wN73znOqniXgRnUTpiM/d+xkAs/Akc6bbkluV0TZhqXDPz4ZglFBipENDjFhQhEaH5BDPn9qVQK2gL4FyzLYVnWZccLGX2JiAbQgFltVGoUX+yEC4u/xxXzoO/TJvin33oH31uQt4icGFlSfuJHyC/mQqDlIydu08C7YFXKnaJPgWEVTqn+nFeRDawTmOMgX0GC6vhqFugDpT+RmAddzIU2RTDnMSIbvFaMk787EH5ujiAF+EuQFFQRsJJlWf/Y19f3jtVkRlg0UpBKpc7MZrOfIKJL/XLGczFTLEzsdjHZ+gMt2JvcuWG+FWpsK0EU7STqGSTq30KxjZupq2+Q3FicHENWwAqGzKmHVfvbsswOi/BQKffq5ZAvgxpQxrlgtNmpaXKKBfLKJbKYZMIM1cccVCNzKV/OkTc9TnRslCg9SeQU5e7LlY5MPo2rjMesmn/4UjiHzyZ7gd3Qns7Ozr/OZDLfWWpvcCTImpiYuCGfz78P1TWhqlWhX5XseJ4kQHLBwaIOcKSfRcz/DoVnYdcVRNRIEMX6ifo3EW3ZRNS3kVJd/WQYEaEBqxayuZblTxH8Kno8X4VNVM7nhPyVC3kyHTjQkZBBkATuOlQu56mUTxNNTUv5K2SI7DyRkxXaKcU9xcQcmK2Cm0L1/Cqbjrxpmv+WSqXevByJZaApTafT/0pEVwVf/0o7VWiVANI3QVXmQN+cKhYkXyMKjYARJ0r1EJ14MsU3n0iss4+4FaeIaRF8ZGAuFBFBuJ/ByITjXB2lwCJMS0t7S2EmkcRHBEeJjvuESvihcyGDxXSWqFQSJuiowcnwXHKdEhWdInmOTTyXJ5o4RjR5lKiUIfLyFDEc8hzhKURc8EWY0AAAIABJREFUaFz8uZY7Qo5xYH6opsgOgDBuWdaLHMf5n6UFpvWnLRYpiFiW9RrHcd5ERBtrNi9I9kAK4Egj3n1Yxm2plsHuNpoiOuEMMi98PPWc9iii7gEiM05GPEGsI0FwPBTX+YvT/OCowjjnd4NlPxsb1AoJAnZiZ+GR6XlUyGQpl56iciZDhgth5mS6LjEXC6JNbjlDhlMkN5uh3OGD5O7bSTR2gKg4RcRzM04bVTTD4pnVLDt+qmq/3vqtPT09bzh27BgK2CzZ0d3dfUo6nf405xyVNivpsys4qTZWiClUsNCkYE5BdIUtpgC4fNlmiqjvBKJtZ5F12gWUOvlUor5e8mIJisZSxFlkDiFoXhZXr/zNyF1AbRtYrTE/u6UilTJZKkxPk1fMUczlInJFyKBnk+fmKeJ55OSLlB07TOV9u4mO7CFKHyRyIIP+Tk7tqqGN8FW4glvU18tCOnd3dHS8vVAofGXJhM9/UCwWe2WpVPqgYRizshVWNjAeHNjkC1SuGAjUwgYtCpzjO6StgHURbTmdYmdcQJ3bTiMaGCAn2UWRro3kmjGKGCZxbI5gAmTSEwi/c8cVvwuFYJXPmU3FUqPT/vOk/Cna6Msgk4s4NAb43uRE5UyeclNTZKczZDplihkk5kZoqEw4untlcgoFKqXHqTR+iOjwbqKRR4hy4+Ic5jsjV6a6oIz7K1aD3Cb/6xPD5TRjNQ34opCC3t7ecyYnJz9KRJcxJgyucv2YrV6e7f4mNAWVEvXyAitKNDhMkQsupo0XPoXYpu2Uj/ZSGROxaZHNmNhLSNkIdGVecWGLAkHTA9D2iaqvARWjASdOqCI5ogQ45SagCThGVC7IRVyo0lwyPZcsZpOJsBucaxfJnTpC+QM7ydn9G6LR3URe1le7BVo6i4TMOBpW0xi4rjve1dX10nQ6DaZcsfC13e86N/DjwV9q2/bHTdNMhjUEMwmLfE6D/givVV9TUNl6wkSQItr+KOp+7FOp56zHkLNhM2WsOBUsg7yoRS5sC0ptLqJhKg4WM/H1dTu7uuVvVjhw5Rdfa8WJOiJRyk9NET82TpSZJrKF+yaZriPUsMIk5UIWDUoZBiXsPBVGHqZj9/+SaM/viJw0EQ/U3BLe4p6QV0UK8O7XmpQZY2XG2Ff6+/vfuJTZ5lBXY3p6+ivHKztexnnFADVLEtB+6RqALZA0mFRiebDwWBGpHd1wAtGOi2nwvCdQ6sQdVEh0UTpmkh2NUcmD9sBSkT/+u4rJAAzA90Zc0/IX0JT68gcHS/lPj6IgSyWbytPQRk0SZdLSlMWYmBtBooTWihyKGw7FeZH45Aild99H9v4HiQ48QuQWiTzEI8EbK2CiqCxsswEOzoN+Qa9CLBZ7dqlUAjlY8cdizEgYpT87vu36O6ht6zEosAW8FBiegrI3YtfPMBkniU4+nfqeewO5m08nr/8UKrJucmxwYEvoIKXdzZ7rYDIf2GslTZnPPVbQudL+CJYMYgC7GCdm25QfHyM6NkYE0wGmIRvOXYxcqMkjUWmscYoUtVxKuWkq7b+Hcjt/TbTzt0R2Tk42vjd4LBajUqnp4og8Eol8NZlMvnKpQhRRebNYLH7DcZxL5uTECIwV5K9DTMgelaLYgQIvg1xMtCxOlOwjuuSplHrCVZTcci5lvAQZRkqQ0RKVyUjEyBNmljaONSF/SlMQdmolsjgT8hfxHMrt2U2Uz4jFCr87UNvCPojFDzg4Qi9DKTdH7Nh+4kf30ORvf050bL+YlEWokYdkRZJ8IXeEG86pERoKJk6mPfAELxQKX21jpOZ1aTwef7Ft2x92XXdwtuEjeBvpwosDsxns2MqBLYM5Lt5FdMJpxK64lvrOeSKVogNkRHupxCwqekWiKAhpVeNN821d7fKnfMhEj/0JSikPQA5cThHOKQqt6eQEuYdHiMplggM7dzBZdhAXmwFoZhyhPY04OYqUpilVmqTDt/+AaN+Dvua0JLRbiPMwIjGybbXxDzk4zkUfg/RtpFX3g5qaH59lOHPBScHQ0NDWI0eOvJ8xdh08C+ul68TDERcOxMoYUBgbo11EXpTovMfT4KVXU3n7+ZTpHCLHwt9j0ojjmwuE/dsCc8OSplyS5vMZQHy1OigKLHyHNnTHJwUVYoAYZcehcnqaPGgMcllBDAyYD2Bn9wziVlSoGoUfAV4kVqSOwigl0iM0/cCvyL7vLqJCmsixKRaJUtkuk2VGyVbOY74Nr478phOJxFPy+fzdSyHjpmle5brufwTLcFd7rgxBNMi0LMojABEMFVzHSBL1byXziVdR72XPIXtgG+W9JNlFRlakgwzGqQytCxIbiTm9gSNXze9XufzJ1axiw53x/pZ7XqmVwqRMZDkOFUBMx0aFQ6HhlmQ1VJAC/AgPVuBpUIx5ZBUzFMuMkT3yEGX+8AuikYeJGUU4KQjIYeP1uMqQ0VCq7EgkcvPAwMC7Dx06hFodi3r09vZ2T01NIQz72TX9qQR2cG5F/gGX4lGTeLEobNUlsqiM+W7H+dT7rOvJOPVCKnadQLkyzFQJ4QAsnDMxX8I5c93LnxrOart4Thb3KOpxcrIZKh85IudAaJpcyE9caggNkAKV4dQhwylR3M5Qrz1Fh+76MdF9vyIqThJ5MDlgO2r4pFThX12kAlqDsXg8fm2xWPzJogrfAtx8oUkBSyaTT83lcggDOqth+4Sd0Kd1wrZrEMX7iU45l4aufBl1nPlYmoj1UdoAm1PBur6KF1MDFjflMd4uKWjp+lYXg4W5Dmoy4QATjnv3VWeCGIAUYBIuF6k0OUkENW5B1oyJcCac75hpkWfCJunHfXs2mcyhXlYgY3wfHf3dz4nuuZOIF8jyPXShrUHUgU0lqVJrfHyEiOBj0ubWpuGDIEmfO747RBhs/UPZqaOMCLsGccSI4gNkPO06OvGya2m6+yTKRTqp7Piey3GZ4cRyOFmmSY4rbbZtk9LVKH/KN04scCrkUMmCHxEEuzn8gsplirplyu/bS5SfFrt+RBlI5zDcCCYtvNtQh0dFmGeHW6Ied5om77+Tir//EdHYLmJOTtiBZYpt/NQnBipMjDH2m1gsdmOxWPxpI7Fo9/uurq4r0+k05sBTa2sJfJkRExgIuieCNMRLGNtAtO082nD58yn2qEtouqOPCl6cuGtQxIyJHAUezAMWcAWOrc4nwZ7OZzPV6vMW9rqKb6bqRsXWH5yP8G7bFGUGRZwyFcfHyIVDYakoomKAu9BmiyR6coMkTYmcTM+m/qhN9uGdNHHPz4h23k2UPSZ9EQQtgPnabXZCK0YikU/bto2aF0tiRm1VjheUFAwODibHxsaQKAZhYJ0NGyVVBTMQWZ1Em86gvmfeQF0XXUWHvE7JmA2E3JSh8/bjkrEdhsd3RNgjlSNIw+dVPWH1OnqJ/PyVSVUtt8E0xiLYTky+AubsNNmHEWWQFidbYnKF1tzPL2/FZPgNQj85ritTD89SdPIAHfnhN4kOPUzk5KWKE98TozKVfTNOdfThlS9O53wn5/wiIsLDF/NIMsZ+f7xq2bZgoZmaQ4/moc8i8hIq2wGi8y+lE5//52QPnUGjpTh5RpysCCMeQVLjsghbMjyLIgjUBFdt6y1a7fLnk1I/AZTMqFNJwyfIErLpMadEnRGLpg7uJTp6RGr3nLLU9HGXLBGiKJXoHP5F8LInTjGvQJ3FUSrsvINyt3+byE0TKyIyQYbvwfRTj2UGYsfTpmne6LruFxZ5UkYo9ruKxeJfG4bRVbewkS83kahFTsmRBD/SSTR0GnVdcT1t+KOn0FhHH+UQho0smoYhveaRnRBzosw8JulRC6lY5DuxBuRPkVJ/MyS6pd5JzD9lW+QfizNOPJ2hHLRV6WlhkrKgIUAIrMuEfxA3ouSBlGLG/P/sfQd4HFfV9pnZKtmy5O7YSq+EFAIp8AfSQ0sCSUgIIYSW3ntCqtOrSSEEPjrhg4/yUT5IISQkQCqQRhohTrUt25Isq5ed2d2ZP++596yv1tLOrLZYZed5/MjSzszO3Hvuue9p7wFQHeqkefVZ8lv/Q2ueeYTozZeI3H6y4DEQzpZw2gwlsv9samo6qqura3m4SzbMWSWps/xHnj9//hZtbW232LZ9eJguX2KoqTrQ6UQzN6H4fofR/L0/RZ2zt6AB/A2wGBtY1CGKpCmD5CQmREkSRZMq1jilD900KlcriHCMAANs9rDAXEpEImQ7gzS0up0I7MNpl2zPo1g0Qh7KE2HxMsNhUnkNoHazLnOwz/D6KfXWv6j/kf8jGuoiyg5RwnNYGUEpF4K9opQjkYibzWb3J6JK14zvCuIkz/NUw6MCh8ifKjmKEsVR6rUTbXT0iRTZfk9qo3qyIjMo4yF+7VLGRnjFZRc3ZRNETkZZa2VdRRNMmHNhN0UeowC6yCDkKUF+OsPZ3nURn7zeThpc/raqKnAHiSIRsrLIOfAoZsfI82Pk+hHKAhQgR9nto/p4mhr6l1Hb438keuN5olQvRbMuJW2LhrBJhhuyrG3btzQ3N9+8fPnyrnCXFH8WKLUHBwfv9DzvCNu2I0F6EOAmEbMog9I5MHDP3pxo9/1p4cePpr45G9NgYhoDdduC8ZOhLOLYzEkwXdfC5dMcFf/ME/qKvIZGAo6GgYIM+uP4VBe1KDqUov72NvI6O1UCoeVSBKFUdjsoMrKsFacs006jzN2jen+IEgCmy16koZeeJFq5lAh5L346VEqHAUyX19fXnzk4OPj78TzmZVVnDQ0Ne/b19f3IsqytgxQyBkVoZR1sYskFRJvsTFscfz4NNm9LrZ6ux4Vbl8tCUmTZWfLAKMGTh38Gz/94HuWKPdu6LpLg2MfBLjABBeLSRTjA9imWzVBmbSdlOjqIBodUPNJCLbMmfczChRblOK/PDVqQFe5SLN1Hjem11PbsX4leeIIo3U0xb4jdlorncPTDAAUIVaBDJsisKnbYtn0WEd0epIxN+YOln/abiBoWEh30WdrkwEOprX42OdHpZGWiKhEJb2pBIaNBQpxsP0qeq8l3KvY2E+DGrJQBJ1V9OIAiXOCwegEsrUiMfDfLUcJY1mUw2duChMNeIhdKOUZWFl4pVMogKBChjB2hDJQyZ9CjpqyXmhCmanuDeh74FVF/G1twdeTptkDhxsmyrAdmz559dkdHx2vhrij+rBkzZuzR19d3m+/7Hwq8GqWDGrdGKUmO1Ui09Qdo3uFfoswOe1BnrFF5r4R0G/IHUYwmyKJp5COkZddAAcudFP0I5YN4UCFDnCTtUdzyKel5lOpcS+4a8BFAB7pkIbwKnhuubIHsqpZUvEMB9KcGaIblUGKglTpfeZyyAAYDqxUoYBK40Ae6KN6ZyWTgSQ+JZUPfu2wnlhMUxCKRyJHZbPY7lmVNDwsKkNuVik4natiE6GNH0aYf/xz11M2hbiblgjtNs0OwdwAO6ygxOQ4i2fAajImboGzjt0FvtG4hSKKhAgQqpKB3es43UJ284mgz29dLTlsrUU+fZjdk8n/d4EPnbcDCRj8EXAOXZaqfpqNBS8cy6nj410S973CpYgTJ4LoB0GgDIaAAYQTbth/IZDKfqOSgxWKxn6bT6WPwHXm0o+t9LYYJ8uci2Sg6n2iLnWnuV08iZ5MtqRebUqKBoo5NETtJmWhcUTmhnNP3OE8DZXEZtFYt5yqq5OBU5N4aFHCJoCqFRbxbgVPN/aBL7yMZh+qtDA2sbaVsW4vy+EHxMp8sBAk88zpxi9khsxSLJynjpCiazdIsy6G2R+8levUpoqFVFM0qLpOgJBUjr2BZIpE4NpVKPVaRoUC3renTjwK1O1ojB34HMI/C3kR+gwpd7fspWvTpz1P7rGZKx2eQ5UY5fwW9Yf1Illzd/MBy4MnjDl6qx8GUPRT9MKs8rEuWP7UmFeEQyAqA+lVJ4TTLIq+/jwahAzmEoHhJOGlYdCX+zwy5NlEKWbIxqrctmuZ0UWb5S9SF/JZlLyAeq0Y9SADXzQ3c2r+aNWvWaZ2dnZUOo45ZIsqmztB4Zs2aNWeiFNG2bRuWWpBSViWJFqWQSzBvO9ri8iW0pn5j6rOnUaxhOqVR0wxFEYMrJ8bVh1gg3FwtqkABLIupfUhNuI7dMyjQjnFu+6vja/AWUIYiQ4Pkrm4lgvsMQo9VhAwnrZ9VJYMCsTGYd55PkbRD05FS07Gcul74G9HSp4ioU2Xqs9ut8AzoWl2c9CoR7aJz/CsxbYD3TxDRrtFoVHdHG/1r2OhCUas9gyg2n+jAz9Ccgw+jwfnNNJhGnXg9JdwI+R66JoLxRFsOWZ+t27iFREske1biVSbGPVnxMiDQXgJWkus8BchPseJJJtGB1ynuu+QP9lLqzddUTNzNkoXcICR4AeT7UN6IAWfI8zKUzXhUN20apQYdmpYZIrv9Ter9w0+I0i1kpYcC3bdmoxpQb/u+/xUi+l2lGDZjsdhp6XT6atu2Z3F1RaEQlsSvgAyyKD/ckWYc9kVK7PYRWpOYQRSpJ3KTFM2ClAigwKMMPFWo+vEsSsbryM26U1v+dE4Ee6jMQ1v8zM4ax94BCmOX6mNRsoYGaaB1NVEnqgl0cjXrSeg9R/1kHYrQYJRsVGg5aWqgFNUPtlHrc48QvfCI5tCQBNuR16tpFHnKffngrFmzTuzs7FwxXld42dTZokWLZq9cuRJukdMNZF5wUag1YVMWsdx9Pk0bfe5k6py2GTlWvdppuJclLDPEyGFREMU5Rdcjl0sRAe5s5faZggcnuJncHTmFLEhAewwgi1AmfoaiHEJYQ7RyteIsYHQMbKBu5OF3Qc3cJ0ERINWlXZo22EX9S5+lfk74WqM564MH3gCHKxoaGt5fqc51iOf29/c//W71waZBgFRGKE4WOeCPn78dzfrscRTbbW9am2iiDNUxwyYSChk3RdLkIymJiSCQ0awqyhGrXE8hBQ/JpDgjl+iqrTSJ56r2yZLXonsfxJDRDflLkzXYT+mVbUQ9nRT30+woyOjEORuJwzppERawh9rxWISyQ0PU4HvUNNRLK+79KdGq58j2+oMoZvPHGcrj/IULF3531apVgxWYBDieLnjX+XQJEU0LdX9ewwBEjUQ77EWbHHc+tc9cRM60aeQjdODVc8MjztWAF8VKk8819QqJW9nIlNV/anxVSTt7S8zdLNeHQ/GPcIghYlMk65KddpnBNbtiGQMs5FZZnkpdzepwjNaGZKEqxHWoIZ7kMkXb7aW+15+nzD/uI+oCSSu4CtZ1+B1pzg1dhEf9Z2Nj46k9PT3PhZKPDXBS2UDBnDlzNuro6LiDiI4MCwpyTVXrZhEdehzNO+gY6qpbSGkkEQJhw1JF3IznXrmJ4ky+A1AgpUwABRtg5MbBV6q+3vpBuFHHukWCD6TBShbACsFLK83kG35HJ1HLypwrnEuiuE2yOrIABazXxQthUZ2bokanj1Jvv0RdTzxA1A/3b5/2EhR2XxqLoiORSHzYcZyKxHRjsdgH0un0A0Q0JywoiMB/AtbCLXalOUd8haz37kFrIo1EdgN7p+wMeilmyLMd8m0NDOBfyGplzeRZhZXCOBCVijyC6SHBpgVxzIWvckoZbu4sCOd1lneGooOD5AIUdHdQnByGAJkIQJbFIXIQb+HeWYAw9KqGHDppRNGp0RmkVQ//juj1v2oa5KJeDSvktk022eTaSiQbzpo1a0Z3d/cVnuedoeuqgh+ODVL01ZhFkT0PooWfP4taG+ZRJhYlH5wswBZ6LG0fISvIYJoy2ihCQ66pahSxfkPLaDg02ZAxhhvGIkuUrhGAfEZtTmqNZlzK9A+Qh0qYzKCiKOBuk7byxDC6hQrMMCjw0i4lIzGVQ+ClyVn+EnmP30PU/gbzFhQBCvCAr86YMeO83t5e9IMZl0fZQMHChQs3XrVqFerDQW2sWtMWoB8VlMe7T8NGNO34y6h+t49SX3Q2MYUH3N1gnQLBBFc4KVAQA1hG1rvOM1T10VMUFbCpoAmLpIst/74OLSj5husRf0OWd5bSnWuIVrTqmK7Od/FUfzZl7cFC0/dmD02W4mmXmrwBslYtpbanHiBa8zqR2617j4QGBV3JZPLQStWKJxKJQxzHQQOapmDZUwCKXdh1TUQ7700LDj+enI23py6uOlCWWhTlmexOdNhq5au8KFkABVAb0SHy2bqYwoem1MYIqDiuyCBGCGWbAgoyzGSIDHB3ZStle7pUFQKLK5QykIACBVjXStFr9yxzm1k0Iz1Aa599mOgfvyVy14YKX+XNzM/nzp17biU6d86ePXtRV1fXtZ7nHWs0fh1dMGSZRqcR1W1EDR/7HDUc/EVqr59HGXgGWNfV5QA7SouRxwKPlYtKDkmmm6qih3C/ZylQoCwgTeQGPaaMIotJrhDG8djxjJJOeEu9AQDTZUTugJK5LEpgbS1zsp8AFPhcPYMwAoBvNJohq/0Ncv/yG6JlLxP5aCAX2lOAB3xnxowZaCn/8/E6bWUDBZrJ8Jfv0jnuHhoUsFADFGxM8867g9ytdqNBewYh+o3YjsohVJMuFrGdQd0z3DziMsqZyON1jCv/XNIaXNcqa8eiCs4gOgCSI6aBAyhIU7ari7yWVrK4U6KEENS5OVc4xpgVvCLriXkuzfD7KbrmLWr7+/1EK14iSoOXPhiTGRt0Tzwe/7Lruv9XiUFJJpNfSqVS3yCiGaFAATPKofKliehDB9PCw75CvTM3p34o4tg0TgBjLnqMHzgyYDn4NkU8ZMzX8R6WQalsDRTkuObFnYuRU3oaoCCNBBX2FKAFdzzlUHpVG2V6OlXLbtYDCSK4cFH+yWWN6HqnPVaQMfD7k0f1bj85r/+DMg/+iMjtDCV/ebL2p4ULF56watWqssd0Z8yYsVVfX99Nvu8fVpi0SD+RDlsTEq2nN9PMT3+Z7L0Pp7X1c1RyOkJXXkyH9kw+AiS4rmu5MXVdpdjk1RbmqS5wuXAorBqFmWzFnMneUoAIj6JY2INDlGp5W4MCj+xMndpr2KMqSYfa+8C8LaiGATL1qL5zGQ0+/HNVHou+HMWBglUNDQ2L+/r6vl8JHViOe5YNFMybN2/L9vb23xLRTkWBAuw70xfR3MU/oZ75O1DWSpKPfuFoTAELF1ngvDdpNJbRPOm5t5+a+QT8+sNiaIa1zn/X4yJ/hrB7aYr6acp295DfgpwClA+A3VDcZWrRKHckcnWjulcgEngz3BMhvvYNagcoeOdZoowjXUoLyqKxQfclk8nTUqnUf5dDePPvkUgkznQc5zpIVDhQoMNSiSaiDx9GCwAKGjelQauOIqg2gNubQ41wY2uPFJslcSJtWajkpCma/S3yB2WZRyLH8sfoVJeEIdwHFkM0qUmnyVnVTn7XGiJvQI8fQIHKO4A1rDmSOa+IixTi9UwalXB7yFr+HKXu/ZYCpcU7aZ5asGDB51tbW98ptwzOmjVr+66urlt83/9kqHvL+KEtd9PGNPeIk8j90EHUUz9LjYkdIysDixeGkWx6+s4IrXLHSBnnUN84+U4So57X53BQwL9zFQHGSuUDgdoYXToBCpyWN4mcHs4riAIU+FHKRLWRpEtsuQrL0oRamK9ohqb3LqeBB39CPhgO0Y8jYP3n6aI1M2bMuKa3t/fO8ToZZQMFzc3NW7W0tICUYfuiQAGUbv1Cmn3VL6l3wY5MHIEeJrblMFGRj+ZIHN/WzSeyJigw4fJ4HeIKP5fMoDSGyWEkrSyE5YtrdTIURXy8p5e8FWgMgngYqmREswJFq/3P9hGLi1IahDJkU9TOUjyzlpKdr1Pn3+8jevMZjs8F9KNR63RdGKk/mUyel0qlvluJUYnH4xe6rnsFArGhQQHGD7Sy+xxJ8w6Gp2BTSkXqKWqD4SxLPvc3MDjVsXFl4T3hWjD9GlM0fGW6r0UQckMigqj5+aPYwMBK6lPCdclZ3UHUiT4IKOuCOwtKGd4qVBStA1rwNKRR95po4OzxqNtL9ornyL3nG2Sn+1UOWXHHc/Pnzz+yrQ0tQMt7zJw5c6fu7m6Ago8WdWeAgtmb05wjT6Ts//sUdSVm6s0mSpYHjwsYDOHj1mBfqosACKY6KBDjKJdoqAUiNy4GKMBG72UpCZFEXgs6IHI/gwzF0yp3w+X4tJY/4LAMwg5JyvoJVdpoDdG0/hYa/NOPyF/6jNadocOneNrOhoaG6/r6+m4tSkaqeHK5QcE9RLRdaFCgowd+3UY0+6pf08DGuynaWD9NkWiW6XezlFC6N6L4+rm3uE68EfC8rq97FUduHHwVl3fr51BubpP2WClltVZ4l+eOfkDJXm8vZQAKwP/NbjeJifHgc05ixAMoiFGGQZlNFM1S1FlD07rfpB6AgqV/J9tLqxrrgMMEBYlE4muO49wVdM1YPo/H45e6rovM7/pQoEC+pG420b5H06yDvkSDM7eiVLSOomyeZnRCl45XQkHDecAWrVEKO0UzXVWCl+AinWg4zHsFR0uESwt9sEB6DvfiiGfS5K7uIG9tO5E/qJ0CcN9CHBGzQZ6B4smwAUzhK0+A3dRh2mP/rSfJvfdbFE/3cO53kZDshXnz5n2mvb39zbHIWKFrmpqadu7p6Vni+/4BYe4tUdFstJ5o9pbUdPjxFN37SOqIgrQIm5NNUU42xDhntLdAX4WKBMij5oYI832T7RyhF1fhZQO465CmaqZpgR9FUbnbaJWcRV0RZQcHyVn+lsqLgvcgrXKE3GhaeQZ1l1krazPLawbeQRAZ2YM0vW85DTzwQ/LfQH+3oj0FXQ0NDTf09fWhF8y4PMoJCrZuaWkBKNg2LCjgvR5x2eRGNPvK35CzxR7kZLKUBq80qnEYgNWrchN7SKEyxHaYdV8y49W4qixUkFdMpZ8iU0LaoZW0Ya1xIQEnJ/mURZ04wENPL6VbVhGlEA+XhAS9qDDoDApQ6hPTPOBovpIlK7WWZvS+ST0ox/nPU2RcC2d7AAAgAElEQVRn0qFKwowNeiCRSFziOA7i/mU/4vH4Ytd1LwwLCnJKOTmbaL/P08xPfomGZm3FngLLdVkGVTaycD0g0dVm0ITtSkDY1JM7WWfr+j7IepSIgRDKoHUyFLKP9ZxBy1pUEKUp1dpBBFCA/gesxFWJJ3cz4ITOLIcaIn6U0ml0TwWtr0vTLZfcpY+Te/9/USLdGcioOYKQvdjc3PyZlpaWN8otgE1NTe/ToAB03oGHpBRkkGg4a3Oa/umvUP1+x1B7ZIaqvmJQoAJ5qMTINUCDR4W9KoqgbCrLHwZZjYtRfWDmWIGqOKJAAXugvSwlYDwNpGho+ZvMlsmggEuMAQo0gZZO6rSRvGYnKZ2OEtWhWdIgNfQvp777v0/0JqoKiwYF3Q0NDTci9yRQQDbQCeUGBfcS0TbFgIIY6M3j82nBNb+l7uZdKG353CM9krQpO4gJUn2VbGtAJXuhaQU/tbhsJNvZ6BYoXQMn+08GQ7mSZVYOuaoBXi2ws2yy0DYUDYwiPkWyaUp3dZHf2q67JWpYbWZ6AyUjq1cY6dDv3kIpTw8l2v5DA8/8mei1p7jJTRgrLQ8UXOY4zu2VkPdkMnl1KpU6rxhQwK1qY01EB36B5nP4YHMaogTFYzFyHd2eFvKmFU0sqwAYjFeV7KrfZKK23i7pudU2Lu2685n1YKlx5RxIntCMBvFXy6eo61Cmo5uoHVwXrk7XiClZsnWVB7twFbN0LJokFw2obKK420vW289R/x/uojqvsyiaYz1TLzU3Nx9eQVDwdd/39wsj3xAdZtQESdGcLWnuZ08mb9dP0dr4TLw0b1Y218+rHia5agysa1iwkEOuwtIMfFPtp5FWpUDBOje+MoZ0RTtyCrgbL5x/aUpGwNKapsG3luZAQRS9TLgkUXkK4LFiD3Q6S4n4dHK8KPeg8K0hakytpp57vke07CXde6eo6oOehoaGm/r6+sB6OS6PcoOC+9AuNCwo0KYBl+MsvPpX1DF/O3I5wzOims5QnCy3joU/Yg2whkBGvKl8uHHPFD14XHSWLRQHZ8NLFi6yvxEO525TSnHA8kWts9PVQ35bO1H/ANnosuZ7qu+UdpvhQmbxgo3CbWx5NVEdDVG09TXqe/rPREufpog/pJLxAo48ULDYcZyvB10zls+TyeR1qVQKrUnrwoQP8FpxK0IOeAn2+SzNPeRYGpi1OQ1aCYolkjp8pVp1c6gKJUnM9miUxJphhLE89IS+RuX0sCMF3ii22FRdq3JtI1lbyV8apV2Wz61qI26anDUdRK1tZLkZ7nfvEZpw4XYO0/mKgsemiLyCjIvKBaJEJkXWipdo4L7vUDzbTWnUjhc3hpUEBbtoT0EoUMCgh/vwTCNqbKY5R51G9h6H0Nr4LPKjsG5V9YbezYy8ArTu1qDAtqYso6Fak5pmiI0akQQvB5oQ+pQwK3SClYWnwCJvaIiG3pZEQ48iWZgHSBdC6AqAANwt+K9H0UiS3IylQmCxLIOCzvt/QvTW8ypRO6D6QMRThzF66+vrbxocHLy+OLGt3tnlBgVFeQo4Vo2BrltIzVffTT3zt6EhMEjF0EQFXRGnU8StY2sDsRyAAp5gUT5speRXI1Rv8Db0N0lOBZ4DQqyY4aRPFFyMmvtFExKBcgCJXKmuLiKAgoFBSqIhEkCB1PpyCEahbrjIKRKnNLenztJ0SpHd+gZ1P/0XVY6T6S82+xbhg6scx6lIPC2ZTN6AlrVhQQGHoawE+fFGon2PoE0POYacuZvS2kxUuRyR8uYrpauiCCoJDu5t5Boy0xw2LW5aM1UPVXqo3AVKjni8tGcFFi2DAkawPtm2R5abJhfy195OMR8tvNHJJMqeLoACkGdJvDiSRY6L4i9I2BZF3RQ5y16hwft/TOR2aPkrijxqHIECuD5AghUnmtVM8444nup2P4Q6wKgJPYhxEdmyspQFyod7m9e1AHd4WKZmBZYCBTqEwjKjPAXsPQXvCnIKbAU2QUfOrO6ez62OwFOQWvY2dztEiSJKP7kMFgmdFlgOlQwjvM0tulMe2dEI+VGPEkPt1PXQz4neeoEo3cdVXaMdpnGi6d574/H4Ta7r1kDBiIOGOnGAghkLaeOTr6DMwq0oHbMpHY2QA4RGCUq605R70QZJjIrfKGCg3OMWd0ucmosiN6a8kav4LkCBOlBPD/ctRBruW2aF4SROB4mGazspMpiiGGLnoFMX4g92VWIZweoDV4EmovKJ6j2X/DXLqePfTxO98wpRGkyxwSV5pqcgHo9f7bruzZXYQpPJ5I2pVAr9N0J5CnLkRfFGsvb4GG2y9yfIn9dMfXDqwsLAkKE9ty7wBChAzBubFjemYTdubBgbZCXea3zfE4KjlDHAusYAyruHfxm0n1XhA4wbyGAAChDCcju7KTaUUoQ8TByDuLnQHitBtjOomAFwiLCFhzyW1Mo3qPux3xOlEH4Ilr+88RtfoICTeOuIZm1ECw48gup23IcG6mZSNpplAiMbib7IH9C8DWnNuJdAu1/OsEdC8NTUf/zWOodMMWCu67+BsVEJ6JAri1yEA2zoRFVhRakU9bSvJr+vK1eGrUjbVNgAYIOvh9cAXte0uh5yHBnspK5nHiJa/orutBgOFIinYCqBApQkwlNQVKIhJjYbjVJip73IaZytiGDgoo0nwAzDDUE4ixSAQIMC5XPT1pkmOhnfirOCTydJcCzAmuxFLxYGS2mdfcslTfpzxMoHBoi4uZS0DNVOIw0IVBwT3gIo9Si3Fo1nM2QNdJHTsZL8nnaK+irNJsh9a4CCwXg8fo3rujdWYkSKBwXafQtR2mgbSizanJy66dwVjZsfYYfjF5SND7z8KuGLzQ4o4zHUxFXi3TfYPYXBEA8gyV4S24ZgcPa2rcmzdA04k8c4RENw1Wr3eE7ukHcA60+5cxl0ZjMUAakRu3+JaLCL3GUvq5BF8SWJ4wgU6PgBR0qTNG2rnSg9aytyE/VEVkpVIHDSAPKC9DrjHQ3NOJRHz+w/scFkYEN9Ma9LNv/XERdJrhnLhf4cVQPYU7BmIXvc0CxLfl+fenL2jOo1LgPNCe04II9IRARAi5BrRSiSdSi9+j9EPQClIRTg8PFB+ODmwcFB8KmMy6Oc4QOAgqJKEqEOUDOKSvk06pC5GyI6gKEzIjIQEcpGHwR4FEBQjRmAq1DCBjoTaaqSx7Ai1nIl8bQcSGDoTOzPlTbK7BODEKNHPRSytjDwk/3h+uBFInFd3YxKSGigqHyH4hoJjAEUXOu6bkWSbMYCCpANz/qDSy91/oSOi6udTFlqavfR8sefRzWi0DS843J5V+OhRIb07iw5LditeMi0/MEPizGUzp3oaQL+AYmZs1mGv+n1DYZDUfhZJBhD7rABiI5ICUV9MCodPgyVBgVINNw31MirdBXGn9ziJYZkt+mqn7INUicYSCDK0twYOFlAAVcJSfOyUN82CU/SPA1cRmQmGup+7oKYsJdgT+GyWAyrliUzH4r52vRahsGpq9yIcww8IhcyCPlLKKwB0i1uox4MCvLym3obGxtv7unpmTKg4A9E9J7wiYZwzCDmYygW2Yx4s4tQBN4CdK9SWXNqIbDbTLl1OT3ZyDqdhJIf8pX0Lp2rG1egADSfqikIB9o0J4Fi9oJW9ZGVC1DAFLNysd4Ac2U+GoQxqlYJiZEIKJI9pcMDjjxPwfWu61ZkQRQNCliZKBfsundnIvR1Kx2lcjlPAZQwcx/nSuh0Q/agIZi8nzNgwutpaw0xA5YTDQrEmuOxFsY5T2FOCTwAe+EPWNv8dyS5opocHyh66Rh/juANQjsI9IIeGenlwUo5b/ArWZKIRMOiQAGezY5EuLW0ZaFgOKk9ev3q9WEYeTGKchBF0buzvuP8XgNkTV4JG/3NWPaMvUMAp8aX6kIYlNhDBDRALlWreGUG+ap7slm9wKAgqfQiyIz8NFlpkO+jRZLiM0DCIU8OWGGDXKX6DbQenHKeguIYDVlLgMFQ01Dq2mQoCww5SpDUPNvcS03nlGgIofgKQG+kpnVqHutcPTquKwLIecv4BxULYfbBZcgZ4EgaxOhxAg4rGWZH4QWmFopCzJzKAScC3zrGYQQAAaWMtBIXoFBg+PNAwQ2u615bidkqHhSIF0Rx7oOXH4yPolOw94D2XJsGuZFROkCSC6e27KmMFSUzHC0QcKBlKaolSgdeVCUHaLG4igNbvq4mYqBFHJLikCIlOFaOxE6EbMCriZF2WXIRh9cexRCWWrVAQWNj4/t7e3tBXhTOUyANuZDsi0Y9dpwczrBEQitGRh1YkygtRnQbHKS5Jmh6zCuxlibCPdnLopAm+bwLrFuL4vdko9O2KaNZ1iI2yLQYWrJ0MZW+3m/YqcVOBnySUHs9EjvBBOuByg3jn+SQKidiIcEwIHydI05iXcp8CX3RaPSmTCZTEcOoHPNW7vABgwJ5sDBlYTmOfq1Y5IE4RK7VMT4yC9/UOWrJKAU9tRWzjDePhTmAOYWtzpCxknFVCNkQI11elj+e6rq8ZCbxzoRAyXmgAJm3V5dDePPvUTwokHwBdSfZ3Ao927rXNb0qlXibiXLPvHEw5M9cp6aMAhSYV+XkVtP7q3PhLVBxXjlfRdPzwhUh5C9vJCvmKSgeFKxbV4r8ad07q/ded+i0y7xWD1NX78nIwORZJ1vrxmPd2GFM8w81tpIplNONGpgOy1nLhRQEi2ljIJfkEX4OtB5EIgOIiyY/KJg7d+5Wa9asGeYpmChqbSI/5zAMYIKC/JfSK2MYBli3snIusNFQ4rCFNeJNRh9FAxQM6czbqyox5kWDgko8xFS7ZyiBGd67yxyi4vf0kge4YjkFGhQgfLBPyU9Zu0F1RqBUs7gIATZAAaqvKuItLceglTokuWdIJBJbOY7DOQXRaJQymRDB5nK8wRS/x3qgwNzoR9C+YwUFOTSdf/8Qi8IEBclk8pZUKrW4EtNWAwWVGNWAe+ZrkAB5KPL0SrxQJUHBB3T4oAYKKjFzE/yeBigAT8s14/V1ygYKwGRIRAAF28ViMUqn02Z3vPH6/hP+uUoBBeu5zfK6MY80ODmdP+oXr39VHihYkkql0Mmw7Efx5EVlf4Spd8Mid/kiT6/EeFYaFMBTsHclHrx2z4k9AgYoWKJBQQiTqvrvXE5QsI1t23/wPG9bzdy0rjtV9d9rynxjsaAgyNAPEoixSHEeKPh6KpW6vBITVAMFlRjVkJ6CIgWjCEw57AHKACpqoGADiMl4/cogfRf03MWIvdaD6BUOUIC8qmIuD3qUsn1e6piYD7JtNBr9QyaTCd0QqWxvMYVvVAooGEkigwRiLFJcRVBwfSqVOjs8o+EUFpxyvfoYd/cxXjYs+S7n6SruXWqgoLjxmtRnB+m7oJcvRh8KKLBt++ue5wEUhM9SDHqQMn5e6pgMAwWWZf3B9/1tyvh8tVuFNNTktGKENHdrybqt0GjngYJbU6nUZZX4qmQyWQMFlRjYcXTPmqdgHE3GJHiUUjfAYvSt1oMDtm3f+m4r5yunBChAToFlWdv4vqLPxc/aUdkRKFlJjtVkK+K1ap6CIgardmrBEShZ3olqnoKajA2zh0oZjmJ2uDxQgAqs4BazpTzcGK8tFSiZX7sdEf1eQEHY58EDgFAi62VzP3Et/gZQUQMWYUdy+HnCP7AeQDNmnDnpg4Cb/hzzgQOtkkHCUczcjGdQIMMRjUQpA/pT1C+jPTdkj5tHl3OJjG0ux/NVw3guRnhQzP27VtHoryB97kc5g/OTUMlkaF9JZDaJYYoYo3EFCiKWTZ5u4ABZw/vmy2ER71Y7dYQRMMdU9hqMNdZ3rvdGwMjxPYyKunU6LXwEwAAFt2lPwZQABfAUbB240RgTAJUbj8XJTbuUTCTJdd3cIqlJ+NhHwESww7w2pexxxk2ZhZLbKARj5SpWHxQdPpDhABAQ5SyKw/zb2Gdicl8ZPPsF3h+AIIT8CFBDqTP0wxjBgDxIpUEBGA1DlyRC/vLlDL9jzcBQqh2lj0AOAHB1lQIDMuZh205D9rIemiJZ3OArk5bOiDVQUGiG4CkoGhTEojZluBvIugP7TQTNK9gyDT/opYvP5LsDes5wczBQf4PGM6LCOjldDK0uOQX5P7nvT5R83TgEyhj/eEEUsRtUkafghlQqdVYxiYbxWITS6ZGVbzRq1+Qv5JIYTRwgZyx3Gn2J3IUlw7JjMbae06nUcAXh+xSBok4XzYdSSVAAmuOiyIswLIlEjBxnePtdbslRxBoLOU1T7jSMYSRiURadEbUc4m+2bVGGOcxBda7rAEb4GY3GlOeG50I3WsLehC6VkQh5aNYV8jA8BbdrT0HRwhvyq0o6rRS7Mf+LxwQKuHGVR3TMMUfTtGnTcm5puBzhroGrsHaMfQQY3SrObdUmOWKztTXkOjzWXoD/lwFEVl0LtDzY30/PP/88ta5azQ81Bk/BzalUCkk2ZT/GUpIoC2CHHban3XbbjeUN7wTZw5jhnWtH8AiMDgpUfpEcLHOeR07aJSeTZtpi0P1zk8S8Azz0CFexlZZO80/8a2tro7/85S9q1yx+4xxXNMfiLEkm47TnnnvS5ptvzrKHcarJXrDcBZ0BWQOoFP0nYU/87B8YoCz6uUjPgxF+oidK1vcohqZKtmovhz4KTz7+BLWtWqVyBUPK4FQFBWPKKairS9Czzz5Lm2yySS5BUSYyaNJrnxceAQACHAAHONC2pn9okPr6+tTG51uslEc7MA9AxVhEUNCvvfof+ta3vkVPPPYYpdF+OcSCyPMUVBIU3JhKpc4sxlPAOS0Ri44//ni64IILaO7cuZRMJhlIATzVjuJGoBA44DvBQstkaGBggPoGB8j1/JxSzv8mAAVR6twaSXusAAjOOuss8or0WOn7VwwUNDU1FdclkXOnlFHU3LyQrr76ajryyCMpkUjwGAXmYxQ3NVP2bBlHM4wKcr2OtWvJyaoO8yxrGpyaP6OWTW42w43lrGiEf7av7aBrrryK/vzAA6ohUggdiMGvgYKQIij70fLl77BClsUgBEimlRHylrXTjBGQheChIiSiEuh6B/qpp6eH3HSaPLQHzTtM5wGsNRxYHJiTN5a+TjfccAM99fjj6oMQCyIPFNyUSqUq0vsgkUjc5DjOGcWAAglfHXfcV2jx4sU0ffr0nEUKWWRQVDtCj8BI4iDeJPFUYVwhf919vdwPcCR5ky+McVc7ZakBpMXjcfrrX/9Kp5x4IiG04KHPfXFHpUEBcgr2C/tIov/mz59Lt9xyCx1xxBG8eWDTqnkLwo5i8HkYS0mQxvhCllatXk2u9lSNdgfRXSLD0AeO49DFF19MD9//xxooCBj6MVUfiFJeuvQ/tNFGG+Xc1FAEkukePOW1M0YbAXGXARREYlEeX4CC7p4epXhQ5TGKp0DSDbCYELu1PJ+Wvf0Og4K/P/mkypQOoZSrCApu1qAgGbYkVl79q1/9MltqM2fO5PcSJVAwc74mdqOOQD44EBnjnJRMhnp7e6mrt4c85KyMQK8tYBRfwKAAFUrZLM/Lo48+SmecfMpYQUHFcgq0p6BoUIDoyoIF8+nGG2+kQw45JAdK8zPea+I2thGQCizWY7p6CjLYsnIlZSMxQsvkQvoT8yByCzCBfxdddBE9/sgjiG+FMoxwf62TBm3bRk4B+r9MiZyCMYUP4vEovfjii7TZZpvlFr6g5JpSHttCkKvE44LwAW92FuVAAWK6pEsNR/oWKGvf89g6A4BAfK1l2XK64brr6cnHHhuPnoJbHMc5nYiKAgWxWISOPfZYuuyyy2jevHk8TrAG8N5hciZKm6HJeXV+9Qtv7tqtBIWM8FVPfx9lUN4aAAqgyDEnce0tYFBw6mnK7x7CU5U3wpUGBUg03DfsrEpOwezZM+n222+nww8/PJcDhHGq5RWEHcmRzxNAIB5n8f5BplpWryLXihQUITOEI7lZuMfZZ51FTzyCvJbwMlgDBSHnUkDa66+/RgsXLuSrxNUjySEhbzUlT5MELckLyNeRGF8WbCTY28pV2zcwQD19vZRKu7k6XRMsm/fgJByuNc9wOc6yN96im264UYGCkAq5ip6CJY7jnFYsKIDgnHDCcewSnD9//pSUo7G+tIhAoYxldY4OU+mcAgYFfX2UBsmZTvBiayrvQeT+PmU5yQvyjvABPAVKWRT95C83Nzcf1tLS8kbRVwZcoFsnw1MQGhSo9Uk0Z85sWrJkCYcPRAfWQqfBM5SfoDpSfpSZUwCPKTZ3GDmr21rJIQVK82UvJ3c5/eex/OFIDQ3RxRdeRH958KGxJBrWPAVB01oDBUEjVPjzYkEB7tY7WBgUmLo2HxS8/eZbdMv14xYUfN1xnFNroKA0mSrm6jCgQMlT8aDAVMzkZxmcRrySQcErzc3Nh9ZAQTGzPH7PLQUUrGxvpbQ/cvXLSKAA8ofvGxoaoksuuIgeeegh5SkIedQ8BWEHSp9X8xSEHLC802qgYN2AJBKJ2xzHObkGCsYmS2O5agKCgn9rUPD6WN630DXaU1A0T0HNUzD2mZigoOAOz/PQPn5K5BQUTV5U8xSMfUHgygkICipWkphIJG53HOekGigoTaaKuXoCgoJXm5ubP93S0lIJUPCB3t7eohkNa6CgGIkbfm4NFIx97Ea7coOTF9VAQWmTWgMFwzwFNVBQmjgVffUEBAX/aW5u/lQFQQE8BXuHHchaTkHYkRr7eXDbI9Facpskp6AWPhh5TGugYOyyNi6unICg4JZUKoVynLIfiUTiDsdxTqx5Cso+tKPecAKCgteam5sPqYGC6snIhv6mGigobgZqoKC48Rp3Z9dAwTBPwTccxzmhBgqqJ6Y1ULBurBsbGxE+qHkKqid+gd/E5a66U2fNUxA4XHxCOUHBtkR0z1i6JOJBaomG4SYs/6waKKiBgrFJTnmuqoGCYaBgV51TUAsflEe8Sr5LDRQUP4QTHhSAywBc9SCbASFFXV0dl4yAPxyfSXMb0Nfi72CjQuMlnGsSWqARjlAsC++93CN/WIXQRvgUcF/cH/cWshFhX5PeA8VPTcgrpItkRNEQYxHgveXdo+gwl05TLJpgngI8qxWLUsuqlczlrTqFFagPz+MpKENJYiXDB/AUIHyQKJbRcKw8BRhzzDvkR+Zf/o9xxTyABEnkDTKD+YCcCkGSKSvyGWQxDKOnWEHm9wgjI+5RaflDG1leD3kt/YRJE9/PtL0Z1ZgrnkxQf3+/+jc4SOguMRpPQTlKEk050Ot96cKFCw9ZuXLl0pArLPRpjY2NVQcFkLXu7m5qaGhY1/QM3A+6Vwl0GMa6vr6e5UmafEEPQAZFxszz321YNqz/QqEBkPGVXjVYA9DHQbJXLlIw0eHm/fiZ9EML8VW+Tsfaa+vsoFTGH7EhV4VLEm/TjIbjsjf2hAcFmHsoUtnAIYzY9EGjigUj7X5FYXPHNd1YhTdLDQbwdxFkYfALu7HU1ddTd1cXK/+ROnKF1ipjOBH0r9x5jlvT+7nGR3gOvJuTSqkNy8mwQsY7rWxr5U5faEhjR1QXylFJYyYWKLhThw+qBgogM1CCUKQNM2ZQT3c3ywBkEE1/RJbkPOn8CdnDebhOmBMxT5BNARAm3fJoosG1+xr4Yf6xDkAMhJ8i02MQq9CXcE8NdN/UV5iUspLQxZ/bqtsk5A6/Qymvam1VNMejkBeVAxSYL6K57ycVKMA4Ns2cSUODg/yqYgxAJiFjkMEZM2awHgQQgIyxXnBUl1QBbTJXkBkBuWE2btG9JiDG90Cm8zsThhaqcpyoO3NK7xKsM9H1wvLa0raa0qRYXvOrGGqgoByTQLRBwgewVKBkhL5SEC8mfu3atbRs2TJGyVgk6K0AYcWCwN94EWk+dREY5llHo5WA3guCUJHVioWB+2NBQSFDqS9fvpybvuC5KnVw+++MUrI++FLxPrrlKqwA/Ntqyy3V+2SJovEYKwlwfYPRcCA1lCOVqYGCsTEaYs4x//gJZYhDwCF+f/PNN3nMwZSIjVpYO0VJiYUvHRllg8f9wjB6ZrT1B0/V4OAgXwPZXr16Nf8DOK7kge/jjSUPFEDm8A5bb701NTY2otEmy2H/4ADLK561u7e3IKNhJUCB53lL58yZc0hHR8ek8BRgjDHH8BQILbLpeYKX4J133mHZXLRoEc8FdBVkhL2GyMzPZllmxSgSanlpIFRIfqLaqBK9i/tCtqFj29vbadWqVcpo0V5bNkCMVtqlyuZoeku+Y8GCBaz38c78jp7yluCZlrWsoIxunVxFUDBg2zY8BWgfX/MUjCQApZYkiuIQtxiUDWhQ/+d//odeeeUVFk4o5Tlz5tC2225LRx99NH3iE5/ghaA2S7WpirUG5czMVbbNwjOa+1WEDpswDpz39ttv00MPPUT33HMPtbS0sNuunAtgpPGzPWWpCSjAJoED74Z32nqrrejQQw+lzxx+JCNiNPyBp6BvoJ8yvsetk3mh5t18faSsaI7LED5YkkqlQNxR9iORSFTdUyAKFXIG7wDkB8Dwm9/8JqHFb1tbGytbAAf09th1113pC1/4AssiFLrZQRDnQI6kAQvuGdSlMRKNsoyLV+uZZ56hX//61/TUU08xKA5j7ZU6ESzjvs/fJdanvAOA6Qc+8AE65dTT+Z1jiTi/Y0dHB4OCangK8jx+rzc0NBzc19c3KUCBbLIYd6x3yB42QMz/T37yE3r++ecZNEC2IJ+Yg8MOO4w++tGP5pp/QWbFw4mfHO7RQDdIfiB/0HP4TvxrbW2l3/72t/S///u//H/xSIhsmKBAvEqlyN9oeku+B88EYIB3Pvjgg2njTTfh/QAyiBbIQxnVursGCtbNwoQPH8BTAGQKYQYguPLKK+mXv/wlo+BUChFLounT66m/f5A5xuvr6+ioo46iq666ihcFW9vGxm4qtlDCqjNbn3jiCb7ns88+ywsKvVqqcXIdGPUAACAASURBVEhjX+lC5xlc8HhfvF8ymaD99zuQrrrmanrve99La3u6aWBokLvUxRN1NVBQQu8DbOwif5CdRx55hLtI/utf/2L50/slj3EkosDmxhtvTNdeey3tt99+nIuC6/ET10t7YDNvpZAcpTMZ9kDAK3X33XfTTTfdRJ2dXWTbsACLbwxQrMzatk4nyPsqMQbVmqunZN00Ouuss+j0M89gwArAUo2cAnPT1O/2eiKRONhxnEkBCsRoAfDEP8gS5ABtmLEhi96LRpFblCXMF7wKAAUXXnihAmqxWC4HwQQF4jEtJBOO6+a8DvDKnnfeefT3v/+dnyOTWV8JilzkpaAUK3aB55vfg3dG6PRDH/oQnX/++bTPPvswMFjb3UWOp3pv1EBB5UABGA23CUKX5oyW6ilw02l2icEiO/XUU+l3v/u/XM6TqZDlO/E3KEx4C+666y5aMH9+Lt4mHgNxLxVCsvKOCB/cd999DAjgKXAc1d+9vj5JQ0Op/PyrQGEu9gQBBbL8ctng+j0xvtgcYtEY7f7BPeiaa66h7XZ4L7tx3WyGE8BYceZ9cc1TEG4moHihZLEpP/zww9z+9vnnX+CL0X0RihgHOoG6boaBgQIIEfrud7/Lnitx90roQGK+oqwLPQksNVjdd955J914481UV5egoSFn2HeGe5PSzgqyLkSeFl91JZ122mkMfuAp4C6JFc4pyPMUoBHSwUT0WmlvvP7VG6IkEXpIrHxY7DfffDPddtttbJSIrjPBYTSK1tXomGrRhz/8Ybr++utpxx13ZGDJnVC111MS9IJ0uR1RLa1ff/11OuaYY+i1117LgQF8Rz4wrRYoWG92tIC+Z/vtGDAdeOCB9OrS14hiyQ0BCm71PO+qqRI+qDooiCcSrBShYGElQbChfEX4RQjFckokkGSTZu/BcccdRxdecAG3y5Vsb8kUl7iauP/NMIAZI3tn2TK64IIL6E9/epAEjct3l1vpjHS/ZDTCYY6Mht6mp4AXuPLs8pFIJnnhnnPB+eRm0hSJxzZETsHXU6nU5ZUYmw0RPpCN/I033qBLLrmEHnzwQVaEohDlpwBUWC1Q2AAMALMINe2+++7s5ZKQFWQQllaYtrnwFCBcduSRR1I6rfJXKm2FjTR3QaAA4AUbj5N26Wc/+xlvSGu7uqoaPtDg4E0NCv5TbhncEKBAEgXhGYXsHX/88dTXh7yN4XJg6iTIJHQYQCfOB0jbfPPNc1VLcs8wOS0wiqB/YYHDS9bV1TMMEOc/R346QamyOprhJ3MbiSgQZEfRKVYpwkM+dTAbcdMbZ9Bg2quBgryFELSWi1k3SDSsOihATH/lypVscT333L/4efMVMP6Wv1Hj9/e973309SVLaKedduKkPKlGkOoEQeDqnlYubmt6En589920ePFiLguSkIFpFVbahTtsAvUvstB4AQogiCco5Tq06eab0eWLF9Pe++6zoaoPKgkKql6SCJmBbPzgBz9gL4woRZEBkUXTahIPAmTwxBNPZGsNChqHVCdIbF7A6WgLETkkCEM8++xzDAY4ZGQp4DGSpVbMgi7mXJ3nOgyQyLvnIgsWEcABnheeDfioKl2SKGtXvH6+708qUCAlhQCViJs/8cRTPG2mvjM9VubfMT+LFi1kgwogTapV8NMMixWSA4Rvkb8F2X/nneW5U5NJAFuXwxUjVKwWI1pjOjffIxFLRCntZshCKCEep29/+9u06+4fzIHSKocPap6CgkKlPxwreRFKnX74wx/yxgzEikO4CuR7zVpasfIh9Djv8ssuoTPOOCPXY1uSDJXFpRKnpIRFyhsFPCCZ8OprrmPLR1zAYcsYxyTpI1yUy/pm7bf+CSgWM98BrgN4Co7+wjFUN62espmq8xTcmkqlLivX+5v32RCeAvA8ABBefPHFLAciP+J+NQGm/F8sMfy+/Xu2pT/96U+c38J1/Lo6BuBgNJ4M851ffuVV+shHPsJWnrh/q1GKmHuGYQI48qzK+oF8YhPZZLPNOMyy4847UQbyWeHwQZ4eeEt7Cl4ttwxuCE8BEoUhM08//TSDLZXPpHj+xfNkhgDkb7kxedeDeMMN19GXv/xlDoPhXLPyJSh84KazdNFFF3EeA7xbOABwJWk2CNSWPAcBZi1AaDaTIamSAEJByAOetXPPP58SeOfq5xTUQEElQQEWBQABsr0lUcu0DsTaH0m4sUDOOP1UuuKKKzhzVpQ1rhcCIKkDFzAhZTr4+9KlSzmr+sknn1zvFbFQpcysZMEvcIMgUJBj8UAoQYcaDjnsUDrl9NNoo0ULySKVlVDFnIJJBQp8sumFF15gUPDoo4+Omu1vypGAA4z79Gl1dP/999MHP/jBXKa2VMIEKWRc//Nf/IpOOOEEllccAgiqBk5DgAJ+MMOVMGPmTB6vgw45mDzwbFQXFLytQcG/y70uNwQoQE4Q5vynP/0pnXTSSQwGoPPMUmgThMo7S4Ki73n05S9/kXUgSvcgcwJoxTAqNE4tK1fT1772Nfrd7343TParBkxD+LoZEOh8Cfn/Lu9/P91x5500Y86cGijIm+AQQxp66WyQ8AGUMuJZcN8K6YYQw8hGbr6BWPuy6R9/3Fc4FwFWmWz4ZjkizpOyMGE8FMvnxRdfpFNPO4MzzXEIAKk4OjZeaD2dnDejtqV4HHgjslUIZN8DD6ALL/4a184LqcwkAQXfdBzn+KoyGkbj9Nhjj7G1BDkQd25uzI2NWsCqKGScM60+ST/60Y/ooIMOYutKYr1hZeibd32blbKU5JpkSlVRzAGgQMJukRjcty4WCXvoUInwhS8euyE8BZUGBVVtnRyLJ7kkEN5SZP4LGBRCLdNLYgLFXMWVRXTAAftzOAcls/i7MG2GySl4+53lnFMFYGuC0qrI3kjWzAjblXgLkH/mOioJd6utt6Yf/vjHNVAwwnhNeFAAUpTLL7+cQQFqdE3BNN93NI/BmWecxvEwqasWbgJRsma4AQpX3GtQ/q+++iqddvqZ9I9//CP3VaaHoBoLIwgUmJ4CcQcccvhhrEAaZ82sgQI9c2OlOSYrwmWosHwff/zxnByYCngkOZDP582dTb/4xS+4XEoAqIStwsDx//7p/9Dpp5+eqysXC3E8eQp4g3JS7LYFL8jsefPolFNOoaOO/hxlrcpXH5gbo+/77xDRQURUKU9BVUEBQD3kBnF9eIxGMoBEJiQsYALOaMSiI444gvNaYCSYFTBBVMX4rta2NTyXf/7zn3NMsXnjHUaMx35OyB0MsoeDeWlsm3bZZRe69fbbqWnevA3hKZhS5EVVTzSEUv7+97/P/ATIwBVWObH2RTnm/4SAzJo1iy684DwuZcT5QiYjlJ/iipMcAkkwFOsHbF2XX3El/fznP1/PZSdWYRgX8NhXxDq3v5nMNex+SD6D9xZ9ETRl8QmnnEzHHnssg4IN0PugkuGDqnsK4KlasWIFA0vkFEg8FXMgnidJGhQKWfEq4e8L5s9lMAGmQ1MJy7mjkWfJHL/40iscepA8GhOAVAUYjOIpyOlqzcOP50WtOLx5qPb55re+Rdtt/54NET4AKEBJ4iulrLuRrm1sbHy/7pK4T9h7Y5yQFDdnzmxasmQJb9A4CpVDm/dGTB9zD5IiyAE8nhhjkTkTYJrygP+zrL7br+Xaa6/m0AOuFa8oPg/jKRgccthTAB2I8yVkWhXZCznIuZwWw2v3uc99js489xyqb2qqgYK8cQyJs0KN/gYJHwAUgB8AiwmWO4RRFLLZhEbeQCx5KFtUHdxy842ceSuHWGtyrQAEQdlmaAEA5H9//Vu2uuHCMxWyKYihRm+MJxX0FPhEER0+8EhRjS7auJmuvv46tkyzhF4J6osnSfjgLsdxjqtm+ACgALLyve99j3NbhMXSpD+WsJMAROlxgPlA+Ap8GXDZ4hpRxmblSyHRQE7Nvvvuy4lmAkSlIVNVZDAAFEgdey751yLae5996Ed3382smn6ker0P9Ea1THsKJgUogP7DgSS/j3/84/TPf/6Tf+fyT+0qN72kYtCItwCeKnhZDzjggGG9CkSPBqolK8IMhmeffTYnepvfWw1PaeDz5Y2FjM0dd9xBH95nb8qCubb6iYY1T0GhiROdMtbqA9RpgzENdaeYaMWklc2VRklduDyDlEnNnTubPv/5z9Nll17KDUNwQHkLKDAXj2Tvw2MgPAZyP2R/YzP44x//mLMMRTnjZ9jYcBjhHumcUUGBdh2wJYIMb/IJMbXPf+EYOvv88zixEr0PNkBDpEp6CqoOCoQuG/kE8BaA5hqERVKSKHNmloKJTM6fP5fuvfde2nnnnZlhDRun5LqYWeAFZcOK0O9//3v66le/mqNTxvlYEyhTq/YxkpURjUQpnc3w2qmfPo2TgvfaZx/q6umejKAA4YN9w457qZ4C0TWY6wceeIC9nvi/ySZolqZCLpWeU0yvX/ziF3lD32STTXLuf7NaKQgcAJSuWbOGw2e/+tWvGNiOR28BxklA98c+9jFmHY0k4gS6phooGC6t5fYU3GNZ1tbFuMxLBQWID0Exg9/7nHPOYXZBUHviMBeDgAEoZygnIGMkGG65xRa8iLBJmpu4uL8EJABtm+1GJUMX7juQxwCUIPHQbCpSDUstLCjA+4HR8JLLLqVdd9+dlresoHhdkvD8rFjytFgFGQ0nFSjAHAOIYnyRgQ1l89JLLzMoxeavEg5R5qV6aSgZQ334RnTuuedyOSxyYcBLDy+UtLmVc4PWEpQy5Bclft/5zneGNbmphvzlb375cgRAkMlmOLUFVM4nnHQiZ7p3vlvGCSIj11Pc85YBYuWe5W6IVCVPwQYBBRgzUEeDzRCWf09P34gEWsJh0dAwjXbbbTcOu6I3BWRPdJcku4Yh0IL8Qc5AbYx5RdItjvzSx7AgqdznmYRgWFM77LADr5U999yTlq1sqXkKRhjwCQ8KZNOGyxQlgt/4xjfYcmptbR9GYiTKec6cWXT44YczQkaySakHSvqg1NH8BosRZWnSRjSdSbOVXskjatuU9hAIUBsQ90BgthD1O/rXgTkPNczHn3gCfXivj9BgKkVta9q5idIGaIhUSVBQ9ZwCqTKA2xTWPqw1kMGgTFUSvITAClYalNQWW2zBdeFg1BQwOlYZAc8EPAyQfeQ0/OY3v6G33nqLgbLnBzfgKFU+EZYSa5Lj4MaLmPfebIvNOY/lK8d9lfMn0Cynb2Cgql0SKw0Kmpqadunp6fl6NT0F5maOoQfdMHq/QA7Asqk+l3JV9f+mphn06U9/mnvA7L333mMVPQVw0X1Vt6MHIPjWt77FuhBrAd5J8VKO9iXlkL+gF8C8Y42g5wEYHIWoqb1zLTmeV/MU5A1gOXesDdI6GVa/dOnCuyG/AHE1NChC8g0+g3LGxvie97yH9tprL14IUn5j1owHCddIn2NRQOCwCFCv/re//Y3ju2hXCu9FkKU3lu80r4nohCAseytiq49sixKxOMf3tttmW84fwDtvsdWWvIC7+/s4ngswUQMFasjGWn1glr3CYkIcFxs0srHRqU4UMxQTCIr22GMPjv2Cbx7eAUnsGqscROwYK37IMRJfUQkDGXz55Zeps7MzRygz2v1LDW9J8mousUx37cQz4d3QnRQW6Uf23ostUnBjADTDqnXSaUqhje0k8RRoUABPwX5h57PU8IFUSYl1jnEHwyuME1jv0EkiB0isRgMkzAcsZTRHK/VIJuqpq6uLw1UwzBBGA90yKnIgj2ifLDpwJF1Yqn7M6bxRXqSpqYnfGey1SMREqA7hYujm1o415KKtcy2nYNjoTXhQAKFCrB8bMw4oIjSnwULA4oDAYqFAEEDOgbIbCDAWk9TjlrowhBcBiwLgAEyHsIRUbE/x0VfqiGjGQgg2vAWStQywBCt04+Zmfme8P3jK8ayDaYf6+vupfygFJMGPNknCB1X3FIjMQZ4kvwDyhk1v9erVrBTFczR37lyWQSgqk9a4FNmQ+C3mW5K80BwM3411EJRXUKpSFhc/2mpLprsAAvxEpQHeefacOQq8+B6vCayT7t7+qjREkvE1PAWfrERJ4oYABWaVgnBkQLbg+sf8wziBDOB36L1Fixaxpwb6slSDCOMqoFK6K+Jv0KvQgQDE8h2jyVmp8sfu4AIHdKC8M9YdZBBrBqHgju6emqdghLGbFKBAyrbMDG4oSRzCTS9IGopB+AaweErdtKW7mJTvSPa4/B5UUlbKhsCbue6ABFDArmy4wzTNKXOY6y5mvDh1/4aewX61YbgORSIJFXrIe5AJmlNwp+M4KNZOhC2Jkvceq6fA3HAkSRB/w9iLF0uAA+RN5M+sbilFBoRfA/eDsoO8STKsmSsz2neUKp/oPSKgUkCBJOmaZW2oQpDfM57KAWrrWEN2on5DeAomDSjAXAvwk6oWzIfImlAPC1CTOZDNOCiRMEg2pfQR8gddCnnEM4lcCfU27jMSAChV/qDvCh3CDirl5EK/jOdt71hDQ14t0TB//CY8KBCFK9a6CLksBsnoNoEAruGYq6coQks5AESkvhfPIAmI4hYuGQkHPBwaebALm1slc2Ybv5d8Lxi86hNJskBxrClMe4cGOA8ilUHubXQygYKqN0QSsitTuUqeAeQBIQKRNwGo0qdeGDhLkb/8fgqifDmfBG2JA9rQBX0e9GySy5JLeNX9QqTBDOROwApkU1gbUY3Q3ddLQ5mqJxpWjLyoqanpfTqnoGrhA9nkxVIXecS8whqG/JkAAHpQNkaRw6A5LvS5JPJJtQzOhe7Fc4hHdjRAUMr3mmC80H0EqGOcpDRTciCWr2whh2oliZMOFEApSj0sUKGAA/wdgACbH4RfiInEQpNNu1QXmngb5D4mMyKepVTQEbRwopbKas/4qgkKqjFyVrLvUzwSZaDi6gxwLGKED2CpDThoYDLpQAE8BclqeQrEKpbcAvHSiBxIgxqx1HCeAEezpjtonkf73KwwEBAgbmRRfoXuXSooEE8BwgfDEg61B4vBqPZciScLz9PT10srW1dTrF41pKli9QFAATwFZW+IpEEBcgr2DzufpeYUiP4TPhXRORKeAiATGcUz4bx8OQn7rCOdJ427xFMlYSz8DoOp1JyZoGcL8nQIaMJ9BKwLh8iKVSspDUbI6ucUTKmGSFUvSRQBF8Ujky+xLgipSR4j1poozJLdV3DL61wGLADZHMStVqrSDVoUAAW80SDXF1aatHnW7jp8zl4RiyimQypre7u5s5+TzZBtxyeTp+AOx3FOrCYoEGUslpIk/eF30zKBQhLZEzmRXIOgOS70uQAM0xoTQCQbRin3D7rWlG9TQYsHC3IpXgu22rTnYjA1RGu7u8j1q05zDPKiT0wWUCCWulRhiV4TnQdwIEBUQqUCUMtlwZtAWDZeM9dBZKhcIYsgmTQ/l+cwnwdjBMACT0EmEtsQoGBKkRdVHRSIQOazuAmJBkAB3Gj4XDwJEBrxLgQhzSABNK2j0RRk0D1K+dzPZFXYIKLAgSQbwnJjywCshuia5nucb4BjwE1pTwGsiEi1QcFtqVTq0lLeebRrE4lE1UGBhKBGUob5QFU2a1FQotBLGQvzHiZAFhkv1RMW9GzmOwkgF7lTaFnVv+PgDYqIhhwlf72DQxui98GkAgWQMTF8MM7imRSQIIAAsiEAQUI44j0NmuNCn7NuyWSGtQyXEIYYXCMZRqbeLOX7g67Fs0iYRMKqAuRb17RTyrdqoCBvEMuZU7AdEaH3QVXJi4KEYrJ/LrFbeAIY+esXtkgBANtX4QSAApWpa1Pv4AAr5SG9mKucaFhJUHC74zgnVdNTMNnlK+j9wsgf7iHyiWoX5BP09PVRb/8AgdaoWuED/S6TChQEzc9U/dyUSzPhFZ4qAQUr21tznio5X8Zr/URrFZ7FeTAyL7ngInrkoYeIQnCByD01gB6wbXvKeAoACuAp2KoYl3mpjIZTVejlvcMo5ZFBQT8NZVS8sQYKxs5TUJM/NQKFQKl8rkJbEQ5b9fUNUPdAH4cTaqBg7A2Rprr8jfb+QaDAzaRpVVsNFIw0fuX2FNRAQZVXaQ0UrBvwRCJR8xSMQ/kbZ6BgORF9fLLkFFR5uifM19VAwdinqtyg4F7LsraseQrGPiHFXjkBQcHtqVTqkmLfM8z5NVAQZpTKe04Y+auBgtHHvNTqg/LO5uS52zgHBbd7nrcYlfHjccRroGA8zkoRzxRGKY+z8EENFBQxv+P91DDyVwMFNVBQbTkex6BgUOcU1EDBaEJRyykobbmEUcpTCBTc5jjOybVEw9Jkqpirw8jfOAMFK4joY7XwQTGzPPHOnQCg4EoiqiwH/hinreYpGOPAjZfLwijlGigobKnh01JpjseLPFT7OcLI3xQDBeiSWDVGw2rP90T5vhooGPtM1UDB2MduXFwZRilPIVBwq+M4p9Q8BdUTzTDyN4VAAVonV7VLYvVmemJ9Uw0UjH2+JjwoQFKjEBdJQxCpSxXSFLBXNTQ0MN2qMM4J/aaQW0i3OXwOUg/UoqLDltCGClOhSdYi98J5QieKqZBES1AsBzEmmixfTD6EnvSapxvPyE2NolF+dqHOFU5z5pTXBbXF8xRssJLESuYUfN1xnFOrDQowLya9NuRQfgcPvMgoZANzK6xzcp2QyuAzYTmUa4IadgmlsZB0SQMYyDwO+Tlq+G6ULnNCLgOqcOlCiu8S5kb8jal0s4oPYwKVJLYQ0UcrFD6oOigQnSHzIvpH2CylIRHkELKBfgT4TORGdBiuw3xCXvAZzguSPZEpk70TMo3vkkZxuJ/5jHJNWPIi0X+4n/QxwLOhy2Yh8qUaKBg/oOA+y7K2qGb1AYQagif83vgd7ZJff/11bt+5fPlybgoyffp0buG60047cV97YTcUgTYXh9BgymZsNpYxWeOELlS60UGho1Xp22+/TW+99RYreGnMNNoUCQgYie0O999ss824/Sx6gqMFMhYD3gX35U5oRpdEVgj6i4LJiyYlKFjiOM5p1QQFwiIn8gO54g6AbW308ssvU0dHB7fxhgyihevGG29MW265pWplnc3mAK3ZnEvAQpiGXZBRyA6+B61h8d2Qfcgh/oZumGGPkdg9sVYgf9tssw0/t7Dn5YCN7q85wUABcgr+HXZcwp63IVonixEjXQpF94ocLFu2jCnNBdhBBnfccUeWRZwr4E4Aqcyv6MUgXQ75F+AoOuzNN9+kVatWEX6ihbgAlfx7yfmFxhfGHNYKZG+LLbagxsZGlneABAajo3RJrIGCsFK7/nnl9hRUHRSAIU245CF0jzzyCN133330+OOPs1IW+lksHgjWAQccQJ/85Cdp77335uuweYpg46dY5GaDo/xOdOI1YIpZX1l+ACB/+ctf6N5776V//etfrJRLPcSqfO9730v7778/HXLIIfS+970v1xY146YpHrUDLbVxFj6oJKPhLY7jnF5NUGDZquGUUBpDAUP+/vSnP9Gzzz5LK1asYOULWYNC23nnnVn+9t13X9p+++3J9zI561s6eUrbb4DKoIYybjrLChIy+Pe//53uv/9+euCBBxiUFgMICsnq3LlzCTL4mc98hg477DCaPXs2A95kPEF+Fp02J5SnYKX2FEwKUJDJKs+iAEzI0BtvvEE//vGPWf5eeeWVnBzAowkw8P/+3/+jT3ziE7TffvvRjIZpOW8mjCts8OJJEL1aSDZi8SQDUVjvMI4eeugh+vnPf07PP/88G2TlOPDcm266Ke2zzz500EEHsS6E7mWPRHzkLrc1UDD2kS8nKHgPEQEUbB6ELs3HLbX6IJ3xckgVCvG2225j5YhngHIV96n0OsB377LLLnTGGWfQZz/7WYpFlXBB8MQ9mu8ZMLm9zTACW1ZWhK3Cb37zm/Sb3/xmGBgI26XOtNDMsRMkLdbARz7yETr99NNpr7324g0G4Ym6mFoUEyh8UElQcLPjOGdUGxQIIAAAgDL+9a9/zda6HNJJU8ABvAaf/vSn6YorrqDmRRvlQkYy96aHYDRLKHdz9K7wfXryySfp5ptvpn/+85+8CYxk9Y+kJoLWqsgeLEqAgWOPPZZOOOEE9mBxaIzbb9dAAcZgQ3gKAEolPIp5f+aZZ+gb3/gG/e1vf2P9IF00pUcG5ALyuMMOO9CXv/xlOuqzR+S8VtLAC+8StjcMQCnkub+/n77//e/Td77zHfYQiDUvntLR5CxITiX8Kt1t99hjDzruuOMYoMKLkHbR6XX9YxyDAtAcg6dgSlQfbBBQAKQKgYR1fs4559ALL7yQyxuAqEiegShXsbze//730yWXXEIfPXD/URWoCKzE39ji1v0CJLTQ2dVDd999N4OC1atX5/IBwsbjwuI5WWQf+tCH6KabbqKtttqKF3MmNRSolKeQp+AmDQrqwrgmMXACSsdafaBD6hzW+e///m+68cYbcy5TAZoS18X3SbtkhIDg+fnWXXcyqEWeCH7ic1heIrtB8oHvh5fqzDPPZE8V5E5AbdCGH3TvkT6fNWsWnXzyyXTKKaew/CUiwZ4qAQ3jhOZ4lfYUvDKW9y90zYYABTBKcGCuEba84IIL6I9//OMwvSfAjnOQ4N3ULvftttuOrrj8UvZcwYCCbpRzBEwEbdrwVODaH/7wh3TDDTewZ6wcLcHNcZYwrXQZRSjrjjvuoA9/+MNkS8/tvIkZ56BgyvQ+ACi437KszYpRRqV6CuC+x6aNDf6//uu/+P8QUgi3/IS8iKKU2C82daDNq69azLEqWQwS4zd/imsO95HEQ0moef5fL7LX4cUXX8wtONmQsDgkgbGQMslfeDJ++ImNBWhb7onvBfg59dRTOTei5ilYN7LJZPLGVCp1JhFVDRRA/iBTf/3rX+miiy6il156aZjcMfCwLHavwqKTTVsU9d0//iEdeuihuRCEWGimhVdIdgCKL7/8crr99tuH5a/g/uYGELQBFrLkJFFMJtHM/gAAIABJREFUZHHzzTdnYIrn9lyV0DiBcgomFSiAp1R0ETZKgFLoKJl70+KXORaPAOTygP33Ze8qjAxJjpU8Lem4WEh2orEEeycuvPBC9tDiEIMojKc0CHRIaERAsgADhD8QpoCnd6SjBgqCVvzon5c7fFB1UAD3FTbko446ihOrzCxwvLYoVzOxUJDnwoUL6cYbrqPDDz88p6wlp8B025ruXNwf98LfkND43e/9gK68Ep6gdS63ciNl3Fu+E8+OhMPf//73HJMO474dZ56CW1Op1GVjF9nRr0wmk9enUqmzqwkKfLLZyodihaVk5qRAKUL+JIQlwA4/8Q/nfvxjB9JPf/pTThIE+BMAChkSMFhorLq6e2nXXXdlL5WA3/y8mFLHWjwZch/8/qUvfYkuvvhimj971kQDBRioA4loUngKIlEVIoUMIom6vb09V/1kzjvkUDwBAlQBEqbVJ9nLecQRR/B1ksCHe0pVTEH5sSJ066230i233MIeWwmvlksHjuTxE6CDkNn7dt5xIoKCWz3Pu2oq0BzDU/BHy7I2raanAO4zxFJhKSHJayTFaFrZ4gGA8oXlc8H55zLKNTd12YDNEkYJFwAFiweitbWVzjv/Qrrnnnty4EMkVBR/mLEodA7uY1ZGyP3hqkbSTTIRG7YogqoPfMumvoEB6unrp1Ta1e2U17nR5Wbrtw7NkG1ZtOyNt+imG26kJx99LPReYyzsoWQyWUlQcF0qlTqnmqAAMV14B6655hp68MEHWUGb7k4ZJLHOTA8Uzps1s5GTYlEZg80Wn0uCoZxbaKAf+NNDdPTRRw8DHiJ7kiBb6Hqx1EaTwXyLU34HEIFnbofttp2IoAAliS+HFuCQJ26I8IEdibFB8+c//5k3drHSxRjCo0uJrBhJsnEzOCCiM844jS699FL2ZklyocTyg/RXb98AnXfeefSrX/2KDTL5Dsie+QymXgy6Z/5wS8gX9xSwAX0Mj+lVV14xdlDQ2k4uQi9IDfOH68CRWifbZPF4OYND9LULL6JHHnwIPrKQ0qE8hr7vI6dgSoGCnKeg2Jju66+/RrDccUBozMSYQqOOmCpCB0hyAVo2rTC5ThaFmbgnnoCTTzqBE75gqeE7zZwBCDnOgyBKoouAAvwdHopTTj2d8xlMlz++B0JrxpJDS84oJ5qJkjjl+uuv5xBCPKZiijxuxrWjlSSOBApGal2bvyiQJY/3MkEBFoj5naO9Yx4oWJJKpUZeySUOUjKZvCaVSp1XbVAAt+nXvvY1evrpp3Px2ny3rShZAZoif3Nmz6Tvfe979PGPf5xlBt4BCS2ILBYaFniqoBwhf6ZFb4bOShzWYYpeXMLwUsFVfeC++0wIUGDI4KTyFCB8hU3z29/+Np177rk8F3hXSbI2Q0hmnoAYGljDhx76KfZ0IZGUK7K0J0s4MwrJz/IVK+m0007jfBbxqAowCbsHhJFPeQ/R5Xg/eHh/+IPvhQMFWTUuHqm9hVsnt7YOAwUCkkxdyrpRe/XGCgrywFG/AQrCI4owg1Smc8oaPrAs637f9zcr5tlKzSmApYaMfLhgTaIWTAQmX+Jr5qYtz4fPTzzhOLr66qtzGbgjxfdFwZv5CAAJ//73v+nMs86hp556im9pbtz5CY7FjIl5br4lJ25AeDcACpoaG9YDBEq4lbzZvs1CnfE99goAFPQODlBvbz8NpV2FXjVSLrQoAAqwKN558y265YYb6fFHH2PUPAZQcPO7G5+Kt5T5eNfzc2UqlbqAiOrDKqRSEw2RaAU5gAw+99xz69VNixIzZcMEp3Df/va3v6XddtuNPVc4oIxDuW6J6Jt3fZsuu+yyXBmZyCEUtOQClDLM8qymtYl32XrrrWnJkiW0/957TQhQYGyOkyqnAPoPc33XXXdxTosQufHaR3WIYWSZnqOc0aVBAbytMMry9V+Q7Pzntdfp2muvpf/7v/8bJvtBHqig++brQOg9M1cB///85z9P3//ed0a81Xo5BWUGBZdccBH9+aFwngITmFmW1W9Z1hLP864pys1QzICVeG5ZQUEkErkvm81ubsZOg1xFpYICKGWU4EAwpb4Wlj28Bjjy3WhiqUluwLnnnMWLSRLBhBFO3F9muEGsJJlkZPuec+75XJsrhyQXBr132HmT588HGT/4wQ/oyCOPpGhEjWD+5jxOQcFgPB6/yXXdq8O+fzHnxePxK1zXvaiaoABKGaAAWd+wljDvmDPICjZ38XphTYhMCTkW3m1m0wy+DsmuAvgAboXBLej977n3fvriF7/IgFgYOAUQFJNoGPQ9+BwyKEloqHWHp2D39+8y0UDByng8/lHXdScFT4GUZP/ud7+jz33uczn2TEmIxuY5WiiB86xcl04++UQOH4CkyvRumiWKo8kHwgeoRvnDH/6Q8+7iunJ6SWU/wfNCBlHpAzk866yz6LprR1Yl4wkU5BkofUS05N2tCaAgjE0VZmmW9ZxygoLtbNu+3/O8zc3M6aA661JBAXIKUIKDkiwkW8n3meGH0TZoEGJcufhyjsWZFh1GWGrPBWnjd5NGGRONxMYlX7+NE3XYGs+oplfFgKIws2kuatwbZDK/+MUvCDW7svlPIFBwveu614V572LPicfjl7mue3E1QQESDSEHkAG4YEUGRnPbijzJJrvH7rtyPBZzalaqhK0TX9PRyQx1II4xy2DLDQgkHCGuZeQxXHfddbRgzuwJAQoMxdwyffr0j/b3979arHwFnb8hcgriiTpO8FuzZg3tvvvunFeVr+8Kec2QkwS5hdUtoFJkM0xOCowygEN4KvLJskbKKQgaw5E+z5dl0dUAQh/76AEj3nI8gYK8B0S98S3vYmzowEkPCpBxdB8RbZkfwy8kCKWCAiTagFITZYFgksMhpVOmIpOFIhs7BA2shl9fcjNTuMohngGx7ExwYQq5ZJX/+eG/0Nlnn8214iZZUrkWhCxQidfBIjzmmGNYIYPASBi9JhAouNp13ZvGohyCronH45e6rntJNUEBclow17CUENJB8qnJLS8ufFOxYcPH33HeHbffSl/96lc5HwCgQMCnWPtB7wxPBTgDQJpkeqnKlf2N78ez43ll7YCsBhvBV77yFbKyCgiP15LE/A3Ftu1ls2bN+lhHR8drQWNb7OdNTU3v0w2R9g97LfQfONDmzJnN4RgYKAIcw7jyJacAegGWMxKQRVcIGRvuJ4nS8hl0JMDE7rt9gD2tIDOSOWa2SoPMrdC7ABQgbIZQJjxmkA1Y8vKd5eJrEV0uYBmJrkjwbpwxfVyDAhOQ6f/32LZ9k+d5N4SVkWqfVzZPQSKR2MZxnHuJaOv8pLhKggKpE4cL9vjjj+eSHBPhmpNiJl+hLhcJWl845uhcuV/+pi+uNzMLXBIOJV7X2raG7rzzTmbywmIQQFQupZwPLtADAUmGqNNV2iOrfuQN8jgNHwwkEokrHMe5tRKCHo/HL3Zd99J3kfi0auUUwFOAOQKtNerEkdsCJjkc5twJUDX/BvKVn/30J+wlEM8U5ArPbjbiKjRWACWgskWJIJjkTCVcDmCav6liDQGUIrESfRxsT8nfBAIFby1YsOCTq1atqgQo2FmDgpHN1xEmslRQMDCY4gRB6B7QGgMYgMANh+gimUNJYBWP1IIFC+jCC85j2ZGKK7AEAiyE4SjgjT+WYLIueAqQ7Ij/F6P/g/RAvpcUuhjvC8/cpz71qZynNP8+481TYORYdNfV1d04NDRUEcMoaDzDfF42UDB37tyt16xZcw8RbRtWIeMBS/UUQAliA4Ygw1qDx0CoNbNZtVUi38b31T8cixZtxFSZWEDIJRBrziwXk0nMDwWsVyZmRei1115jlI/vlw1Bfe869rDRJiPsBMCaaG5exEQ1oMjFgpeOZxMIFPQnEomLHcf5ZhjhLPaceDz+Ndd1wYFQNVAglhfmAyQukAOUJiKRk+XbWid35u977LEb13aDoRJKWsDmSOVjhcYBIg0rET0/kH2+YkULRSKookFHUITBih3F4efL89fVgTfBob32+ghvACAwYqIwW1W/jFdQIG9j6KSlixYtOmTlypVLSxuZ9a+eOXPmjt3d3WidjJLHUEepoABgE2576ALoHvS9uOqqq+jNN9/K6bt4HPktyqOTTMYplXJpo43ms1cC+nKTTTZhUCo9YKSzoRg+hV5EcrRgjMF7CU+F9PAII3tB/nNThqNRm98TvDAApvBKoEx6pGM8ggLtre5qaGi4vq+vD3kF4/IIuycFPnxzc/NWLS0tvyei7UdYiKNeXyookMQTLA4IMzwGixcvZu75oSHFthaLIfEly0oSBB8AA9hYBR3jHrIo5G/CjCguODNjHItFLDK4zwBK0PwDVJ8oLwOpUVgCmaAJgMzbtkUf/OAHOUyB/gcIGwCNI44siH6CeAr6ksnkealUauQ6okApK3xCIpG4wHGcxdUEBeJah+xBSaEPBkiM0P+gvb2DHxjKLJv1GCDgnIMPPpi9VPD6KPmM5VjpxJslZbBBQ5LVJbOgRkYTGniRQOriOKpmvBxHIqFaQZ900kmclAsmTSZmwoKaIK2TJWnO9/2Xm5ubD2tpaXmjHGNj3mPWrFnv7erqAij4eNh7lwoKZFOWBFD8fPTRR9lrBZZN1axLGUaySW+77dZ04oknMr8FaKthRElDI4yTmTsVlDANvSjhBoAS6D8AY8gjgGnQEQQKRH/jOdDQDoAAjZwYEIi1N8KXjDdQYBiIa5uamq7r7u6+LWhsNtTnQXtS6OeaP3/+Fm1tbb8lop2LSbTDA2BuYW2jJMa01qWRTNBD4PvE/QqhRuIXCGHwD25dbODoDgZhgssWbjN8j5QrBt2/0Oe2FeX7y0JChzIAE9SuS3y50PWWSK8uHcK5eB8oXfzDxoHuYHhucCkIHbMAk1zZUd6XSPjA8lQdc5Z8DjHAeYKSxL6+AUrpZjaFShKtiCrrBJ1oNp2h1S0r6dorr6J/PPV38lH2FjB4ed6S3rq6ulOGhob+p5QxH+3aurq6c4aGhq5+t+RnushE0PeI/KE5DEr74JqUVrBB1+JzUcpSCgYljOuXLl3KHQvRoAgKEqAVjbjQpRPAFL8D1ElHxDDfNdI5+SECJJqBTAkbAtzI8KCVciAjHeWS6Ez3nve8hwEwNhGJPweBgghFVNVFPEYZvUFlLWJPSmdfjy6TVeQxLPvGw+JPnGORiJOTGuR1UReNM1HPmaeept1/xb2dZVlPz5s373NtbW1vFXdl8NmzZ8/errOz82bf9w8J6y1F6whs1vBeooIKzKxSGSXyVeibhdtCKkNEF6FdN3hUIIMwWPA7Eqshf6YODH6rwmeI/jETypFfBc8VwAlAsuTHmOdIwmpQIjrACsDAnnvuyYaRtHwWDo/R8i5Erfq2kqhsRlUFZTwYhzbzFSxbsYIyyJcpUJItGo7DehBI36fBvn667KKL6eGHH86FbwvqeEVaJKe0z5gx45re3t6KeEtLnc/8NVjS/RYsWLBZa2vrL95lNdyjGFAgi+Kll14gNOhAbEwUpTQiKvRgWEBQVGb2PxYKJlGhZC9XHoPzpFxGhAq/l3JYtK5+FgsTB54JQoDnCEwWsmBB6rJC388JD57f9EjgviJYYp2aoYzRPAUABbwI4MbmwliraJ4CJSgeL4rX//Ma3XbLEnriscdD8RTkyUJ3IpE4xnGc+0sZ89GujcViJ6XTaWT2NoQJ3ZgL4EtfOpatEMT3ZdzDyIZ4qjDX4vqXkkRs+iITogQxZyaADZPhXWispOQxBw61DJkJjqWMtfRqwDsJ0BJFjt9Ni4xlVH+ZgFIBBXYsSvBq+L5FGfKpp6ePuvp7A0EBb4zkk5dV9OJWxuNqowvPOVfFZrzCsNRcW/rRHl64cOFXV61aVZ6+vsbgNjY2bt7X14cksiNs27aCNjxcij0L+8XcubMZFHzhC1/gO4qeCnLh4zvwT0pYUYoNwImxAiDMB52iQwL1UkihYYNBe7rMyi/eiLNZ1oEi86bXwVwPhb7KJJMTAAzDCNfj3UZbP/mgAKkvvK41KMDPFStXBoICMYrYIwtZM0DBIwAFIRgN8wDiyoaGhsV9fX0/CDnEVT+tbJ6ChQsXbrxq1aofEdH+YwEFf/3rI1xSAyFg16TmjA9SzOJNyC8HFAGUewlokNit/L3UelpTGZvKUsYgyP1m1rHnLx7xGIjgiwtU+jtg8UvSUFD4AJ4CKNGxgAJGyVDNWY9eefElWnLjTfTcM88ymVGwr0DJtFYCayORyEHpdPoflZD0eDx+tOu63yaixrCgQEDpZz5zGLvehcAlrNISuRJ5Em4C03Iz5ULe26xyKWUshgFDDThkU2HLSJfJjvU7JGnMlEFZk/zdelMeLadAQIEVjTAosKwIpX2Purt7qWewn0HESJaaAAzMYzqbYT4OXmvpLP3sZz+jG6+5lixYedKmcpQXHMFi/+XcuXPPXrNmTetYx2S06+bMmbNRZ2fn9Z7nfdG2bbsYUDBzZiMzsyKLn8GWQbxW6DlF/4keEn3AAEonrMr15QIC5vMIEDYTsEfSgzyf66zlYGNJfwlkTfRi/toR42ik8TFBAQNkbRxlfWWECaNhOoC8LRJTrak5rJzJMijoaGunxZdcRk88/vhYQMHb06dPv6S/vx8G9Lg8ygYKNt5444UrVqyAS+SwYkABHgAxf2STwnUmMX3ZAINGzUSnYpmbCgyuTrFyRIHKhiHVBUHfUehzyRI3BVT+L2Q1ha7P3xzyQYSAhvx7iIUQFD4AoyEOVtoaFPQM9LP7FuEDnqsC7jOYMuz1iFiUdlx64bnn6dKLvkarWlZSxLIJiyzsYdv2Ks/zQIH3ZthrijkvkUgcmE6nsdi4S09YpQyDEwl/qNdGeSrkBZZXWMAopFbSwU3Kv/A7gJtY7QI0TMAYBBqD3l+sd5ETkXXIngDsoHsU+lxkWICAeN9yoNsq3DpZQAFFbPKYvjxKTjZDnZ3d1O8MBYIC/h7b4vAVEzRFYtxn4hc//dmYwgfoZb9w4cJrWlpaOksZl5GubWpqauru7gabzim2bUfDyJ+ErxByOuGEE/jd8uWk0HPiXJkTbNAii5LsJ2Rs+a57UyZLHQcJoUl+00j9F0b7jiCgYnqLZVwEYIjHrRAoELBKmtlVjJjB1BCtWbs2kOYYsodn4PBwWvV/gWF07eKr6NVXXyUwvQYdecD01f/f3rVHSVKV91uPru6e6e6ZWWYZmKwywKKwHESFEwzEP8jjQBSOAh6NitEYTyQRzVERNRoEfOCCy4IKIiAaRWI8JLLGFQWNGgRBVFDWAUWyy+6yYZmemX6/6pX53aqv907R1VU9093TM1O1Z87Mdtfj1ne/+93f985kMpcUCoWeWEuDxhLm+66BgsnJyfEDBw58gjH2zk5BgaJI3GyGBis4iMnJ9BT0IsQsJAhxPplwiWFpTOTfIvP8cs23BADovng2IX1asEHjp2u854nXY6Fx/2os1uxkRpsQXySei8WURE5TZnPNCjEFuVKRgwJobPzaNqAAmz5ZCoCU7/3e99lHP/RhDhDCljkWhgY/7mmMMScCr8uHpmkn6Lr+Q9u2j2yhIbZ8Gt4B/Ic4k5tvvpkHcuJ9wXthYk4I1NFvUTsHIIA5l9PP9SsuMr27+f/LIYOoSYmuibCWjjDPbgVqSJiHsRTwtSFLHBQoSoxVGnU2OzvPaqbOP2tnKeD0kiUOSnk7dEnhFRwfffgXztCDglqE9WhZlmXb9qUTExM3HTx40Emm7+KxadOm5P79+/+FMfZ+WZa1sKAAQ4ARBAGoCNTLZDLNrq1Bw8MzhCDKZkMjzJk3nY+TS9DW/eRO0DO935Ni0kr+ihZcel4nQFhcO6KyR/znR2PRrcUBs+S4MUjJKZSKbD6fDwQFotIDJQjBtXd/Zyf7zFVbeewa3FpBhyCLwK2/zGQyFxcKhZ5YS4PGEub7roGC8fHxdDab/aeFNXiFJEmyKCzbDYTMtyeeeAIPDCS/PzT8MLmyoqZE5nbyx1ENeVEQk4ADs4W1RrQbvwiARAsBMX6Q+0PcvPzMazRWjAOLjDRYETQFgQKKKdBNi80XC6xcrnLfLhcUAaCAmwgbNVarVNnNX7iJfe3LX+GmtDDuA8/mjM50p6C8fxjmXMI5KK+HxXZsWAFE0d+xmMq2bt3KCwkRXYO0GBKyIiDAXEGjJX+q6F6iMYlAMswz2tHB6/MXx+RnZVoCXfklXl7lG48bGhgmJRHuA4CCYrXCQYEh2YGgALSCqReWAjx/71O7uQKRm3FxZQhQILxvjTH2dsbYnQj9WSod2lynqKr6AcMweFpsmPtTTAHOPfnkk3i9k1NOOYWv8XaaMN2bZAP4TVQSHKBxCNyKG2ozY0lwN4UZa7tzaA2QGw18CRkO2bEcHieljtYRWUgJAPvtEe1AAWgxn8/xbrFB7gMCEXifhBZn1UqF3XbLrexfb72N/91hTAG0sB+PjIz8fT6f74m1dLnzyNd5N26Ce2zZskWbnp7+a8bYFyVJSoQFBVjsSF1Jp4cZ6vmjKA8V/gkKsqGxk1YkautkCcA59Dlp8PRZmEDGsPTxbuiEcIN8urRg/NAzF4pCpTvSDDEuURMICwrqusHmCnlWqdSYrTiV6oLcB5xeps52/eYx9qmPf4L9fvrx0KBAFF6WZf2IMfZnYWm6hPNUSZJ+ats2rBGLNjG/exEogBJxzjmv4m24EaUNniE3QLtx0HxgnskdRf5c/J9Mj5hH/E3CmfgzjDbZ7vmU9SJawLrpnhBBjbi+8N783eFnbVOngAJdYakiUABLVTY7x1hMCQQFmIO63uCWAjwfwvi67dt5KiR/z4CYAg/tnlNV9c2GYfxgCbwV6pKhoaGLKpUK6tqPh7kAoIDHS1pOsCFqTSD1Eyl33k2+1f2In8gyILpKQS8KBKSAV+JJWh/L2bBpPF7Xkmgp9fJ3J1YC7xpuWqfcLo6k/LWiiwgKuDVFdtLOETgIGszMZlm1Xg8VaEgAJKao7PHpaXbdtmvZg/fdzywTvB/sPhXANHwNO9Lp9DuLxeJsGP5YiXO6BgpcgIHynndIkrQxLCigAcB8hmIaMOGSphYGFJClgDZJ/MZCIS2JhDvOIxO8CBg6ZVLvJJH5joAGfncSUyDej8ANPgvy+RGjtoopcGhKzOpoWDgMm/GFAJRcqTeYrCjNQEFvShiBDCw8ZISgRvo3/+0b7KpPforZCF5z+4+HVdTcgDXk5jr9XXt0aJr2JV3X3x52XsmnC6GcyaR4RUKUv6ZNL2jTJm1OjGehz4gH8dsbqEcCO4w1rB2pvO4xkW/EOJelklu0xIkWKzIVa4q6CBQceo7DfwAFiCfg/GfaXCjnCgU2MzvH0xR5AKx7+PEgf0fJ5sV5Lv6Hf2S/RpAreBdCOSQDulbEX8disXdUKhXX97BUqvhfl06nzymVSkhLPCHM3UX+gxsLStG2bdvYpk2bmumu7e5D8yO6Q0nZ8bqWSDaJQCDsOvEbgyh/vfcleSY+w88a6nd/AtO0lryWYT9QIwYacqudovHMA8omODgzw8GmJStcKeK82oKXaP1z+aXr7PvfvZtds/VqNvfcjDvkjkABTAu3MsYu6ZGlKgzLBZ7TTVCAoiao6HWDbduvFLXYdqMQzWfI1UXhFxQWosh6YiwwB5mOcG/8n9JVvIzdDfQbSLkBOcGWXOHbZGh5UZoYUiZ59DYEsC2x7NwsT0nkQpqn57jxBpbb3c+NWIcGRpHnqiSzvXue5n3Tn969m9cngDCmOQkihYuUMcLXMsa+HXT+cr5XFOVNpmneHovFpDCBglgAKM6DYj/4jZiCG2+8kU1NTTVrQpCJnsAqRVpjnF4h59XSwwDb5bzvyl9LLbppJA4AoEM3ndRcHuAlKaxuGey52SwrFItMSzipxDqENWpzSI7lioQzz7nHtYhJMEz2ldu+zH3ulYJTRtopF+lYKtrKGEd22LIsf31kZOQj8/PzXU9HpOen0+kXl0qlz9m2jVLHgfKVQAHeHxVYYS1AvQy4SChIleJbQAdYUfnaNYxmQKLoHiXZJ34WRJ/V/X17/rOYk9qNWCrErwCjIp4gVyzwuhk8G0F19hPwGNa2pjrFxHgQOcAnLA1M4rV0rrt2O7vvRz922A/XdBBoqCjKs7Isf1TX9YFNR+Tv1U2GyGQyGyqVygcNw7iE4gqC7g+zIBYDMhCMhUC2M844nS/8I488kmciUOAWaeS0EZFZvpWmRYK62z7VoHdZie+9oICyDTAWJ+PAKdgBcIDArtncPKvWahwxgz6G7bRWhTmWB9a5+b8QzHBbQFAj6vbKyy9nd33rW0yNxThiDquhCTTJMcZewhjb10s6JRKJo2q12mOSJKXDaEFoKEUlYKGpgRe3b9/Gy6imUikufCnXm8q/UrqhN7uEtHRnv5JCuS96SYv+3Lu9ULYlhQteZB0ghoUEso5NzbUgNExhg9Odv2GqRVCX2dC5wEaxrOuuu47tevTX3ErA+Tuk+dalQx0CeXJy8ob9+/c7fdV7cExOTg49++yzn0VaIhKrgh7htRSAh9CcCO+K2AICBAADoINYOIriVlopRaJLNWgMq/v79vwHRcixBMjcXYr4lLl8jpXQtEmWOMgqVspcFgKEQQ5inSNeCoAUgbQIFlZlhZdwvv7a7Vwp0uJx1qijYm6wpcClryXL8iNDQ0N/UyqVut62u5tz2FVQADd3IpF4Y61Wg5l4XPCl+I4ZAxBrc0NbA0pGwxWY0DBBSNchcytZCciH5qcN0kJZ61aDVpaCRcSWHPMYBAgsBIVyhdUbDb4gHNo4xU+0WMyxvjSc+CuAAdAW/7/rrrvY1quu4r3XJfxzK0iGsRQIPIB4AtSED87hWR6Hw56NBGIeVxB0YF86ZIVylM/R0RHemhp1M6gwC2XEiCleJLCJx0RQQDElQe6HoPEN/veLhaLl5NpCAAAXe0lEQVQISvnYZdWxVKkqT4GF26BSr/GNHWCVtF98z3tA6A4IAziFME4lh9ijjz7Kbrv1S+yeu7/H0xAVWA9cF2EHQnl/Mpl8T7Va/Vavaaqq6vsNw/iQJEnjQcAUllKUMQcYFUsRX3jhm3jXTVQ0pWJoNG4KICS3lJf/yHUbRv72mha9v397/oOlgPgPoKBQKnPFCKAUNQjElHK+l1gOOICFgAe7u9ar/7zzP9iNn/s8O/jss56GJqFBQV1RlDsmJiYuPnDgANwIA3t0GxSgLv+phULhWtu2/zRMVS9yH1B/AvzGpKAdLMDBMccc07QWcA0iFuOTBQ0OJTDbmcnWw6IIAwoAAECzfLHIqvUGg2YGUxo+h3ZcF2o5AARAQMNXDKF87/fv4V0gD+zb56DjWn1RgGMQZ7tzYMRisXfpun5z0Pnd+F5V1fcZhrFVkiQ1SCiTpobnkgkXTWPQARB1C04//fQmn5FmRkGFBBBIK6N7iJaqtQ5KvZuyFxSQpgY6AJTO5fKsbugOD/FiRpIjtGXlUGAnXAhutUSUi779q19j39v53WavD24ldM+xA9wHLuCzFEXZOTo6+sHZ2dnHu8Fj7e4BGZjP52+SJOnlNko4tjnoS7JSARhwUK6q7KKLLuLZMGg+BV7DpoUARLw/dTLEeaKLSuS99WApDeI/gAKATw46LZPNzudYoVxy+Mu1OHFLKq/t5pbLd+cLVip89oN77uUZB088/jiLufPA07F5emd7UEB7kCRJ2VgsdnGj0fj3XvPfcu/fC1AwVi6XP2IYxsWSJMWDhDKlJIrWAjSQgekWJlwU9IB/FwAAAW+YXOr17a0x4OffXS6RBvn6Q6BgsS+XxozW0jDfgnYI8EJKIhUy4gzLTF6EiCLtYS4DHZ968g/soYceYnfcfjvbs3s3dxfwFE5usmVMVVRmmJTU2J5CkiQ9lU6n/6pQKDzZD1qmUqktpVJpJ2NsKuh53gUA3qNGLqee+nLehAq1/yGYKabFayHxWgjwTDEbIGgMq/v7QwGteA+hlQd/LcQUoHcBAOZsPsdqDZ3HEIBmtKFR0CAsBbxwlBrjLXj3/O9udscdd7D7fvwTVsjnuYXAdCs0cjDHi2e1Nzy5QrmQSCS2jo+Pb++l64DmcWpqKvHMM89cr+v6WxhjyXbzS/IP54jAAGE7qdQQO//883lHV9T+B31Is8X5AAoA+2IcC9/s3LoYFPC6uvkraPTt+Q/uKypYRKAUShHFB/GMIbe5FwXPgv9wQAHauXMnu+WmLzL0cyDZh+865D9bkqQHh4aGzi+Xy12vpBlEoU6/7zooAL2SyeTrqtXqpxhjm4MGhAFQO086l9q1btgwygO/UOnwrLPO4iiZ+3vcvgCHzndeA4KmVdBN0BhW8/dBoMBmMtewiuUSK1erPPUJZjNEhDvmR50LGgTSUPrjU089xf5rx7fZjh07WLlQaJaT5VovNDQhFCVEmWMzHo9fm8lkrpyZmVled56QE7Vx48bU7OzslZZloW5Ga7Tk3otiCqChOcGrTjdDaj98/PEvYueddx7/2bx5c7PiJgll0i4IBKx9y4B3EvyFMq+NYUk8dgAZL2jWBHcCubPUuNYs002NlbDR4TxYqMB/v5t+nFXg/xV6UEOgAxyADy0WHGjIGPvV6Ojo+3O5nBMh1ocjk8kABKMa2wvaxW55Aw0JGBA4Rcvq0047jStIr371q9nExARfzzwI0+054I2zIlAQpJD1gQx9eER7/kMsFWRUrVHn2SvFcpVbSEEjgFPK0LHcWBYon5CHv/j5w7yp03/f+wO2b68blyrwIA/XCs9/pqqqlxqGAbd6yHyZPpDO5xG9AAVox7kpn89fbZrm64KCbZrmM9mJ8uRCFoFJEsqiIr9U4abcM888k11wwQW8UxasCBQBbpiNRSChVbDXypG3908+1ICm9bMausn7rVfrNWa4zVNk1QnUAsBqBjBVquyJJ57gHejQYW/f0087ZXJlpSm4eZ11AAgZpl+T/4bpLeB4amxs7K3z8/M/C7S1Bd0p/PeyqqqnG4bxdcbYC9tdJi4A4jk6n/6fGk6xk08+mZ177rns7LPP5uAAwoQDVMUBE5SrTfwnuhTCD3v1nRnEf+hOB4GcLxa4tcCGJqs6a91xx2hOx0VF5WAABcygnf3mkUd5d0kexyJ0mQM/4gD/4bCDA70qqqrekslkLpubmyv0i8IApnNzc7eapnkBDGt+zxXlH70TnavFNNbQnTpfxxx9DLcWQDmCLEQgNlwIulF3fOBulgbJRcFs3a9XXpHnBPEfQCmCC7lSVC4z03WbktUP/Mf5UFb4ekaX2/vvv5/d/z/3cXlYLBxiGchKJ7iQsbgWZ/VGPQz/4fS9iUTilbVarWdZL90kfk9AAbQzTdPeYBjGJy3LOrrdgBHl6TT1hfLqNr9wwQAWCQnmRDzBS9Eed9xxvAXtqaeeyt0KE0dsbJY0Jt+aGGS41tFy0KIoFMtsfn6eb968MqEboIUNH5HgT+/ew2AZeOSRR3i7X7RYhfBmptm0EFBqIuYIi0cUXgGwV1dV9erJyclte/fune8m4wbdK51Oj1er1Y/CjQXWaieUyRXi5cGYGuPACPyJv9PpNEMr4ZNOOokL6C1btrAXHrWJC2WvYMa91n46otgVsTWF6w2Db/YABjzbRSgKBf6bnZnj7c1/+9vfsunpaf53KV9wgutg1nL965QWSp/RhhkACnCDX8VisXfruv5gEM90+/tkMvmKarV6F2Nswu/eSH/T3RbmtNFA5nFwydBzxHHT4YAMBP8hABsyEIGwJ2x5MeK4OG+KxbbWi8UqSP6hNgZcLLlCnm/6SizGacv5S2JsfjbH2ztD9u3atYv3M0DDI1hj4C7wxqXxFGYXEOB3rRGcyKKq6jbDMC7to1K0LFbuFShgbnOQ6xhjbwA/i0JSNPEHbdreSaFmNUBtWAQws7U71sviIBo0J9RthESavBjuBElJdG+4QZtYJFT0id/L05LWj1Gai3Jxz3Aazi82bNjwnrm5OQjkfpvNpI0bN75yZmYGTbpOEnmkkwBUMbKb7kH9J2DqRrZMxH+tKOCsy2bFPYGBRP7T3ZLQVL7bryBREP/hWS3mNadp2jWNRuPqPmS9tCICwOg1kiS9V5RzYbJ2fEGshOBghQN8yL+hIS5amwXKiF/Xm9x7Pr3cRl0usBTdnNxa4B62W2UU8o9nW0EJaFElM4j/RN7zyIzpdDp9frFY/N2yduo+XtwzUIB3GB0dfVk+n79lobTjy2zb3aUEBg4CBD4LvZkDzvcud9L7SLOBftTzJtStZtgEBZ6GKM3KcIt3zWYBmabVxeetUcBDnAN3cWDVzS0Iv8sXWmp/qR/BXa2Gh4CvvXv3vsOyLHSuG5UkSVqqcH6exuAGdC23odZAM1MXBtcUkMSY3oY81BSKPheg4yJB6zOWVkjT9RMbtm3fk8lk3lIoFLreETEsaYaHhyeq1epPLctCPw6wYBOQdwMcHGo4dGhE7pLnH6x38RjEf5B/3CpDhFoC//koGbjTc27Z6++sECgNy6aLzuspKMCTNE27UNf1z9i27WtCCzvyVsQPQsRhgEfY56+H80R6dko7YX6qmqZ9Y2ho6MpcLrdnJek2Ojp6VKVSuazRaLwRkeCdWAkW46RDwaytPvd7x05puJK06suzvRInpP0oSFPD2ClozE3F+308Hn9btVpFLMtKHvLw8PCby+Xy9YyxsaXwH8WniPFSK/lCq/rZXeY/r1Ik0KYoy/INk5OT1/SiTXcv56DnoAAuGFmWP25Z1rskSRoSW8suBSmLAVz4O9LU2rOHn187KO6i081MMJmh+tED6XT6I8Vi8f5eMm/Ye6fT6TOKxeInGWOnS5LE7f2dvp/3WRThHfFfZ/xHFqsm/7UABa3mxldQuZo3+A8mdaTtwUoVi8U+3K+6GEF8ODY2NpLP56+wLOvvJElKdcJ/3oBVbyB10LOXy+dB9x/0773yz5sthZg273x0wn8i+wr7WU2W5R0L7p3LF5QRuA1CQt/BoGY/QAGyBTZWKpXPWJb1euqgGPb12yHrICsBnhHmnLBjWY3ned0rSwTKh17dcwOqcOgKK4SEP65p2scbjQYqx/WiPe1SpkHVNO2CRqOBXvfHS5KkEF8FCc1WMQXiAIL4K+j7pbzMIF7jV6InqIuhHz8G0Z1oQPMonI9y2kgFvBwJNgNCKymdTh9XLpc/ZlnWayRJGg7Lf37jD0uf9RDsyjd1n50siP/EQHd+H4HgnVh1vEpRKpW6olQq3bea3AbNNdWvRZNOp19ULBavYIy9RpZlbsaNtKx+Ud93T28LYVsuCs/i49khjj8O62l3IpH49Pj4+O0rFUfgR9GJiYnhXC73lnq9/iE3TVHq1FIVVhD3f1YH4Ilh7PsthrlcUIBbCvOYl2X5K4cddtinZ2ZmBq1IjDI0NHRypVL5Z8bYq+DKCsN/y1GKggDvAHBN94awQvznkQlIE3lU07Srx8fHdw56OWNfwNm9WQm8kzw6OnpSsVi81LKs82zbblvpq9XdvFoXmH69aGKB1PU5wSsYvGsHPjG+oyPYxhMExr8IsiUdgtb7EonEx1Kp1J3ZbNZtY7fUUffmOphxK5XKW+v1+ocXtMkjOn2KaMpdVwK3DaHaF/HljOVc7WNARYor8Z6ThNf54W6cOQCCdDr92Xw+jziWpdyq84d3doWaTCZPqVarH2SMncUYGwq6XIyTEM8Nq8Wudfm4XP5DNVday0vhP2EeDFmWH0smk9uGhoZ29KtQWxD/LOX7IJG/lHu2u0YdGxs7YX5+HpXmXr+Qv5mm6Fm/i9otCtrMuj3ItXy/sO6DJgIOkq2O6P39Qnre5ePj4zsGHR0DGJRKpQt0XUdGwh8FzbUf/wVdt26+DytBfLbosPwYQM+sLMu3ZTKZL+RyORSICd2lZgXmSR0aGnpJrVaDcnTOQsri8AqMYe08cjD4D27TB+Lx+NZMJvOT1QwIwuiBvWAeZWRk5KhisXiRZVl/K3YSI02sVTCNaKbx09LCoudevNSg3lPUFFoG0LSuL9B8HS9NPXMEc9l9iUTiE0ccccQDe/bsqQ0qHcRxob1tNpv9y0ajcZmiKC8zTbMpWsgHS7EYvQIF68kV0epdia94Pw1P3pwfn4pKgMuH9kLw3j5VVW8YGxv76szMzMEBtRB4l4WSyWSOLhQKH2CMXQiLAd6nWXI3ZB5hGPcDPXi9ysalrjPxOpF24t8u/SED70am1dTU1G+mp6edEpSr+AiLs7r9itL4+HiqWq2eVy6XL0HwlyzLKpJ4xTiDMIwc5HOLzLzhp05cCGB4/MCSQwLLre8PnQ8/s7Isf13TtM/VajWYawdZO2tFBDWdTm8uFovvg9VKluUMnCWd1L0Iy5/eh0c8GZ4nvRufy6O2bdsQvg8NDw9fVS6X0ZZ7UIIKw76ctGHDhjTiXCzLQgDsRt7jyQPSAZpISaLvOuUf78boBb5hB7zaz/O6Urzu5zBKEzJc3BLdkHczmqbdqmna9aVSKbtKAGngNK4UKGgOLJVKnVitVt9rmua5jLENaHcbRtjSDUhoiCl24vWdLqBAiq2yE9r5FN18bv94Ajd7w6UnBDHMZPOKovw8Ho9/4fDDD//harEO+E0bAhDn5+df22g03s0YO9H183LhHMSHYWJaRP4Lut8qY61QwyU64ncriwBteqIV4HlxMFSAy/lClyRpXywWAyD9fKlUmgk1kAE+KZlM/nG1Wr2MMfYnjLGRhRRuXpa7FUAlHgrDn/TKbeg5wFTp/tCC1h/RlHiR6EY86s4HZCBipn4Zj8e3H3vssfeuBeuASO0VBwXuYDRN0yCY34aStLIsj9u2jbbLiyqAdZ9NojuGpABMZFlJkh5JJpN3LpjcdxSLxdmQ166G06SFYkvHNxqNtzLGzkb/GcYY8sl7uj46Mf+uBiJ2a4wtXDYQBA3btp+TZRm+289Wq9UHuvW8QbjPyMjIWKVSOV/X9TczxrZAQeKtRmSZV+Fc78rNUufIz33Qzq3gBQ+yLMNNBTCA7ki/k2X5rkwm881VEL+yJLL1VOh1OiKUBK3Van9hmuafM8ZeKknSlG3bMOs2G9p4ETJpa+Iki591Yg7udLyr9XwREXtRsfBOMI9VGGMHJEnalUwm700kEjvn5ub2rdb3Dhr35s2b488888xL6/X6eZZlneG2/j7M2+mTeC1I88DzREvNehTuXhqJtBOtA+LfgosAEd15y7Lgntqladq98Xj8nmKxCFPtWjx4vFU+nwcwPVOW5RMty0LrZQQjLpLV7SyAImFEC6qX3usRlHr5T6RJC+AFyxSXgQsuxmlZlh9Mp9P3jI2NTa92C2m7xTNQoMAdqDQ6OjpiGMZLG43G6aZpnmxZ1mbbto9kjAEgxF2Q0HbstPGtd1Dg3ZS8zECuATcmAMWGKpIkzdi2/SRj7LF0Ov1wPB5/MJvN/t9alMI+7xQbHh4+QZKkM6rV6imMsRebpokWzNDewH9ohbuktdNOQ1mL9KVAQnFz8rpUXNcCBDAsUqgGl5Mkaa9pmk8mk8nHVFX9uaIou3K5XH6t+G0D5loeHx+fME3z1Pn5+Ve4Db3QbRZptLBgoSqnb+fPsHy0HkFBG9pQrBRiU7gMlGX5aUVRHlMU5WfJZPLhubk5yECnZeUaPpYk2PpFD2hu2Wz2CMMwjm40GpsMw9jEGIPmttG27THbtlOKoiQty4KrAQsF5jbVtm3Ftm0Ibiwc/OA9kZCP3+I7+/0tvmKnNAJztbqGPuvkft5ELm+n0FbfE3PjN7R9/JiI4ZQkCQxt2ratu4FayBYoI06AMXZQluWZRCJxMB6P75dl+Q+qqu47ePAgvl+vh5xKpcYX8t+ndF0/Wtf1F1iWNY4fNFiCgEaFThcoaC5YEPlOVVVVNgxDdhuCcT50TcLUnKkdX4TllVYJf88rSUGguweTKT6f/ib+w2+YXjkPyrKMRkW6ZVkQvug7C/6CWRZNi7KqqmYTicReTdP2Qihns1lYBQalMmYPSNf+lsiUgexrNBqQgS9sNBqTkH+WZR3uNvmCFYF4UJR1kHdKLBaTF9Jvif/wmSgHSR565WK339OPF9s9Z7l1Jjj/oQca7/lq26IsNCRJAk/VLcsqMcbwg0qY4DW4qJ5NJBL7ZFnerWnavrm5OfDnujnCCp1BIIi0adOmRKFQSKqqOiTL8rAsywnTNDUAAAABHBDCuq4rtVpNrtVqimmaWCi0ELzAwA8ktBLU7WjVSih67+En/OlzP8FKmzzmwG+hiIKYzqdFYCmKYqqqaiYSCSsWizUBgmmauqIoEM5lSZKKlmVVZmZmABTWPBpeAkNLU1NT8Xw+H1cUBWVqwYMJy7JilmWB/1TwH3gNAMAFAfx3vV6XwI+mafoJZQzHj1/E71oNu53wDMODQTKgE+EsAtJFoFRRFCOVSnE+BDgFODBNswH+s227att2eaHnfGV0dLS2lk2zS+A78RJl48aNqISIokewGAybphkHDyqKEhM60QJwNoFovV6Xy+Uy5z1FUfhvNw3XqywFKS5eXgnDezT+TmWqn7wTn9nqnotAKWSfafJeyACmBv6fSCSMZDIJYGBYllUjGQgexE82m4UMXLdANEggLJOHB+byTpBqL2kS9t5+FoIwBF3OtWHuH52zfAr48UFY/ljKCHp573ZgRRTSSxl3dE13KSDyQSue6CWf9PLeQTwY8WFIPur3JIUcVnRaRIGIAhEFIgpEFIgo0G8KRKCg3xSPnhdRIKJARIGIAhEFBpQCESgY0ImJhhVRIKJARIGIAhEF+k2BCBT0m+LR8yIKRBSIKBBRIKLAgFIgAgUDOjHRsCIKRBSIKBBRIKJAvykQgYJ+Uzx6XkSBiAIRBSIKRBQYUApEoGBAJyYaVkSBiAIRBSIKRBToNwUiUNBvikfPiygQUSCiQESBiAIDSoEIFAzoxETDiigQUSCiQESBiAL9pkAECvpN8eh5EQUiCkQUiCgQUWBAKfD/cUbLPt/hzTkAAAAASUVORK5CYII=;" vertex="1" parent="nHaoqEoDhKHUos_NXYBT-1">
          <mxGeometry x="468.11" y="556" width="179.89" height="168.06" as="geometry" />
        </mxCell>
        <mxCell id="nHaoqEoDhKHUos_NXYBT-43" value="" style="strokeWidth=2;html=1;shape=mxgraph.flowchart.annotation_2;align=left;labelPosition=right;pointerEvents=1;rotation=90;" vertex="1" parent="nHaoqEoDhKHUos_NXYBT-1">
          <mxGeometry x="541.45" y="603" width="27" height="109" as="geometry" />
        </mxCell>
        <mxCell id="nHaoqEoDhKHUos_NXYBT-44" value="" style="endArrow=none;html=1;rounded=0;entryX=0.508;entryY=0.498;entryDx=0;entryDy=0;entryPerimeter=0;exitX=1;exitY=0.5;exitDx=0;exitDy=0;exitPerimeter=0;" edge="1" parent="nHaoqEoDhKHUos_NXYBT-1" source="nHaoqEoDhKHUos_NXYBT-43" target="nHaoqEoDhKHUos_NXYBT-43">
          <mxGeometry width="50" height="50" relative="1" as="geometry">
            <mxPoint x="429.44" y="704" as="sourcePoint" />
            <mxPoint x="479.44" y="654" as="targetPoint" />
          </mxGeometry>
        </mxCell>
        <mxCell id="nHaoqEoDhKHUos_NXYBT-45" value="&lt;font style=&quot;font-size: 15px;&quot;&gt;Batch Processing&lt;/font&gt;" style="text;html=1;align=center;verticalAlign=middle;resizable=0;points=[];autosize=1;strokeColor=none;fillColor=none;" vertex="1" parent="nHaoqEoDhKHUos_NXYBT-1">
          <mxGeometry x="487.45" y="712" width="135" height="30" as="geometry" />
        </mxCell>
        <mxCell id="nHaoqEoDhKHUos_NXYBT-46" value="" style="endArrow=classic;html=1;rounded=0;" edge="1" parent="nHaoqEoDhKHUos_NXYBT-1">
          <mxGeometry width="50" height="50" relative="1" as="geometry">
            <mxPoint x="554.5503555332998" y="505" as="sourcePoint" />
            <mxPoint x="554.45" y="568" as="targetPoint" />
          </mxGeometry>
        </mxCell>
        <mxCell id="nHaoqEoDhKHUos_NXYBT-47" value="&lt;h2&gt;&lt;b&gt;&lt;font style=&quot;font-size: 19px;&quot;&gt;Spark&lt;/font&gt;&lt;/b&gt;&lt;/h2&gt;" style="text;html=1;align=center;verticalAlign=middle;resizable=0;points=[];autosize=1;strokeColor=none;fillColor=none;" vertex="1" parent="nHaoqEoDhKHUos_NXYBT-1">
          <mxGeometry x="447" y="556" width="71" height="65" as="geometry" />
        </mxCell>
        <mxCell id="nHaoqEoDhKHUos_NXYBT-59" value="&lt;font style=&quot;font-size: 16px;&quot;&gt;&lt;b&gt;Visualization Layer&lt;/b&gt;&lt;/font&gt;" style="rounded=1;whiteSpace=wrap;html=1;rotation=-90;" vertex="1" parent="nHaoqEoDhKHUos_NXYBT-1">
          <mxGeometry x="84.1" y="973" width="120.55" height="60" as="geometry" />
        </mxCell>
        <mxCell id="nHaoqEoDhKHUos_NXYBT-60" value="&lt;font size=&quot;1&quot; style=&quot;&quot;&gt;&lt;b style=&quot;font-size: 16px;&quot;&gt;Data Storage &amp;amp; Batch Processing&lt;/b&gt;&lt;/font&gt;" style="rounded=1;whiteSpace=wrap;html=1;rotation=-90;" vertex="1" parent="nHaoqEoDhKHUos_NXYBT-1">
          <mxGeometry x="-39.5" y="695.5" width="367.75" height="60" as="geometry" />
        </mxCell>
        <mxCell id="nHaoqEoDhKHUos_NXYBT-61" value="&lt;font size=&quot;1&quot; style=&quot;&quot;&gt;&lt;b style=&quot;font-size: 16px;&quot;&gt;Stream Processing Layer&lt;/b&gt;&lt;/font&gt;" style="rounded=1;whiteSpace=wrap;html=1;rotation=90;" vertex="1" parent="nHaoqEoDhKHUos_NXYBT-1">
          <mxGeometry x="626.54" y="409" width="220.75" height="60" as="geometry" />
        </mxCell>
        <mxCell id="nHaoqEoDhKHUos_NXYBT-63" value="&lt;font size=&quot;1&quot; style=&quot;&quot;&gt;&lt;b style=&quot;font-size: 18px;&quot;&gt;Data Ingestion Layer&lt;/b&gt;&lt;/font&gt;" style="rounded=1;whiteSpace=wrap;html=1;rotation=90;" vertex="1" parent="nHaoqEoDhKHUos_NXYBT-1">
          <mxGeometry x="616" y="154" width="241.84" height="60" as="geometry" />
        </mxCell>
        <mxCell id="ikpb7p8lZezVHyEl-Faz-17" style="edgeStyle=orthogonalEdgeStyle;rounded=0;orthogonalLoop=1;jettySize=auto;html=1;" edge="1" parent="nHaoqEoDhKHUos_NXYBT-1" source="nHaoqEoDhKHUos_NXYBT-64" target="ikpb7p8lZezVHyEl-Faz-7">
          <mxGeometry relative="1" as="geometry" />
        </mxCell>
        <mxCell id="nHaoqEoDhKHUos_NXYBT-64" value="&lt;font size=&quot;1&quot; style=&quot;&quot;&gt;&lt;b style=&quot;font-size: 16px;&quot;&gt;Dataset&lt;/b&gt;&lt;/font&gt;" style="rounded=1;whiteSpace=wrap;html=1;rotation=0;" vertex="1" parent="nHaoqEoDhKHUos_NXYBT-1">
          <mxGeometry x="112.25" y="154" width="137.5" height="32" as="geometry" />
        </mxCell>
        <mxCell id="nHaoqEoDhKHUos_NXYBT-65" value="" style="strokeWidth=2;html=1;shape=mxgraph.flowchart.annotation_2;align=left;labelPosition=right;pointerEvents=1;rotation=90;" vertex="1" parent="nHaoqEoDhKHUos_NXYBT-1">
          <mxGeometry x="507.11" y="574" width="95.67" height="429.48" as="geometry" />
        </mxCell>
        <mxCell id="nHaoqEoDhKHUos_NXYBT-57" value="" style="shape=image;html=1;verticalAlign=top;verticalLabelPosition=bottom;labelBackgroundColor=#ffffff;imageAspect=0;aspect=fixed;image=https://cdn3.iconfinder.com/data/icons/fintech-icon/128/11_Data_Visualization-128.png" vertex="1" parent="nHaoqEoDhKHUos_NXYBT-1">
          <mxGeometry x="726.64" y="989.48" width="88" height="88" as="geometry" />
        </mxCell>
        <mxCell id="y1na72mNlxt0jItL9QlB-0" value="" style="image;aspect=fixed;perimeter=ellipsePerimeter;html=1;align=center;shadow=0;dashed=0;spacingTop=3;image=img/lib/active_directory/database_partition_2.svg;" vertex="1" parent="nHaoqEoDhKHUos_NXYBT-1">
          <mxGeometry x="738" y="835" width="70.27" height="52" as="geometry" />
        </mxCell>
        <mxCell id="y1na72mNlxt0jItL9QlB-1" value="&lt;h2&gt;&lt;font style=&quot;&quot;&gt;&lt;span style=&quot;font-weight: bold; font-size: 16px;&quot;&gt;Influx DB&lt;/span&gt;&lt;/font&gt;&lt;/h2&gt;" style="text;html=1;align=center;verticalAlign=middle;resizable=0;points=[];autosize=1;strokeColor=none;fillColor=none;" vertex="1" parent="nHaoqEoDhKHUos_NXYBT-1">
          <mxGeometry x="729.64" y="875" width="88" height="63" as="geometry" />
        </mxCell>
        <mxCell id="y1na72mNlxt0jItL9QlB-2" value="" style="endArrow=classic;html=1;rounded=0;entryX=0.5;entryY=0;entryDx=0;entryDy=0;" edge="1" parent="nHaoqEoDhKHUos_NXYBT-1" target="nHaoqEoDhKHUos_NXYBT-57">
          <mxGeometry width="50" height="50" relative="1" as="geometry">
            <mxPoint x="771" y="926" as="sourcePoint" />
            <mxPoint x="773" y="983" as="targetPoint" />
          </mxGeometry>
        </mxCell>
        <mxCell id="y1na72mNlxt0jItL9QlB-3" value="" style="swimlane;startSize=0;shadow=0;rounded=1;glass=1;" vertex="1" parent="nHaoqEoDhKHUos_NXYBT-1">
          <mxGeometry x="243" y="839" width="257" height="123.63" as="geometry" />
        </mxCell>
        <mxCell id="y1na72mNlxt0jItL9QlB-6" value="" style="endArrow=classic;html=1;rounded=0;textDirection=rtl;" edge="1" parent="y1na72mNlxt0jItL9QlB-3">
          <mxGeometry width="50" height="50" relative="1" as="geometry">
            <mxPoint x="97" y="68.88" as="sourcePoint" />
            <mxPoint x="150" y="69.88" as="targetPoint" />
          </mxGeometry>
        </mxCell>
        <mxCell id="y1na72mNlxt0jItL9QlB-8" value="Elasticsearch" style="text;html=1;align=center;verticalAlign=middle;resizable=0;points=[];autosize=1;strokeColor=none;fillColor=none;" vertex="1" parent="y1na72mNlxt0jItL9QlB-3">
          <mxGeometry x="154.5" y="97" width="89" height="26" as="geometry" />
        </mxCell>
        <mxCell id="y1na72mNlxt0jItL9QlB-10" value="" style="image;aspect=fixed;html=1;points=[];align=center;fontSize=12;image=img/lib/azure2/management_governance/Activity_Log.svg;" vertex="1" parent="y1na72mNlxt0jItL9QlB-3">
          <mxGeometry x="33" y="41.129999999999995" width="47.22" height="56.5" as="geometry" />
        </mxCell>
        <mxCell id="6ugn1gcCZ4xOyWBbLBkY-0" value="" style="outlineConnect=0;dashed=0;verticalLabelPosition=bottom;verticalAlign=top;align=center;html=1;shape=mxgraph.aws3.elasticsearch_service;fillColor=#F58534;gradientColor=none;" vertex="1" parent="y1na72mNlxt0jItL9QlB-3">
          <mxGeometry x="167.5" y="39.00000000000001" width="63" height="60.75" as="geometry" />
        </mxCell>
        <mxCell id="6ugn1gcCZ4xOyWBbLBkY-1" value="Logstash" style="text;html=1;align=center;verticalAlign=middle;resizable=0;points=[];autosize=1;strokeColor=none;fillColor=none;" vertex="1" parent="y1na72mNlxt0jItL9QlB-3">
          <mxGeometry x="21" y="97.63" width="67" height="26" as="geometry" />
        </mxCell>
        <mxCell id="6ugn1gcCZ4xOyWBbLBkY-2" value="&lt;h2&gt;&lt;b&gt;&lt;font style=&quot;font-size: 19px;&quot;&gt;ELK&lt;/font&gt;&lt;/b&gt;&lt;/h2&gt;" style="text;html=1;align=center;verticalAlign=middle;resizable=0;points=[];autosize=1;strokeColor=none;fillColor=none;" vertex="1" parent="y1na72mNlxt0jItL9QlB-3">
          <mxGeometry x="100.5" y="-14" width="56" height="65" as="geometry" />
        </mxCell>
        <mxCell id="y1na72mNlxt0jItL9QlB-9" value="" style="shape=image;html=1;verticalAlign=top;verticalLabelPosition=bottom;labelBackgroundColor=#ffffff;imageAspect=0;aspect=fixed;image=https://cdn3.iconfinder.com/data/icons/fintech-icon/128/11_Data_Visualization-128.png" vertex="1" parent="nHaoqEoDhKHUos_NXYBT-1">
          <mxGeometry x="321" y="995" width="88" height="88" as="geometry" />
        </mxCell>
        <mxCell id="6ugn1gcCZ4xOyWBbLBkY-3" value="" style="endArrow=classic;html=1;rounded=0;textDirection=rtl;" edge="1" parent="nHaoqEoDhKHUos_NXYBT-1">
          <mxGeometry width="50" height="50" relative="1" as="geometry">
            <mxPoint x="365.38" y="961.48" as="sourcePoint" />
            <mxPoint x="365.38" y="1003.48" as="targetPoint" />
          </mxGeometry>
        </mxCell>
        <mxCell id="6ugn1gcCZ4xOyWBbLBkY-4" value="Visualization" style="text;html=1;align=center;verticalAlign=middle;resizable=0;points=[];autosize=1;strokeColor=none;fillColor=none;" vertex="1" parent="nHaoqEoDhKHUos_NXYBT-1">
          <mxGeometry x="322.5" y="1068" width="85" height="26" as="geometry" />
        </mxCell>
        <mxCell id="6ugn1gcCZ4xOyWBbLBkY-5" value="Visualization" style="text;html=1;align=center;verticalAlign=middle;resizable=0;points=[];autosize=1;strokeColor=none;fillColor=none;" vertex="1" parent="nHaoqEoDhKHUos_NXYBT-1">
          <mxGeometry x="730.64" y="1063.48" width="85" height="26" as="geometry" />
        </mxCell>
        <mxCell id="6ugn1gcCZ4xOyWBbLBkY-6" value="&lt;h2&gt;&lt;b&gt;&lt;font style=&quot;font-size: 19px;&quot;&gt;Kibana&lt;/font&gt;&lt;/b&gt;&lt;/h2&gt;" style="text;html=1;align=center;verticalAlign=middle;resizable=0;points=[];autosize=1;strokeColor=none;fillColor=none;" vertex="1" parent="nHaoqEoDhKHUos_NXYBT-1">
          <mxGeometry x="254.5" y="1000.98" width="81" height="65" as="geometry" />
        </mxCell>
        <mxCell id="6ugn1gcCZ4xOyWBbLBkY-7" value="&lt;h2&gt;&lt;b&gt;&lt;font style=&quot;font-size: 19px;&quot;&gt;Grafana&lt;/font&gt;&lt;/b&gt;&lt;/h2&gt;" style="text;html=1;align=center;verticalAlign=middle;resizable=0;points=[];autosize=1;strokeColor=none;fillColor=none;" vertex="1" parent="nHaoqEoDhKHUos_NXYBT-1">
          <mxGeometry x="653" y="1000.98" width="90" height="65" as="geometry" />
        </mxCell>
        <mxCell id="ikpb7p8lZezVHyEl-Faz-1" value="&lt;font size=&quot;1&quot; style=&quot;&quot;&gt;&lt;b style=&quot;font-size: 16px;&quot;&gt;Consumer 1&lt;/b&gt;&lt;/font&gt;" style="rounded=1;whiteSpace=wrap;html=1;rotation=0;" vertex="1" parent="nHaoqEoDhKHUos_NXYBT-1">
          <mxGeometry x="365.38" y="756" width="137.5" height="32" as="geometry" />
        </mxCell>
        <mxCell id="ikpb7p8lZezVHyEl-Faz-2" value="&lt;font size=&quot;1&quot; style=&quot;&quot;&gt;&lt;b style=&quot;font-size: 16px;&quot;&gt;Consumer 2&lt;/b&gt;&lt;/font&gt;" style="rounded=1;whiteSpace=wrap;html=1;rotation=0;" vertex="1" parent="nHaoqEoDhKHUos_NXYBT-1">
          <mxGeometry x="609" y="756" width="137.5" height="32" as="geometry" />
        </mxCell>
        <mxCell id="ikpb7p8lZezVHyEl-Faz-5" value="" style="shape=image;verticalLabelPosition=bottom;labelBackgroundColor=default;verticalAlign=top;aspect=fixed;imageAspect=0;image=data:image/png,iVBORw0KGgoAAAANSUhEUgAAAS8AAACmCAYAAACLFgl8AAAAAXNSR0IArs4c6QAAIABJREFUeF7tnQeUVUXW7/9VJ9/YgRwkZ8GEIqKIwJjQYVRMBLOigmBEMecsiGDWcURkzKIiiogoCBhAlIxkQVI3TfeNJ9dbdXq+92a+52gHpO+FapdLF12natdvl3/r1Nm1N4H4EQQEAUEgDwmQPLRZmCwICAKCAIR4iUUgCAgCeUlAiFdeuk0YLQgIAkK8xBoQBASBvCQgxCsv3SaMFgQEASFeYg0IAoJAXhIQ4pWXbhNGCwKCgBAvsQYEAUEgLwkI8cpLtwmjBQFBQIiXWAOCgCCQlwSEeOWl24TRgoAgIMRLrAFBQBDISwJCvPLSbcJoQUAQEOIl1oAgIAjkJQEhXnnpNmG0ICAICPESa0AQEATykoAQr7x0mzBaEBAEhHiJNSAICAJ5SUCIV166TRgtCAgCQrzEGhAEBIG8JCDEKy/dJowWBAQBIV5iDQgCgkBeEhDilZduE0YLAoKAEC+xBgQBQSAvCQjxyku3CaMFAUFAiJdYA4KAIJCXBIR45aXbhNGCgCAgxEusgSoTmMOY7C9Gt/Ub0SlZbrYFUU14VI0XYlPbzljd52DyfZU7Ew0FgVoSEOJVS4AHwuMzF7IeM2b8/ODixev6pjMU0Wh9qKoOx3Zh2y6MkIpMZgc87MHRPdt88Ne/HfH4Xw4lXx8IbMQc646AEK+6Y5/zI3+9mjUZ/+jcOeW79fZmNoxwuCEkRYNpW3C9DCSVgTEXlErMs6mvyorkuyYqEr/gkEMarx52afszTuhGVuf8RIWBeUlAiFdeuu3PN/ql9zLXPfvsx+OKoh3A/CJ4XhSMaWDEBaEufOoBxAXggxAJcDQAFJJE4PsZ2E4JwLZj8LCjbxg5ODLuz7dYjHCgERDidaB5vArzHfvk5ue+mLVluCo3DVrLkgbHlKCHDNhOEqoqw3YpmE9BmQpZlmG5FlyWgR7y4DgWJBig8JDNbsfRx9R/ecIdrS+rwtCiiSBQZQJCvKqM6sBoeNcz65+dOXPrlQrpBFmOg7EUJMLg2hJkCfBYAulsBkVFLZFM2FCJBkWRuEyB6A6yTjkIIfDsCHTFAGwLjrsRpw5o+sRtI5rceGBQFLPcFwSEeO0Lynkyxluz2ID7H/poeoN63ZFM6ND0GHw/AUUicLMSKGWIFTIkEgkwv8DT1KgP15KyToLy8y8qM9g+A6UyZMmAa3uQQOBY5XCtXzH6xqPPHTyAvJUnOISZOU5AiFeOO2hfmbdxDyu49KIv9zD5IHh+AQgLw/cAVWEgcCH5MjyvwsnYG2UQh5imBOZLCOsUpmN58YIim0mGwbwCOB6F4zgIhUIgHgXxfSjUgWkvw4uvHRtvV0wS+2peYpz9l4AQr/3Xt9Wa2V2Plr/+xZwtg2W9CB5U+B6BJGmQmQzHToOiAqa9EX1Pavl8735tntUOw4oTCHEXMaYkl+CQTz/bfMXns5Zerkid7HishSopQEVFBTQ5Ckp8EJZEKrMGJ5xc/+kHb+w0slrGicaCwG8QEOIllkVAoGe/L5iuHwzJ0OEThqyZhCZpgEtASQU0fRvuufvYg4/qQlb8N2TzV7BD77l78Zx0IhqmSkSRpTDAFPi+A1U2wUgpHGcDXnjh9PodmpBSgV4QqA0BIV61obefPPvqjNKRL0/aNhF+GxCdgMgeTLMcsYgGN1sBWdmGBx/p3aJ7G/LLH035p62s2fWjPt0Mvz2lUsPg9VGSfUiyC9cqh22W4uIrjrn40rPIP/6oL/F7QeD3CAjxEusDl948++f1K5u3k6W2yDgJUMWDphHY2VI45jbceMvxAwb1JTOqiurdL9kZj94//71QqCMg8fMvC4R6UHkMmJNF+w509vNPtO5f1f5EO0HgtwgI8RLrAicMmsaI1w2mGUGoQEUmm4JMJRCWgES34ot3+1V7nfQfNN9zrOaUyiHYLoGm8VdQD3BtWM5SzJ9Z/T6FqwSBfydQ7UUp8O1/BA7r/y4rjB8Oj8XhwQSlFMzlAailOPGkJo/ddnXBmOrO+tHn2QPTPlh5q6o2gA8NYBSEMWiQUVI2H++91s9o1YqY1e1XtBcE/oeAEK8DfC38tI41uGj49J0F8S4ALYDluFBkFb4jwXM34aqRB58x7FQyrbqY3viEnf3Ek9+8FTJagdEwGHNAPQKVhVGR+BGTXj7yoKPaki3V7Ve0FwSEeIk1EBBY8CNrevOdX20lpCkICkFlBbbLoEJFOrsGN9126ElnH08+qy6uKR+z0555dvFHsto8uBNJJQbiMlDbAMFm3P1YhxbHdfnjDwDVHVe0P3AIiJ3XgePr35zpTztYePjFn6dUuRWoVAQiKcHuS6MyLHsDzj6/2Z3XDSu+r7qYJr3GbnrjzZWPSloxHF+GRAhkRiE5KlKppXj95aML2rQhFdXtV7QXBMTOS6yB/0vgyJM/YGGtC2SlPrKWDUlSQHwGSS5DPL6l4v1X+hRUF9f5w5f/8svWUHNFj8NhAE+VoxIFBg2hZNcCLJ5/ovgfZ3Whivb/QUAsILEgMOz6777bsjF8pCQ1RMYyoWsh+A6DTC2Y6U24/a6ex5zSiyysKqpZi9ixY2/4cl604BB4RIZHXYCmwBwbYRZG08bp9f94vm3bqvYn2gkCv0VAiJdYF3jmzfSVb76+8lnGGgdnXvzVkbkMvmdBISZkebv9yqRjCps0IZk/wrW+jMWvHTV7Z6K8uUZpYziEwiceQiEHmWQJqJPFxRccdt2lg8mTf9SX+L0g8HsEhHiJ9YFF61n8quGflxt6e+hGHCnTAqWAphAw34Jt7UTjRth67/gjDu0UI7v/G7KfdrAG997y3fKK8nh92w+BSFHYDoWqqgCzQVCKbGoFJjxzevOj25Gtews9z63fYCtiFRkYahR7uldBZPfW2KKfuiMgxKvu2OfUyLc8uH3y99+WDbPsGIxwEWzPhutnQeEgHlVRXrYDtrUNV1z1l2u7dlGm9Oj0/0Rs2QbWcMG3u8/9+yszJxREj4JpRSGpChiRg7/5FSEZHhi24bAjMGPCnV0H1GbyjDFp+jyc/uX8n85csuTXYXvKXRCXwjB4IKwF0Cw6dGr2/eGHdXjjqJ5Fb4uQjNrQzt1nhXjlrm/2qWU/bGAtLrv0zU0NinvDdgoAWYHjZqDIGdh2CoYWCg7xU8kKEGoiFLNYQSy+Mlnud9j6S4ncsGFDaEYUyYwHRY2CECM4P6OSB1lxQX0XicRSvPTSgFaHtSKbajK5FYypM//u3vj+O9884NsKIBsw4nH4DGAOz6fPPE2ijFBfdu0MTDMdXDA/of8hnwwYWG/MCYeQ5TUZVzyTmwSEeOWmX+rEqn9MM0c998z3EwhaQFbjkCQJkmwHAqDrOijTkU5SRMMhSHoiuEbE7Bg0NQwfWXjMClJCu74PxyYIhw04XgKykkWifCOGDO15y6hh2iM1mdxnS1ive+96/WvidIGMpgiHimDZNjI8WaKuQKEKHMuG59rBDQFVUv81DIHj70LaXo6/Djz8oTuubnVrTcYXz+QeASFeueeTOrXoxvs2zv7uu5K+itocnmsEtvjMhSTxUhsSQnoBdu4sgxp2gtc0K1t5psWQhG3bCKtFyGRMhMIyMukEDI0Hu25A957xLybd3alfTSY37rXSkW9P/WFiNNQOnheH76pwLRtaRIOvmDDtNBgj0FUDClGC11RuM4ESpORhLAvPL0XIyKJBPXX7fWO6thZXk2riidx6RohXbvmjzq3hr2YPj/5m0ZrVVtfCgg6wLQ2SrMKyU8E5luuqILIEKrmwHBuU6JBlwLRKETPCsDMEhFFomgeCDDKZnWjfKfzTS493PpwQ4ld3gs+/Y478+8tfTZTRFpraAJ7nBTtCRVFgOyZcYoMXL+Jjuq4P3+PxaZVVjAg/aXPlIKOr65TDcxPw7QziBRUlz0w9ukVzQrLVtUe0zx0CQrxyxxc5Ywk/EL/n6Z0vfPjuj5fw3Q6V4uCZUZPpBMKxOLKOC89lUFQDHj9v8m0oig3PyiCshkD/dTbms53ocVz83Ql3HTGoJpN7YxYb+PD9n0wrLjoE/Eq34/pQVBbs8Ag0UKJAUbSg8C0YCf6dfyW1XBs+/7pJVcg0jGSqArphAb4ZvE7KtAIHtXaWv/R41641sUs8kxsEhHjlhh9y0oq3PmNnvPr376eWlrp6LF4Ex5PgMRWqHoVp+qCyDo/5QThFSHfhu+XwnQRcK4GCqIFLLu818KwTyYc1mdyibazeyMveLzHUw6DIDZDIJBGO6LCdDGQC+L4PWZLgWBYoXLj866jrgkgSVC0MKqlwPAXMD0E3VFhuCSQCUN8A8zJIpjbgksuOHTtiMHm4JvaJZ+qegBCvuvdBzlsw9RM2dOqUma+V7GRQldbQQ43gehSW60BSZBDwXU0C6cQGNGjo4pxBvS/telbote6EODWd3FVjNn20Zo11muuHoYbisCz+hkcBX4NEHRCagGPtgER244S+h7/SrkOjOT48q2RnsuPC71YP27Cuom001hqMxOB6DIrmwnE8UC8OXdHh+XtQtmcx3n33tII2ReKOZU39VJfPCfGqS/p5NvaKjazRo4+WLVq9uqKpHolC0TQenoBkcgdO6N3u3cFDyU2HtCQbazutpZtZ66sun79e1dtCD0dQUrY7KHiryQbMFEM44iORWoyhw467buRg9Tcj9Wd9zw574eUln61fb9Zr2LANdleUIx6rh1TC42V0oUgA2BacdFLhc7ddfdBVtbVZPL/vCQjx2vfM83rES67ZtGzrVnKwpOlIp7IghEKie3DGoA7XXjNMn7A3Jnf/06UPffjeqlvC0bbwqQbPZ1AknmPMh0wVpDOrcN9Dh/f8yxHkm98bj5/djbhj65zlSzPHSVIxsg6DqpHgXMxxGDS5Ap77I758/yxKCGF7w3bRx74jIMRr37HeL0a65JpVazZvVtrzT3we4yW0eYm0nTjngjbXDx9UOH5vTLLfWR8zmbaB48XgMAoGGcSXEDFkbNu6ErfdedSZ55xI3q/KWFu2MGPYyPkZ328Jw6gP09sDx7MhSxFQlkKqfDHufeBvp57ak3xSlf5Em9whIMQrd3yRF5ZceeOWVevX046ez2O7FCiQkcn8jHMubHHdqKHFtb5sPW8FO+jGGz7YrOttIcn8mpKLkBFGsjwNiSbRuTPZ+MKjnVtXB9b0BeykRx5Y8ilDA4B6wauolZVBmQnCtuLUAa0njrmycFR1+hRt656AEK+690FeWXDRNWuXr15Du4Sj9eB7MlzTAZW2YNhl7a697Izavza+NZv1fWrcnNmS2hwEEbjMrQyCtX2k0+sx6vpew4aeQqZUF1q/gQtZJNwJZcmKYCenSBEQft/SLUW79v7yF8Z1FGET1YVax+2FeNWxA/Jt+Etu3PTThrVqN6pFkU5nEdN1JJLLMPiilqNGD246sbbz4bnvn3xy/lvxgvYwTQmgKjzbgq4SJFMr8PfnjmvRpQr1I/+3HZeP/uXrNav9XrKhQeYBrjaPwPcBy0TjZlbZ1Jc6FdfWdvH8viUgxGvf8s770S66YdOSdT9Lh/pUgarq/OQbjrcBQy9uM/qqM+s9VdsJ/uMDNuTlF3+YwlAMWY7BhwyZ8GpGFnxvPZ6YeGRB9xqkj77pjuT7339b8TeqKiAqhec5kChPSw00aprZPfn51vVqa7t4ft8SEOK1b3nn/WhDR276ZutWuQfjkaKMBKloMtYGXHhplxEjzo4/U9sJTpnBBj076bu3JbkBJDkcnHkZigHm0GDn9dRzPWuUC+zSUbvmbd6gHMvFy7Sz0I3Ki9yS66Nhk+Se119qV1Rb28Xz+5aAEK99yzuvR1u6mRWOG7f7+7Xrytv4kgRNDUEjIaSzW9H/lKYvnjIwOrZHs/+erLAqk//0G3bC2LGff9GgYRek0wyQAJnIoJ4C09yAG24+4syz+lXtS+O/j3f8gO89Te5A02YaCo+4tyyEDAVuKoXOXeWVzz7RvEtV7BNtcoeAEK/c8UVOWjL/J3bw3HnZi+Z/tfHqXaWWwV+54kUN4DMDmZQH4smQg4j3UqQym9GsWczt26/7hO6HKq8e040sq+6k5vzEmt166+db4tFuSKdkSDKBLEtwzDRAytCuvbzspSc6dqtOv58tYifeccv8meFwB2ghCsd14XmVWWIVP4O+f2nxzNhr9BHV6VO0rXsCQrzq3gc5acG8n1mPf7ww74VVS8u7aUoL6PJB8Pg2SE0h62TB/EIociTYFTl2BpJkQyIWXDeJdHoHZDmLtu0L1g++5KhLTjqczK3qJHlWi5Fnfm8BTcD8CAiR/hVUmoau2NhT9jNuuKXf3847mXxQlT4ZY/Ip53+aTiabqhItggcnyEhhOT5iYRnJstW49fYTTjutN/m4Kv2JNrlDQIhX7vgiJyxZsocVTH5qy+SFC9adrshF0LUIfH4h21XBCAFVXBDKU+PE4HsUlDiQJAaJAq7rgBIGQm0wPwVF8bC79Bcc06vdnJvGtB7UPE7Kfm+S85azQyaOWztj506piccjyJRwkEbaztowNB2ADVXOoKx8KR4bf2q34/9gZ8cYI6Nu2z1/4Te7esYLCyErGlJZLrQKNEmDZW2HY67AgplnSTVJ15MTDjuAjRDidQA7/39PfeYSdswjD8yan0kXg7lxFBQ0hGVng50Pz4/FM5SaTgYEKnw/AuZLUGQXnm8FXfF7jvxHUSgIXJhWBoYcgu2UwKc/4+ab/9b7tGPJvN9C/sLUzDWvvjrnKUraQJHrQdJJkLHCtBhCoViQfNC2sohGDLjeNjhYjYsvOfmqi0/Xn/ut/hZuYp0mjv/q7XUr63XhaX1cmoEPCzLPNmFaQbLCsJFAr2PDU+++tuUQsQzyj4AQr/zz2Z9i8duz2JkPPvDpu8X1+M0fHsApI5WxoSrhIAEgYTZA3OCVi4sWQQjMBzzfBr8W6FN+4dkP8mjxf8qyDubzXKYyPC8DSlIwzc0YNbr/sHP/LciUX/Z+5Ikfv9q8zm2vak0gSVFYjgdZ82HaFlQtWpm/i/rBKyo8FVmzAoXFHnbsWI14SEa//r1ebttGmcuATHkFWn/zzeoLl65e2bmgoAU8pyFUrRiZTAaKIgUCyzwbkZCELVvn4R+Tz6hR6MWf4gTRabUICPGqFq79s/GrH7FBzz/99duy3DLI0WV7PiSFBqmVmceT90mQJQeWnUZI15DJ8AyqGlRFh+NaoDKB57mA7FeeT3kuCNMrz6vA4NoWwroGzy1HJrMJV1/V58JhZ5LJb89iA598fPo0XW8N3ykK4rp4RL0PB7LC4PpOIJS87pCmabBMFzLC0DQFyXQJwuHgXRW2lYTr8UviBJKsg0gyiESDZIQ+NNiWD0MPwfMYPJshpHvYU7EcQ4Z0f/Dai8O37Z9e3f9nJcRr//fx787w8+/YkWNv/vy7WKwtIMWCLKmqpiNj2VBkDcwFVIVCIjZch5dCkwJR8n1AkVU4rh0U3eCpmHlBDFAFVNZgmzwdM6k8/2JWUN3H0CQwNwnLLEOXzi2/WLX6576K3hi+H4brSIFA+cSG51lBckGfMXi+i0g4HqRz5vs4lyeSJj5UlcK00kFtSZ6EED6/IC4FosWYB4+4QaZVz1OgSDIsOwOFqmCWDkkqQbPWO9ZMfqpHxwPc/Xk9fSFeee2+2hnPMy5cdPXCDMhBANVBZBUerwNkWjDC8cp6i4RndDDheUnoGgU8E7adAZUYMpkUIpEIyhNJhI0iqEYBHEcDA0/2R8DggUoOZF68w7XBk86osgIrk0BBLIzyRKryGZcHvFJIso90thThiOc73h56cLc2M1q1rT/3jde/fNiQW0FT6wfCxANX+Q7PJz4YrOBVliIM32VBuTbehu/CKJUBJgXR9DpPhcNceJYNXS/ByxOPCFelAnjtCIun/0wCQrz+TLo53vdtD62b+uWXyfNVtSX41okRHxk7DVXXgsvQ/JzIkDW4dhKKbGFP+UYUFTIc26fbc81aFC+lMLPpbFZLVPhHfb9w3SXbtzPoWgvIcgEUTUbG5OdftPIMTLLg+y4USQfzfLi2DVnlqZpdgChgHoFhqHD9Ei+ZWS5dMeLYsy8/vfgdjvDpd3dePemxH55u0ew4JNPJwD6eR8xyTfiyGXw9ZF6YH8CBUp5PXwFhITAH/KUVDp+TypDN/IKWrcivDz9yZNcWBWRPjrtHmPcHBIR4HaBLZM63rPstY9/5Phw9DAz1KisEuQ50XQYoQWnJLtQv5mXGkrDNErRsZay64OJOw/sf8dtfCznGj+aznu+8+cvzK1ds7xqJNgSgg1ADpmlCN3gIBZDN2AgbMXDN4l8vPd+EzyxoKnVLdm2QOx/caMPV17Xr2ast2fXvrpn9Izvq/ru+/9a0POihOBRaBEZl2IxX9iaAq1W+OlITEr8L6fEPCi4YScAwLKTS29GvX6en772hwcgD1OX73bSFeO13Lq3ahC677qdZmzbY/V0Sg6YXI53y4Hj8fCsUfJEL6SoscycSidW47Ir+14wYIk2qWs/ApH+mR7zy4txJ9Yo6weFnVRJPXMhLlpHK3ZweA/xo8BXTMDweme+ls+ukyy4dcP2I8/X/mtCQv+a++9Wuq6e9+/Xju3cZqFfUAUQpCM7LCJOgKQokasOxTdgWL72Whku2oGOXyPxzLux+5UmiYnZVXZgX7YR45YWb9q6RC7awotuumrdbU9vA9N2gfBmVwlAVA7btw3OyCOkMJSXLcPe9/QYOPL76FYA+Xcj6jx07Y1ZIb4GCwiaoSGSCQ32qsuBLpZ3lB+f8AH83YgWJ0jvu7nL80e3IyqrO9N3P2aC5X+0657tFa87mFY0kn8B3LbhOBtGIjg4d2v/UqWPj947ujX8e3ZmsrWq/ol3+EBDilT++2muWjp+859oZ7+wan8kUQQ1pIGrl2VAmm0JIDcGyd4PSXRg85NgxV59HHqvpwONeTt3w4fsbHtfVlkhlnUC8ZMODzwhcW4fMXxvtXThvcMuRI4eSp2s6ziLGFH8Tgnxc4TBSXRqQVE37Es/lDwEhXvnjq71m6QWjv13+87J4l8LCDjD5bgVZMNhQeBQ94UGlO1FYf1fi/RePj9d20LMuWLWxrLSgGZFiMlVkZJzyIC4s+DroOSBeAq1bZ9e9OrFDu9qOJZ4/sAgI8Tqw/M3Ps6Rep81wQ9JR8FhBcG2GUJ5lwYGhGvBthorkatx+T48zzuhNptUWz7TZ7PSH71/yYSTSmnlEIYxa4LnAmC8HXx01WlnG7JnP+qm1qfNYWzvF8/lHQIhX/vmsVhYvWMM6Xj9q1ipD6wbwgqzIQpIRhBkQxoOnKDz2M+ZO77HX1sYp53zLzExjxkic8IvdQZwWUYIwCsnzkM4ux+OTeh/SuyNZWqvJiYcPKAJ7bYEeUNTyeLLTvmKnPvzgnI91ow0ICcNl/B4iD0QlcB0LEnXRuFly7tSnOx2/t6Z56ZjvZmxYEzqFV++RFB+mw0uPhQB+HZIHndrrcMOtR508qLcyc2+NKfrZ/wkI8dr/ffwfM+T3GF945uu31VAjMGbAYzytjcov/QQhBpLkoE+fRhPvvk7fa6XA7p60esLc2fYoxhpWvqIyfncyBCfrBEVkPX8jLris7TmXDSx4+wBzh5huLQgI8aoFvHx89JX32UUvvjj/FT1cD76vBheoXdcPotL5zoufQ/31jBYP3HQZuX1vzW/c5G23T3ur5D5JagEqWcGFa0WpvDAtEQ2OvxFDLjzo0qsGFf99b40p+tn/CQjx2v99/B8znPIxO23SxLkfhaINg50XYSochwUZIjzXhWOZ6NmrePLjd4Qv3Fto7p648fnPpieu0LRWkFUPlsNT5KigfNdlA7a/AcNHtDv3ogHRt/bWmKKf/Z+AEK/938f/McPpX7MT7rt/9hfhSGt4rh6ICM+UKlMdvu/D90wU1tu5atqrnTvvLTTnXPXN6l1bCzuA8GtICHLIU8aDVBX4roesswK33tWjz1+PIV/trTFFP/s/ASFe+7+P/2OGvMDF2LEzt4T0LrCtcHBlh4uIZ1emlJEkC8n0jxj3cu/iY5r/ftrmqqBbsYtFhpzzYbJpw6ORyvAQe78yzxfj2VgBWWJIm8vw6BPHtDiuC/mlKn2KNoIAJyDE6wBbBzyv+3EDP/AN+VhY2Sj0EIFtZ4NEfYrKg1RtpDJrcP6F3W4YPTg2rrZ4nnrNu+qD91Y9Y9sx6HoBTNsMMlaYGROKwlPWeJCVLfj8ve5iLdYW9gH2vFgwB5jD+XSvuu2nGWuW1jvFcxrB8ZMweEZS4sBx/hXzRRLwvM2Y9OrJRd1qkTpmdQmLjhr5dSJZVoRovDksm+fbyiIWi1Z+HGAemGOjYxd94TMPFx9zALpCTLkWBIR41QJevj469TN2/hP3L55aHD8MaoiipGwrIoWA7ztwHRKkfTbTZeh2aOGc5x9t0bem8xx517KPf/gufaqmtYGixGHx/F6EJyj04NgpyAqFm7Vw9uDWo0ZfSCbWZByeA78iifrJFKLMQ0iOoCIexu4j25MNNelPPJM/BIR45Y+v9qqlx58yl2lqZ9gehQ8XatiGaWagqVFYpo+iaH38uu1HHNc3+s6Td3Y6u7qDj3lo4z++/nrThZFIe/heFFmTBfm7dJXCDuo+ukEuen6/kUo7cdGl3c4fcgp5oyrj8FsCi78rvXTWZz+N2LbZMVS1AJoGuL4dZHflu8gGjaJo2iz65ZlnHfnoqT3JJ1XpV7TJLwJCvPLLX3vN2nuf3DHhk+nrRslq6+AsykMWnu/AYwQqNYI6jYpkI5tdi/YdI9+MuK79md1bku1/ZMB3G1mjFyet+2DtmuxRRCqC7QGyGgq+ZPIkh8xzIUGCJoeDNNOuZ4KxFAjK0P3I+jOuv+ygQc2bk+xvjTN/LWvz3j93Pjd37rL+PIc9j9LX1MYwLQnE5xWHeK1HXpPDh+swUAbYdgKxuIXzhh6ZbMFzAAAYUElEQVQ+7MKBZMof2S9+nz8EhHjlj6/2qqVr17LYiLGfVjDvYNhOPKjYo4YUZNJZaJoBz+K1F30YqousuQO2sxUnn3rEU737Fr3Q91Cy4n8bM38lO/jLzzNXfvrpNyMoaQBZaQifqfD4CqOVWVR5iTReXZuHZ2jUQDZjQQ9pwauklUkCbDfCkVLcNLZf7/+dsfXpt9NXv/r32U8zpwXq1zsIprUnEEPPDQeXvHlRDkL4q68bfMWUSBiaEkI6mUE87qE8sRjtOtNVd47t06dto//M0rpXwYrO9hkBIV77DHXuDTTp9ZIrXp+8+flQqD0czwoKWnDhSmdT0FQ52LkQj0FXZVhmEo6VhqLyi9sJtGpV8G2sWN9dUZaqv21bxZHJMjkIeq3fsCFM20HW9qCoIVA1gnTWCmo+qjwVDrHA4IO6MiiP8yI0SBMd0SV4lskr1yKR2IQhF/e6+7qLpXs4tVH3rn392wV7BoeNg0Aor2zEU0fbiMVisB0Gj9dihBMU5SCUVRa/dSl8lyCsh2Bls9BkF66/K/gQMe7J09sd0Zasyz2PCIuqQ0CIV3Vo7Ydth1y1bNm27aGDGTRQagSpoHllIFALhDnwHQKV10J0dXgege8RqBqvC7Q7yD1PwVPb6DC0eoFouV4GaliFaWchqzpshwbl0BQJ8Nw0JCkD5mbg2hnooQJYtgFFjYDx+o/8hdLnRW6T8OgWNGiibWjRouWSBQtXnUVxEBSlHrJmOUJRLUjhw4vRBhWCJC5afvBnlSLGd4385VSCY7mIhqJIlmcRj0pwvG3wvE0Y/+Rp7Q9rIzKs5vOSFuKVz97bC7av3c1i11z5RUU6VQRDbwaPhYMqQr6cgOulofJQLF8F9Qrhu0plOTQNkJRMcPBOfA0y1YLdDpWkoIYiUWV4Pj+gl+ExKUhy6NpZKJIJ3ylBSLfcU0486oG33/30LknpbFNST1VUCdlgh6TA9rMgUga+b8OyfURj9eFYMhyPBrUd+YcFXiaNVyVirgRdMwK7/CBmzAP/i6fc4YXRJP5q6Xngua4Vmf95BRy3FCE9a014o2+8HSHWXsAouqgDAkK86gB6rg25ZCNrOWrE9I06//roFMB2gHCMwkEGhJnweXUeLwZVjgZFYCk/FOd/7jlQiBYUdTVNKzhzUrTKKkSZrAnDCMOyHGiaBIVacJydnuTvkCY8flLrQzqSjQsXs073PLhwpWkVwLZ4Be4IVEOHw1PzKAh2epSGgj747kpRpOAVMxo2YFm8diQvNptF1kwFh/SyTIPXSVlSYRjF/9r1yUExjlAoAsZrTjplKIiqKNu9Eyef1PGlu28suDzX/CHsqRoBIV5V47Tft1q0iTW+a+zCbWWlxYhFWwVnSY5nQpad4LyK+RIkRQ52OKC8GhCgSBS2mYZhGKAsVPkaJ/FyY17wDFVUyNSAbSVh29sQjydx2z292xz3bzFYPP/8++NXPz1n1vbLY5G2vusplDGCrJUGlVSocnEQH8ZvAvCdIJFMEHgws/wVsRztO0lr+vTudn+TpvpKTUXGNNF07rytZ3yzYMOIdMZAJNQqqMjN1Y9fhcpmShAJG/AcH3t2L8GzL/Tv0KMT+Xm/d/B+OEEhXvuhU2s6JR4RP+GJrVMXL9pxWlFh+6CkWPBqxiPhYcMHL18mwedVqJkchD8omg/XsiGTypJpzHcgyfz1jd9ZrAiSG2atEnTt1mjB6Os7nXhII5L+Lfvens1OHD/u05nMre/FC5pJlu1B02LIZvhXRAIqcTtSkOQkMmapU1ykuxdf0b3fmb3Iwt/qb9E2Fnrtpe1TFs7fckYs0gaOrcPxGXSDwMykoMhhUGxH9x7+tMdu63hGTZmJ5+qOgBCvumOfsyO/OsMd9PSET94mbiOoUr0gniocU5E205AUCZbtQDPiwfkWFzB+LgbmwnM8SFAgUwLHS8Dih+NYj6tHnz142ImRf/7RhH/awRpMeHzttNUrsz0VqQkY70snMNMpKIoOhfJTrBKPSVul8ZP+EvlvQvjv49wzqWLShx/8OCIW7hic5xHFCQSZx4Fpchp25kc8/cpfq9TXH9kvfr9vCQjx2re882Y0foH7hTdwzYfvfz8hmfTAK/9YFoOqFYJBhaZHkUiZkCUFqsJg2aUIa4CZzSCbKkGTpjHn5AFHjLl6qP5kdSbNXyOvP+OnFPGaqooSC6oNRUIqXAuwrDLA34Q77+/b9aQjyfKq9nvJTctWrFpGO8dirZF2kqAKhSyrSO7+FbK/A9df12fo2aeS16van2iXGwSEeOWGH3Laio/nsR4/Lt96yvoNiWGb1/utbScWvNLZrgSJ6gBLwzQ3o01bY3uHjtGpxx/f+P3eB5P5NZnUnCWs5Q03fbWxQf3DUF7uQdN5NWwPNOhsO7p09adNvK9rtV7zPv+B9bz15oULVKUNlJCCVCYJSVVQENXhJktx9NHFb9x/S/H5NbFXPFN3BIR41R37vBz5lke8yd99u21YJgOEIsXBlzzP24M+JzR/66GbyLm1ndQ7X7BTx49f9DFY42CXx2O3uHgFr6XuBtx069EnDjyWzKruOH85azEDa4OMlYERiyCbTYP6HlTGcFBLe+0rE9u0r26fon3dEhDiVbf88270Wx+reHXe3C0XKHI9eD4vX8bAyC52VM/Ym4/f3KzWu5fXPmJDnn160RQjwr94SvB8E/FoGNlkGpazGhOe7dP4qFZkR3XBjR67e/aSJWZf2VAgySrKyxMoKihEJlGBFq3s0inPta5f3T5F+7olIMSrbvnn3ei3P1b66ldzd1wgS8XBV0dCeUjor+yonqG3nhjT+bzaTmjKdDZ00sSFr4XCLeF4WlAqzbMtyFCRNVfh7Zd7h/7bxe3fG3vUbbs+XrXMO9Vh/K6lhJARQXl5OSK6hqL6JaVvvNhRiFdtnbePnxfitY+B5/twtz+WmDzvq+3DqFwAn/EgUpuLF448Wn/ziZsPqbV4vTOLnfPE+Nlv8mIdjIWD+5bUlyHBQEXFj3j2lWNrtPO6eszWH1atcA9zPQpV51kuEAS1ulYCDZsmy954oWtxvvvmQLNfiNeB5vFazvf2RzJT5s3dPkRS44F4gVkg9Fcc2Sv05qM3dqm1ePHD9dtu/WBBKNwVzI+A8dvhLgXxDTC2BWcPbXL5yPMKXqrONFasYOpl1820YuFuUNUYyhP8jqUSXBInNIF2HfxFzz3a6cjq9Cna1j0BIV5174O8sqBSvHYOoWoBwGTw2mVcvHr0Cr350Ji2tRavRdtYveEXvlESjx4bJDH0JX5/0gvEi0h7UNxgZ/k7z/cqrA6012eyS595cv5LitIKzFPhMx7eYcBnFZDkXzHg9Dbjrrs4dkN1+hRt656AEK+690FeWXDHo8nXv/qyZLCkcfHiqSJ4BPxO9OilvvXQza1r/bWRwxhw4fRkqrxbhLD6sFk5QmEVzKIwrVJQug1nD+4xZtRg/bGqgNtSwYoGnT99N/GboV5xG+zZk4SqRiDREDx3N8oqvsETEwce07/bb0fqV2UM0aZuCAjxqhvueTvq7Y9UvPnVlzvOkfQIABmyyzNKbEf3nuTdR27rOGhvTGz81F1j35q8+0FNaQcm8Vc7h98EhyIzuM4eZMxfMOr6Pn+YNnrJRlZwy5hlqyyrsJEeUlGeroCu67AsDzIpgCKlICmrMevNv4j/DvaG4/ZxH8Jp+xh4Pg/HGKNjH2HT5n218XSZJ43n3wCZBtspwRE9ojPH3dX45L0xP37Hcth5CxPRUDcw6sLnyQUZg66rsMw0qJxGMv0zTujX8Z9Dzmpx7SFt///MqK9+wIZOmTL/NcdsA0rjcFg5ZN2D7aQhyxoUVoCKivUYOrTTnaMvDN+3N+wWfexbAkK89i3vvBzt+9Wsw3sfld/85eyVF0tyE2haERLpJGLhSFDxWpJZkGnV93ejV5/2L512anRi765kaW0m+9gz7OGPP1pxM1ViAE+7o4aQyWRAZD+478iQQTZTBlhptGxef3nbTg0Xx+PGrg2bdnRbtWrrSamkgmjkoMo00YxANxiyVjlkhecBA+CpYP5mfPVhL/HfQG0cVYfPCsfVIfxcH3rlJtb4qed/mLz4h139FdoCBYWtUJHMQFEUGIaGikQZeO0hfnBPmAFNI/DYTlQkV+PY3k1mDL/ysEu7NKh+QCnnspYxbfhfPzEl2gySVB9pk2eWUCHpElzfCS6JxyNRwPbBnAxslgLggsoaJBoBQyTIbc8zXWhKZZ4vn6f4kXghkCz2lP2Cq6/pc+6lZ5C3ct0Pwr7fJiDES6yM3yTw2ntsyPMvzJwSitaD6/MiFzE4jgxGaFBMg3lZaLoMWZbhexJcm0fb+yA0BUmyYGUrkM1swUWXnnDRyKGxV2uCec4KdujN13y0pH7h4ahIUsTiDZE2s0Gyw3A4BNvJgHl2kG8fRAoypnKxIhJPcyHDdXzItDKljm160DUFBBmUla/GSQOav/7QmNZDa2KXeCY3CAjxyg0/5JQVd09Y/+DMDzeOjcbawApy2qugNAwwBUTmQpWG7VYgFg/BtnzYFgOFAVVVkUiVIBTSocn8lbIctr0JAwZ2vnfMFcV31WSSM79nf7l77MzPotFOsM0wqBQNkiL6xA4qfPMgVi5OYPwMjh+N+UElIV6Mg6ef5mLmWDZCqgbbLgfFHnTqGlky6eG2h9fEHvFM7hAQ4pU7vsgJS56Zat70xusLHjWMljAtFZpRgIryLFQ9DEXW4No2ZMUJdliVOx8VIaMydTTPVMqkSuHIprLgZTB4+bSMuR5nn9PmnpuHN767JpP8YC7r9dC9H38dC/HA1XpwXB9apDLTK6QQXF4YxP+fpIV8A+jA8+3KbBS+jFhEh5nehVR2HU4d0P61O65rfUFN7BDP5BYBIV655Y86teaDeezke277+JN4vBM8Igc5u3hBV8oPzIkG08oAzIQR9kFQDs+zoGhRWBaBbRHIihEIlwcCvgEyjCiYQ+F6u1G6ZwHuvPtvp599Aplek0ny87cnxq/7aOXSkiPi8cZw4cB2fDh+BEQxIBFaWfIMflCpiF9bYr4J33UhkRQsi4dXDDzvnJPImzUZXzyTewSEeOWeT+rEop92sPC1V85I6crhMG0DqgEkMxXQ1CjsjAdDi4LAgWlug8tKwbwEfGby8CuoagGiocZwPV46jZ8/aVAUDVnLhsbLpsGCppvYU/4Dnvn7gHD3JiRT00lOn8tOmjJl9vPrfk60KCxoDSZH4br8y6EMWeJj+XDcNFwnAZAEJGkPTjn9sAdOHdj4oapkXq2pXeK5fU9AiNe+Z56TIz7+UvK+999cfbuqtwUjOjySAZHcIKMDL1iRSZfDtctwVI9Wn/bvX39869ZY1LkZKpbuhL5+FY6b9fmG6xYv2nBi2GgNQgvg8nQ5RA4qCplWCppEQKRt6NMnOu6e0a1rfRVn4SrW8ofv/NNW/rzplO07Ej3Ky7JRAkXSFGIVFBo/dzm47XuHdFNnn3Y8WZCTwIVRtSYgxKvWCPO/g40bmX7B8C+zIfUQWEyGzOsg+h7gW1AUB66/HZ6/CbfcfNopA44hn/63GU9bwE4a//CCTyTakthOGLIShu1a0EMSHHMPNC2JVGIFpr16RqTRfynEkf80xQz2FQEhXvuKdA6P88Yn1tnPjlv9lq53hE1cEEqDSjsSsUHIHqSzy/HUM6e1P7oKFaa//5m1HnXNvPW61h6ExuESVllZm/IKQxlYyV8xanSvQecOIO/mMBJhWh4QEOKVB076s028esyi6auWhgeoWivYzIZHfX7qDlk2YZlrccWVx1504UBS5Vitf37KBo9/bOHrkWhHHq+AdDYDQzVAfAfMLEPHTmT2c+Pb9/+z5yX6378JCPHav/1bpdn1G/gBI97BPuT61PYtMEp4qBRkuYJp2jryyT9PqvY6GXD+AlZeURyEWmRsD7oSAnwPksvjs9Zg7sw+1e6zSpMRjQ4YAmIBHTCu/u2J8q+MV1zwXioSOtQBLVBMj19clsEcFQxb/b791OfuGd15RHUx3Ttx10NffP7LLYw2BIMeXLCWfBrEXSXKl+K5L/uo3QnhRRTFjyBQIwJCvGqEbf956OvVrMn1o6f/GjY62yBx1SFZSJIMz9LgOusx+oaOZ5/fP/pOdWf8wRdswONPLJxO5Wbgl6sdPwPCAMlTkc2sxvinezU7pgP5tbr9ivaCwP8QEOJ1gK+FRevZQVdd8+nmsNHJdP2IDtmuvGhtR+DaGzH86laDLvprqNqH6x/MYSffc9fCT2KFbcGoFlznYXDA70Vb1hqMe7KPEK8DfO3VdvpCvGpLMM+f56+Nwy+ZmdL0zhnXMULUcMEcAonF4DnbcO6QFmOvGaw8XN1pTvgHG/H+O+snEaUYtgvIGsB8GzJjSGWWYdyU/rFj65NkdfsV7QUBsfMSa+D/Euh12gymS13TWUsOqxHAcW1olGeR2IMGDcu3v/vS4U2qi+u8q5Yu376toAul0UC8FMnlqSggERnlFUuweI7IXlpdpqL9fxIQOy+xInDh6B8W/7I+1lk3GusWqwgyNfg2gSwBqeRmPPhIz2P6H171HO9z1rGDx4z8allI6wzHVREJheA6vGKPA8/KollLc/PkSR1aCvSCQG0ICPGqDb395NmJU8uufnvypqcpbQY55MG0s9CMCBzTA/EIYvHyHR9O6dCUEB5A8fs/PIngLcMXrynZ0aCFKjWHy1x4jgVNleBYO+H7W3H24MPuGHVB+P4/6kv8XhD4PQJCvMT6wKJNrPGIS+Zsi4QPhg0uXBpMm0HydTBXgaYm0LTlru9Hjjmkz+9dqi5hLHrzLStmLPvBPDYS7gDHUqCFNFjZFCT4iMay2L7jS7z0yrmtDmtFNgn0gkBtCAjxqg29/ejZ0bfunrF4UdkpoVgMri8ja1KoShiEMaiyg/KKNQhF0rhy+HFDD+qK945pTrL/M/1F21ho/Qqc9uBDb70Z0btB0xtDlkJBVgkKfs0IUKgP2/0FB3djSyY+0E0kAtyP1k5dTUWIV12Rz7FxF61gB40Y9fnmWLwtS6VVEo02QjrrgMINUuFEowoqkjsAlCNrb0fHLo02xKKRn8vL7HZbNu1uw5iBcLgpHKcQlgkQxYUs8zN6Lzg7o14aZRU/4dnnTu/QoxP5OcemL8zJQwJCvPLQaX+WyQ88t/bhmdNLb6akNSQlBttyoOk0KBfmOlmEwrzMWQaEMDD4QfZS+CwoyOEzwPMU6Eoj+JCRypSgMEgTnQWlJlxrK/qd2PqZO0c3rna0/p81X9FvfhMQ4pXf/tvr1l9y/Q+L16+lh4PUB5VCYMwNgkt5fnrLyoIQBZKiwXNpUPBCIj5URQpS3/DgVgYjyGiqSD5cPwlFtmBbW9Cylbz6tYm9Ou11g0WHBywBIV4HrOt/e+IrGFMfun7e+o3rtGYybQwCGZIkBY1dnuOLyQCvzsNIIF7BmZiqwrbcIHsqL4ZhWfzrIheychCyBZGC0h3TXv5rc0KIK3ALAnuLgBCvvUVyP+pnDmPyW3eueH/Zj7tPU+SGPvwwBSQwcNGSuG7B5xcVgwJjCnyXVZZA42ERngNN5TnsU0ibG9G5qzLvpUd79alKmMV+hFBMZR8QEOK1DyDn6xCvfFwx7OXnvp5MveaQSQNIUjjYWXlwwP4lXp7DYBgGfNcKzsMMTcXu8vWIFSZw7tBewy8/I/xCvs5f2J3bBIR45bZ/6ty6bdtYaOrH/rWzZiy5J1HuyqquweUH9ZQgFIoE13327NkNTeWFLzKIRTWcenrPO/sPwPguDQgvYy1+BIE/hYAQrz8F6/7Z6YKlrOvS1WV9f91WevTuXWbHivKUIcnMatakwdo2bQ5a2KWrNuvojmTp/jl7MatcIyDEK9c8IuwRBASBKhEQ4lUlTKKRICAI5BoBIV655hFhjyAgCFSJgBCvKmESjQQBQSDXCAjxyjWPCHsEAUGgSgSEeFUJk2gkCAgCuUZAiFeueUTYIwgIAlUiIMSrSphEI0FAEMg1AkK8cs0jwh5BQBCoEgEhXlXCJBoJAoJArhEQ4pVrHhH2CAKCQJUICPGqEibRSBAQBHKNgBCvXPOIsEcQEASqRECIV5UwiUaCgCCQawSEeOWaR4Q9goAgUCUCQryqhEk0EgQEgVwjIMQr1zwi7BEEBIEqERDiVSVMopEgIAjkGgEhXrnmEWGPICAIVImAEK8qYRKNBAFBINcICPHKNY8IewQBQaBKBIR4VQmTaCQICAK5RkCIV655RNgjCAgCVSIgxKtKmEQjQUAQyDUCQrxyzSPCHkFAEKgSgf8DM/oNAKHArPoAAAAASUVORK5CYII=;" vertex="1" parent="nHaoqEoDhKHUos_NXYBT-1">
          <mxGeometry x="210" y="24" width="275.62" height="151" as="geometry" />
        </mxCell>
        <mxCell id="ikpb7p8lZezVHyEl-Faz-6" value="" style="swimlane;startSize=0;" vertex="1" parent="nHaoqEoDhKHUos_NXYBT-1">
          <mxGeometry x="112" y="232" width="175.5" height="101" as="geometry" />
        </mxCell>
        <mxCell id="ikpb7p8lZezVHyEl-Faz-7" value="" style="sketch=0;outlineConnect=0;fontColor=#232F3E;gradientColor=none;fillColor=#01A88D;strokeColor=none;dashed=0;verticalLabelPosition=bottom;verticalAlign=top;align=center;html=1;fontSize=12;fontStyle=0;aspect=fixed;pointerEvents=1;shape=mxgraph.aws4.sagemaker_model;" vertex="1" parent="ikpb7p8lZezVHyEl-Faz-6">
          <mxGeometry x="55.5" y="3" width="62" height="62" as="geometry" />
        </mxCell>
        <mxCell id="ikpb7p8lZezVHyEl-Faz-8" value="&lt;h2&gt;&lt;font style=&quot;font-size: 15px;&quot;&gt;&amp;nbsp;Pre-Trained ML Model&lt;/font&gt;&lt;/h2&gt;" style="text;html=1;align=center;verticalAlign=middle;resizable=0;points=[];autosize=1;strokeColor=none;fillColor=none;" vertex="1" parent="ikpb7p8lZezVHyEl-Faz-6">
          <mxGeometry x="-2.5" y="54" width="178" height="63" as="geometry" />
        </mxCell>
        <mxCell id="ikpb7p8lZezVHyEl-Faz-12" value="" style="endArrow=classic;html=1;rounded=0;textDirection=rtl;entryX=0;entryY=0.5;entryDx=0;entryDy=0;" edge="1" parent="nHaoqEoDhKHUos_NXYBT-1" target="nHaoqEoDhKHUos_NXYBT-28">
          <mxGeometry width="50" height="50" relative="1" as="geometry">
            <mxPoint x="187.99814814814803" y="333" as="sourcePoint" />
            <mxPoint x="397.30000000000007" y="425.5" as="targetPoint" />
            <Array as="points">
              <mxPoint x="190" y="379" />
              <mxPoint x="190" y="444" />
              <mxPoint x="294" y="443" />
            </Array>
          </mxGeometry>
        </mxCell>
      </root>
    </mxGraphModel>
  </diagram>
</mxfile>
